G04 Layer: TopSolderMaskLayer*
G04 EasyEDA v6.4.19.5, 2021-06-29T13:46:12+12:00*
G04 3cc3b40c68de4bce97ec9925422c83c7,12af84a47dbc45c89479b689871b34a7,10*
G04 Gerber Generator version 0.2*
G04 Scale: 100 percent, Rotated: No, Reflected: No *
G04 Dimensions in millimeters *
G04 leading zeros omitted , absolute positions ,4 integer and 5 decimal *
%FSLAX45Y45*%
%MOMM*%

%ADD45C,1.7272*%
%ADD48C,1.8351*%
%ADD49C,4.0259*%
%ADD50C,1.9939*%
%ADD53R,1.6532X0.5532*%
%ADD58C,1.9032*%
%ADD59C,2.1082*%
%ADD60C,3.4032*%

%LPD*%
G36*
X5448Y-1834134D02*
G01*
X5448Y-1173734D01*
X525894Y-1173734D01*
X525894Y-1834134D01*
G37*
G36*
X1453248Y-1832863D02*
G01*
X1453248Y-1172463D01*
X1973694Y-1172463D01*
X1973694Y-1832863D01*
G37*
G36*
X792848Y-1832863D02*
G01*
X792848Y-1172463D01*
X1313294Y-1172463D01*
X1313294Y-1832863D01*
G37*
G36*
X2240648Y-1832863D02*
G01*
X2240648Y-1172463D01*
X2761094Y-1172463D01*
X2761094Y-1832863D01*
G37*
G36*
X2901048Y-1832863D02*
G01*
X2901048Y-1172463D01*
X3421494Y-1172463D01*
X3421494Y-1832863D01*
G37*
G36*
X3575418Y-1768094D02*
G01*
X3575418Y-1247902D01*
X4095610Y-1247902D01*
X4095610Y-1768094D01*
G37*
G36*
X10109060Y-2866897D02*
G01*
X10101948Y-2866389D01*
X10094836Y-2865120D01*
X10087724Y-2863087D01*
X10081120Y-2860039D01*
X10075024Y-2856229D01*
X10069182Y-2851657D01*
X10064102Y-2846578D01*
X10059530Y-2840989D01*
X10055974Y-2834639D01*
X10052926Y-2828036D01*
X10050640Y-2821178D01*
X10049370Y-2814065D01*
X10048862Y-2806700D01*
X10049370Y-2799334D01*
X10050640Y-2792221D01*
X10052926Y-2785363D01*
X10055974Y-2778760D01*
X10059530Y-2772410D01*
X10064102Y-2766821D01*
X10069182Y-2761742D01*
X10075024Y-2757170D01*
X10081120Y-2753360D01*
X10087724Y-2750565D01*
X10094836Y-2748279D01*
X10101948Y-2747010D01*
X10109060Y-2746502D01*
X10116426Y-2747010D01*
X10123538Y-2748279D01*
X10130396Y-2750565D01*
X10137254Y-2753360D01*
X10143350Y-2757170D01*
X10149192Y-2761742D01*
X10154272Y-2766821D01*
X10158590Y-2772410D01*
X10162400Y-2778760D01*
X10165448Y-2785363D01*
X10167480Y-2792221D01*
X10169004Y-2799334D01*
X10169258Y-2806700D01*
X10169004Y-2814065D01*
X10167480Y-2821178D01*
X10165448Y-2828036D01*
X10162400Y-2834639D01*
X10158590Y-2840989D01*
X10154272Y-2846578D01*
X10149192Y-2851657D01*
X10143350Y-2856229D01*
X10137254Y-2860039D01*
X10130396Y-2863087D01*
X10123538Y-2865120D01*
X10116426Y-2866389D01*
G37*
G36*
X4724514Y-199897D02*
G01*
X4717148Y-199389D01*
X4710036Y-198120D01*
X4703178Y-196087D01*
X4696320Y-193039D01*
X4690224Y-189229D01*
X4684382Y-184657D01*
X4679302Y-179578D01*
X4674984Y-173989D01*
X4671174Y-167639D01*
X4668126Y-161036D01*
X4665840Y-154178D01*
X4664570Y-147065D01*
X4664316Y-139700D01*
X4664570Y-132334D01*
X4665840Y-125221D01*
X4668126Y-118363D01*
X4671174Y-111760D01*
X4674984Y-105410D01*
X4679302Y-99821D01*
X4684382Y-94742D01*
X4690224Y-90170D01*
X4696320Y-86360D01*
X4703178Y-83565D01*
X4710036Y-81279D01*
X4717148Y-80010D01*
X4724514Y-79502D01*
X4731626Y-80010D01*
X4738738Y-81279D01*
X4745596Y-83565D01*
X4752454Y-86360D01*
X4758550Y-90170D01*
X4764392Y-94742D01*
X4769472Y-99821D01*
X4773790Y-105410D01*
X4777600Y-111760D01*
X4780648Y-118363D01*
X4782934Y-125221D01*
X4784204Y-132334D01*
X4784458Y-139700D01*
X4784204Y-147065D01*
X4782934Y-154178D01*
X4780648Y-161036D01*
X4777600Y-167639D01*
X4773790Y-173989D01*
X4769472Y-179578D01*
X4764392Y-184657D01*
X4758550Y-189229D01*
X4752454Y-193039D01*
X4745596Y-196087D01*
X4738738Y-198120D01*
X4731626Y-199389D01*
G37*
G36*
X15214714Y-250697D02*
G01*
X15207348Y-250189D01*
X15200236Y-248920D01*
X15193378Y-246887D01*
X15186520Y-243839D01*
X15180424Y-240029D01*
X15174582Y-235457D01*
X15169502Y-230378D01*
X15165184Y-224789D01*
X15161374Y-218439D01*
X15158326Y-211836D01*
X15156040Y-204978D01*
X15154770Y-197865D01*
X15154516Y-190500D01*
X15154770Y-183134D01*
X15156040Y-176021D01*
X15158326Y-169163D01*
X15161374Y-162560D01*
X15165184Y-156210D01*
X15169502Y-150621D01*
X15174582Y-145542D01*
X15180424Y-140970D01*
X15186520Y-137160D01*
X15193378Y-134365D01*
X15200236Y-132079D01*
X15207348Y-130810D01*
X15214714Y-130302D01*
X15221826Y-130810D01*
X15228938Y-132079D01*
X15235796Y-134365D01*
X15242654Y-137160D01*
X15248750Y-140970D01*
X15254592Y-145542D01*
X15259672Y-150621D01*
X15263990Y-156210D01*
X15267800Y-162560D01*
X15270848Y-169163D01*
X15273134Y-176021D01*
X15274404Y-183134D01*
X15274658Y-190500D01*
X15274404Y-197865D01*
X15273134Y-204978D01*
X15270848Y-211836D01*
X15267800Y-218439D01*
X15263990Y-224789D01*
X15259672Y-230378D01*
X15254592Y-235457D01*
X15248750Y-240029D01*
X15242654Y-243839D01*
X15235796Y-246887D01*
X15228938Y-248920D01*
X15221826Y-250189D01*
G37*
G36*
X3670414Y-2917697D02*
G01*
X3663048Y-2917189D01*
X3655936Y-2915920D01*
X3649078Y-2913887D01*
X3642220Y-2910839D01*
X3636124Y-2907029D01*
X3630282Y-2902457D01*
X3625202Y-2897378D01*
X3620884Y-2891789D01*
X3617074Y-2885439D01*
X3614026Y-2878836D01*
X3611740Y-2871978D01*
X3610470Y-2864865D01*
X3610216Y-2857500D01*
X3610470Y-2850134D01*
X3611740Y-2843021D01*
X3614026Y-2836163D01*
X3617074Y-2829560D01*
X3620884Y-2823210D01*
X3625202Y-2817621D01*
X3630282Y-2812542D01*
X3636124Y-2807970D01*
X3642220Y-2804160D01*
X3649078Y-2801365D01*
X3655936Y-2799079D01*
X3663048Y-2797810D01*
X3670414Y-2797302D01*
X3677526Y-2797810D01*
X3684638Y-2799079D01*
X3691496Y-2801365D01*
X3698354Y-2804160D01*
X3704450Y-2807970D01*
X3710292Y-2812542D01*
X3715372Y-2817621D01*
X3719690Y-2823210D01*
X3723500Y-2829560D01*
X3726548Y-2836163D01*
X3728834Y-2843021D01*
X3730104Y-2850134D01*
X3730358Y-2857500D01*
X3730104Y-2864865D01*
X3728834Y-2871978D01*
X3726548Y-2878836D01*
X3723500Y-2885439D01*
X3719690Y-2891789D01*
X3715372Y-2897378D01*
X3710292Y-2902457D01*
X3704450Y-2907029D01*
X3698354Y-2910839D01*
X3691496Y-2913887D01*
X3684638Y-2915920D01*
X3677526Y-2917189D01*
G37*
G36*
X9613760Y-199897D02*
G01*
X9606648Y-199389D01*
X9599536Y-198120D01*
X9592424Y-196087D01*
X9585820Y-193039D01*
X9579724Y-189229D01*
X9573882Y-184657D01*
X9568802Y-179578D01*
X9564230Y-173989D01*
X9560674Y-167639D01*
X9557626Y-161036D01*
X9555340Y-154178D01*
X9554070Y-147065D01*
X9553562Y-139700D01*
X9554070Y-132334D01*
X9555340Y-125221D01*
X9557626Y-118363D01*
X9560674Y-111760D01*
X9564230Y-105410D01*
X9568802Y-99821D01*
X9573882Y-94742D01*
X9579724Y-90170D01*
X9585820Y-86360D01*
X9592424Y-83565D01*
X9599536Y-81279D01*
X9606648Y-80010D01*
X9613760Y-79502D01*
X9621126Y-80010D01*
X9628238Y-81279D01*
X9635096Y-83565D01*
X9641700Y-86360D01*
X9648050Y-90170D01*
X9653638Y-94742D01*
X9658972Y-99821D01*
X9663290Y-105410D01*
X9667100Y-111760D01*
X9670148Y-118363D01*
X9672180Y-125221D01*
X9673704Y-132334D01*
X9673958Y-139700D01*
X9673704Y-147065D01*
X9672180Y-154178D01*
X9670148Y-161036D01*
X9667100Y-167639D01*
X9663290Y-173989D01*
X9658972Y-179578D01*
X9653638Y-184657D01*
X9648050Y-189229D01*
X9641954Y-193039D01*
X9635096Y-196087D01*
X9628238Y-198120D01*
X9621126Y-199389D01*
G37*
D45*
G01*
X6438912Y-2794000D03*
G36*
X118732Y-2979928D02*
G01*
X118732Y-2709671D01*
X389242Y-2709671D01*
X389242Y-2979928D01*
G37*
G36*
X1287132Y-262128D02*
G01*
X1287132Y8128D01*
X1557642Y8128D01*
X1557642Y-262128D01*
G37*
G36*
X1274432Y-2992628D02*
G01*
X1274432Y-2722371D01*
X1544942Y-2722371D01*
X1544942Y-2992628D01*
G37*
G36*
X2722232Y-2992628D02*
G01*
X2722232Y-2722371D01*
X2992742Y-2722371D01*
X2992742Y-2992628D01*
G37*
G36*
X2734932Y-262128D02*
G01*
X2734932Y8128D01*
X3005442Y8128D01*
X3005442Y-262128D01*
G37*
G36*
X3774808Y-3005073D02*
G01*
X3774808Y-2734818D01*
X4045064Y-2734818D01*
X4045064Y-3005073D01*
G37*
G36*
X4374756Y-3005073D02*
G01*
X4374756Y-2734818D01*
X4645266Y-2734818D01*
X4645266Y-3005073D01*
G37*
G36*
X4974958Y-3005073D02*
G01*
X4974958Y-2734818D01*
X5245214Y-2734818D01*
X5245214Y-3005073D01*
G37*
G36*
X4281284Y-262128D02*
G01*
X4281284Y8128D01*
X4551540Y8128D01*
X4551540Y-262128D01*
G37*
G36*
X4881232Y-262128D02*
G01*
X4881232Y8128D01*
X5151742Y8128D01*
X5151742Y-262128D01*
G37*
G36*
X3586848Y-270763D02*
G01*
X3586848Y-507D01*
X3857358Y-507D01*
X3857358Y-270763D01*
G37*
G36*
X3878948Y-270763D02*
G01*
X3878948Y-507D01*
X4149458Y-507D01*
X4149458Y-270763D01*
G37*
G36*
X4075798Y-3003042D02*
G01*
X4075798Y-2732786D01*
X4346054Y-2732786D01*
X4346054Y-3003042D01*
G37*
G36*
X4672698Y-3003042D02*
G01*
X4672698Y-2732786D01*
X4942954Y-2732786D01*
X4942954Y-3003042D01*
G37*
G36*
X118732Y-274828D02*
G01*
X118732Y-4571D01*
X389242Y-4571D01*
X389242Y-274828D01*
G37*
G01*
X6883412Y-2794000D03*
G36*
X14030312Y-586994D02*
G01*
X14030312Y-403605D01*
X14213700Y-403605D01*
X14213700Y-586994D01*
G37*
D48*
G01*
X14122006Y-241300D03*
D49*
G01*
X5359412Y-2070100D03*
G01*
X5359412Y-292100D03*
G01*
X9931412Y-292100D03*
G01*
X9931412Y-2070100D03*
D50*
G01*
X8534412Y-165100D03*
G01*
X8280412Y-165100D03*
G01*
X8026412Y-165100D03*
G01*
X7772412Y-165100D03*
G01*
X7518412Y-165100D03*
G01*
X7264412Y-165100D03*
G01*
X7010412Y-165100D03*
G01*
X6756412Y-165100D03*
G01*
X6502412Y-165100D03*
G01*
X6248412Y-165100D03*
G01*
X5994412Y-165100D03*
G01*
X5740412Y-165100D03*
G01*
X8534412Y-2197100D03*
G01*
X8280412Y-2197100D03*
G01*
X8026412Y-2197100D03*
G01*
X7772412Y-2197100D03*
G01*
X7518412Y-2197100D03*
G01*
X7264412Y-2197100D03*
G01*
X7010412Y-2197100D03*
G01*
X6756412Y-2197100D03*
G01*
X6502412Y-2197100D03*
G01*
X6248412Y-2197100D03*
G01*
X5994412Y-2197100D03*
G01*
X5740412Y-2197100D03*
G01*
X8788412Y-2197100D03*
G01*
X9042412Y-2197100D03*
G01*
X9296412Y-2197100D03*
G01*
X9550412Y-2197100D03*
G36*
X7197966Y-1652778D02*
G01*
X7197966Y-1522221D01*
X7318362Y-1522221D01*
X7318362Y-1652778D01*
G37*
G36*
X7058012Y-1652778D02*
G01*
X7058012Y-1522221D01*
X7178408Y-1522221D01*
X7178408Y-1652778D01*
G37*
G36*
X8188566Y-1640078D02*
G01*
X8188566Y-1509521D01*
X8308962Y-1509521D01*
X8308962Y-1640078D01*
G37*
G36*
X8048612Y-1640078D02*
G01*
X8048612Y-1509521D01*
X8169008Y-1509521D01*
X8169008Y-1640078D01*
G37*
G36*
X7007720Y-1426971D02*
G01*
X7007720Y-1326642D01*
X7079094Y-1326642D01*
X7079094Y-1426971D01*
G37*
G36*
X7101700Y-1426971D02*
G01*
X7101700Y-1326642D01*
X7173074Y-1326642D01*
X7173074Y-1426971D01*
G37*
G36*
X7195680Y-1426971D02*
G01*
X7195680Y-1326642D01*
X7267054Y-1326642D01*
X7267054Y-1426971D01*
G37*
G36*
X7195680Y-1137412D02*
G01*
X7195680Y-1037081D01*
X7267054Y-1037081D01*
X7267054Y-1137412D01*
G37*
G36*
X7101700Y-1137412D02*
G01*
X7101700Y-1037081D01*
X7173074Y-1037081D01*
X7173074Y-1137412D01*
G37*
G36*
X7007720Y-1137412D02*
G01*
X7007720Y-1037081D01*
X7079094Y-1037081D01*
X7079094Y-1137412D01*
G37*
G36*
X6772262Y-400050D02*
G01*
X6772262Y-344678D01*
X6937616Y-344678D01*
X6937616Y-400050D01*
G37*
G36*
X6772262Y-465073D02*
G01*
X6772262Y-409702D01*
X6937616Y-409702D01*
X6937616Y-465073D01*
G37*
D53*
G01*
X6854913Y-502386D03*
G01*
X6854913Y-567410D03*
G36*
X7337158Y-595121D02*
G01*
X7337158Y-539750D01*
X7502512Y-539750D01*
X7502512Y-595121D01*
G37*
G36*
X7337158Y-530097D02*
G01*
X7337158Y-474726D01*
X7502512Y-474726D01*
X7502512Y-530097D01*
G37*
G36*
X7337158Y-465073D02*
G01*
X7337158Y-409702D01*
X7502512Y-409702D01*
X7502512Y-465073D01*
G37*
G36*
X7337158Y-400050D02*
G01*
X7337158Y-344678D01*
X7502512Y-344678D01*
X7502512Y-400050D01*
G37*
G36*
X7985620Y-1414271D02*
G01*
X7985620Y-1313942D01*
X8056994Y-1313942D01*
X8056994Y-1414271D01*
G37*
G36*
X8079600Y-1414271D02*
G01*
X8079600Y-1313942D01*
X8150974Y-1313942D01*
X8150974Y-1414271D01*
G37*
G36*
X8173580Y-1414271D02*
G01*
X8173580Y-1313942D01*
X8244954Y-1313942D01*
X8244954Y-1414271D01*
G37*
G36*
X8173580Y-1124712D02*
G01*
X8173580Y-1024381D01*
X8244954Y-1024381D01*
X8244954Y-1124712D01*
G37*
G36*
X8079600Y-1124712D02*
G01*
X8079600Y-1024381D01*
X8150974Y-1024381D01*
X8150974Y-1124712D01*
G37*
G36*
X7985620Y-1124712D02*
G01*
X7985620Y-1024381D01*
X8056994Y-1024381D01*
X8056994Y-1124712D01*
G37*
G36*
X7712062Y-400050D02*
G01*
X7712062Y-344678D01*
X7877416Y-344678D01*
X7877416Y-400050D01*
G37*
G36*
X7712062Y-465073D02*
G01*
X7712062Y-409702D01*
X7877416Y-409702D01*
X7877416Y-465073D01*
G37*
G01*
X7794713Y-502386D03*
G01*
X7794713Y-567410D03*
G36*
X8276958Y-595121D02*
G01*
X8276958Y-539750D01*
X8442312Y-539750D01*
X8442312Y-595121D01*
G37*
G36*
X8276958Y-530097D02*
G01*
X8276958Y-474726D01*
X8442312Y-474726D01*
X8442312Y-530097D01*
G37*
G36*
X8276958Y-465073D02*
G01*
X8276958Y-409702D01*
X8442312Y-409702D01*
X8442312Y-465073D01*
G37*
G36*
X8276958Y-400050D02*
G01*
X8276958Y-344678D01*
X8442312Y-344678D01*
X8442312Y-400050D01*
G37*
G36*
X6855066Y-1652778D02*
G01*
X6855066Y-1522221D01*
X6975462Y-1522221D01*
X6975462Y-1652778D01*
G37*
G36*
X6715112Y-1652778D02*
G01*
X6715112Y-1522221D01*
X6835508Y-1522221D01*
X6835508Y-1652778D01*
G37*
G36*
X7072236Y-802894D02*
G01*
X7072236Y-682752D01*
X7202538Y-682752D01*
X7202538Y-802894D01*
G37*
G36*
X7072236Y-942847D02*
G01*
X7072236Y-822705D01*
X7202538Y-822705D01*
X7202538Y-942847D01*
G37*
G36*
X7820266Y-1627378D02*
G01*
X7820266Y-1496821D01*
X7940662Y-1496821D01*
X7940662Y-1627378D01*
G37*
G36*
X7680312Y-1627378D02*
G01*
X7680312Y-1496821D01*
X7800708Y-1496821D01*
X7800708Y-1627378D01*
G37*
G36*
X8113636Y-802894D02*
G01*
X8113636Y-682752D01*
X8243938Y-682752D01*
X8243938Y-802894D01*
G37*
G36*
X8113636Y-942847D02*
G01*
X8113636Y-822705D01*
X8243938Y-822705D01*
X8243938Y-942847D01*
G37*
D45*
G01*
X14376412Y-317500D03*
G01*
X14376412Y-647700D03*
G01*
X5880112Y-2794000D03*
G01*
X4330712Y-558800D03*
G36*
X14421980Y-913637D02*
G01*
X14421980Y-793242D01*
X14902294Y-793242D01*
X14902294Y-913637D01*
G37*
G36*
X14421980Y-1111757D02*
G01*
X14421980Y-991362D01*
X14902294Y-991362D01*
X14902294Y-1111757D01*
G37*
G36*
X15002624Y-702310D02*
G01*
X15002624Y-521970D01*
X15363050Y-521970D01*
X15363050Y-702310D01*
G37*
G36*
X15002624Y-1383029D02*
G01*
X15002624Y-1202689D01*
X15363050Y-1202689D01*
X15363050Y-1383029D01*
G37*
G36*
X14871814Y-2279650D02*
G01*
X14871814Y-2089150D01*
X15049614Y-2089150D01*
X15049614Y-2279650D01*
G37*
D58*
G01*
X14960612Y-2438400D03*
G36*
X6080620Y-1414271D02*
G01*
X6080620Y-1313942D01*
X6151994Y-1313942D01*
X6151994Y-1414271D01*
G37*
G36*
X6174600Y-1414271D02*
G01*
X6174600Y-1313942D01*
X6245974Y-1313942D01*
X6245974Y-1414271D01*
G37*
G36*
X6268580Y-1414271D02*
G01*
X6268580Y-1313942D01*
X6339954Y-1313942D01*
X6339954Y-1414271D01*
G37*
G36*
X6268580Y-1124712D02*
G01*
X6268580Y-1024381D01*
X6339954Y-1024381D01*
X6339954Y-1124712D01*
G37*
G36*
X6174600Y-1124712D02*
G01*
X6174600Y-1024381D01*
X6245974Y-1024381D01*
X6245974Y-1124712D01*
G37*
G36*
X6080620Y-1124712D02*
G01*
X6080620Y-1024381D01*
X6151994Y-1024381D01*
X6151994Y-1124712D01*
G37*
D59*
G01*
X10426712Y-431774D03*
G01*
X10426712Y-177774D03*
G01*
X10680712Y-431774D03*
G01*
X10680712Y-177774D03*
G01*
X10934712Y-431774D03*
G01*
X10934712Y-177774D03*
G01*
X11188712Y-431774D03*
G01*
X11188712Y-177774D03*
G01*
X11442712Y-431774D03*
G01*
X11442712Y-177774D03*
G36*
X6270866Y-1652778D02*
G01*
X6270866Y-1522221D01*
X6391262Y-1522221D01*
X6391262Y-1652778D01*
G37*
G36*
X6130912Y-1652778D02*
G01*
X6130912Y-1522221D01*
X6251308Y-1522221D01*
X6251308Y-1652778D01*
G37*
G36*
X5902566Y-1652778D02*
G01*
X5902566Y-1522221D01*
X6022962Y-1522221D01*
X6022962Y-1652778D01*
G37*
G36*
X5762612Y-1652778D02*
G01*
X5762612Y-1522221D01*
X5883008Y-1522221D01*
X5883008Y-1652778D01*
G37*
G36*
X6145136Y-840994D02*
G01*
X6145136Y-720852D01*
X6275438Y-720852D01*
X6275438Y-840994D01*
G37*
G36*
X6145136Y-980947D02*
G01*
X6145136Y-860805D01*
X6275438Y-860805D01*
X6275438Y-980947D01*
G37*
G36*
X5845162Y-412750D02*
G01*
X5845162Y-357378D01*
X6010516Y-357378D01*
X6010516Y-412750D01*
G37*
G36*
X5845162Y-477773D02*
G01*
X5845162Y-422402D01*
X6010516Y-422402D01*
X6010516Y-477773D01*
G37*
D53*
G01*
X5927813Y-515086D03*
G01*
X5927813Y-580110D03*
G36*
X6410058Y-607821D02*
G01*
X6410058Y-552450D01*
X6575412Y-552450D01*
X6575412Y-607821D01*
G37*
G36*
X6410058Y-542797D02*
G01*
X6410058Y-487426D01*
X6575412Y-487426D01*
X6575412Y-542797D01*
G37*
G36*
X6410058Y-477773D02*
G01*
X6410058Y-422402D01*
X6575412Y-422402D01*
X6575412Y-477773D01*
G37*
G36*
X6410058Y-412750D02*
G01*
X6410058Y-357378D01*
X6575412Y-357378D01*
X6575412Y-412750D01*
G37*
D60*
G01*
X15113012Y-2755900D03*
G01*
X15113012Y-977900D03*
G01*
X10528312Y-2755900D03*
G01*
X10528312Y-977900D03*
D50*
G01*
X12446012Y-2882900D03*
G01*
X12700012Y-2882900D03*
G01*
X14732012Y-2882900D03*
G01*
X14478012Y-2882900D03*
G01*
X14224012Y-2882900D03*
G01*
X13970012Y-2882900D03*
G01*
X10922012Y-2882900D03*
G01*
X11176012Y-2882900D03*
G01*
X11430012Y-2882900D03*
G01*
X11684012Y-2882900D03*
G01*
X11938012Y-2882900D03*
G01*
X12192012Y-2882900D03*
G01*
X12954012Y-2882900D03*
G01*
X13208012Y-2882900D03*
G01*
X13462012Y-2882900D03*
G01*
X13716012Y-2882900D03*
G01*
X10922012Y-850900D03*
G01*
X11176012Y-850900D03*
G01*
X11430012Y-850900D03*
G01*
X11684012Y-850900D03*
G01*
X11938012Y-850900D03*
G01*
X12192012Y-850900D03*
G01*
X12446012Y-850900D03*
G01*
X12700012Y-850900D03*
G01*
X12954012Y-850900D03*
G01*
X13208012Y-850900D03*
G01*
X13462012Y-850900D03*
G01*
X13716012Y-850900D03*
M02*
