G04 Layer: TopPasteMaskLayer*
G04 EasyEDA v6.4.19.5, 2021-06-29T13:46:12+12:00*
G04 3cc3b40c68de4bce97ec9925422c83c7,12af84a47dbc45c89479b689871b34a7,10*
G04 Gerber Generator version 0.2*
G04 Scale: 100 percent, Rotated: No, Reflected: No *
G04 Dimensions in millimeters *
G04 leading zeros omitted , absolute positions ,4 integer and 5 decimal *
%FSLAX45Y45*%
%MOMM*%

%ADD16R,5.0000X6.4000*%
%ADD17R,5.0000X5.0000*%
%ADD18C,1.5240*%
%ADD19R,1.0000X1.1000*%
%ADD20R,0.5105X0.8001*%
%ADD21R,1.4500X0.3500*%
%ADD22R,1.1000X1.0000*%
%ADD23R,4.5999X1.0008*%

%LPD*%
D16*
G01*
X265671Y-1503984D03*
G01*
X1713471Y-1502587D03*
G01*
X1053071Y-1502587D03*
G01*
X2500871Y-1502587D03*
G01*
X3161271Y-1502587D03*
D17*
G01*
X3835463Y-1507997D03*
G36*
X10059162Y-2806700D02*
G01*
X10059543Y-2800680D01*
X10060635Y-2794736D01*
X10062413Y-2788970D01*
X10064902Y-2783459D01*
X10068026Y-2778302D01*
X10071735Y-2773553D01*
X10076002Y-2769285D01*
X10080777Y-2765552D01*
X10085933Y-2762427D01*
X10091445Y-2759963D01*
X10097211Y-2758160D01*
X10103154Y-2757068D01*
X10109174Y-2756712D01*
X10115194Y-2757068D01*
X10121137Y-2758160D01*
X10126903Y-2759963D01*
X10132415Y-2762427D01*
X10137571Y-2765552D01*
X10142321Y-2769285D01*
X10146588Y-2773553D01*
X10150322Y-2778302D01*
X10153446Y-2783459D01*
X10155910Y-2788970D01*
X10157714Y-2794736D01*
X10158806Y-2800680D01*
X10159161Y-2806700D01*
X10158806Y-2812719D01*
X10157714Y-2818663D01*
X10155910Y-2824429D01*
X10153446Y-2829940D01*
X10150322Y-2835097D01*
X10146588Y-2839846D01*
X10142321Y-2844139D01*
X10137571Y-2847847D01*
X10132415Y-2850972D01*
X10126903Y-2853461D01*
X10121137Y-2855239D01*
X10115194Y-2856331D01*
X10109174Y-2856712D01*
X10103154Y-2856331D01*
X10097211Y-2855239D01*
X10091445Y-2853461D01*
X10085933Y-2850972D01*
X10080777Y-2847847D01*
X10076002Y-2844139D01*
X10071735Y-2839846D01*
X10068026Y-2835097D01*
X10064902Y-2829940D01*
X10062413Y-2824429D01*
X10060635Y-2818663D01*
X10059543Y-2812719D01*
G37*
G36*
X4674374Y-139700D02*
G01*
X4674755Y-133680D01*
X4675847Y-127736D01*
X4677625Y-121970D01*
X4680115Y-116459D01*
X4683239Y-111302D01*
X4686947Y-106553D01*
X4691214Y-102285D01*
X4695990Y-98552D01*
X4701146Y-95427D01*
X4706658Y-92963D01*
X4712423Y-91160D01*
X4718367Y-90068D01*
X4724387Y-89712D01*
X4730407Y-90068D01*
X4736350Y-91160D01*
X4742116Y-92963D01*
X4747628Y-95427D01*
X4752784Y-98552D01*
X4757534Y-102285D01*
X4761801Y-106553D01*
X4765535Y-111302D01*
X4768659Y-116459D01*
X4771123Y-121970D01*
X4772926Y-127736D01*
X4774018Y-133680D01*
X4774374Y-139700D01*
X4774018Y-145719D01*
X4772926Y-151663D01*
X4771123Y-157429D01*
X4768659Y-162940D01*
X4765535Y-168097D01*
X4761801Y-172846D01*
X4757534Y-177139D01*
X4752784Y-180847D01*
X4747628Y-183972D01*
X4742116Y-186461D01*
X4736350Y-188239D01*
X4730407Y-189331D01*
X4724387Y-189712D01*
X4718367Y-189331D01*
X4712423Y-188239D01*
X4706658Y-186461D01*
X4701146Y-183972D01*
X4695990Y-180847D01*
X4691214Y-177139D01*
X4686947Y-172846D01*
X4683239Y-168097D01*
X4680115Y-162940D01*
X4677625Y-157429D01*
X4675847Y-151663D01*
X4674755Y-145719D01*
G37*
G36*
X15164574Y-190500D02*
G01*
X15164955Y-184480D01*
X15166047Y-178536D01*
X15167825Y-172770D01*
X15170315Y-167259D01*
X15173439Y-162102D01*
X15177147Y-157353D01*
X15181414Y-153085D01*
X15186190Y-149352D01*
X15191346Y-146227D01*
X15196858Y-143763D01*
X15202623Y-141960D01*
X15208567Y-140868D01*
X15214587Y-140512D01*
X15220607Y-140868D01*
X15226550Y-141960D01*
X15232316Y-143763D01*
X15237828Y-146227D01*
X15242984Y-149352D01*
X15247734Y-153085D01*
X15252001Y-157353D01*
X15255735Y-162102D01*
X15258859Y-167259D01*
X15261323Y-172770D01*
X15263126Y-178536D01*
X15264218Y-184480D01*
X15264574Y-190500D01*
X15264218Y-196519D01*
X15263126Y-202463D01*
X15261323Y-208229D01*
X15258859Y-213740D01*
X15255735Y-218897D01*
X15252001Y-223646D01*
X15247734Y-227939D01*
X15242984Y-231647D01*
X15237828Y-234772D01*
X15232316Y-237261D01*
X15226550Y-239039D01*
X15220607Y-240131D01*
X15214587Y-240512D01*
X15208567Y-240131D01*
X15202623Y-239039D01*
X15196858Y-237261D01*
X15191346Y-234772D01*
X15186190Y-231647D01*
X15181414Y-227939D01*
X15177147Y-223646D01*
X15173439Y-218897D01*
X15170315Y-213740D01*
X15167825Y-208229D01*
X15166047Y-202463D01*
X15164955Y-196519D01*
G37*
G36*
X3620274Y-2857500D02*
G01*
X3620655Y-2851480D01*
X3621747Y-2845536D01*
X3623525Y-2839770D01*
X3626015Y-2834259D01*
X3629139Y-2829102D01*
X3632847Y-2824353D01*
X3637114Y-2820085D01*
X3641890Y-2816352D01*
X3647046Y-2813227D01*
X3652558Y-2810763D01*
X3658323Y-2808960D01*
X3664267Y-2807868D01*
X3670287Y-2807512D01*
X3676307Y-2807868D01*
X3682250Y-2808960D01*
X3688016Y-2810763D01*
X3693528Y-2813227D01*
X3698684Y-2816352D01*
X3703434Y-2820085D01*
X3707701Y-2824353D01*
X3711435Y-2829102D01*
X3714559Y-2834259D01*
X3717023Y-2839770D01*
X3718826Y-2845536D01*
X3719918Y-2851480D01*
X3720274Y-2857500D01*
X3719918Y-2863519D01*
X3718826Y-2869463D01*
X3717023Y-2875229D01*
X3714559Y-2880740D01*
X3711435Y-2885897D01*
X3707701Y-2890646D01*
X3703434Y-2894939D01*
X3698684Y-2898647D01*
X3693528Y-2901772D01*
X3688016Y-2904261D01*
X3682250Y-2906039D01*
X3676307Y-2907131D01*
X3670287Y-2907512D01*
X3664267Y-2907131D01*
X3658323Y-2906039D01*
X3652558Y-2904261D01*
X3647046Y-2901772D01*
X3641890Y-2898647D01*
X3637114Y-2894939D01*
X3632847Y-2890646D01*
X3629139Y-2885897D01*
X3626015Y-2880740D01*
X3623525Y-2875229D01*
X3621747Y-2869463D01*
X3620655Y-2863519D01*
G37*
G36*
X9563849Y-139700D02*
G01*
X9564230Y-133680D01*
X9565322Y-127736D01*
X9567100Y-121970D01*
X9569589Y-116459D01*
X9572713Y-111302D01*
X9576422Y-106553D01*
X9580689Y-102285D01*
X9585464Y-98552D01*
X9590620Y-95427D01*
X9596132Y-92963D01*
X9601898Y-91160D01*
X9607842Y-90068D01*
X9613861Y-89712D01*
X9619881Y-90068D01*
X9625825Y-91160D01*
X9631591Y-92963D01*
X9637102Y-95427D01*
X9642259Y-98552D01*
X9647008Y-102285D01*
X9651276Y-106553D01*
X9655009Y-111302D01*
X9658134Y-116459D01*
X9660597Y-121970D01*
X9662401Y-127736D01*
X9663493Y-133680D01*
X9663849Y-139700D01*
X9663493Y-145719D01*
X9662401Y-151663D01*
X9660597Y-157429D01*
X9658134Y-162940D01*
X9655009Y-168097D01*
X9651276Y-172846D01*
X9647008Y-177139D01*
X9642259Y-180847D01*
X9637102Y-183972D01*
X9631591Y-186461D01*
X9625825Y-188239D01*
X9619881Y-189331D01*
X9613861Y-189712D01*
X9607842Y-189331D01*
X9601898Y-188239D01*
X9596132Y-186461D01*
X9590620Y-183972D01*
X9585464Y-180847D01*
X9580689Y-177139D01*
X9576422Y-172846D01*
X9572713Y-168097D01*
X9569589Y-162940D01*
X9567100Y-157429D01*
X9565322Y-151663D01*
X9564230Y-145719D01*
G37*
D18*
G01*
X6438912Y-2794000D03*
G01*
X6883412Y-2794000D03*
D19*
G01*
X7258215Y-1587500D03*
G01*
X7118210Y-1587500D03*
G01*
X8248815Y-1574800D03*
G01*
X8108810Y-1574800D03*
D20*
G01*
X7043432Y-1376679D03*
G01*
X7137387Y-1376679D03*
G01*
X7231392Y-1376679D03*
G01*
X7231392Y-1087120D03*
G01*
X7137387Y-1087120D03*
G01*
X7043432Y-1087120D03*
D21*
G01*
X6854913Y-372389D03*
G01*
X6854913Y-437413D03*
G01*
X6854913Y-502386D03*
G01*
X6854913Y-567410D03*
G01*
X7419911Y-567410D03*
G01*
X7419911Y-502386D03*
G01*
X7419911Y-437413D03*
G01*
X7419911Y-372389D03*
D20*
G01*
X8021332Y-1363979D03*
G01*
X8115287Y-1363979D03*
G01*
X8209292Y-1363979D03*
G01*
X8209292Y-1074420D03*
G01*
X8115287Y-1074420D03*
G01*
X8021332Y-1074420D03*
D21*
G01*
X7794713Y-372389D03*
G01*
X7794713Y-437413D03*
G01*
X7794713Y-502386D03*
G01*
X7794713Y-567410D03*
G01*
X8359711Y-567410D03*
G01*
X8359711Y-502386D03*
G01*
X8359711Y-437413D03*
G01*
X8359711Y-372389D03*
D19*
G01*
X6915315Y-1587500D03*
G01*
X6775310Y-1587500D03*
D22*
G01*
X7137387Y-742797D03*
G01*
X7137387Y-882802D03*
D19*
G01*
X7880515Y-1562100D03*
G01*
X7740510Y-1562100D03*
D22*
G01*
X8178787Y-742797D03*
G01*
X8178787Y-882802D03*
D18*
G01*
X14376412Y-317500D03*
G01*
X14376412Y-647700D03*
G01*
X5880112Y-2794000D03*
G01*
X4330712Y-558800D03*
D23*
G01*
X14662137Y-853439D03*
G01*
X14662137Y-1051560D03*
G36*
X15012796Y-532129D02*
G01*
X15352903Y-532129D01*
X15352903Y-692150D01*
X15012796Y-692150D01*
G37*
G36*
X15012796Y-1212850D02*
G01*
X15352903Y-1212850D01*
X15352903Y-1372870D01*
X15012796Y-1372870D01*
G37*
D20*
G01*
X6116332Y-1363979D03*
G01*
X6210287Y-1363979D03*
G01*
X6304292Y-1363979D03*
G01*
X6304292Y-1074420D03*
G01*
X6210287Y-1074420D03*
G01*
X6116332Y-1074420D03*
D19*
G01*
X6331115Y-1587500D03*
G01*
X6191110Y-1587500D03*
G01*
X5962815Y-1587500D03*
G01*
X5822810Y-1587500D03*
D22*
G01*
X6210287Y-780897D03*
G01*
X6210287Y-920902D03*
D21*
G01*
X5927813Y-385089D03*
G01*
X5927813Y-450113D03*
G01*
X5927813Y-515086D03*
G01*
X5927813Y-580110D03*
G01*
X6492811Y-580110D03*
G01*
X6492811Y-515086D03*
G01*
X6492811Y-450113D03*
G01*
X6492786Y-385089D03*
M02*
