M48
METRIC,LZ,000.000
;FILE_FORMAT=3:3
;TYPE=PLATED
;Layer: Drill PTH
;EasyEDA v6.4.19.5, 2021-06-29T13:46:12+12:00
;3cc3b40c68de4bce97ec9925422c83c7,12af84a47dbc45c89479b689871b34a7,10
;Gerber Generator version 0.2
;Holesize 1 = 0.305 mm
T01C0.305
;Holesize 2 = 0.915 mm
T02C0.915
;Holesize 3 = 1.000 mm
T03C1.000
;Holesize 4 = 1.016 mm
T04C1.016
;Holesize 5 = 1.021 mm
T05C1.021
;Holesize 6 = 1.052 mm
T06C1.052
;Holesize 7 = 1.101 mm
T07C1.101
;Holesize 8 = 2.501 mm
T08C2.501
;Holesize 9 = 2.551 mm
T09C2.551
%
G05
G90
T01
X085471Y-015748
X066294Y-011557
X041148Y-005600
X037719Y-009525
X050165Y-018288
X050165Y-013843
X040386Y-008636
X118110Y-009398
X063881Y-010160
X058039Y-006350
X073279Y-010160
X067183Y-006350
X076327Y-006350
X083439Y-010033
X056008Y-014732
X056008Y-007620
X057404Y-014732
X057404Y-007620
X036386Y-004892
X045207Y-005041
X045207Y-006946
X047112Y-006946
X047112Y-008851
X049017Y-010756
X049017Y-012661
X050922Y-012661
X052827Y-008851
X054732Y-008851
X054732Y-014566
X058542Y-008851
X064101Y-006931
X064101Y-008836
X066006Y-014551
X067911Y-008836
X067911Y-010741
X067911Y-012646
X072757Y-006797
X072757Y-008702
X074662Y-006797
X074662Y-008702
X074662Y-010607
X074662Y-012512
X074662Y-014417
X076567Y-008702
X076567Y-010607
X076567Y-012512
X084187Y-006797
X084187Y-008702
X084187Y-012512
X086092Y-006797
X086092Y-008702
X086092Y-010607
X086092Y-012512
X086092Y-014417
X087997Y-001082
X087997Y-006797
X087997Y-008702
X087997Y-010607
X087997Y-012512
X087997Y-014417
X087997Y-016322
X089902Y-001082
X089902Y-006797
X089902Y-008702
X089902Y-010607
X089902Y-012512
X089902Y-014417
X089902Y-016322
X091807Y-001082
X091807Y-006797
X091807Y-008702
X091807Y-010607
X091807Y-012512
X091807Y-014417
X091807Y-016322
X093712Y-001082
X093712Y-006797
X093712Y-008702
X093712Y-010607
X093712Y-012512
X093712Y-014417
X095617Y-006797
X095617Y-008702
X095617Y-010607
X095617Y-012512
X097522Y-008702
X097522Y-010607
X099427Y-008702
X101332Y-004892
X116572Y-001082
X118477Y-001082
X118477Y-002987
X120382Y-001082
X120382Y-002987
X120382Y-004892
X120382Y-014417
X120382Y-016322
X120382Y-018227
X120382Y-020132
X120382Y-022037
X120382Y-023942
X120382Y-025847
X122287Y-001082
X122287Y-002987
X122287Y-004892
X122287Y-012512
X122287Y-014417
X122287Y-016322
X122287Y-018227
X122287Y-020132
X122287Y-022037
X122287Y-023942
X122287Y-025847
X124192Y-001082
X124192Y-002987
X124192Y-004892
X124192Y-010607
X124192Y-012512
X124192Y-014417
X124192Y-016322
X124192Y-018227
X124192Y-020132
X124192Y-022037
X124192Y-023942
X124192Y-025847
X126097Y-001082
X126097Y-002987
X126097Y-004892
X126097Y-022037
X126097Y-023942
X126097Y-025847
X128002Y-001082
X128002Y-002987
X128002Y-010607
X128002Y-012512
X128002Y-014417
X128002Y-016322
X128002Y-018227
X128002Y-020132
X128002Y-023942
X128002Y-025847
X129907Y-001082
X129907Y-010607
X129907Y-012512
X129907Y-014417
X129907Y-016322
X129907Y-018227
X129907Y-020132
X129907Y-022037
X129907Y-025847
X131812Y-006797
X131812Y-010607
X131812Y-012512
X131812Y-014417
X131812Y-016322
X131812Y-018227
X131812Y-020132
X131812Y-022037
X131812Y-023942
X133717Y-004892
X133717Y-006797
X133717Y-010607
X133717Y-012512
X133717Y-014417
X133717Y-016322
X133717Y-018227
X133717Y-020132
X133717Y-022037
X133717Y-023942
X133717Y-025847
X135622Y-004892
X135622Y-006797
X135622Y-010607
X135622Y-012512
X135622Y-014417
X135622Y-016322
X135622Y-018227
X135622Y-020132
X135622Y-022037
X135622Y-023942
X135622Y-025847
X137527Y-004892
X137527Y-023942
X137527Y-025847
X139432Y-022037
X139432Y-025847
X141337Y-023942
X143242Y-001082
X143242Y-012512
X143242Y-014417
X143242Y-016322
X143242Y-018227
X143242Y-020132
X143242Y-025847
X145147Y-001082
X145147Y-004892
X145147Y-012512
X145147Y-014417
X145147Y-016322
X145147Y-018227
X145147Y-020132
X145147Y-025847
X147052Y-001082
X147052Y-002987
X147052Y-004892
X147052Y-006797
X147052Y-012512
X147052Y-014417
X147052Y-016322
X147052Y-018227
X147052Y-020132
X147052Y-025847
X148957Y-001082
X148957Y-002987
X148957Y-004892
X148957Y-006797
X148957Y-012512
X148957Y-014417
X148957Y-016322
X148957Y-018227
X148957Y-020132
X150862Y-001082
X150862Y-002987
X150862Y-016322
X150862Y-018227
X150862Y-020132
X046873Y-019878
X048778Y-017973
X054493Y-023688
X056398Y-027498
X058303Y-025593
X060208Y-025593
X062113Y-025593
X062113Y-027498
X064018Y-023688
X064018Y-025593
X065923Y-025593
X065923Y-027498
X071638Y-027498
X073543Y-027498
X075448Y-027498
X077353Y-027498
X079258Y-027498
X081163Y-027498
X083068Y-027498
X094498Y-019878
X096403Y-017973
X096403Y-019878
X096403Y-027498
X098308Y-016068
X098308Y-017973
X098308Y-027498
X100213Y-014163
X100213Y-016068
X100213Y-017973
X102118Y-012258
X102118Y-014163
X102118Y-016068
X102118Y-017973
X102118Y-019878
X102118Y-021783
X104023Y-012258
X104023Y-014163
X104023Y-016068
X104023Y-017973
X104023Y-019878
X104023Y-021783
X105928Y-012258
X105928Y-014163
X105928Y-016068
X105928Y-017973
X105928Y-019878
X105928Y-021783
X107833Y-010353
X107833Y-012258
X107833Y-014163
X107833Y-016068
X107833Y-017973
X107833Y-019878
X107833Y-021783
X107833Y-027498
X109738Y-010353
X109738Y-012258
X109738Y-014163
X109738Y-016068
X109738Y-017973
X109738Y-019878
X109738Y-021783
X111643Y-010353
X111643Y-012258
X111643Y-014163
X111643Y-016068
X111643Y-017973
X111643Y-019878
X113548Y-012258
X113548Y-014163
X113548Y-016068
X113548Y-017973
X113548Y-021783
X115453Y-012258
X115453Y-014163
X115453Y-016068
X115453Y-019878
X115453Y-021783
X036386Y-018702
X036386Y-020607
X036386Y-022512
X036386Y-024417
X036386Y-026322
T02
X132588Y-002286
T03
X002540Y-028448
X014224Y-001270
X014097Y-028575
X028575Y-028575
X028702Y-001270
X039100Y-028700
X045100Y-028700
X051100Y-028700
X044165Y-001270
X050165Y-001270
X037221Y-001357
X040142Y-001357
X042109Y-028679
X048078Y-028679
X002540Y-001397
T04
X104267Y-004318
X104267Y-001778
X106807Y-004318
X106807Y-001778
X109347Y-004318
X109347Y-001778
X111887Y-004318
X111887Y-001778
X114427Y-004318
X114427Y-001778
T05
X141220Y-004950G85X141220Y-004956
X141220Y-002410G85X141220Y-002416
T06
X085344Y-001651
X082804Y-001651
X080264Y-001651
X077724Y-001651
X075184Y-001651
X072644Y-001651
X070104Y-001651
X067564Y-001651
X065024Y-001651
X062484Y-001651
X059944Y-001651
X057404Y-001651
X085344Y-021971
X082804Y-021971
X080264Y-021971
X077724Y-021971
X075184Y-021971
X072644Y-021971
X070104Y-021971
X067564Y-021971
X065024Y-021971
X062484Y-021971
X059944Y-021971
X057404Y-021971
X087884Y-021971
X090424Y-021971
X092964Y-021971
X095504Y-021971
X124460Y-028829
X127000Y-028829
X147320Y-028829
X144780Y-028829
X142240Y-028829
X139700Y-028829
X109220Y-028829
X111760Y-028829
X114300Y-028829
X116840Y-028829
X119380Y-028829
X121920Y-028829
X129540Y-028829
X132080Y-028829
X134620Y-028829
X137160Y-028829
X109220Y-008509
X111760Y-008509
X114300Y-008509
X116840Y-008509
X119380Y-008509
X121920Y-008509
X124460Y-008509
X127000Y-008509
X129540Y-008509
X132080Y-008509
X134620Y-008509
X137160Y-008509
T07
X149606Y-021844
X149606Y-024384
T08
X151130Y-027559
X151130Y-009779
X105283Y-027559
X105283Y-009779
T09
X053594Y-020701
X053594Y-002921
X099314Y-002921
X099314Y-020701
M30
