G04 Layer: BottomLayer*
G04 EasyEDA v6.4.19.5, 2021-06-29T13:46:12+12:00*
G04 3cc3b40c68de4bce97ec9925422c83c7,12af84a47dbc45c89479b689871b34a7,10*
G04 Gerber Generator version 0.2*
G04 Scale: 100 percent, Rotated: No, Reflected: No *
G04 Dimensions in millimeters *
G04 leading zeros omitted , absolute positions ,4 integer and 5 decimal *
%FSLAX45Y45*%
%MOMM*%

%ADD10C,0.2540*%
%ADD11C,1.2700*%
%ADD12C,0.7620*%
%ADD14C,0.6350*%
%ADD15C,1.8288*%
%ADD25R,2.5000X2.5000*%
%ADD27C,1.6320*%
%ADD28C,3.8227*%
%ADD29C,1.7907*%
%ADD30R,1.5748X1.7000*%
%ADD31C,1.7000*%
%ADD32C,1.9050*%
%ADD33C,3.2000*%

%LPD*%
G36*
X5550458Y-182676D02*
G01*
X5546394Y-181000D01*
X5543448Y-177698D01*
X5531104Y-159816D01*
X5517946Y-144322D01*
X5503418Y-130098D01*
X5487619Y-117297D01*
X5470702Y-106070D01*
X5452770Y-96469D01*
X5434076Y-88595D01*
X5414670Y-82499D01*
X5394807Y-78232D01*
X5374640Y-75844D01*
X5354320Y-75387D01*
X5334050Y-76809D01*
X5313984Y-80111D01*
X5294325Y-85293D01*
X5275275Y-92303D01*
X5256936Y-101092D01*
X5239461Y-111506D01*
X5223103Y-123545D01*
X5207914Y-137007D01*
X5194046Y-151892D01*
X5185359Y-163220D01*
X5182158Y-165912D01*
X5178145Y-167132D01*
X5174030Y-166624D01*
X5170424Y-164490D01*
X5167985Y-161086D01*
X5167122Y-156972D01*
X5167122Y-35814D01*
X5167934Y-31902D01*
X5170119Y-28651D01*
X5173421Y-26416D01*
X5177282Y-25654D01*
X5597956Y-25654D01*
X5601868Y-26416D01*
X5605170Y-28651D01*
X5607354Y-31902D01*
X5608116Y-35814D01*
X5607354Y-39725D01*
X5605170Y-42976D01*
X5574030Y-74117D01*
X5568950Y-80314D01*
X5565394Y-86918D01*
X5563209Y-94132D01*
X5562447Y-102108D01*
X5562447Y-172669D01*
X5561482Y-176987D01*
X5558790Y-180492D01*
X5554878Y-182524D01*
G37*

%LPD*%
G36*
X10603890Y-336804D02*
G01*
X10599521Y-336550D01*
X10595711Y-334518D01*
X10593070Y-331012D01*
X10592155Y-326796D01*
X10592155Y-305308D01*
X10591393Y-297332D01*
X10589209Y-290118D01*
X10585653Y-283514D01*
X10580573Y-277317D01*
X10539780Y-236524D01*
X10537545Y-233121D01*
X10536783Y-229108D01*
X10537748Y-225094D01*
X10539425Y-221437D01*
X10544149Y-206552D01*
X10546283Y-202793D01*
X10549839Y-200304D01*
X10554106Y-199491D01*
X10558322Y-200558D01*
X10561726Y-203250D01*
X10563656Y-207162D01*
X10565485Y-214426D01*
X10570870Y-228295D01*
X10577931Y-241401D01*
X10586516Y-253542D01*
X10596524Y-264566D01*
X10607852Y-274218D01*
X10620248Y-282448D01*
X10633557Y-289102D01*
X10647629Y-294030D01*
X10651286Y-294843D01*
X10654893Y-296418D01*
X10657586Y-299212D01*
X10659059Y-302818D01*
X10659059Y-306730D01*
X10657586Y-310337D01*
X10654893Y-313131D01*
X10651286Y-314706D01*
X10647629Y-315518D01*
X10633557Y-320446D01*
X10620248Y-327101D01*
X10607903Y-335229D01*
G37*

%LPD*%
G36*
X10503255Y-337159D02*
G01*
X10499140Y-335330D01*
X10493451Y-331012D01*
X10480548Y-323545D01*
X10466882Y-317754D01*
X10455554Y-314553D01*
X10451744Y-312470D01*
X10449102Y-309016D01*
X10448188Y-304800D01*
X10449102Y-300532D01*
X10451744Y-297078D01*
X10455554Y-294995D01*
X10466882Y-291795D01*
X10474401Y-288594D01*
X10478312Y-287782D01*
X10482224Y-288544D01*
X10485526Y-290779D01*
X10512450Y-317703D01*
X10514685Y-321005D01*
X10515447Y-324916D01*
X10515447Y-327202D01*
X10514482Y-331571D01*
X10511688Y-335076D01*
X10507726Y-337058D01*
G37*

%LPD*%
G36*
X11316055Y-409956D02*
G01*
X11311839Y-409143D01*
X11308283Y-406654D01*
X11306098Y-402894D01*
X11301425Y-388112D01*
X11295176Y-374599D01*
X11287353Y-361950D01*
X11278006Y-350316D01*
X11267338Y-339953D01*
X11255451Y-331012D01*
X11242548Y-323545D01*
X11228882Y-317754D01*
X11217554Y-314553D01*
X11213744Y-312470D01*
X11211102Y-309016D01*
X11210188Y-304800D01*
X11211102Y-300532D01*
X11213744Y-297078D01*
X11217554Y-294995D01*
X11228882Y-291795D01*
X11242548Y-286004D01*
X11255451Y-278536D01*
X11267338Y-269595D01*
X11278006Y-259232D01*
X11287353Y-247599D01*
X11295176Y-234950D01*
X11301425Y-221437D01*
X11306149Y-206552D01*
X11308283Y-202793D01*
X11311839Y-200304D01*
X11316106Y-199491D01*
X11320322Y-200558D01*
X11323726Y-203250D01*
X11325656Y-207162D01*
X11327485Y-214426D01*
X11332870Y-228295D01*
X11339931Y-241401D01*
X11348516Y-253542D01*
X11358524Y-264566D01*
X11369852Y-274218D01*
X11382248Y-282448D01*
X11395557Y-289102D01*
X11409629Y-294030D01*
X11413286Y-294843D01*
X11416893Y-296418D01*
X11419586Y-299212D01*
X11421059Y-302818D01*
X11421059Y-306730D01*
X11419586Y-310337D01*
X11416893Y-313131D01*
X11413286Y-314706D01*
X11409629Y-315518D01*
X11395557Y-320446D01*
X11382248Y-327101D01*
X11369852Y-335330D01*
X11358524Y-344982D01*
X11348516Y-356006D01*
X11339931Y-368147D01*
X11332870Y-381254D01*
X11327485Y-395173D01*
X11325656Y-402336D01*
X11323675Y-406196D01*
X11320272Y-408940D01*
G37*

%LPD*%
G36*
X6166866Y-533146D02*
G01*
X6163005Y-532384D01*
X6159703Y-530148D01*
X5849162Y-219659D01*
X5846927Y-216204D01*
X5846216Y-212140D01*
X5847486Y-207517D01*
X5851956Y-193751D01*
X5854649Y-179527D01*
X5855563Y-165100D01*
X5854954Y-155752D01*
X5855512Y-151739D01*
X5857646Y-148234D01*
X5860948Y-145846D01*
X5864910Y-144983D01*
X5868873Y-145694D01*
X5872276Y-147929D01*
X5876594Y-152196D01*
X5878880Y-155803D01*
X5879541Y-160020D01*
X5879236Y-165100D01*
X5880150Y-179527D01*
X5882843Y-193751D01*
X5887313Y-207517D01*
X5893460Y-220573D01*
X5901232Y-232816D01*
X5910427Y-243941D01*
X5920994Y-253847D01*
X5932678Y-262331D01*
X5945327Y-269290D01*
X5958789Y-274624D01*
X5972810Y-278231D01*
X5987135Y-280060D01*
X6001613Y-280060D01*
X6015990Y-278231D01*
X6029960Y-274624D01*
X6037884Y-271526D01*
X6041745Y-270764D01*
X6045555Y-271576D01*
X6048806Y-273761D01*
X6271717Y-496671D01*
X6277914Y-501751D01*
X6284518Y-505307D01*
X6291732Y-507492D01*
X6299708Y-508254D01*
X9619183Y-508254D01*
X9623094Y-509016D01*
X9626396Y-511251D01*
X9630968Y-515823D01*
X9633153Y-519074D01*
X9633915Y-522985D01*
X9633153Y-526897D01*
X9630968Y-530148D01*
X9627666Y-532384D01*
X9623755Y-533146D01*
G37*

%LPD*%
G36*
X10602315Y-571246D02*
G01*
X10598404Y-570484D01*
X10595152Y-568248D01*
X10592917Y-564997D01*
X10592155Y-561086D01*
X10592155Y-536752D01*
X10593070Y-532536D01*
X10595711Y-529031D01*
X10599521Y-526999D01*
X10603890Y-526745D01*
X10607903Y-528320D01*
X10620248Y-536448D01*
X10633557Y-543102D01*
X10647629Y-548030D01*
X10661853Y-551180D01*
X10665663Y-552907D01*
X10668508Y-556056D01*
X10669778Y-560070D01*
X10669320Y-564235D01*
X10667187Y-567893D01*
X10663783Y-570382D01*
X10659668Y-571246D01*
G37*

%LPD*%
G36*
X10954461Y-571246D02*
G01*
X10950244Y-570331D01*
X10946790Y-567740D01*
X10944758Y-563981D01*
X10944402Y-559714D01*
X10945876Y-555650D01*
X10948873Y-552602D01*
X10952886Y-551027D01*
X10960557Y-549859D01*
X10974882Y-545795D01*
X10988548Y-540004D01*
X11001451Y-532536D01*
X11013338Y-523595D01*
X11024006Y-513232D01*
X11033353Y-501599D01*
X11041176Y-488950D01*
X11047425Y-475437D01*
X11052149Y-460552D01*
X11054283Y-456793D01*
X11057839Y-454304D01*
X11062106Y-453491D01*
X11066322Y-454558D01*
X11069726Y-457250D01*
X11071656Y-461162D01*
X11073485Y-468426D01*
X11078870Y-482295D01*
X11085931Y-495401D01*
X11094516Y-507542D01*
X11104524Y-518566D01*
X11115852Y-528218D01*
X11128248Y-536448D01*
X11141557Y-543102D01*
X11155629Y-548030D01*
X11169853Y-551180D01*
X11173663Y-552907D01*
X11176508Y-556056D01*
X11177778Y-560070D01*
X11177320Y-564235D01*
X11175187Y-567893D01*
X11171783Y-570382D01*
X11167668Y-571246D01*
G37*

%LPD*%
G36*
X10700461Y-571246D02*
G01*
X10696244Y-570331D01*
X10692790Y-567740D01*
X10690758Y-563981D01*
X10690402Y-559714D01*
X10691876Y-555650D01*
X10694873Y-552602D01*
X10698886Y-551027D01*
X10706557Y-549859D01*
X10720882Y-545795D01*
X10734548Y-540004D01*
X10747451Y-532536D01*
X10759338Y-523595D01*
X10770006Y-513232D01*
X10779353Y-501599D01*
X10787176Y-488950D01*
X10793425Y-475437D01*
X10798149Y-460552D01*
X10800283Y-456793D01*
X10803839Y-454304D01*
X10808106Y-453491D01*
X10812322Y-454558D01*
X10815726Y-457250D01*
X10817656Y-461162D01*
X10819485Y-468426D01*
X10824870Y-482295D01*
X10831931Y-495401D01*
X10840516Y-507542D01*
X10850524Y-518566D01*
X10861852Y-528218D01*
X10874248Y-536448D01*
X10887557Y-543102D01*
X10901629Y-548030D01*
X10915853Y-551180D01*
X10919663Y-552907D01*
X10922508Y-556056D01*
X10923778Y-560070D01*
X10923320Y-564235D01*
X10921187Y-567893D01*
X10917783Y-570382D01*
X10913668Y-571246D01*
G37*

%LPD*%
G36*
X11128654Y-745185D02*
G01*
X11124844Y-744423D01*
X11121593Y-742238D01*
X11095431Y-716076D01*
X11093246Y-712825D01*
X11092484Y-708914D01*
X11093246Y-705002D01*
X11095431Y-701751D01*
X11098733Y-699516D01*
X11102644Y-698754D01*
X11143284Y-698754D01*
X11147196Y-699516D01*
X11150498Y-701751D01*
X11168278Y-719480D01*
X11170666Y-723290D01*
X11171174Y-727760D01*
X11169700Y-732028D01*
X11166602Y-735228D01*
X11162334Y-736752D01*
X11154410Y-737768D01*
X11140389Y-741375D01*
X11132515Y-744474D01*
G37*

%LPD*%
G36*
X11499850Y-964946D02*
G01*
X11495684Y-964082D01*
X11492280Y-961593D01*
X11490198Y-957935D01*
X11489740Y-953719D01*
X11491061Y-949706D01*
X11493855Y-946556D01*
X11503406Y-939647D01*
X11513921Y-929741D01*
X11523167Y-918616D01*
X11530888Y-906373D01*
X11537086Y-893318D01*
X11541556Y-879551D01*
X11544249Y-865327D01*
X11545163Y-850900D01*
X11544249Y-836472D01*
X11541556Y-822248D01*
X11537086Y-808482D01*
X11530888Y-795426D01*
X11523167Y-783183D01*
X11513921Y-772058D01*
X11503406Y-762152D01*
X11491722Y-753668D01*
X11479022Y-746709D01*
X11465560Y-741375D01*
X11451590Y-737768D01*
X11437213Y-735939D01*
X11422735Y-735939D01*
X11408410Y-737768D01*
X11394389Y-741375D01*
X11386566Y-744474D01*
X11382705Y-745185D01*
X11378895Y-744372D01*
X11375644Y-742188D01*
X11216284Y-582828D01*
X11210086Y-577748D01*
X11203482Y-574192D01*
X11196320Y-572058D01*
X11192764Y-570128D01*
X11190224Y-566928D01*
X11189157Y-563016D01*
X11189665Y-559003D01*
X11191748Y-555498D01*
X11194999Y-553110D01*
X11199825Y-552145D01*
X11214557Y-549859D01*
X11228882Y-545795D01*
X11242548Y-540004D01*
X11255451Y-532536D01*
X11267338Y-523595D01*
X11278006Y-513232D01*
X11287353Y-501599D01*
X11295176Y-488950D01*
X11301425Y-475437D01*
X11306149Y-460552D01*
X11308283Y-456793D01*
X11311839Y-454304D01*
X11316106Y-453491D01*
X11320322Y-454558D01*
X11323726Y-457250D01*
X11325656Y-461162D01*
X11327485Y-468426D01*
X11332870Y-482295D01*
X11339931Y-495401D01*
X11348516Y-507542D01*
X11358524Y-518566D01*
X11369852Y-528218D01*
X11382248Y-536448D01*
X11395557Y-543102D01*
X11409629Y-548030D01*
X11424158Y-551230D01*
X11438940Y-552602D01*
X11453825Y-552145D01*
X11468557Y-549859D01*
X11482882Y-545795D01*
X11496548Y-540004D01*
X11509451Y-532536D01*
X11521338Y-523595D01*
X11532006Y-513232D01*
X11541353Y-501599D01*
X11549176Y-488950D01*
X11555425Y-475437D01*
X11559946Y-461264D01*
X11562638Y-446633D01*
X11563553Y-431800D01*
X11562638Y-416915D01*
X11559946Y-402285D01*
X11555425Y-388112D01*
X11549176Y-374599D01*
X11541353Y-361950D01*
X11532006Y-350316D01*
X11521338Y-339953D01*
X11509451Y-331012D01*
X11496548Y-323545D01*
X11482882Y-317754D01*
X11471554Y-314553D01*
X11467744Y-312470D01*
X11465102Y-309016D01*
X11464188Y-304800D01*
X11465102Y-300532D01*
X11467744Y-297078D01*
X11471554Y-294995D01*
X11482882Y-291795D01*
X11490350Y-288645D01*
X11494262Y-287832D01*
X11498173Y-288594D01*
X11501475Y-290779D01*
X11769648Y-558952D01*
X11771884Y-562254D01*
X11772646Y-566166D01*
X11772646Y-753313D01*
X11771680Y-757631D01*
X11768937Y-761136D01*
X11764975Y-763117D01*
X11760555Y-763270D01*
X11756491Y-761492D01*
X11745722Y-753668D01*
X11733022Y-746709D01*
X11719560Y-741375D01*
X11705590Y-737768D01*
X11691213Y-735939D01*
X11676735Y-735939D01*
X11662410Y-737768D01*
X11648389Y-741375D01*
X11634927Y-746709D01*
X11622278Y-753668D01*
X11610594Y-762152D01*
X11600027Y-772058D01*
X11590832Y-783183D01*
X11583060Y-795426D01*
X11576913Y-808482D01*
X11572443Y-822248D01*
X11569750Y-836472D01*
X11568836Y-850900D01*
X11569750Y-865327D01*
X11572443Y-879551D01*
X11576913Y-893318D01*
X11583060Y-906373D01*
X11590832Y-918616D01*
X11600027Y-929741D01*
X11610594Y-939647D01*
X11620093Y-946556D01*
X11622938Y-949706D01*
X11624259Y-953719D01*
X11623802Y-957935D01*
X11621668Y-961593D01*
X11618264Y-964082D01*
X11614150Y-964946D01*
G37*

%LPD*%
G36*
X5351881Y-1091946D02*
G01*
X5348020Y-1091184D01*
X5344718Y-1088948D01*
X5083251Y-827481D01*
X5081016Y-824179D01*
X5080254Y-820318D01*
X5080254Y-287832D01*
X5081016Y-283921D01*
X5083251Y-280619D01*
X5086502Y-278434D01*
X5090414Y-277672D01*
X5132679Y-277672D01*
X5136591Y-278434D01*
X5139893Y-280619D01*
X5142077Y-283921D01*
X5142839Y-287832D01*
X5142839Y-302260D01*
X5144770Y-322478D01*
X5148529Y-342442D01*
X5154168Y-362000D01*
X5161635Y-380898D01*
X5170830Y-399034D01*
X5181650Y-416204D01*
X5194046Y-432308D01*
X5207914Y-447192D01*
X5223103Y-460654D01*
X5239461Y-472693D01*
X5256936Y-483108D01*
X5275275Y-491896D01*
X5294325Y-498906D01*
X5313984Y-504088D01*
X5334050Y-507390D01*
X5354320Y-508812D01*
X5374640Y-508355D01*
X5394807Y-505968D01*
X5414670Y-501700D01*
X5434076Y-495604D01*
X5452770Y-487730D01*
X5470702Y-478129D01*
X5487619Y-466902D01*
X5503418Y-454101D01*
X5517946Y-439877D01*
X5531104Y-424383D01*
X5543448Y-406501D01*
X5546394Y-403199D01*
X5550458Y-401523D01*
X5554878Y-401675D01*
X5558790Y-403707D01*
X5561482Y-407212D01*
X5562447Y-411530D01*
X5562447Y-715010D01*
X5561838Y-718413D01*
X5560161Y-721461D01*
X5553252Y-729894D01*
X5548528Y-738378D01*
X5545277Y-747522D01*
X5543651Y-757123D01*
X5543651Y-766876D01*
X5545277Y-776478D01*
X5548528Y-785622D01*
X5553252Y-794105D01*
X5559399Y-801674D01*
X5566664Y-808126D01*
X5574995Y-813206D01*
X5583986Y-816864D01*
X5593537Y-818896D01*
X5603240Y-819302D01*
X5612892Y-818083D01*
X5622188Y-815238D01*
X5630875Y-810869D01*
X5638698Y-805078D01*
X5645454Y-798017D01*
X5650890Y-789990D01*
X5654903Y-781100D01*
X5657342Y-771702D01*
X5658154Y-762000D01*
X5657342Y-752297D01*
X5654903Y-742899D01*
X5650890Y-734009D01*
X5645454Y-725982D01*
X5642000Y-722376D01*
X5639866Y-719124D01*
X5639155Y-715314D01*
X5639155Y-251206D01*
X5639917Y-247345D01*
X5642051Y-244094D01*
X5645302Y-241858D01*
X5649112Y-241046D01*
X5652973Y-241706D01*
X5656275Y-243789D01*
X5666994Y-253847D01*
X5678678Y-262331D01*
X5691327Y-269290D01*
X5695645Y-271018D01*
X5698998Y-273202D01*
X5701233Y-276504D01*
X5702046Y-280466D01*
X5702046Y-715010D01*
X5701436Y-718413D01*
X5699760Y-721461D01*
X5692851Y-729894D01*
X5688126Y-738378D01*
X5684875Y-747522D01*
X5683250Y-757123D01*
X5683250Y-766876D01*
X5684875Y-776478D01*
X5688126Y-785622D01*
X5692851Y-794105D01*
X5698998Y-801674D01*
X5706262Y-808126D01*
X5714593Y-813206D01*
X5723585Y-816864D01*
X5733135Y-818896D01*
X5742838Y-819302D01*
X5752490Y-818083D01*
X5761786Y-815238D01*
X5770473Y-810869D01*
X5778296Y-805078D01*
X5785053Y-798017D01*
X5790488Y-789990D01*
X5794502Y-781100D01*
X5796940Y-771702D01*
X5797753Y-762000D01*
X5796940Y-752297D01*
X5794502Y-742899D01*
X5790488Y-734009D01*
X5785053Y-725982D01*
X5781548Y-722325D01*
X5779465Y-719124D01*
X5778754Y-715314D01*
X5778754Y-700633D01*
X5779719Y-696264D01*
X5782513Y-692708D01*
X5786526Y-690727D01*
X5791047Y-690727D01*
X5796635Y-691896D01*
X5803036Y-692200D01*
X5806694Y-693013D01*
X5809792Y-695147D01*
X6157417Y-1042771D01*
X6163614Y-1047851D01*
X6170218Y-1051407D01*
X6177432Y-1053592D01*
X6185408Y-1054354D01*
X6341313Y-1054354D01*
X6344920Y-1055014D01*
X6348018Y-1056894D01*
X6353962Y-1062126D01*
X6362293Y-1067206D01*
X6371285Y-1070864D01*
X6375958Y-1071829D01*
X6379819Y-1073556D01*
X6382613Y-1076706D01*
X6383934Y-1080719D01*
X6383477Y-1084935D01*
X6381343Y-1088593D01*
X6377940Y-1091082D01*
X6373825Y-1091946D01*
G37*

%LPD*%
G36*
X5916879Y-2110130D02*
G01*
X5912459Y-2109978D01*
X5908548Y-2107996D01*
X5905804Y-2104491D01*
X5904839Y-2100122D01*
X5904839Y-2042414D01*
X5905601Y-2038502D01*
X5907836Y-2035251D01*
X5911088Y-2033016D01*
X5914999Y-2032254D01*
X6072987Y-2032254D01*
X6076899Y-2033016D01*
X6080150Y-2035251D01*
X6082385Y-2038502D01*
X6083147Y-2042414D01*
X6083147Y-2099564D01*
X6082182Y-2103882D01*
X6079439Y-2107387D01*
X6075527Y-2109419D01*
X6071108Y-2109571D01*
X6066993Y-2107793D01*
X6056122Y-2099868D01*
X6043422Y-2092909D01*
X6029960Y-2087575D01*
X6015990Y-2083968D01*
X6001613Y-2082139D01*
X5987135Y-2082139D01*
X5972810Y-2083968D01*
X5958789Y-2087575D01*
X5945327Y-2092909D01*
X5932678Y-2099868D01*
X5920994Y-2108352D01*
G37*

%LPD*%
G36*
X5914999Y-2361946D02*
G01*
X5911088Y-2361184D01*
X5907836Y-2358948D01*
X5905601Y-2355697D01*
X5904839Y-2351786D01*
X5904839Y-2294077D01*
X5905804Y-2289708D01*
X5908548Y-2286203D01*
X5912459Y-2284222D01*
X5916879Y-2284069D01*
X5920994Y-2285847D01*
X5932678Y-2294331D01*
X5945327Y-2301290D01*
X5958789Y-2306624D01*
X5972810Y-2310231D01*
X5987135Y-2312060D01*
X6001613Y-2312060D01*
X6015990Y-2310231D01*
X6029960Y-2306624D01*
X6043422Y-2301290D01*
X6056122Y-2294331D01*
X6066993Y-2286406D01*
X6071108Y-2284628D01*
X6075527Y-2284780D01*
X6079439Y-2286812D01*
X6082182Y-2290318D01*
X6083147Y-2294636D01*
X6083147Y-2351786D01*
X6082385Y-2355697D01*
X6080150Y-2358948D01*
X6076899Y-2361184D01*
X6072987Y-2361946D01*
G37*

%LPD*%
G36*
X5662015Y-2361946D02*
G01*
X5658104Y-2361184D01*
X5654852Y-2358948D01*
X5652617Y-2355697D01*
X5651855Y-2351786D01*
X5651855Y-2294788D01*
X5652820Y-2290470D01*
X5655564Y-2286965D01*
X5659475Y-2284933D01*
X5663895Y-2284831D01*
X5668010Y-2286558D01*
X5678678Y-2294331D01*
X5689244Y-2300173D01*
X5689244Y-2248204D01*
X5662015Y-2248204D01*
X5658104Y-2247442D01*
X5654852Y-2245258D01*
X5652617Y-2241956D01*
X5651855Y-2238044D01*
X5651855Y-2156155D01*
X5652617Y-2152243D01*
X5654852Y-2148941D01*
X5658104Y-2146757D01*
X5662015Y-2145995D01*
X5689244Y-2145995D01*
X5689244Y-2094026D01*
X5678678Y-2099868D01*
X5668010Y-2107641D01*
X5663895Y-2109368D01*
X5659475Y-2109266D01*
X5655564Y-2107234D01*
X5652820Y-2103729D01*
X5651855Y-2099411D01*
X5651855Y-2055418D01*
X5652617Y-2051507D01*
X5654852Y-2048205D01*
X5667806Y-2035251D01*
X5671108Y-2033016D01*
X5675020Y-2032254D01*
X5817971Y-2032254D01*
X5821883Y-2033016D01*
X5825134Y-2035251D01*
X5827369Y-2038502D01*
X5828131Y-2042414D01*
X5828131Y-2098852D01*
X5827166Y-2103170D01*
X5824423Y-2106676D01*
X5820511Y-2108657D01*
X5816092Y-2108809D01*
X5811977Y-2107031D01*
X5802122Y-2099868D01*
X5791504Y-2094026D01*
X5791504Y-2145995D01*
X5817971Y-2145995D01*
X5821883Y-2146757D01*
X5825134Y-2148941D01*
X5827369Y-2152243D01*
X5828131Y-2156155D01*
X5828131Y-2238044D01*
X5827369Y-2241956D01*
X5825134Y-2245258D01*
X5821883Y-2247442D01*
X5817971Y-2248204D01*
X5791504Y-2248204D01*
X5791504Y-2300173D01*
X5802122Y-2294331D01*
X5811977Y-2287168D01*
X5816092Y-2285390D01*
X5820511Y-2285542D01*
X5824423Y-2287524D01*
X5827166Y-2291029D01*
X5828131Y-2295347D01*
X5828131Y-2351786D01*
X5827369Y-2355697D01*
X5825134Y-2358948D01*
X5821883Y-2361184D01*
X5817971Y-2361946D01*
G37*

%LPD*%
G36*
X4361484Y-2728315D02*
G01*
X4357624Y-2727553D01*
X4354322Y-2725318D01*
X4351883Y-2722880D01*
X4347006Y-2719832D01*
X4341622Y-2717952D01*
X4333900Y-2717241D01*
X4330039Y-2716479D01*
X4326737Y-2714294D01*
X4324553Y-2710992D01*
X4323740Y-2707081D01*
X4324553Y-2703220D01*
X4326737Y-2699918D01*
X4752136Y-2274519D01*
X4755438Y-2272334D01*
X4759299Y-2271522D01*
X4763211Y-2272334D01*
X4766513Y-2274519D01*
X4768697Y-2277821D01*
X4769459Y-2281682D01*
X4769459Y-2707081D01*
X4768697Y-2710992D01*
X4766513Y-2714294D01*
X4763211Y-2716479D01*
X4759299Y-2717241D01*
X4683404Y-2717241D01*
X4677105Y-2717952D01*
X4671720Y-2719832D01*
X4666843Y-2722880D01*
X4665014Y-2724708D01*
X4661814Y-2726893D01*
X4658055Y-2727706D01*
X4654245Y-2727045D01*
X4646066Y-2721914D01*
X4640681Y-2720035D01*
X4634433Y-2719324D01*
X4385564Y-2719324D01*
X4379264Y-2720035D01*
X4373880Y-2721914D01*
X4365396Y-2727553D01*
G37*

%LPD*%
G36*
X4959959Y-2729890D02*
G01*
X4956048Y-2729077D01*
X4952746Y-2726893D01*
X4948783Y-2722880D01*
X4943906Y-2719832D01*
X4938522Y-2717952D01*
X4932222Y-2717241D01*
X4856327Y-2717241D01*
X4852466Y-2716479D01*
X4849164Y-2714294D01*
X4846980Y-2710992D01*
X4846167Y-2707081D01*
X4846167Y-2286152D01*
X4846980Y-2282240D01*
X4849164Y-2278989D01*
X5136946Y-1991156D01*
X5140706Y-1988769D01*
X5145074Y-1988210D01*
X5149291Y-1989582D01*
X5152542Y-1992630D01*
X5154168Y-1996744D01*
X5153914Y-2001164D01*
X5148529Y-2019757D01*
X5144770Y-2039721D01*
X5142839Y-2059939D01*
X5142839Y-2080260D01*
X5144770Y-2100478D01*
X5148529Y-2120442D01*
X5154168Y-2140000D01*
X5161635Y-2158898D01*
X5170830Y-2177034D01*
X5181650Y-2194204D01*
X5194046Y-2210308D01*
X5207914Y-2225192D01*
X5223103Y-2238654D01*
X5239461Y-2250694D01*
X5256936Y-2261108D01*
X5275275Y-2269896D01*
X5294325Y-2276906D01*
X5313984Y-2282088D01*
X5334050Y-2285390D01*
X5354320Y-2286812D01*
X5374640Y-2286355D01*
X5394807Y-2283968D01*
X5414670Y-2279700D01*
X5434076Y-2273604D01*
X5452770Y-2265730D01*
X5470702Y-2256129D01*
X5487619Y-2244902D01*
X5503418Y-2232101D01*
X5517946Y-2217877D01*
X5531104Y-2202383D01*
X5542737Y-2185720D01*
X5552744Y-2168042D01*
X5555742Y-2161489D01*
X5557977Y-2158288D01*
X5561279Y-2156206D01*
X5565140Y-2155494D01*
X5569000Y-2156307D01*
X5572252Y-2158542D01*
X5574385Y-2161794D01*
X5575147Y-2165654D01*
X5575147Y-2370226D01*
X5574233Y-2374493D01*
X5571591Y-2377948D01*
X5568137Y-2380894D01*
X5232654Y-2716377D01*
X5229402Y-2718562D01*
X5225491Y-2719324D01*
X4985562Y-2719324D01*
X4979314Y-2720035D01*
X4973878Y-2721914D01*
X4969052Y-2724962D01*
X4967122Y-2726893D01*
X4963820Y-2729077D01*
G37*

%LPD*%
G36*
X11781434Y-2971546D02*
G01*
X11777675Y-2970834D01*
X11774474Y-2968802D01*
X11772239Y-2965704D01*
X11771274Y-2962046D01*
X11771731Y-2958236D01*
X11773611Y-2954934D01*
X11777167Y-2950616D01*
X11784888Y-2938373D01*
X11791086Y-2925318D01*
X11795556Y-2911551D01*
X11798249Y-2897327D01*
X11799163Y-2882900D01*
X11798249Y-2868472D01*
X11795556Y-2854248D01*
X11791086Y-2840482D01*
X11784888Y-2827426D01*
X11777167Y-2815183D01*
X11767921Y-2804058D01*
X11757406Y-2794152D01*
X11745722Y-2785668D01*
X11733022Y-2778709D01*
X11719560Y-2773375D01*
X11705590Y-2769768D01*
X11691213Y-2767939D01*
X11676735Y-2767939D01*
X11662410Y-2769768D01*
X11648389Y-2773375D01*
X11640515Y-2776474D01*
X11636654Y-2777185D01*
X11632844Y-2776423D01*
X11629593Y-2774238D01*
X11400231Y-2544876D01*
X11398046Y-2541625D01*
X11397284Y-2537714D01*
X11398046Y-2533802D01*
X11400231Y-2530551D01*
X11403533Y-2528316D01*
X11407444Y-2527554D01*
X11524183Y-2527554D01*
X11528094Y-2528316D01*
X11531396Y-2530551D01*
X11829186Y-2828340D01*
X11831472Y-2831795D01*
X11832183Y-2835859D01*
X11830913Y-2840482D01*
X11826443Y-2854248D01*
X11823750Y-2868472D01*
X11822836Y-2882900D01*
X11823750Y-2897327D01*
X11826443Y-2911551D01*
X11830913Y-2925318D01*
X11837060Y-2938373D01*
X11844832Y-2950616D01*
X11848388Y-2954934D01*
X11850217Y-2958236D01*
X11850674Y-2962046D01*
X11849760Y-2965704D01*
X11847525Y-2968802D01*
X11844274Y-2970834D01*
X11840565Y-2971546D01*
G37*

%LPD*%
G36*
X12035434Y-2971546D02*
G01*
X12031675Y-2970834D01*
X12028474Y-2968802D01*
X12026239Y-2965704D01*
X12025274Y-2962046D01*
X12025731Y-2958236D01*
X12027611Y-2954934D01*
X12031167Y-2950616D01*
X12038888Y-2938373D01*
X12045086Y-2925318D01*
X12049556Y-2911551D01*
X12052249Y-2897327D01*
X12053163Y-2882900D01*
X12052249Y-2868472D01*
X12049556Y-2854248D01*
X12045086Y-2840482D01*
X12038888Y-2827426D01*
X12031167Y-2815183D01*
X12021921Y-2804058D01*
X12011406Y-2794152D01*
X11999722Y-2785668D01*
X11987022Y-2778709D01*
X11973560Y-2773375D01*
X11959590Y-2769768D01*
X11945213Y-2767939D01*
X11930735Y-2767939D01*
X11916410Y-2769768D01*
X11902389Y-2773375D01*
X11894515Y-2776474D01*
X11890654Y-2777185D01*
X11886844Y-2776423D01*
X11883593Y-2774238D01*
X11603431Y-2494076D01*
X11601246Y-2490825D01*
X11600484Y-2486914D01*
X11601246Y-2483002D01*
X11603431Y-2479751D01*
X11606733Y-2477516D01*
X11610644Y-2476754D01*
X11727383Y-2476754D01*
X11731294Y-2477516D01*
X11734596Y-2479751D01*
X12083186Y-2828340D01*
X12085472Y-2831795D01*
X12086183Y-2835859D01*
X12084913Y-2840482D01*
X12080443Y-2854248D01*
X12077750Y-2868472D01*
X12076836Y-2882900D01*
X12077750Y-2897327D01*
X12080443Y-2911551D01*
X12084913Y-2925318D01*
X12091060Y-2938373D01*
X12098832Y-2950616D01*
X12102388Y-2954934D01*
X12104217Y-2958236D01*
X12104674Y-2962046D01*
X12103760Y-2965704D01*
X12101525Y-2968802D01*
X12098274Y-2970834D01*
X12094565Y-2971546D01*
G37*

%LPD*%
G36*
X3568192Y-2971546D02*
G01*
X3564280Y-2970784D01*
X3560978Y-2968548D01*
X3558794Y-2965297D01*
X3558032Y-2961386D01*
X3558032Y-281584D01*
X3558946Y-277317D01*
X3561537Y-273862D01*
X3565347Y-271780D01*
X3569715Y-271526D01*
X3573729Y-273050D01*
X3581146Y-280720D01*
X3586022Y-283768D01*
X3591407Y-285648D01*
X3597706Y-286359D01*
X3653282Y-286359D01*
X3653282Y-204571D01*
X3568192Y-204571D01*
X3564280Y-203809D01*
X3560978Y-201574D01*
X3558794Y-198323D01*
X3558032Y-194411D01*
X3558032Y-77012D01*
X3558794Y-73152D01*
X3560978Y-69850D01*
X3564280Y-67665D01*
X3568192Y-66852D01*
X3653282Y-66852D01*
X3653282Y-35814D01*
X3654044Y-31902D01*
X3656228Y-28651D01*
X3659530Y-26416D01*
X3663442Y-25654D01*
X3780790Y-25654D01*
X3784701Y-26416D01*
X3788003Y-28651D01*
X3790187Y-31902D01*
X3790950Y-35814D01*
X3790950Y-66852D01*
X3853383Y-66852D01*
X3857294Y-67665D01*
X3860596Y-69850D01*
X3862781Y-73152D01*
X3863543Y-77012D01*
X3863543Y-194411D01*
X3862781Y-198323D01*
X3860596Y-201574D01*
X3857294Y-203809D01*
X3853383Y-204571D01*
X3790950Y-204571D01*
X3790950Y-286359D01*
X3846525Y-286359D01*
X3852824Y-285648D01*
X3858209Y-283768D01*
X3862781Y-280924D01*
X3866286Y-279552D01*
X3870045Y-279552D01*
X3873550Y-280924D01*
X3878122Y-283768D01*
X3883507Y-285648D01*
X3889806Y-286359D01*
X4138625Y-286359D01*
X4144924Y-285648D01*
X4150309Y-283768D01*
X4155186Y-280720D01*
X4159199Y-276656D01*
X4162247Y-271830D01*
X4164177Y-266395D01*
X4164888Y-260146D01*
X4164888Y-35814D01*
X4165650Y-31902D01*
X4167835Y-28651D01*
X4171137Y-26416D01*
X4175048Y-25654D01*
X4255668Y-25654D01*
X4259580Y-26416D01*
X4262831Y-28651D01*
X4265066Y-31902D01*
X4265828Y-35814D01*
X4265828Y-251460D01*
X4266539Y-257708D01*
X4268419Y-263093D01*
X4271467Y-267970D01*
X4275531Y-272034D01*
X4280357Y-275082D01*
X4285792Y-276961D01*
X4292041Y-277672D01*
X4540910Y-277672D01*
X4547158Y-276961D01*
X4552594Y-275082D01*
X4557420Y-272034D01*
X4561484Y-267970D01*
X4564532Y-263093D01*
X4566412Y-257708D01*
X4567123Y-251460D01*
X4567123Y-35814D01*
X4567936Y-31902D01*
X4570120Y-28651D01*
X4573422Y-26416D01*
X4577283Y-25654D01*
X4855667Y-25654D01*
X4859578Y-26416D01*
X4862830Y-28651D01*
X4865065Y-31902D01*
X4865827Y-35814D01*
X4865827Y-251460D01*
X4866538Y-257708D01*
X4868418Y-263093D01*
X4871466Y-267970D01*
X4875530Y-272034D01*
X4880406Y-275082D01*
X4885791Y-276961D01*
X4892040Y-277672D01*
X4942586Y-277672D01*
X4946497Y-278434D01*
X4949748Y-280619D01*
X4951984Y-283921D01*
X4952746Y-287832D01*
X4952746Y-850595D01*
X4953254Y-859028D01*
X4955438Y-869289D01*
X4959299Y-879094D01*
X4960315Y-881075D01*
X4964734Y-888136D01*
X4966055Y-889914D01*
X4971643Y-896213D01*
X5275986Y-1200556D01*
X5282285Y-1206144D01*
X5284063Y-1207465D01*
X5291124Y-1211884D01*
X5293106Y-1212900D01*
X5302910Y-1216761D01*
X5313172Y-1218946D01*
X5321604Y-1219454D01*
X6628942Y-1219454D01*
X6639864Y-1218539D01*
X6650075Y-1215948D01*
X6659727Y-1211732D01*
X6668516Y-1205992D01*
X6676288Y-1198880D01*
X6682740Y-1190548D01*
X6687718Y-1181303D01*
X6691172Y-1171346D01*
X6692900Y-1160983D01*
X6692900Y-1150416D01*
X6691172Y-1140053D01*
X6687718Y-1130096D01*
X6682740Y-1120851D01*
X6676288Y-1112520D01*
X6668516Y-1105408D01*
X6659727Y-1099667D01*
X6650075Y-1095451D01*
X6639864Y-1092860D01*
X6628942Y-1091946D01*
X6403187Y-1091946D01*
X6399174Y-1091133D01*
X6395821Y-1088796D01*
X6393637Y-1085291D01*
X6393027Y-1081227D01*
X6394094Y-1077264D01*
X6396634Y-1074013D01*
X6400190Y-1072083D01*
X6409486Y-1069238D01*
X6418173Y-1064869D01*
X6425996Y-1059078D01*
X6432753Y-1052017D01*
X6438188Y-1043990D01*
X6442202Y-1035100D01*
X6444640Y-1025702D01*
X6445453Y-1016000D01*
X6444640Y-1006297D01*
X6442202Y-996899D01*
X6438188Y-988009D01*
X6432753Y-979982D01*
X6425996Y-972921D01*
X6418173Y-967130D01*
X6409486Y-962761D01*
X6400190Y-959916D01*
X6390538Y-958697D01*
X6380835Y-959103D01*
X6371285Y-961136D01*
X6362293Y-964793D01*
X6353962Y-969873D01*
X6348018Y-975106D01*
X6344920Y-976985D01*
X6341313Y-977646D01*
X6205016Y-977646D01*
X6201105Y-976884D01*
X6197803Y-974648D01*
X5864199Y-641045D01*
X5862167Y-638149D01*
X5861253Y-634695D01*
X5860440Y-625297D01*
X5858002Y-615899D01*
X5853988Y-607009D01*
X5848553Y-598982D01*
X5841796Y-591921D01*
X5833973Y-586130D01*
X5825286Y-581761D01*
X5815990Y-578916D01*
X5806338Y-577697D01*
X5796635Y-578104D01*
X5791047Y-579272D01*
X5786577Y-579272D01*
X5782513Y-577291D01*
X5779719Y-573735D01*
X5778754Y-569366D01*
X5778754Y-282244D01*
X5779516Y-278333D01*
X5781751Y-275031D01*
X5785002Y-272846D01*
X5788914Y-272084D01*
X5792774Y-272846D01*
X5796076Y-275031D01*
X6119317Y-598271D01*
X6125514Y-603351D01*
X6132118Y-606907D01*
X6139332Y-609092D01*
X6147308Y-609854D01*
X6652564Y-609854D01*
X6656831Y-610819D01*
X6660337Y-613460D01*
X6662369Y-617372D01*
X6662572Y-621741D01*
X6661150Y-630123D01*
X6661150Y-639876D01*
X6662775Y-649478D01*
X6666026Y-658622D01*
X6670751Y-667105D01*
X6676898Y-674674D01*
X6679336Y-677367D01*
X6680555Y-679958D01*
X6682892Y-687781D01*
X6686448Y-694385D01*
X6691528Y-700582D01*
X7033717Y-1042771D01*
X7039914Y-1047851D01*
X7046518Y-1051407D01*
X7053732Y-1053592D01*
X7061708Y-1054354D01*
X7281113Y-1054354D01*
X7284720Y-1055014D01*
X7287818Y-1056894D01*
X7293762Y-1062126D01*
X7302093Y-1067206D01*
X7311085Y-1070864D01*
X7320635Y-1072896D01*
X7330338Y-1073302D01*
X7339990Y-1072083D01*
X7349286Y-1069238D01*
X7357973Y-1064869D01*
X7365796Y-1059078D01*
X7372553Y-1052017D01*
X7377988Y-1043990D01*
X7382002Y-1035100D01*
X7384440Y-1025702D01*
X7385253Y-1016000D01*
X7384440Y-1006297D01*
X7382002Y-996899D01*
X7377988Y-988009D01*
X7372553Y-979982D01*
X7365796Y-972921D01*
X7357973Y-967130D01*
X7349286Y-962761D01*
X7339990Y-959916D01*
X7330338Y-958697D01*
X7320635Y-959103D01*
X7311085Y-961136D01*
X7302093Y-964793D01*
X7293762Y-969873D01*
X7287818Y-975106D01*
X7284720Y-976985D01*
X7281113Y-977646D01*
X7081266Y-977646D01*
X7077405Y-976884D01*
X7074103Y-974648D01*
X6771487Y-672033D01*
X6769252Y-668680D01*
X6768541Y-664667D01*
X6769404Y-660704D01*
X6772402Y-654100D01*
X6774840Y-644702D01*
X6775653Y-635000D01*
X6774840Y-625297D01*
X6774129Y-622554D01*
X6773875Y-618896D01*
X6774942Y-615340D01*
X6777177Y-612444D01*
X6780326Y-610514D01*
X6783984Y-609854D01*
X7566964Y-609854D01*
X7571231Y-610819D01*
X7574737Y-613460D01*
X7576769Y-617372D01*
X7576972Y-621741D01*
X7575550Y-630123D01*
X7575550Y-639876D01*
X7577175Y-649478D01*
X7580426Y-658622D01*
X7585151Y-667105D01*
X7591298Y-674674D01*
X7593736Y-677367D01*
X7594904Y-679907D01*
X7597292Y-687781D01*
X7600848Y-694385D01*
X7605928Y-700582D01*
X7935417Y-1030071D01*
X7941614Y-1035151D01*
X7948218Y-1038707D01*
X7955432Y-1040892D01*
X7963408Y-1041653D01*
X8297113Y-1041653D01*
X8300720Y-1042314D01*
X8303818Y-1044194D01*
X8309762Y-1049426D01*
X8318093Y-1054506D01*
X8327085Y-1058164D01*
X8336635Y-1060196D01*
X8346338Y-1060602D01*
X8355990Y-1059383D01*
X8365286Y-1056538D01*
X8373973Y-1052169D01*
X8381796Y-1046378D01*
X8388553Y-1039317D01*
X8393988Y-1031290D01*
X8398002Y-1022400D01*
X8400440Y-1013002D01*
X8401253Y-1003300D01*
X8400440Y-993597D01*
X8398002Y-984199D01*
X8393988Y-975309D01*
X8388553Y-967282D01*
X8381796Y-960221D01*
X8373973Y-954430D01*
X8365286Y-950061D01*
X8355990Y-947216D01*
X8346338Y-945997D01*
X8336635Y-946403D01*
X8327085Y-948436D01*
X8318093Y-952093D01*
X8309762Y-957173D01*
X8303818Y-962406D01*
X8300720Y-964285D01*
X8297113Y-964946D01*
X7982966Y-964946D01*
X7979105Y-964184D01*
X7975803Y-961948D01*
X7685887Y-672033D01*
X7683652Y-668680D01*
X7682941Y-664667D01*
X7683804Y-660704D01*
X7686802Y-654100D01*
X7689240Y-644702D01*
X7690053Y-635000D01*
X7689240Y-625297D01*
X7688529Y-622554D01*
X7688275Y-618896D01*
X7689342Y-615340D01*
X7691577Y-612444D01*
X7694726Y-610514D01*
X7698384Y-609854D01*
X9606483Y-609854D01*
X9610394Y-610616D01*
X9613696Y-612851D01*
X9789617Y-788771D01*
X9795814Y-793851D01*
X9802418Y-797407D01*
X9809632Y-799592D01*
X9817608Y-800354D01*
X10426903Y-800354D01*
X10431221Y-801319D01*
X10434726Y-804011D01*
X10436707Y-807974D01*
X10436860Y-812393D01*
X10435132Y-816457D01*
X10431830Y-819403D01*
X10430103Y-820369D01*
X10414660Y-831087D01*
X10400385Y-843330D01*
X10387431Y-856996D01*
X10375900Y-871829D01*
X10365994Y-887831D01*
X10357713Y-904697D01*
X10351160Y-922324D01*
X10346436Y-940511D01*
X10343591Y-959103D01*
X10342626Y-977900D01*
X10343591Y-996696D01*
X10346436Y-1015288D01*
X10351160Y-1033475D01*
X10357713Y-1051102D01*
X10365994Y-1067968D01*
X10375900Y-1083970D01*
X10387431Y-1098804D01*
X10400385Y-1112469D01*
X10414660Y-1124712D01*
X10430103Y-1135430D01*
X10446512Y-1144574D01*
X10463834Y-1151991D01*
X10481767Y-1157630D01*
X10500156Y-1161389D01*
X10518902Y-1163320D01*
X10537698Y-1163320D01*
X10556392Y-1161389D01*
X10574832Y-1157630D01*
X10592765Y-1151991D01*
X10610037Y-1144574D01*
X10626496Y-1135430D01*
X10641939Y-1124712D01*
X10656163Y-1112469D01*
X10669168Y-1098804D01*
X10680649Y-1083970D01*
X10690606Y-1067968D01*
X10698886Y-1051102D01*
X10705439Y-1033475D01*
X10710113Y-1015288D01*
X10712958Y-996696D01*
X10713923Y-977900D01*
X10712958Y-959103D01*
X10710113Y-940511D01*
X10705439Y-922324D01*
X10698886Y-904697D01*
X10690606Y-887831D01*
X10680649Y-871829D01*
X10669168Y-856996D01*
X10656163Y-843330D01*
X10641939Y-831087D01*
X10626496Y-820369D01*
X10624769Y-819403D01*
X10621467Y-816457D01*
X10619689Y-812393D01*
X10619841Y-807974D01*
X10621873Y-804011D01*
X10625378Y-801319D01*
X10629696Y-800354D01*
X10803585Y-800354D01*
X10807293Y-801065D01*
X10810544Y-803097D01*
X10812780Y-806196D01*
X10813694Y-809853D01*
X10813237Y-813663D01*
X10810443Y-822248D01*
X10807750Y-836472D01*
X10806836Y-850900D01*
X10807750Y-865327D01*
X10810443Y-879551D01*
X10814913Y-893318D01*
X10821060Y-906373D01*
X10828832Y-918616D01*
X10838027Y-929741D01*
X10848594Y-939647D01*
X10860278Y-948131D01*
X10872927Y-955090D01*
X10886389Y-960424D01*
X10900410Y-964031D01*
X10914735Y-965860D01*
X10929213Y-965860D01*
X10943590Y-964031D01*
X10957560Y-960424D01*
X10971022Y-955090D01*
X10983722Y-948131D01*
X10995406Y-939647D01*
X11005921Y-929741D01*
X11015167Y-918616D01*
X11022888Y-906373D01*
X11029086Y-893318D01*
X11033556Y-879551D01*
X11036249Y-865327D01*
X11037163Y-850900D01*
X11036249Y-836472D01*
X11033556Y-822248D01*
X11029086Y-808482D01*
X11022888Y-795426D01*
X11015167Y-783183D01*
X11005921Y-772058D01*
X11000689Y-767130D01*
X10998352Y-763828D01*
X10997488Y-759917D01*
X10998200Y-755954D01*
X11000384Y-752602D01*
X11003686Y-750366D01*
X11007648Y-749554D01*
X11016183Y-749554D01*
X11020094Y-750316D01*
X11023396Y-752551D01*
X11067186Y-796340D01*
X11069472Y-799795D01*
X11070183Y-803859D01*
X11068913Y-808482D01*
X11064443Y-822248D01*
X11061750Y-836472D01*
X11060836Y-850900D01*
X11061750Y-865327D01*
X11064443Y-879551D01*
X11068913Y-893318D01*
X11075060Y-906373D01*
X11082832Y-918616D01*
X11092027Y-929741D01*
X11102594Y-939647D01*
X11114278Y-948131D01*
X11126927Y-955090D01*
X11140389Y-960424D01*
X11154410Y-964031D01*
X11168735Y-965860D01*
X11183213Y-965860D01*
X11197590Y-964031D01*
X11211560Y-960424D01*
X11225022Y-955090D01*
X11237722Y-948131D01*
X11249406Y-939647D01*
X11255705Y-933703D01*
X11259210Y-931570D01*
X11263325Y-931011D01*
X11267338Y-932129D01*
X11270538Y-934719D01*
X11276330Y-941882D01*
X11364518Y-1030071D01*
X11370716Y-1035151D01*
X11377320Y-1038707D01*
X11384534Y-1040892D01*
X11392509Y-1041653D01*
X12039193Y-1041653D01*
X12047169Y-1040892D01*
X12054382Y-1038707D01*
X12060986Y-1035151D01*
X12067184Y-1030071D01*
X12137644Y-959612D01*
X12140895Y-957427D01*
X12144705Y-956614D01*
X12148566Y-957326D01*
X12156389Y-960424D01*
X12170410Y-964031D01*
X12184735Y-965860D01*
X12199213Y-965860D01*
X12213590Y-964031D01*
X12227560Y-960424D01*
X12241022Y-955090D01*
X12253722Y-948131D01*
X12265406Y-939647D01*
X12275921Y-929741D01*
X12285167Y-918616D01*
X12292888Y-906373D01*
X12299086Y-893318D01*
X12303556Y-879551D01*
X12306249Y-865327D01*
X12307163Y-850900D01*
X12306249Y-836472D01*
X12303556Y-822248D01*
X12299086Y-808482D01*
X12292888Y-795426D01*
X12285167Y-783183D01*
X12275921Y-772058D01*
X12265406Y-762152D01*
X12253722Y-753668D01*
X12241022Y-746709D01*
X12227560Y-741375D01*
X12213590Y-737768D01*
X12199213Y-735939D01*
X12184735Y-735939D01*
X12170410Y-737768D01*
X12156389Y-741375D01*
X12142927Y-746709D01*
X12130278Y-753668D01*
X12118594Y-762152D01*
X12108027Y-772058D01*
X12098832Y-783183D01*
X12091060Y-795426D01*
X12084913Y-808482D01*
X12080443Y-822248D01*
X12077750Y-836472D01*
X12076836Y-850900D01*
X12077750Y-865327D01*
X12080443Y-879551D01*
X12084913Y-893318D01*
X12086183Y-898042D01*
X12085523Y-902106D01*
X12083237Y-905510D01*
X12026798Y-961948D01*
X12023496Y-964184D01*
X12019584Y-964946D01*
X12007850Y-964946D01*
X12003684Y-964082D01*
X12000280Y-961593D01*
X11998198Y-957935D01*
X11997740Y-953719D01*
X11999061Y-949706D01*
X12001855Y-946556D01*
X12011406Y-939647D01*
X12021921Y-929741D01*
X12031167Y-918616D01*
X12038888Y-906373D01*
X12045086Y-893318D01*
X12049556Y-879551D01*
X12052249Y-865327D01*
X12053163Y-850900D01*
X12052249Y-836472D01*
X12049556Y-822248D01*
X12045086Y-808482D01*
X12038888Y-795426D01*
X12031167Y-783183D01*
X12021921Y-772058D01*
X12011406Y-762152D01*
X11999722Y-753668D01*
X11987022Y-746709D01*
X11973560Y-741375D01*
X11959590Y-737768D01*
X11945213Y-735939D01*
X11930735Y-735939D01*
X11916410Y-737768D01*
X11902389Y-741375D01*
X11888927Y-746709D01*
X11876278Y-753668D01*
X11865457Y-761492D01*
X11861393Y-763270D01*
X11856974Y-763117D01*
X11853011Y-761136D01*
X11850319Y-757631D01*
X11849354Y-753313D01*
X11849354Y-546557D01*
X11848541Y-538581D01*
X11846356Y-531418D01*
X11842851Y-524764D01*
X11837771Y-518566D01*
X11555730Y-236575D01*
X11553494Y-233171D01*
X11552783Y-229158D01*
X11553698Y-225145D01*
X11555425Y-221437D01*
X11559946Y-207264D01*
X11562638Y-192633D01*
X11563553Y-177800D01*
X11562638Y-162915D01*
X11559946Y-148285D01*
X11555425Y-134112D01*
X11549176Y-120599D01*
X11541353Y-107950D01*
X11532006Y-96316D01*
X11521338Y-85953D01*
X11509451Y-77012D01*
X11496548Y-69545D01*
X11482882Y-63754D01*
X11468557Y-59690D01*
X11453825Y-57404D01*
X11438940Y-56946D01*
X11424158Y-58318D01*
X11409629Y-61518D01*
X11395557Y-66446D01*
X11382248Y-73101D01*
X11369852Y-81330D01*
X11358524Y-90982D01*
X11348516Y-102006D01*
X11339931Y-114147D01*
X11332870Y-127254D01*
X11327485Y-141173D01*
X11325656Y-148336D01*
X11323675Y-152196D01*
X11320272Y-154940D01*
X11316055Y-155956D01*
X11311839Y-155143D01*
X11308283Y-152654D01*
X11306098Y-148894D01*
X11301425Y-134112D01*
X11295176Y-120599D01*
X11287353Y-107950D01*
X11278006Y-96316D01*
X11267338Y-85953D01*
X11255451Y-77012D01*
X11242548Y-69545D01*
X11228882Y-63754D01*
X11214557Y-59690D01*
X11199825Y-57404D01*
X11184940Y-56946D01*
X11170158Y-58318D01*
X11155629Y-61518D01*
X11141557Y-66446D01*
X11128248Y-73101D01*
X11115852Y-81330D01*
X11104524Y-90982D01*
X11094516Y-102006D01*
X11085931Y-114147D01*
X11078870Y-127254D01*
X11073485Y-141122D01*
X11069878Y-155549D01*
X11068050Y-170332D01*
X11068050Y-185216D01*
X11069878Y-199999D01*
X11073485Y-214426D01*
X11078870Y-228295D01*
X11085931Y-241401D01*
X11094516Y-253542D01*
X11104524Y-264566D01*
X11115852Y-274218D01*
X11128248Y-282448D01*
X11141557Y-289102D01*
X11155629Y-294030D01*
X11159286Y-294843D01*
X11162893Y-296418D01*
X11165586Y-299212D01*
X11167059Y-302818D01*
X11167059Y-306730D01*
X11165586Y-310337D01*
X11162893Y-313131D01*
X11159286Y-314706D01*
X11155629Y-315518D01*
X11141557Y-320446D01*
X11128248Y-327101D01*
X11115852Y-335330D01*
X11104524Y-344982D01*
X11094516Y-356006D01*
X11085931Y-368147D01*
X11078870Y-381254D01*
X11073485Y-395173D01*
X11071656Y-402336D01*
X11069675Y-406196D01*
X11066272Y-408940D01*
X11062055Y-409956D01*
X11057839Y-409143D01*
X11054283Y-406654D01*
X11052098Y-402894D01*
X11047425Y-388112D01*
X11041176Y-374599D01*
X11033353Y-361950D01*
X11024006Y-350316D01*
X11013338Y-339953D01*
X11001451Y-331012D01*
X10988548Y-323545D01*
X10974882Y-317754D01*
X10960557Y-313690D01*
X10945825Y-311404D01*
X10930940Y-310946D01*
X10916158Y-312318D01*
X10901629Y-315518D01*
X10887557Y-320446D01*
X10874248Y-327101D01*
X10861852Y-335330D01*
X10850524Y-344982D01*
X10840516Y-356006D01*
X10831931Y-368147D01*
X10824870Y-381254D01*
X10819485Y-395173D01*
X10817656Y-402336D01*
X10815675Y-406196D01*
X10812272Y-408940D01*
X10808055Y-409956D01*
X10803839Y-409143D01*
X10800283Y-406654D01*
X10798098Y-402894D01*
X10793425Y-388112D01*
X10787176Y-374599D01*
X10779353Y-361950D01*
X10770006Y-350316D01*
X10759338Y-339953D01*
X10747451Y-331012D01*
X10734548Y-323545D01*
X10720882Y-317754D01*
X10709554Y-314553D01*
X10705744Y-312470D01*
X10703102Y-309016D01*
X10702188Y-304800D01*
X10703102Y-300532D01*
X10705744Y-297078D01*
X10709554Y-294995D01*
X10720882Y-291795D01*
X10734548Y-286004D01*
X10747451Y-278536D01*
X10759338Y-269595D01*
X10770006Y-259232D01*
X10779353Y-247599D01*
X10787176Y-234950D01*
X10793425Y-221437D01*
X10797946Y-207162D01*
X10800638Y-192633D01*
X10801553Y-177800D01*
X10800638Y-162915D01*
X10797946Y-148285D01*
X10793425Y-134112D01*
X10787176Y-120599D01*
X10779353Y-107950D01*
X10770006Y-96316D01*
X10759338Y-85953D01*
X10747451Y-77012D01*
X10734548Y-69545D01*
X10720882Y-63754D01*
X10706557Y-59690D01*
X10691825Y-57404D01*
X10676940Y-56946D01*
X10662158Y-58318D01*
X10647629Y-61518D01*
X10633557Y-66446D01*
X10620248Y-73101D01*
X10607852Y-81330D01*
X10596524Y-90982D01*
X10586516Y-102006D01*
X10577931Y-114147D01*
X10570870Y-127254D01*
X10565485Y-141173D01*
X10563656Y-148336D01*
X10561675Y-152196D01*
X10558272Y-154940D01*
X10554055Y-155956D01*
X10549839Y-155143D01*
X10546283Y-152654D01*
X10544098Y-148894D01*
X10539425Y-134112D01*
X10533176Y-120599D01*
X10525353Y-107950D01*
X10516006Y-96316D01*
X10505338Y-85953D01*
X10493451Y-77012D01*
X10480548Y-69545D01*
X10466882Y-63754D01*
X10452557Y-59690D01*
X10437825Y-57404D01*
X10422940Y-56946D01*
X10408158Y-58318D01*
X10393629Y-61518D01*
X10379557Y-66446D01*
X10366248Y-73101D01*
X10353852Y-81330D01*
X10342524Y-90982D01*
X10332516Y-102006D01*
X10323931Y-114147D01*
X10316870Y-127254D01*
X10311485Y-141122D01*
X10307878Y-155549D01*
X10306050Y-170332D01*
X10306050Y-185216D01*
X10307878Y-199999D01*
X10311485Y-214426D01*
X10316870Y-228295D01*
X10323931Y-241401D01*
X10332516Y-253542D01*
X10342524Y-264566D01*
X10353852Y-274218D01*
X10366248Y-282448D01*
X10379557Y-289102D01*
X10393629Y-294030D01*
X10397286Y-294843D01*
X10400893Y-296418D01*
X10403586Y-299212D01*
X10405059Y-302818D01*
X10405059Y-306730D01*
X10403586Y-310337D01*
X10400893Y-313131D01*
X10397286Y-314706D01*
X10393629Y-315518D01*
X10379557Y-320446D01*
X10366248Y-327101D01*
X10353852Y-335330D01*
X10342524Y-344982D01*
X10332516Y-356006D01*
X10323931Y-368147D01*
X10316870Y-381254D01*
X10311485Y-395122D01*
X10307878Y-409549D01*
X10306050Y-424332D01*
X10306050Y-439216D01*
X10307878Y-453999D01*
X10311485Y-468426D01*
X10316870Y-482295D01*
X10323931Y-495401D01*
X10332516Y-507542D01*
X10342524Y-518566D01*
X10353852Y-528218D01*
X10366248Y-536448D01*
X10379557Y-543102D01*
X10393629Y-548030D01*
X10408158Y-551230D01*
X10422940Y-552602D01*
X10437825Y-552145D01*
X10452557Y-549859D01*
X10466882Y-545795D01*
X10480548Y-540004D01*
X10493451Y-532536D01*
X10499140Y-528218D01*
X10503255Y-526389D01*
X10507726Y-526491D01*
X10511688Y-528472D01*
X10514482Y-531977D01*
X10515447Y-536346D01*
X10515447Y-596392D01*
X10516209Y-604367D01*
X10517632Y-608939D01*
X10518038Y-612698D01*
X10517022Y-616305D01*
X10514787Y-619353D01*
X10511586Y-621334D01*
X10507878Y-622046D01*
X9951466Y-622046D01*
X9947605Y-621284D01*
X9944303Y-619048D01*
X9831425Y-506222D01*
X9829190Y-502818D01*
X9828479Y-498856D01*
X9829342Y-494944D01*
X9831628Y-491642D01*
X9835083Y-489508D01*
X9839096Y-488848D01*
X9843008Y-489864D01*
X9847275Y-491896D01*
X9866325Y-498906D01*
X9885984Y-504088D01*
X9906050Y-507390D01*
X9926320Y-508812D01*
X9946640Y-508355D01*
X9966807Y-505968D01*
X9986670Y-501700D01*
X10006076Y-495604D01*
X10024770Y-487730D01*
X10042702Y-478129D01*
X10059619Y-466902D01*
X10075418Y-454101D01*
X10089946Y-439877D01*
X10103104Y-424383D01*
X10114737Y-407720D01*
X10124744Y-390042D01*
X10133076Y-371500D01*
X10139629Y-352298D01*
X10144353Y-332536D01*
X10147198Y-312420D01*
X10148163Y-292100D01*
X10147198Y-271780D01*
X10144353Y-251663D01*
X10139629Y-231902D01*
X10133076Y-212699D01*
X10124744Y-194157D01*
X10114737Y-176479D01*
X10103104Y-159816D01*
X10089946Y-144322D01*
X10075418Y-130098D01*
X10059619Y-117297D01*
X10042702Y-106070D01*
X10024770Y-96469D01*
X10006076Y-88595D01*
X9986670Y-82499D01*
X9966807Y-78232D01*
X9946640Y-75844D01*
X9926320Y-75387D01*
X9906050Y-76809D01*
X9885984Y-80111D01*
X9866325Y-85293D01*
X9847275Y-92303D01*
X9828936Y-101092D01*
X9811461Y-111506D01*
X9795103Y-123545D01*
X9779914Y-137007D01*
X9766046Y-151892D01*
X9753650Y-167995D01*
X9742830Y-185166D01*
X9733635Y-203301D01*
X9726168Y-222199D01*
X9720529Y-241757D01*
X9716770Y-261721D01*
X9714839Y-281940D01*
X9714839Y-302260D01*
X9716770Y-322478D01*
X9720529Y-342442D01*
X9726168Y-362000D01*
X9733584Y-380847D01*
X9734296Y-384708D01*
X9733483Y-388569D01*
X9731248Y-391820D01*
X9727946Y-393954D01*
X9724085Y-394716D01*
X9720224Y-393954D01*
X9716973Y-391718D01*
X9666782Y-341528D01*
X9660585Y-336448D01*
X9653930Y-332892D01*
X9646767Y-330708D01*
X9638792Y-329946D01*
X6979666Y-329946D01*
X6975805Y-329184D01*
X6972503Y-326948D01*
X6865162Y-219659D01*
X6862927Y-216204D01*
X6862216Y-212140D01*
X6863486Y-207517D01*
X6867956Y-193751D01*
X6870649Y-179527D01*
X6871563Y-165100D01*
X6870649Y-150672D01*
X6867956Y-136448D01*
X6863486Y-122682D01*
X6857288Y-109626D01*
X6849567Y-97383D01*
X6840321Y-86258D01*
X6829806Y-76352D01*
X6818122Y-67868D01*
X6805422Y-60909D01*
X6791959Y-55575D01*
X6777990Y-51968D01*
X6763613Y-50139D01*
X6749135Y-50139D01*
X6734809Y-51968D01*
X6720789Y-55575D01*
X6707327Y-60909D01*
X6694678Y-67868D01*
X6682994Y-76352D01*
X6672427Y-86258D01*
X6663232Y-97383D01*
X6655460Y-109626D01*
X6649313Y-122682D01*
X6644843Y-136448D01*
X6642150Y-150672D01*
X6641236Y-165100D01*
X6642150Y-179527D01*
X6644843Y-193751D01*
X6649313Y-207517D01*
X6655460Y-220573D01*
X6663232Y-232816D01*
X6672427Y-243941D01*
X6682994Y-253847D01*
X6694678Y-262331D01*
X6707327Y-269290D01*
X6720789Y-274624D01*
X6734809Y-278231D01*
X6749135Y-280060D01*
X6763613Y-280060D01*
X6777990Y-278231D01*
X6791959Y-274624D01*
X6799884Y-271526D01*
X6803745Y-270764D01*
X6807555Y-271576D01*
X6810806Y-273761D01*
X6932117Y-395071D01*
X6938314Y-400151D01*
X6944918Y-403707D01*
X6952132Y-405892D01*
X6960108Y-406654D01*
X9619183Y-406654D01*
X9623094Y-407416D01*
X9626396Y-409651D01*
X9630968Y-414223D01*
X9633153Y-417474D01*
X9633915Y-421385D01*
X9633153Y-425297D01*
X9630968Y-428548D01*
X9627666Y-430784D01*
X9623755Y-431546D01*
X6319266Y-431546D01*
X6315405Y-430784D01*
X6312103Y-428548D01*
X6103162Y-219659D01*
X6100927Y-216204D01*
X6100216Y-212140D01*
X6101486Y-207517D01*
X6105956Y-193751D01*
X6108649Y-179527D01*
X6109563Y-165100D01*
X6108649Y-150672D01*
X6105956Y-136448D01*
X6101486Y-122682D01*
X6095288Y-109626D01*
X6087567Y-97383D01*
X6078321Y-86258D01*
X6067806Y-76352D01*
X6056122Y-67868D01*
X6043422Y-60909D01*
X6029960Y-55575D01*
X6015990Y-51968D01*
X6001613Y-50139D01*
X5987135Y-50139D01*
X5972810Y-51968D01*
X5958789Y-55575D01*
X5945327Y-60909D01*
X5932678Y-67868D01*
X5921197Y-76200D01*
X5917946Y-77774D01*
X5914390Y-78130D01*
X5910935Y-77216D01*
X5908040Y-75184D01*
X5875832Y-42976D01*
X5873648Y-39725D01*
X5872886Y-35814D01*
X5873648Y-31902D01*
X5875832Y-28651D01*
X5879134Y-26416D01*
X5883046Y-25654D01*
X15098725Y-25654D01*
X15118537Y-26568D01*
X15137079Y-29006D01*
X15155265Y-33121D01*
X15173096Y-38760D01*
X15190317Y-45923D01*
X15206827Y-54610D01*
X15222575Y-64668D01*
X15237358Y-76047D01*
X15251074Y-88696D01*
X15263672Y-102463D01*
X15275001Y-117297D01*
X15285008Y-133096D01*
X15293594Y-149656D01*
X15300706Y-166928D01*
X15306294Y-184759D01*
X15310307Y-202996D01*
X15312694Y-221488D01*
X15313507Y-240436D01*
X15313507Y-932891D01*
X15312644Y-936955D01*
X15310256Y-940358D01*
X15306649Y-942492D01*
X15302534Y-943051D01*
X15298521Y-941832D01*
X15295372Y-939190D01*
X15293492Y-935431D01*
X15290139Y-922324D01*
X15283586Y-904697D01*
X15275306Y-887831D01*
X15265349Y-871829D01*
X15253868Y-856996D01*
X15240863Y-843330D01*
X15226639Y-831087D01*
X15211196Y-820369D01*
X15194737Y-811225D01*
X15177465Y-803808D01*
X15159532Y-798169D01*
X15141092Y-794410D01*
X15122398Y-792480D01*
X15103601Y-792480D01*
X15084856Y-794410D01*
X15066467Y-798169D01*
X15048534Y-803808D01*
X15031212Y-811225D01*
X15014803Y-820369D01*
X14999360Y-831087D01*
X14985085Y-843330D01*
X14972131Y-856996D01*
X14960600Y-871829D01*
X14950694Y-887831D01*
X14942413Y-904697D01*
X14935860Y-922324D01*
X14931136Y-940511D01*
X14928291Y-959103D01*
X14927326Y-977900D01*
X14928291Y-996696D01*
X14931136Y-1015288D01*
X14935860Y-1033475D01*
X14942413Y-1051102D01*
X14950694Y-1067968D01*
X14960600Y-1083970D01*
X14972131Y-1098804D01*
X14985085Y-1112469D01*
X14999360Y-1124712D01*
X15014803Y-1135430D01*
X15031212Y-1144574D01*
X15048534Y-1151991D01*
X15066467Y-1157630D01*
X15084856Y-1161389D01*
X15103601Y-1163320D01*
X15122398Y-1163320D01*
X15141092Y-1161389D01*
X15159532Y-1157630D01*
X15177465Y-1151991D01*
X15194737Y-1144574D01*
X15211196Y-1135430D01*
X15226639Y-1124712D01*
X15240863Y-1112469D01*
X15253868Y-1098804D01*
X15265349Y-1083970D01*
X15275306Y-1067968D01*
X15283586Y-1051102D01*
X15290139Y-1033475D01*
X15293492Y-1020368D01*
X15295372Y-1016609D01*
X15298521Y-1013968D01*
X15302534Y-1012748D01*
X15306649Y-1013307D01*
X15310256Y-1015441D01*
X15312644Y-1018844D01*
X15313507Y-1022908D01*
X15313507Y-2710891D01*
X15312644Y-2714955D01*
X15310256Y-2718358D01*
X15306649Y-2720492D01*
X15302534Y-2721051D01*
X15298521Y-2719832D01*
X15295372Y-2717190D01*
X15293492Y-2713431D01*
X15290139Y-2700324D01*
X15283586Y-2682697D01*
X15275306Y-2665831D01*
X15265349Y-2649829D01*
X15253868Y-2634996D01*
X15240863Y-2621330D01*
X15226639Y-2609088D01*
X15211196Y-2598369D01*
X15194737Y-2589225D01*
X15177465Y-2581808D01*
X15159532Y-2576169D01*
X15141092Y-2572410D01*
X15122398Y-2570480D01*
X15103601Y-2570480D01*
X15084856Y-2572410D01*
X15066467Y-2576169D01*
X15048534Y-2581808D01*
X15031212Y-2589225D01*
X15014803Y-2598369D01*
X14999360Y-2609088D01*
X14985085Y-2621330D01*
X14972131Y-2634996D01*
X14960600Y-2649829D01*
X14950694Y-2665831D01*
X14942413Y-2682697D01*
X14935860Y-2700324D01*
X14931136Y-2718511D01*
X14928291Y-2737104D01*
X14927326Y-2755900D01*
X14928291Y-2774696D01*
X14931136Y-2793288D01*
X14935860Y-2811475D01*
X14942413Y-2829102D01*
X14950694Y-2845968D01*
X14960600Y-2861970D01*
X14972131Y-2876804D01*
X14985085Y-2890469D01*
X14999360Y-2902712D01*
X15014803Y-2913430D01*
X15031212Y-2922574D01*
X15048534Y-2929991D01*
X15066467Y-2935630D01*
X15084856Y-2939389D01*
X15103601Y-2941320D01*
X15122398Y-2941320D01*
X15141092Y-2939389D01*
X15159532Y-2935630D01*
X15177465Y-2929991D01*
X15194737Y-2922574D01*
X15211196Y-2913430D01*
X15226639Y-2902712D01*
X15237612Y-2893263D01*
X15241422Y-2891231D01*
X15245791Y-2890926D01*
X15249804Y-2892501D01*
X15252852Y-2895650D01*
X15254274Y-2899765D01*
X15253868Y-2904083D01*
X15250464Y-2909112D01*
X15236698Y-2921711D01*
X15221864Y-2933039D01*
X15206065Y-2943047D01*
X15189504Y-2951632D01*
X15172232Y-2958744D01*
X15154401Y-2964332D01*
X15136164Y-2968345D01*
X15117673Y-2970733D01*
X15098725Y-2971546D01*
X14829434Y-2971546D01*
X14825675Y-2970834D01*
X14822474Y-2968802D01*
X14820239Y-2965704D01*
X14819274Y-2962046D01*
X14819731Y-2958236D01*
X14821611Y-2954934D01*
X14825167Y-2950616D01*
X14832888Y-2938373D01*
X14839086Y-2925318D01*
X14843556Y-2911551D01*
X14846249Y-2897327D01*
X14847163Y-2882900D01*
X14846249Y-2868472D01*
X14843556Y-2854248D01*
X14839086Y-2840482D01*
X14832888Y-2827426D01*
X14825167Y-2815183D01*
X14815921Y-2804058D01*
X14805406Y-2794152D01*
X14793722Y-2785668D01*
X14781022Y-2778709D01*
X14767560Y-2773375D01*
X14753590Y-2769768D01*
X14739213Y-2767939D01*
X14724735Y-2767939D01*
X14710410Y-2769768D01*
X14696389Y-2773375D01*
X14682927Y-2778709D01*
X14670278Y-2785668D01*
X14658594Y-2794152D01*
X14648027Y-2804058D01*
X14638832Y-2815183D01*
X14631060Y-2827426D01*
X14624913Y-2840482D01*
X14620443Y-2854248D01*
X14617750Y-2868472D01*
X14616836Y-2882900D01*
X14617750Y-2897327D01*
X14620443Y-2911551D01*
X14624913Y-2925318D01*
X14631060Y-2938373D01*
X14638832Y-2950616D01*
X14642388Y-2954934D01*
X14644217Y-2958236D01*
X14644674Y-2962046D01*
X14643760Y-2965704D01*
X14641525Y-2968802D01*
X14638274Y-2970834D01*
X14634565Y-2971546D01*
X14575434Y-2971546D01*
X14571675Y-2970834D01*
X14568474Y-2968802D01*
X14566239Y-2965704D01*
X14565274Y-2962046D01*
X14565731Y-2958236D01*
X14567611Y-2954934D01*
X14571167Y-2950616D01*
X14578888Y-2938373D01*
X14585086Y-2925318D01*
X14589556Y-2911551D01*
X14592249Y-2897327D01*
X14593163Y-2882900D01*
X14592249Y-2868472D01*
X14589556Y-2854248D01*
X14585086Y-2840482D01*
X14578888Y-2827426D01*
X14571167Y-2815183D01*
X14561921Y-2804058D01*
X14551406Y-2794152D01*
X14539722Y-2785668D01*
X14527022Y-2778709D01*
X14513560Y-2773375D01*
X14499590Y-2769768D01*
X14485213Y-2767939D01*
X14470735Y-2767939D01*
X14456410Y-2769768D01*
X14442389Y-2773375D01*
X14428927Y-2778709D01*
X14416278Y-2785668D01*
X14404594Y-2794152D01*
X14394027Y-2804058D01*
X14384832Y-2815183D01*
X14377060Y-2827426D01*
X14370913Y-2840482D01*
X14366443Y-2854248D01*
X14363750Y-2868472D01*
X14362836Y-2882900D01*
X14363750Y-2897327D01*
X14366443Y-2911551D01*
X14370913Y-2925318D01*
X14377060Y-2938373D01*
X14384832Y-2950616D01*
X14388388Y-2954934D01*
X14390217Y-2958236D01*
X14390674Y-2962046D01*
X14389760Y-2965704D01*
X14387525Y-2968802D01*
X14384274Y-2970834D01*
X14380565Y-2971546D01*
X14321434Y-2971546D01*
X14317675Y-2970834D01*
X14314474Y-2968802D01*
X14312239Y-2965704D01*
X14311274Y-2962046D01*
X14311731Y-2958236D01*
X14313611Y-2954934D01*
X14317167Y-2950616D01*
X14324888Y-2938373D01*
X14331086Y-2925318D01*
X14335556Y-2911551D01*
X14338249Y-2897327D01*
X14339163Y-2882900D01*
X14338249Y-2868472D01*
X14335556Y-2854248D01*
X14331086Y-2840482D01*
X14324888Y-2827426D01*
X14317167Y-2815183D01*
X14307921Y-2804058D01*
X14297406Y-2794152D01*
X14285722Y-2785668D01*
X14273022Y-2778709D01*
X14259560Y-2773375D01*
X14245590Y-2769768D01*
X14231213Y-2767939D01*
X14216735Y-2767939D01*
X14202410Y-2769768D01*
X14188389Y-2773375D01*
X14174927Y-2778709D01*
X14162278Y-2785668D01*
X14150594Y-2794152D01*
X14140027Y-2804058D01*
X14130832Y-2815183D01*
X14123060Y-2827426D01*
X14116913Y-2840482D01*
X14112443Y-2854248D01*
X14109750Y-2868472D01*
X14108836Y-2882900D01*
X14109750Y-2897327D01*
X14112443Y-2911551D01*
X14116913Y-2925318D01*
X14123060Y-2938373D01*
X14130832Y-2950616D01*
X14134388Y-2954934D01*
X14136217Y-2958236D01*
X14136674Y-2962046D01*
X14135760Y-2965704D01*
X14133525Y-2968802D01*
X14130274Y-2970834D01*
X14126565Y-2971546D01*
X14067434Y-2971546D01*
X14063675Y-2970834D01*
X14060474Y-2968802D01*
X14058239Y-2965704D01*
X14057274Y-2962046D01*
X14057731Y-2958236D01*
X14059611Y-2954934D01*
X14063167Y-2950616D01*
X14070888Y-2938373D01*
X14072971Y-2934004D01*
X14021104Y-2934004D01*
X14021104Y-2961386D01*
X14020342Y-2965297D01*
X14018107Y-2968548D01*
X14014856Y-2970784D01*
X14010944Y-2971546D01*
X13929055Y-2971546D01*
X13925143Y-2970784D01*
X13921841Y-2968548D01*
X13919657Y-2965297D01*
X13918895Y-2961386D01*
X13918895Y-2934004D01*
X13867028Y-2934004D01*
X13869060Y-2938373D01*
X13876832Y-2950616D01*
X13880388Y-2954934D01*
X13882217Y-2958236D01*
X13882674Y-2962046D01*
X13881760Y-2965704D01*
X13879525Y-2968802D01*
X13876274Y-2970834D01*
X13872565Y-2971546D01*
X13813434Y-2971546D01*
X13809675Y-2970834D01*
X13806474Y-2968802D01*
X13804239Y-2965704D01*
X13803274Y-2962046D01*
X13803731Y-2958236D01*
X13805611Y-2954934D01*
X13809167Y-2950616D01*
X13816888Y-2938373D01*
X13823086Y-2925318D01*
X13827556Y-2911551D01*
X13830249Y-2897327D01*
X13831163Y-2882900D01*
X13830249Y-2868472D01*
X13827556Y-2854248D01*
X13823086Y-2840482D01*
X13816888Y-2827426D01*
X13809167Y-2815183D01*
X13799921Y-2804058D01*
X13789406Y-2794152D01*
X13777722Y-2785668D01*
X13765022Y-2778709D01*
X13751560Y-2773375D01*
X13737590Y-2769768D01*
X13723213Y-2767939D01*
X13708735Y-2767939D01*
X13694410Y-2769768D01*
X13680389Y-2773375D01*
X13666927Y-2778709D01*
X13654278Y-2785668D01*
X13642594Y-2794152D01*
X13632027Y-2804058D01*
X13622832Y-2815183D01*
X13615060Y-2827426D01*
X13608913Y-2840482D01*
X13604443Y-2854248D01*
X13601750Y-2868472D01*
X13600836Y-2882900D01*
X13601750Y-2897327D01*
X13604443Y-2911551D01*
X13608913Y-2925318D01*
X13615060Y-2938373D01*
X13622832Y-2950616D01*
X13626388Y-2954934D01*
X13628217Y-2958236D01*
X13628674Y-2962046D01*
X13627760Y-2965704D01*
X13625525Y-2968802D01*
X13622274Y-2970834D01*
X13618565Y-2971546D01*
X13559434Y-2971546D01*
X13555675Y-2970834D01*
X13552474Y-2968802D01*
X13550239Y-2965704D01*
X13549274Y-2962046D01*
X13549731Y-2958236D01*
X13551611Y-2954934D01*
X13555167Y-2950616D01*
X13562888Y-2938373D01*
X13569086Y-2925318D01*
X13573556Y-2911551D01*
X13576249Y-2897327D01*
X13577163Y-2882900D01*
X13576249Y-2868472D01*
X13573556Y-2854248D01*
X13569086Y-2840482D01*
X13562888Y-2827426D01*
X13555167Y-2815183D01*
X13545921Y-2804058D01*
X13535406Y-2794152D01*
X13523722Y-2785668D01*
X13511022Y-2778709D01*
X13497560Y-2773375D01*
X13483590Y-2769768D01*
X13469213Y-2767939D01*
X13454735Y-2767939D01*
X13440410Y-2769768D01*
X13426389Y-2773375D01*
X13418515Y-2776474D01*
X13414654Y-2777185D01*
X13410844Y-2776423D01*
X13407593Y-2774238D01*
X12741351Y-2107996D01*
X12739116Y-2104694D01*
X12738354Y-2100783D01*
X12738354Y-966216D01*
X12739166Y-962304D01*
X12741402Y-959002D01*
X12744754Y-956767D01*
X12749022Y-955090D01*
X12761722Y-948131D01*
X12773406Y-939647D01*
X12783921Y-929741D01*
X12793167Y-918616D01*
X12800888Y-906373D01*
X12807086Y-893318D01*
X12811556Y-879551D01*
X12814249Y-865327D01*
X12815163Y-850900D01*
X12814249Y-836472D01*
X12811556Y-822248D01*
X12807086Y-808482D01*
X12800888Y-795426D01*
X12793167Y-783183D01*
X12783921Y-772058D01*
X12773406Y-762152D01*
X12761722Y-753668D01*
X12749022Y-746709D01*
X12735560Y-741375D01*
X12721590Y-737768D01*
X12707213Y-735939D01*
X12692735Y-735939D01*
X12678410Y-737768D01*
X12664389Y-741375D01*
X12650927Y-746709D01*
X12638278Y-753668D01*
X12626594Y-762152D01*
X12616027Y-772058D01*
X12606832Y-783183D01*
X12599060Y-795426D01*
X12592913Y-808482D01*
X12588443Y-822248D01*
X12585750Y-836472D01*
X12584836Y-850900D01*
X12585750Y-865327D01*
X12588443Y-879551D01*
X12592913Y-893318D01*
X12599060Y-906373D01*
X12606832Y-918616D01*
X12616027Y-929741D01*
X12626594Y-939647D01*
X12638278Y-948131D01*
X12650927Y-955090D01*
X12655245Y-956818D01*
X12658598Y-959002D01*
X12660833Y-962304D01*
X12661646Y-966266D01*
X12661646Y-2120392D01*
X12662408Y-2128367D01*
X12664592Y-2135581D01*
X12668148Y-2142185D01*
X12673228Y-2148382D01*
X13353186Y-2828340D01*
X13355472Y-2831795D01*
X13356183Y-2835859D01*
X13354913Y-2840482D01*
X13350443Y-2854248D01*
X13347750Y-2868472D01*
X13346836Y-2882900D01*
X13347750Y-2897327D01*
X13350443Y-2911551D01*
X13354913Y-2925318D01*
X13361060Y-2938373D01*
X13368832Y-2950616D01*
X13372388Y-2954934D01*
X13374217Y-2958236D01*
X13374674Y-2962046D01*
X13373760Y-2965704D01*
X13371525Y-2968802D01*
X13368274Y-2970834D01*
X13364565Y-2971546D01*
X13305434Y-2971546D01*
X13301675Y-2970834D01*
X13298474Y-2968802D01*
X13296239Y-2965704D01*
X13295274Y-2962046D01*
X13295731Y-2958236D01*
X13297611Y-2954934D01*
X13301167Y-2950616D01*
X13308888Y-2938373D01*
X13315086Y-2925318D01*
X13319556Y-2911551D01*
X13322249Y-2897327D01*
X13323163Y-2882900D01*
X13322249Y-2868472D01*
X13319556Y-2854248D01*
X13315086Y-2840482D01*
X13308888Y-2827426D01*
X13301167Y-2815183D01*
X13291921Y-2804058D01*
X13281406Y-2794152D01*
X13269722Y-2785668D01*
X13257022Y-2778709D01*
X13243560Y-2773375D01*
X13229590Y-2769768D01*
X13215213Y-2767939D01*
X13200735Y-2767939D01*
X13186410Y-2769768D01*
X13172389Y-2773375D01*
X13158927Y-2778709D01*
X13146278Y-2785668D01*
X13134594Y-2794152D01*
X13124027Y-2804058D01*
X13114832Y-2815183D01*
X13107060Y-2827426D01*
X13100913Y-2840482D01*
X13096443Y-2854248D01*
X13093750Y-2868472D01*
X13092836Y-2882900D01*
X13093750Y-2897327D01*
X13096443Y-2911551D01*
X13100913Y-2925318D01*
X13107060Y-2938373D01*
X13114832Y-2950616D01*
X13118388Y-2954934D01*
X13120217Y-2958236D01*
X13120674Y-2962046D01*
X13119760Y-2965704D01*
X13117525Y-2968802D01*
X13114274Y-2970834D01*
X13110565Y-2971546D01*
X13051434Y-2971546D01*
X13047675Y-2970834D01*
X13044474Y-2968802D01*
X13042239Y-2965704D01*
X13041274Y-2962046D01*
X13041731Y-2958236D01*
X13043611Y-2954934D01*
X13047167Y-2950616D01*
X13054888Y-2938373D01*
X13061086Y-2925318D01*
X13065556Y-2911551D01*
X13068249Y-2897327D01*
X13069163Y-2882900D01*
X13068249Y-2868472D01*
X13065556Y-2854248D01*
X13061086Y-2840482D01*
X13054888Y-2827426D01*
X13047167Y-2815183D01*
X13037921Y-2804058D01*
X13027406Y-2794152D01*
X13015721Y-2785668D01*
X13003022Y-2778709D01*
X12989560Y-2773375D01*
X12975590Y-2769768D01*
X12961213Y-2767939D01*
X12946735Y-2767939D01*
X12932410Y-2769768D01*
X12918389Y-2773375D01*
X12904927Y-2778709D01*
X12892278Y-2785668D01*
X12880594Y-2794152D01*
X12870027Y-2804058D01*
X12860832Y-2815183D01*
X12853060Y-2827426D01*
X12846913Y-2840482D01*
X12842443Y-2854248D01*
X12839750Y-2868472D01*
X12838836Y-2882900D01*
X12839750Y-2897327D01*
X12842443Y-2911551D01*
X12846913Y-2925318D01*
X12853060Y-2938373D01*
X12860832Y-2950616D01*
X12864388Y-2954934D01*
X12866217Y-2958236D01*
X12866674Y-2962046D01*
X12865760Y-2965704D01*
X12863525Y-2968802D01*
X12860274Y-2970834D01*
X12856565Y-2971546D01*
X12797434Y-2971546D01*
X12793675Y-2970834D01*
X12790474Y-2968802D01*
X12788239Y-2965704D01*
X12787274Y-2962046D01*
X12787731Y-2958236D01*
X12789611Y-2954934D01*
X12793167Y-2950616D01*
X12800888Y-2938373D01*
X12807086Y-2925318D01*
X12811556Y-2911551D01*
X12814249Y-2897327D01*
X12815163Y-2882900D01*
X12814249Y-2868472D01*
X12811556Y-2854248D01*
X12807086Y-2840482D01*
X12800888Y-2827426D01*
X12793167Y-2815183D01*
X12783921Y-2804058D01*
X12773406Y-2794152D01*
X12761722Y-2785668D01*
X12749022Y-2778709D01*
X12735560Y-2773375D01*
X12721590Y-2769768D01*
X12707213Y-2767939D01*
X12692735Y-2767939D01*
X12678410Y-2769768D01*
X12664389Y-2773375D01*
X12650927Y-2778709D01*
X12638278Y-2785668D01*
X12626594Y-2794152D01*
X12616027Y-2804058D01*
X12606832Y-2815183D01*
X12599060Y-2827426D01*
X12592913Y-2840482D01*
X12588443Y-2854248D01*
X12585750Y-2868472D01*
X12584836Y-2882900D01*
X12585750Y-2897327D01*
X12588443Y-2911551D01*
X12592913Y-2925318D01*
X12599060Y-2938373D01*
X12606832Y-2950616D01*
X12610388Y-2954934D01*
X12612217Y-2958236D01*
X12612674Y-2962046D01*
X12611760Y-2965704D01*
X12609525Y-2968802D01*
X12606274Y-2970834D01*
X12602565Y-2971546D01*
X12543434Y-2971546D01*
X12539675Y-2970834D01*
X12536474Y-2968802D01*
X12534239Y-2965704D01*
X12533274Y-2962046D01*
X12533731Y-2958236D01*
X12535611Y-2954934D01*
X12539167Y-2950616D01*
X12546888Y-2938373D01*
X12553086Y-2925318D01*
X12557556Y-2911551D01*
X12560249Y-2897327D01*
X12561163Y-2882900D01*
X12560249Y-2868472D01*
X12557556Y-2854248D01*
X12553086Y-2840482D01*
X12546888Y-2827426D01*
X12539167Y-2815183D01*
X12529921Y-2804058D01*
X12519406Y-2794152D01*
X12507722Y-2785668D01*
X12495022Y-2778709D01*
X12481560Y-2773375D01*
X12467590Y-2769768D01*
X12453213Y-2767939D01*
X12438735Y-2767939D01*
X12424410Y-2769768D01*
X12410389Y-2773375D01*
X12396927Y-2778709D01*
X12384278Y-2785668D01*
X12372594Y-2794152D01*
X12362027Y-2804058D01*
X12352832Y-2815183D01*
X12345060Y-2827426D01*
X12338913Y-2840482D01*
X12334443Y-2854248D01*
X12331750Y-2868472D01*
X12330836Y-2882900D01*
X12331750Y-2897327D01*
X12334443Y-2911551D01*
X12338913Y-2925318D01*
X12345060Y-2938373D01*
X12352832Y-2950616D01*
X12356388Y-2954934D01*
X12358217Y-2958236D01*
X12358674Y-2962046D01*
X12357760Y-2965704D01*
X12355525Y-2968802D01*
X12352274Y-2970834D01*
X12348565Y-2971546D01*
X12289434Y-2971546D01*
X12285675Y-2970834D01*
X12282474Y-2968802D01*
X12280239Y-2965704D01*
X12279274Y-2962046D01*
X12279731Y-2958236D01*
X12281611Y-2954934D01*
X12285167Y-2950616D01*
X12292888Y-2938373D01*
X12299086Y-2925318D01*
X12303556Y-2911551D01*
X12306249Y-2897327D01*
X12307163Y-2882900D01*
X12306249Y-2868472D01*
X12303556Y-2854248D01*
X12299086Y-2840482D01*
X12292888Y-2827426D01*
X12285167Y-2815183D01*
X12275921Y-2804058D01*
X12265406Y-2794152D01*
X12253722Y-2785668D01*
X12241022Y-2778709D01*
X12227560Y-2773375D01*
X12213590Y-2769768D01*
X12199213Y-2767939D01*
X12184735Y-2767939D01*
X12170410Y-2769768D01*
X12156389Y-2773375D01*
X12148515Y-2776474D01*
X12144654Y-2777185D01*
X12140844Y-2776423D01*
X12137593Y-2774238D01*
X11774982Y-2411628D01*
X11768785Y-2406548D01*
X11762181Y-2402992D01*
X11754967Y-2400808D01*
X11746992Y-2400046D01*
X10974273Y-2400046D01*
X10970209Y-2399182D01*
X10966856Y-2396845D01*
X10964672Y-2393289D01*
X10964113Y-2389225D01*
X10965230Y-2385212D01*
X10967821Y-2382012D01*
X10974882Y-2376271D01*
X12391593Y-959561D01*
X12394844Y-957376D01*
X12398654Y-956614D01*
X12402515Y-957326D01*
X12410389Y-960424D01*
X12424410Y-964031D01*
X12438735Y-965860D01*
X12453213Y-965860D01*
X12467590Y-964031D01*
X12481560Y-960424D01*
X12495022Y-955090D01*
X12507722Y-948131D01*
X12519406Y-939647D01*
X12529921Y-929741D01*
X12539167Y-918616D01*
X12546888Y-906373D01*
X12553086Y-893318D01*
X12557556Y-879551D01*
X12560249Y-865327D01*
X12561163Y-850900D01*
X12560249Y-836472D01*
X12557556Y-822248D01*
X12553086Y-808482D01*
X12546888Y-795426D01*
X12539167Y-783183D01*
X12529921Y-772058D01*
X12519406Y-762152D01*
X12507722Y-753668D01*
X12495022Y-746709D01*
X12481560Y-741375D01*
X12467590Y-737768D01*
X12453213Y-735939D01*
X12438735Y-735939D01*
X12424410Y-737768D01*
X12410389Y-741375D01*
X12396927Y-746709D01*
X12384278Y-753668D01*
X12372594Y-762152D01*
X12362027Y-772058D01*
X12352832Y-783183D01*
X12345060Y-795426D01*
X12338913Y-808482D01*
X12334443Y-822248D01*
X12331750Y-836472D01*
X12330836Y-850900D01*
X12331750Y-865327D01*
X12334443Y-879551D01*
X12338913Y-893318D01*
X12340183Y-897940D01*
X12339472Y-902004D01*
X12337186Y-905459D01*
X10934496Y-2308148D01*
X10931194Y-2310384D01*
X10927283Y-2311146D01*
X9620250Y-2311146D01*
X9616084Y-2310282D01*
X9612680Y-2307793D01*
X9610598Y-2304135D01*
X9610140Y-2299919D01*
X9611461Y-2295906D01*
X9614255Y-2292756D01*
X9623806Y-2285847D01*
X9634321Y-2275941D01*
X9643567Y-2264816D01*
X9651288Y-2252573D01*
X9657486Y-2239518D01*
X9661956Y-2225751D01*
X9664649Y-2211527D01*
X9665563Y-2197100D01*
X9664649Y-2182672D01*
X9661956Y-2168448D01*
X9657486Y-2154682D01*
X9651288Y-2141626D01*
X9643567Y-2129383D01*
X9634321Y-2118258D01*
X9623806Y-2108352D01*
X9612122Y-2099868D01*
X9599422Y-2092909D01*
X9585960Y-2087575D01*
X9571990Y-2083968D01*
X9557613Y-2082139D01*
X9543135Y-2082139D01*
X9528810Y-2083968D01*
X9514789Y-2087575D01*
X9501327Y-2092909D01*
X9488678Y-2099868D01*
X9476994Y-2108352D01*
X9466427Y-2118258D01*
X9457232Y-2129383D01*
X9449460Y-2141626D01*
X9443313Y-2154682D01*
X9438843Y-2168448D01*
X9436150Y-2182672D01*
X9435236Y-2197100D01*
X9436150Y-2211527D01*
X9438843Y-2225751D01*
X9443313Y-2239518D01*
X9449460Y-2252573D01*
X9457232Y-2264816D01*
X9466427Y-2275941D01*
X9476994Y-2285847D01*
X9486493Y-2292756D01*
X9489338Y-2295906D01*
X9490659Y-2299919D01*
X9490202Y-2304135D01*
X9488068Y-2307793D01*
X9484664Y-2310282D01*
X9480550Y-2311146D01*
X9468866Y-2311146D01*
X9465005Y-2310384D01*
X9461703Y-2308148D01*
X9405162Y-2251659D01*
X9402927Y-2248204D01*
X9402216Y-2244140D01*
X9403486Y-2239518D01*
X9407956Y-2225751D01*
X9410649Y-2211527D01*
X9411563Y-2197100D01*
X9410649Y-2182672D01*
X9407956Y-2168448D01*
X9403486Y-2154682D01*
X9397288Y-2141626D01*
X9389567Y-2129383D01*
X9380321Y-2118258D01*
X9369806Y-2108352D01*
X9358122Y-2099868D01*
X9345422Y-2092909D01*
X9331960Y-2087575D01*
X9317990Y-2083968D01*
X9303613Y-2082139D01*
X9289135Y-2082139D01*
X9274810Y-2083968D01*
X9260789Y-2087575D01*
X9247327Y-2092909D01*
X9234678Y-2099868D01*
X9222994Y-2108352D01*
X9212427Y-2118258D01*
X9203232Y-2129383D01*
X9195460Y-2141626D01*
X9189313Y-2154682D01*
X9184843Y-2168448D01*
X9182150Y-2182672D01*
X9181236Y-2197100D01*
X9182150Y-2211527D01*
X9184843Y-2225751D01*
X9189313Y-2239518D01*
X9195460Y-2252573D01*
X9203232Y-2264816D01*
X9212427Y-2275941D01*
X9222994Y-2285847D01*
X9234678Y-2294331D01*
X9247327Y-2301290D01*
X9260789Y-2306624D01*
X9274810Y-2310231D01*
X9289135Y-2312060D01*
X9303613Y-2312060D01*
X9317990Y-2310231D01*
X9331960Y-2306624D01*
X9339884Y-2303526D01*
X9343745Y-2302764D01*
X9347555Y-2303576D01*
X9350806Y-2305761D01*
X9421317Y-2376271D01*
X9428378Y-2382012D01*
X9430969Y-2385212D01*
X9432086Y-2389225D01*
X9431477Y-2393289D01*
X9429343Y-2396845D01*
X9425990Y-2399182D01*
X9421926Y-2400046D01*
X7271766Y-2400046D01*
X7267905Y-2399284D01*
X7264603Y-2397048D01*
X7119162Y-2251659D01*
X7116927Y-2248204D01*
X7116216Y-2244140D01*
X7117486Y-2239518D01*
X7121956Y-2225751D01*
X7124649Y-2211527D01*
X7125563Y-2197100D01*
X7124649Y-2182672D01*
X7121956Y-2168448D01*
X7117486Y-2154682D01*
X7111288Y-2141626D01*
X7103567Y-2129383D01*
X7094321Y-2118258D01*
X7083806Y-2108352D01*
X7072122Y-2099868D01*
X7059422Y-2092909D01*
X7045959Y-2087575D01*
X7031990Y-2083968D01*
X7017613Y-2082139D01*
X7003135Y-2082139D01*
X6988809Y-2083968D01*
X6974789Y-2087575D01*
X6961327Y-2092909D01*
X6948678Y-2099868D01*
X6936994Y-2108352D01*
X6926427Y-2118258D01*
X6917232Y-2129383D01*
X6909460Y-2141626D01*
X6903313Y-2154682D01*
X6898843Y-2168448D01*
X6896150Y-2182672D01*
X6895236Y-2197100D01*
X6896150Y-2211527D01*
X6898843Y-2225751D01*
X6903313Y-2239518D01*
X6909460Y-2252573D01*
X6917232Y-2264816D01*
X6926427Y-2275941D01*
X6936994Y-2285847D01*
X6948678Y-2294331D01*
X6961327Y-2301290D01*
X6974789Y-2306624D01*
X6988809Y-2310231D01*
X7003135Y-2312060D01*
X7017613Y-2312060D01*
X7031990Y-2310231D01*
X7045959Y-2306624D01*
X7053884Y-2303526D01*
X7057745Y-2302764D01*
X7061555Y-2303576D01*
X7064806Y-2305761D01*
X7192568Y-2433523D01*
X7194753Y-2436774D01*
X7195515Y-2440686D01*
X7194753Y-2444597D01*
X7192568Y-2447848D01*
X7189266Y-2450084D01*
X7185355Y-2450846D01*
X7068566Y-2450846D01*
X7064705Y-2450084D01*
X7061403Y-2447848D01*
X6865162Y-2251659D01*
X6862927Y-2248204D01*
X6862216Y-2244140D01*
X6863486Y-2239518D01*
X6867956Y-2225751D01*
X6870649Y-2211527D01*
X6871563Y-2197100D01*
X6870649Y-2182672D01*
X6867956Y-2168448D01*
X6863486Y-2154682D01*
X6857288Y-2141626D01*
X6849567Y-2129383D01*
X6840321Y-2118258D01*
X6829806Y-2108352D01*
X6818122Y-2099868D01*
X6805422Y-2092909D01*
X6791959Y-2087575D01*
X6777990Y-2083968D01*
X6763613Y-2082139D01*
X6749135Y-2082139D01*
X6734809Y-2083968D01*
X6720789Y-2087575D01*
X6707327Y-2092909D01*
X6694678Y-2099868D01*
X6682994Y-2108352D01*
X6672427Y-2118258D01*
X6663232Y-2129383D01*
X6655460Y-2141626D01*
X6649313Y-2154682D01*
X6644843Y-2168448D01*
X6642150Y-2182672D01*
X6641236Y-2197100D01*
X6642150Y-2211527D01*
X6644843Y-2225751D01*
X6649313Y-2239518D01*
X6655460Y-2252573D01*
X6663232Y-2264816D01*
X6672427Y-2275941D01*
X6682994Y-2285847D01*
X6694678Y-2294331D01*
X6707327Y-2301290D01*
X6720789Y-2306624D01*
X6734809Y-2310231D01*
X6749135Y-2312060D01*
X6763613Y-2312060D01*
X6777990Y-2310231D01*
X6791959Y-2306624D01*
X6799884Y-2303526D01*
X6803745Y-2302764D01*
X6807555Y-2303576D01*
X6810806Y-2305761D01*
X6989368Y-2484323D01*
X6991553Y-2487574D01*
X6992315Y-2491486D01*
X6991553Y-2495397D01*
X6989368Y-2498648D01*
X6986066Y-2500884D01*
X6982155Y-2501646D01*
X6865366Y-2501646D01*
X6861505Y-2500884D01*
X6858203Y-2498648D01*
X6611162Y-2251659D01*
X6608927Y-2248204D01*
X6608216Y-2244140D01*
X6609486Y-2239518D01*
X6613956Y-2225751D01*
X6616649Y-2211527D01*
X6617563Y-2197100D01*
X6616649Y-2182672D01*
X6613956Y-2168448D01*
X6609486Y-2154682D01*
X6603288Y-2141626D01*
X6595567Y-2129383D01*
X6586321Y-2118258D01*
X6575806Y-2108352D01*
X6564122Y-2099868D01*
X6551422Y-2092909D01*
X6537959Y-2087575D01*
X6523990Y-2083968D01*
X6509613Y-2082139D01*
X6495135Y-2082139D01*
X6480810Y-2083968D01*
X6466789Y-2087575D01*
X6453327Y-2092909D01*
X6440678Y-2099868D01*
X6428994Y-2108352D01*
X6418427Y-2118258D01*
X6409232Y-2129383D01*
X6401460Y-2141626D01*
X6395313Y-2154682D01*
X6390843Y-2168448D01*
X6388150Y-2182672D01*
X6387236Y-2197100D01*
X6388150Y-2211527D01*
X6390843Y-2225751D01*
X6395313Y-2239518D01*
X6401460Y-2252573D01*
X6409232Y-2264816D01*
X6418427Y-2275941D01*
X6428994Y-2285847D01*
X6440678Y-2294331D01*
X6453327Y-2301290D01*
X6466789Y-2306624D01*
X6480810Y-2310231D01*
X6495135Y-2312060D01*
X6509613Y-2312060D01*
X6523990Y-2310231D01*
X6537959Y-2306624D01*
X6545884Y-2303526D01*
X6549745Y-2302764D01*
X6553555Y-2303576D01*
X6556806Y-2305761D01*
X6817817Y-2566771D01*
X6824014Y-2571851D01*
X6830618Y-2575407D01*
X6837832Y-2577592D01*
X6845808Y-2578354D01*
X10426903Y-2578354D01*
X10431221Y-2579319D01*
X10434726Y-2582011D01*
X10436707Y-2585974D01*
X10436860Y-2590393D01*
X10435132Y-2594457D01*
X10431830Y-2597404D01*
X10430103Y-2598369D01*
X10414660Y-2609088D01*
X10400385Y-2621330D01*
X10387431Y-2634996D01*
X10375900Y-2649829D01*
X10365994Y-2665831D01*
X10357713Y-2682697D01*
X10351160Y-2700324D01*
X10346436Y-2718511D01*
X10343591Y-2737104D01*
X10342626Y-2755900D01*
X10343591Y-2774696D01*
X10346436Y-2793288D01*
X10351160Y-2811475D01*
X10357713Y-2829102D01*
X10365994Y-2845968D01*
X10375900Y-2861970D01*
X10387431Y-2876804D01*
X10400385Y-2890469D01*
X10414660Y-2902712D01*
X10430103Y-2913430D01*
X10446512Y-2922574D01*
X10463834Y-2929991D01*
X10481767Y-2935630D01*
X10500156Y-2939389D01*
X10518902Y-2941320D01*
X10537698Y-2941320D01*
X10556392Y-2939389D01*
X10574832Y-2935630D01*
X10592765Y-2929991D01*
X10610037Y-2922574D01*
X10626496Y-2913430D01*
X10641939Y-2902712D01*
X10656163Y-2890469D01*
X10669168Y-2876804D01*
X10680649Y-2861970D01*
X10690606Y-2845968D01*
X10698886Y-2829102D01*
X10705439Y-2811475D01*
X10710113Y-2793288D01*
X10712958Y-2774696D01*
X10713923Y-2755900D01*
X10712958Y-2737104D01*
X10710113Y-2718511D01*
X10705439Y-2700324D01*
X10698886Y-2682697D01*
X10690606Y-2665831D01*
X10680649Y-2649829D01*
X10669168Y-2634996D01*
X10656163Y-2621330D01*
X10641939Y-2609088D01*
X10626496Y-2598369D01*
X10624769Y-2597404D01*
X10621467Y-2594457D01*
X10619689Y-2590393D01*
X10619841Y-2585974D01*
X10621873Y-2582011D01*
X10625378Y-2579319D01*
X10629696Y-2578354D01*
X11320983Y-2578354D01*
X11324894Y-2579116D01*
X11328196Y-2581351D01*
X11575186Y-2828340D01*
X11577472Y-2831795D01*
X11578183Y-2835859D01*
X11576913Y-2840482D01*
X11572443Y-2854248D01*
X11569750Y-2868472D01*
X11568836Y-2882900D01*
X11569750Y-2897327D01*
X11572443Y-2911551D01*
X11576913Y-2925318D01*
X11583060Y-2938373D01*
X11590832Y-2950616D01*
X11594388Y-2954934D01*
X11596217Y-2958236D01*
X11596674Y-2962046D01*
X11595760Y-2965704D01*
X11593525Y-2968802D01*
X11590274Y-2970834D01*
X11586565Y-2971546D01*
X11527434Y-2971546D01*
X11523675Y-2970834D01*
X11520474Y-2968802D01*
X11518239Y-2965704D01*
X11517274Y-2962046D01*
X11517731Y-2958236D01*
X11519611Y-2954934D01*
X11523167Y-2950616D01*
X11530888Y-2938373D01*
X11537086Y-2925318D01*
X11541556Y-2911551D01*
X11544249Y-2897327D01*
X11545163Y-2882900D01*
X11544249Y-2868472D01*
X11541556Y-2854248D01*
X11537086Y-2840482D01*
X11530888Y-2827426D01*
X11523167Y-2815183D01*
X11513921Y-2804058D01*
X11503406Y-2794152D01*
X11491722Y-2785668D01*
X11479022Y-2778709D01*
X11465560Y-2773375D01*
X11451590Y-2769768D01*
X11437213Y-2767939D01*
X11422735Y-2767939D01*
X11408410Y-2769768D01*
X11394389Y-2773375D01*
X11380927Y-2778709D01*
X11368278Y-2785668D01*
X11356594Y-2794152D01*
X11346027Y-2804058D01*
X11336832Y-2815183D01*
X11329060Y-2827426D01*
X11322913Y-2840482D01*
X11318443Y-2854248D01*
X11315750Y-2868472D01*
X11314836Y-2882900D01*
X11315750Y-2897327D01*
X11318443Y-2911551D01*
X11322913Y-2925318D01*
X11329060Y-2938373D01*
X11336832Y-2950616D01*
X11340388Y-2954934D01*
X11342217Y-2958236D01*
X11342674Y-2962046D01*
X11341760Y-2965704D01*
X11339525Y-2968802D01*
X11336274Y-2970834D01*
X11332565Y-2971546D01*
X11273434Y-2971546D01*
X11269675Y-2970834D01*
X11266474Y-2968802D01*
X11264239Y-2965704D01*
X11263274Y-2962046D01*
X11263731Y-2958236D01*
X11265611Y-2954934D01*
X11269167Y-2950616D01*
X11276888Y-2938373D01*
X11283086Y-2925318D01*
X11287556Y-2911551D01*
X11290249Y-2897327D01*
X11291163Y-2882900D01*
X11290249Y-2868472D01*
X11287556Y-2854248D01*
X11283086Y-2840482D01*
X11276888Y-2827426D01*
X11269167Y-2815183D01*
X11259921Y-2804058D01*
X11249406Y-2794152D01*
X11237722Y-2785668D01*
X11225022Y-2778709D01*
X11211560Y-2773375D01*
X11197590Y-2769768D01*
X11183213Y-2767939D01*
X11168735Y-2767939D01*
X11154410Y-2769768D01*
X11140389Y-2773375D01*
X11126927Y-2778709D01*
X11114278Y-2785668D01*
X11102594Y-2794152D01*
X11092027Y-2804058D01*
X11082832Y-2815183D01*
X11075060Y-2827426D01*
X11068913Y-2840482D01*
X11064443Y-2854248D01*
X11061750Y-2868472D01*
X11060836Y-2882900D01*
X11061750Y-2897327D01*
X11064443Y-2911551D01*
X11068913Y-2925318D01*
X11075060Y-2938373D01*
X11082832Y-2950616D01*
X11086388Y-2954934D01*
X11088217Y-2958236D01*
X11088674Y-2962046D01*
X11087760Y-2965704D01*
X11085525Y-2968802D01*
X11082274Y-2970834D01*
X11078565Y-2971546D01*
X11019434Y-2971546D01*
X11015675Y-2970834D01*
X11012474Y-2968802D01*
X11010239Y-2965704D01*
X11009274Y-2962046D01*
X11009731Y-2958236D01*
X11011611Y-2954934D01*
X11015167Y-2950616D01*
X11022888Y-2938373D01*
X11029086Y-2925318D01*
X11033556Y-2911551D01*
X11036249Y-2897327D01*
X11037163Y-2882900D01*
X11036249Y-2868472D01*
X11033556Y-2854248D01*
X11029086Y-2840482D01*
X11022888Y-2827426D01*
X11015167Y-2815183D01*
X11005921Y-2804058D01*
X10995406Y-2794152D01*
X10983722Y-2785668D01*
X10971022Y-2778709D01*
X10957560Y-2773375D01*
X10943590Y-2769768D01*
X10929213Y-2767939D01*
X10914735Y-2767939D01*
X10900410Y-2769768D01*
X10886389Y-2773375D01*
X10872927Y-2778709D01*
X10860278Y-2785668D01*
X10848594Y-2794152D01*
X10838027Y-2804058D01*
X10828832Y-2815183D01*
X10821060Y-2827426D01*
X10814913Y-2840482D01*
X10810443Y-2854248D01*
X10807750Y-2868472D01*
X10806836Y-2882900D01*
X10807750Y-2897327D01*
X10810443Y-2911551D01*
X10814913Y-2925318D01*
X10821060Y-2938373D01*
X10828832Y-2950616D01*
X10832388Y-2954934D01*
X10834217Y-2958236D01*
X10834674Y-2962046D01*
X10833760Y-2965704D01*
X10831525Y-2968802D01*
X10828274Y-2970834D01*
X10824565Y-2971546D01*
X5270804Y-2971546D01*
X5266893Y-2970784D01*
X5263591Y-2968548D01*
X5261406Y-2965297D01*
X5260644Y-2961386D01*
X5260644Y-2872943D01*
X5261406Y-2869031D01*
X5263591Y-2865729D01*
X5636920Y-2492451D01*
X5640222Y-2490216D01*
X5644134Y-2489454D01*
X6108242Y-2489454D01*
X6119164Y-2488539D01*
X6129375Y-2485948D01*
X6139027Y-2481732D01*
X6147816Y-2475992D01*
X6155588Y-2468880D01*
X6162040Y-2460548D01*
X6167018Y-2451303D01*
X6170472Y-2441346D01*
X6172200Y-2430983D01*
X6172200Y-2420416D01*
X6170472Y-2410053D01*
X6167018Y-2400096D01*
X6160414Y-2387854D01*
X6159855Y-2384552D01*
X6159855Y-2294788D01*
X6160820Y-2290470D01*
X6163564Y-2286965D01*
X6167475Y-2284933D01*
X6171895Y-2284831D01*
X6176010Y-2286558D01*
X6186678Y-2294331D01*
X6199327Y-2301290D01*
X6212789Y-2306624D01*
X6226810Y-2310231D01*
X6241135Y-2312060D01*
X6255613Y-2312060D01*
X6269990Y-2310231D01*
X6283960Y-2306624D01*
X6297422Y-2301290D01*
X6310122Y-2294331D01*
X6321806Y-2285847D01*
X6332321Y-2275941D01*
X6341567Y-2264816D01*
X6349288Y-2252573D01*
X6355486Y-2239518D01*
X6359956Y-2225751D01*
X6362649Y-2211527D01*
X6363563Y-2197100D01*
X6362649Y-2182672D01*
X6359956Y-2168448D01*
X6355486Y-2154682D01*
X6349288Y-2141626D01*
X6341567Y-2129383D01*
X6332321Y-2118258D01*
X6321806Y-2108352D01*
X6310122Y-2099868D01*
X6297422Y-2092909D01*
X6283960Y-2087575D01*
X6269990Y-2083968D01*
X6255613Y-2082139D01*
X6241135Y-2082139D01*
X6226810Y-2083968D01*
X6212789Y-2087575D01*
X6199327Y-2092909D01*
X6186678Y-2099868D01*
X6176010Y-2107641D01*
X6171895Y-2109368D01*
X6167475Y-2109266D01*
X6163564Y-2107234D01*
X6160820Y-2103729D01*
X6159855Y-2099411D01*
X6159855Y-2042414D01*
X6160617Y-2038502D01*
X6162852Y-2035251D01*
X6166104Y-2033016D01*
X6170015Y-2032254D01*
X8153095Y-2032254D01*
X8161477Y-2031746D01*
X8171789Y-2029561D01*
X8181594Y-2025700D01*
X8183575Y-2024684D01*
X8190636Y-2020265D01*
X8198713Y-2013356D01*
X8591905Y-1620164D01*
X8598966Y-1611833D01*
X8604351Y-1602790D01*
X8608161Y-1592986D01*
X8610346Y-1582674D01*
X8610752Y-1572158D01*
X8609482Y-1561744D01*
X8606485Y-1551635D01*
X8601862Y-1542186D01*
X8595715Y-1533601D01*
X8588298Y-1526184D01*
X8579713Y-1520037D01*
X8570264Y-1515414D01*
X8560155Y-1512417D01*
X8549741Y-1511147D01*
X8539226Y-1511554D01*
X8528913Y-1513738D01*
X8519109Y-1517548D01*
X8510066Y-1522933D01*
X8501735Y-1529994D01*
X8129981Y-1901748D01*
X8126679Y-1903984D01*
X8122767Y-1904746D01*
X5664606Y-1904746D01*
X5653684Y-1905660D01*
X5643473Y-1908251D01*
X5633872Y-1912467D01*
X5625033Y-1918207D01*
X5617311Y-1925320D01*
X5610860Y-1933651D01*
X5605830Y-1942896D01*
X5602427Y-1952853D01*
X5600700Y-1963216D01*
X5600700Y-1973783D01*
X5602935Y-1987854D01*
X5602071Y-1991512D01*
X5599988Y-1994560D01*
X5586730Y-2007819D01*
X5584342Y-2010765D01*
X5580989Y-2013407D01*
X5576824Y-2014474D01*
X5572607Y-2013712D01*
X5569051Y-2011273D01*
X5566867Y-2007616D01*
X5561076Y-1990699D01*
X5552744Y-1972157D01*
X5542737Y-1954479D01*
X5531104Y-1937816D01*
X5517946Y-1922322D01*
X5503418Y-1908098D01*
X5487619Y-1895297D01*
X5470702Y-1884070D01*
X5452770Y-1874469D01*
X5448350Y-1871776D01*
X5446166Y-1868474D01*
X5445404Y-1864563D01*
X5446166Y-1860702D01*
X5448401Y-1857400D01*
X5451652Y-1855216D01*
X5455564Y-1854454D01*
X5574792Y-1854454D01*
X5582767Y-1853692D01*
X5589930Y-1851507D01*
X5596585Y-1847951D01*
X5602782Y-1842871D01*
X5767171Y-1678482D01*
X5772251Y-1672285D01*
X5775756Y-1665681D01*
X5777941Y-1658467D01*
X5778754Y-1650492D01*
X5778754Y-1519885D01*
X5779465Y-1516075D01*
X5781548Y-1512874D01*
X5785053Y-1509217D01*
X5790488Y-1501190D01*
X5794502Y-1492300D01*
X5796940Y-1482902D01*
X5797753Y-1473200D01*
X5796940Y-1463497D01*
X5794502Y-1454099D01*
X5790488Y-1445209D01*
X5785053Y-1437182D01*
X5778296Y-1430121D01*
X5770473Y-1424330D01*
X5761786Y-1419961D01*
X5752490Y-1417116D01*
X5742838Y-1415897D01*
X5733135Y-1416304D01*
X5723585Y-1418336D01*
X5714593Y-1421993D01*
X5706262Y-1427073D01*
X5698998Y-1433525D01*
X5692851Y-1441094D01*
X5688126Y-1449578D01*
X5684875Y-1458722D01*
X5683250Y-1468323D01*
X5683250Y-1478076D01*
X5684875Y-1487678D01*
X5688126Y-1496822D01*
X5692851Y-1505305D01*
X5699760Y-1513738D01*
X5701436Y-1516786D01*
X5702046Y-1520190D01*
X5702046Y-1630883D01*
X5701284Y-1634794D01*
X5699048Y-1638096D01*
X5562396Y-1774748D01*
X5559094Y-1776984D01*
X5555183Y-1777746D01*
X5552846Y-1777746D01*
X5548934Y-1776984D01*
X5545632Y-1774748D01*
X5543448Y-1771497D01*
X5542686Y-1767586D01*
X5543448Y-1763674D01*
X5545632Y-1760423D01*
X5627573Y-1678482D01*
X5632653Y-1672285D01*
X5636209Y-1665681D01*
X5638393Y-1658467D01*
X5639155Y-1650492D01*
X5639155Y-1519885D01*
X5639866Y-1516075D01*
X5642000Y-1512824D01*
X5645454Y-1509217D01*
X5650890Y-1501190D01*
X5654903Y-1492300D01*
X5657342Y-1482902D01*
X5658154Y-1473200D01*
X5657342Y-1463497D01*
X5654903Y-1454099D01*
X5650890Y-1445209D01*
X5645454Y-1437182D01*
X5638698Y-1430121D01*
X5630875Y-1424330D01*
X5622188Y-1419961D01*
X5612892Y-1417116D01*
X5603240Y-1415897D01*
X5593537Y-1416304D01*
X5583986Y-1418336D01*
X5574995Y-1421993D01*
X5566664Y-1427073D01*
X5559399Y-1433525D01*
X5553252Y-1441094D01*
X5548528Y-1449578D01*
X5545277Y-1458722D01*
X5543651Y-1468323D01*
X5543651Y-1478076D01*
X5545277Y-1487678D01*
X5548528Y-1496822D01*
X5553252Y-1505305D01*
X5560161Y-1513738D01*
X5561838Y-1516786D01*
X5562447Y-1520190D01*
X5562447Y-1630883D01*
X5561685Y-1634794D01*
X5559450Y-1638096D01*
X5498998Y-1698548D01*
X5495696Y-1700784D01*
X5491784Y-1701546D01*
X5233009Y-1701546D01*
X5225034Y-1702307D01*
X5217820Y-1704492D01*
X5211216Y-1708048D01*
X5205018Y-1713128D01*
X5090515Y-1827631D01*
X5087366Y-1829765D01*
X5083657Y-1830578D01*
X5079847Y-1829968D01*
X5076596Y-1828038D01*
X5074259Y-1824989D01*
X5073243Y-1821281D01*
X5073040Y-1819097D01*
X5070602Y-1809699D01*
X5066588Y-1800809D01*
X5061153Y-1792782D01*
X5057698Y-1789175D01*
X5055616Y-1785924D01*
X5054854Y-1782114D01*
X5054854Y-1430985D01*
X5055616Y-1427175D01*
X5057698Y-1423924D01*
X5061153Y-1420317D01*
X5066588Y-1412290D01*
X5070602Y-1403400D01*
X5073040Y-1394002D01*
X5073853Y-1384300D01*
X5073040Y-1374597D01*
X5070602Y-1365199D01*
X5066588Y-1356309D01*
X5061153Y-1348282D01*
X5054396Y-1341221D01*
X5046573Y-1335430D01*
X5037886Y-1331061D01*
X5028590Y-1328216D01*
X5018938Y-1326997D01*
X5009235Y-1327404D01*
X4999685Y-1329436D01*
X4990693Y-1333093D01*
X4982362Y-1338173D01*
X4975098Y-1344625D01*
X4968951Y-1352194D01*
X4964226Y-1360678D01*
X4960975Y-1369822D01*
X4959350Y-1379423D01*
X4959350Y-1389176D01*
X4960975Y-1398778D01*
X4964226Y-1407922D01*
X4968951Y-1416405D01*
X4975860Y-1424889D01*
X4977587Y-1427886D01*
X4978146Y-1431290D01*
X4978146Y-1781810D01*
X4977587Y-1785213D01*
X4975860Y-1788210D01*
X4968951Y-1796694D01*
X4964226Y-1805178D01*
X4960975Y-1814322D01*
X4959350Y-1823923D01*
X4959350Y-1833676D01*
X4960975Y-1843278D01*
X4964226Y-1852422D01*
X4968951Y-1860905D01*
X4975098Y-1868474D01*
X4982362Y-1874926D01*
X4990693Y-1880006D01*
X4999685Y-1883664D01*
X5010099Y-1885899D01*
X5014061Y-1887677D01*
X5016906Y-1890928D01*
X5018125Y-1895093D01*
X5017516Y-1899361D01*
X5015179Y-1903018D01*
X4203903Y-2714294D01*
X4200601Y-2716479D01*
X4196689Y-2717241D01*
X4086504Y-2717241D01*
X4080205Y-2717952D01*
X4074820Y-2719832D01*
X4069943Y-2722880D01*
X4066590Y-2726283D01*
X4063288Y-2728468D01*
X4059428Y-2729230D01*
X4055516Y-2728468D01*
X4052214Y-2726283D01*
X4050944Y-2724962D01*
X4046067Y-2721914D01*
X4040682Y-2720035D01*
X4034434Y-2719324D01*
X3785565Y-2719324D01*
X3779265Y-2720035D01*
X3773881Y-2721914D01*
X3769055Y-2724962D01*
X3764991Y-2729026D01*
X3761943Y-2733903D01*
X3760012Y-2739288D01*
X3759352Y-2745587D01*
X3759352Y-2961386D01*
X3758539Y-2965297D01*
X3756355Y-2968548D01*
X3753053Y-2970784D01*
X3749192Y-2971546D01*
G37*

%LPC*%
G36*
X13867028Y-2831795D02*
G01*
X13918895Y-2831795D01*
X13918895Y-2779826D01*
X13908278Y-2785668D01*
X13896594Y-2794152D01*
X13886027Y-2804058D01*
X13876832Y-2815183D01*
X13869060Y-2827426D01*
G37*
G36*
X14021104Y-2831795D02*
G01*
X14072971Y-2831795D01*
X14070888Y-2827426D01*
X14063167Y-2815183D01*
X14053921Y-2804058D01*
X14043406Y-2794152D01*
X14031722Y-2785668D01*
X14021104Y-2779826D01*
G37*
G36*
X14960600Y-2549042D02*
G01*
X14974722Y-2548128D01*
X14988641Y-2545435D01*
X15002103Y-2540965D01*
X15014854Y-2534818D01*
X15026741Y-2527046D01*
X15037562Y-2517851D01*
X15047061Y-2507386D01*
X15055189Y-2495753D01*
X15061742Y-2483205D01*
X15066670Y-2469896D01*
X15069819Y-2456078D01*
X15071140Y-2441956D01*
X15070734Y-2427782D01*
X15068448Y-2413762D01*
X15064435Y-2400198D01*
X15058694Y-2387244D01*
X15051328Y-2375103D01*
X15042489Y-2364028D01*
X15032278Y-2354173D01*
X15020950Y-2345690D01*
X15008606Y-2338730D01*
X14995448Y-2333396D01*
X14981732Y-2329789D01*
X14967661Y-2328011D01*
X14953488Y-2328011D01*
X14939416Y-2329789D01*
X14925751Y-2333396D01*
X14912594Y-2338730D01*
X14900249Y-2345690D01*
X14888870Y-2354173D01*
X14878710Y-2364028D01*
X14869871Y-2375103D01*
X14862505Y-2387244D01*
X14856764Y-2400198D01*
X14852751Y-2413762D01*
X14850465Y-2427782D01*
X14850008Y-2441956D01*
X14851380Y-2456078D01*
X14854529Y-2469896D01*
X14859406Y-2483205D01*
X14865959Y-2495753D01*
X14874087Y-2507386D01*
X14883638Y-2517851D01*
X14894407Y-2527046D01*
X14906294Y-2534818D01*
X14919045Y-2540965D01*
X14932507Y-2545435D01*
X14946426Y-2548128D01*
G37*
G36*
X4139946Y-2376474D02*
G01*
X4158030Y-2376474D01*
X4158030Y-2318410D01*
X4113733Y-2318410D01*
X4113733Y-2350211D01*
X4114444Y-2356510D01*
X4116324Y-2361895D01*
X4119372Y-2366772D01*
X4123436Y-2370785D01*
X4128262Y-2373833D01*
X4133697Y-2375763D01*
G37*
G36*
X4220718Y-2376474D02*
G01*
X4238802Y-2376474D01*
X4245102Y-2375763D01*
X4250486Y-2373833D01*
X4255363Y-2370785D01*
X4259376Y-2366772D01*
X4262424Y-2361895D01*
X4264355Y-2356510D01*
X4265066Y-2350211D01*
X4265066Y-2318410D01*
X4220718Y-2318410D01*
G37*
G36*
X3939946Y-2376474D02*
G01*
X4038803Y-2376474D01*
X4045102Y-2375763D01*
X4050487Y-2373833D01*
X4055364Y-2370785D01*
X4059377Y-2366772D01*
X4062425Y-2361895D01*
X4064355Y-2356510D01*
X4065066Y-2350211D01*
X4065066Y-2196388D01*
X4064355Y-2190089D01*
X4062425Y-2184704D01*
X4059377Y-2179828D01*
X4055364Y-2175814D01*
X4050487Y-2172766D01*
X4045102Y-2170836D01*
X4038803Y-2170125D01*
X3939946Y-2170125D01*
X3935831Y-2170633D01*
X3931615Y-2170176D01*
X3927906Y-2168093D01*
X3925417Y-2164638D01*
X3924554Y-2160524D01*
X3924554Y-2144776D01*
X3925417Y-2140661D01*
X3927906Y-2137206D01*
X3931615Y-2135124D01*
X3935831Y-2134666D01*
X3939946Y-2135174D01*
X4038803Y-2135174D01*
X4045102Y-2134463D01*
X4050487Y-2132533D01*
X4055364Y-2129485D01*
X4059377Y-2125472D01*
X4062425Y-2120595D01*
X4064355Y-2115210D01*
X4065066Y-2108911D01*
X4065066Y-1955088D01*
X4064355Y-1948789D01*
X4062425Y-1943404D01*
X4059377Y-1938528D01*
X4055364Y-1934514D01*
X4050487Y-1931466D01*
X4045102Y-1929536D01*
X4038803Y-1928825D01*
X3939946Y-1928825D01*
X3935831Y-1929333D01*
X3931615Y-1928875D01*
X3927906Y-1926793D01*
X3925417Y-1923338D01*
X3924554Y-1919224D01*
X3924554Y-1903475D01*
X3925417Y-1899361D01*
X3927906Y-1895906D01*
X3931615Y-1893824D01*
X3935831Y-1893366D01*
X3939946Y-1893874D01*
X4038803Y-1893874D01*
X4045102Y-1893163D01*
X4050487Y-1891233D01*
X4055364Y-1888185D01*
X4059377Y-1884172D01*
X4062425Y-1879295D01*
X4064355Y-1873910D01*
X4065066Y-1867611D01*
X4065066Y-1713788D01*
X4064355Y-1707489D01*
X4062425Y-1702104D01*
X4059377Y-1697228D01*
X4055364Y-1693214D01*
X4050487Y-1690166D01*
X4045102Y-1688236D01*
X4038803Y-1687525D01*
X4029100Y-1687525D01*
X4025087Y-1686712D01*
X4021734Y-1684375D01*
X4019550Y-1680921D01*
X4018940Y-1676857D01*
X4019956Y-1672894D01*
X4022496Y-1669643D01*
X4028541Y-1664512D01*
X4065371Y-1627682D01*
X4070451Y-1621485D01*
X4073956Y-1614881D01*
X4075582Y-1609648D01*
X4077157Y-1606499D01*
X4079697Y-1604111D01*
X4082897Y-1602689D01*
X4086402Y-1602486D01*
X4092244Y-1603146D01*
X4126128Y-1603146D01*
X4136694Y-1601622D01*
X4140200Y-1602282D01*
X4143248Y-1604162D01*
X4146448Y-1608785D01*
X4151528Y-1614982D01*
X4206748Y-1670202D01*
X4208932Y-1673504D01*
X4209745Y-1677365D01*
X4208932Y-1681276D01*
X4206748Y-1684578D01*
X4203446Y-1686763D01*
X4199585Y-1687525D01*
X4139946Y-1687525D01*
X4133697Y-1688236D01*
X4128262Y-1690166D01*
X4123436Y-1693214D01*
X4119372Y-1697228D01*
X4116324Y-1702104D01*
X4114444Y-1707489D01*
X4113733Y-1713788D01*
X4113733Y-1867611D01*
X4114444Y-1873910D01*
X4116324Y-1879295D01*
X4119372Y-1884172D01*
X4123436Y-1888185D01*
X4128262Y-1891233D01*
X4133697Y-1893163D01*
X4139946Y-1893874D01*
X4238802Y-1893874D01*
X4242917Y-1893366D01*
X4247184Y-1893824D01*
X4250842Y-1895906D01*
X4253331Y-1899361D01*
X4254246Y-1903475D01*
X4254246Y-1919224D01*
X4253331Y-1923338D01*
X4250842Y-1926793D01*
X4247184Y-1928875D01*
X4242917Y-1929333D01*
X4238802Y-1928825D01*
X4139946Y-1928825D01*
X4133697Y-1929536D01*
X4128262Y-1931466D01*
X4123436Y-1934514D01*
X4119372Y-1938528D01*
X4116324Y-1943404D01*
X4114444Y-1948789D01*
X4113733Y-1955088D01*
X4113733Y-2108911D01*
X4114444Y-2115210D01*
X4116324Y-2120595D01*
X4119372Y-2125472D01*
X4123436Y-2129485D01*
X4128262Y-2132533D01*
X4133697Y-2134463D01*
X4139946Y-2135174D01*
X4238802Y-2135174D01*
X4245102Y-2134463D01*
X4250486Y-2132533D01*
X4255363Y-2129485D01*
X4259376Y-2125472D01*
X4262424Y-2120595D01*
X4264355Y-2115210D01*
X4265066Y-2108911D01*
X4265066Y-2080514D01*
X4265828Y-2076602D01*
X4268012Y-2073351D01*
X4271314Y-2071116D01*
X4275226Y-2070354D01*
X4292092Y-2070354D01*
X4300067Y-2069592D01*
X4307230Y-2067407D01*
X4313885Y-2063851D01*
X4319676Y-2059076D01*
X4324451Y-2053285D01*
X4327956Y-2046681D01*
X4330141Y-2039467D01*
X4330954Y-2031492D01*
X4330954Y-1903475D01*
X4331817Y-1899361D01*
X4334357Y-1895906D01*
X4338015Y-1893824D01*
X4342231Y-1893366D01*
X4346346Y-1893874D01*
X4445203Y-1893874D01*
X4451502Y-1893163D01*
X4456887Y-1891233D01*
X4461764Y-1888185D01*
X4465777Y-1884172D01*
X4468825Y-1879295D01*
X4470755Y-1873910D01*
X4471416Y-1867611D01*
X4471416Y-1713788D01*
X4470755Y-1707489D01*
X4468825Y-1702104D01*
X4465777Y-1697228D01*
X4461764Y-1693214D01*
X4456887Y-1690166D01*
X4451502Y-1688236D01*
X4445203Y-1687525D01*
X4346346Y-1687525D01*
X4340098Y-1688236D01*
X4335068Y-1689354D01*
X4331563Y-1688642D01*
X4328515Y-1686763D01*
X4326280Y-1683969D01*
X4324451Y-1680514D01*
X4319371Y-1674317D01*
X4220311Y-1575308D01*
X4218127Y-1572006D01*
X4217365Y-1568094D01*
X4217365Y-1438046D01*
X4216654Y-1431798D01*
X4214723Y-1426413D01*
X4211675Y-1421536D01*
X4207662Y-1417472D01*
X4202785Y-1414424D01*
X4197400Y-1412544D01*
X4191101Y-1411833D01*
X4163415Y-1411833D01*
X4159504Y-1411071D01*
X4156252Y-1408887D01*
X4154017Y-1405585D01*
X4153255Y-1401673D01*
X4153255Y-1340916D01*
X4154017Y-1337005D01*
X4156252Y-1333703D01*
X4178604Y-1311351D01*
X4181906Y-1309116D01*
X4185818Y-1308354D01*
X4309973Y-1308354D01*
X4313885Y-1309116D01*
X4317136Y-1311351D01*
X4319371Y-1314602D01*
X4320133Y-1318514D01*
X4320133Y-1346911D01*
X4320844Y-1353210D01*
X4322724Y-1358595D01*
X4325772Y-1363472D01*
X4329836Y-1367485D01*
X4334662Y-1370533D01*
X4340098Y-1372463D01*
X4346346Y-1373174D01*
X4445203Y-1373174D01*
X4451502Y-1372463D01*
X4456887Y-1370533D01*
X4461764Y-1367485D01*
X4465777Y-1363472D01*
X4468825Y-1358595D01*
X4470755Y-1353210D01*
X4471416Y-1346911D01*
X4471416Y-1193088D01*
X4470755Y-1186789D01*
X4468825Y-1181404D01*
X4465777Y-1176528D01*
X4461764Y-1172514D01*
X4456887Y-1169466D01*
X4451502Y-1167536D01*
X4445203Y-1166825D01*
X4346346Y-1166825D01*
X4340098Y-1167536D01*
X4334662Y-1169466D01*
X4329836Y-1172514D01*
X4325772Y-1176528D01*
X4322724Y-1181404D01*
X4320844Y-1186789D01*
X4320133Y-1193088D01*
X4320133Y-1221486D01*
X4319371Y-1225397D01*
X4317136Y-1228648D01*
X4313885Y-1230884D01*
X4309973Y-1231646D01*
X4166209Y-1231646D01*
X4158234Y-1232408D01*
X4151020Y-1234592D01*
X4144416Y-1238148D01*
X4138218Y-1243228D01*
X4099915Y-1281582D01*
X4096613Y-1283766D01*
X4092701Y-1284528D01*
X4088841Y-1283766D01*
X4085539Y-1281582D01*
X4083304Y-1278280D01*
X4082542Y-1274368D01*
X4082542Y-1225296D01*
X4081779Y-1217320D01*
X4079595Y-1210157D01*
X4076039Y-1203553D01*
X4070959Y-1197356D01*
X3993337Y-1119682D01*
X3991203Y-1116584D01*
X3990340Y-1112875D01*
X3990898Y-1109167D01*
X3992778Y-1105865D01*
X3995775Y-1103528D01*
X3999382Y-1102410D01*
X4002379Y-1102055D01*
X4008323Y-1099972D01*
X4011676Y-1099413D01*
X4015028Y-1099972D01*
X4020972Y-1102055D01*
X4027271Y-1102766D01*
X4061104Y-1102766D01*
X4067403Y-1102055D01*
X4073347Y-1099972D01*
X4076700Y-1099413D01*
X4080052Y-1099972D01*
X4085996Y-1102055D01*
X4092244Y-1102766D01*
X4126128Y-1102766D01*
X4132376Y-1102055D01*
X4138320Y-1099972D01*
X4141673Y-1099413D01*
X4145026Y-1099972D01*
X4150969Y-1102055D01*
X4157268Y-1102766D01*
X4159097Y-1102766D01*
X4159097Y-1047902D01*
X4155541Y-1045718D01*
X4153204Y-1042365D01*
X4152341Y-1038301D01*
X4152341Y-1009650D01*
X4153154Y-1001014D01*
X4153154Y-975918D01*
X4153865Y-972159D01*
X4155948Y-968908D01*
X4159097Y-966673D01*
X4159097Y-910539D01*
X4155948Y-908303D01*
X4153865Y-905103D01*
X4153154Y-901293D01*
X4153154Y-606653D01*
X4153865Y-602843D01*
X4155948Y-599643D01*
X4159453Y-595985D01*
X4164888Y-587959D01*
X4168901Y-579069D01*
X4171340Y-569671D01*
X4172153Y-559968D01*
X4171340Y-550265D01*
X4168901Y-540867D01*
X4164888Y-531977D01*
X4159453Y-523951D01*
X4155948Y-520293D01*
X4153865Y-517093D01*
X4153154Y-513283D01*
X4153154Y-508508D01*
X4152341Y-500532D01*
X4150156Y-493318D01*
X4146651Y-486714D01*
X4141571Y-480517D01*
X4066082Y-405028D01*
X4062831Y-401116D01*
X4061866Y-396748D01*
X4061866Y-354888D01*
X4061155Y-348589D01*
X4059224Y-343204D01*
X4056176Y-338328D01*
X4052163Y-334314D01*
X4047286Y-331266D01*
X4041901Y-329336D01*
X4035602Y-328625D01*
X3936746Y-328625D01*
X3930497Y-329336D01*
X3925062Y-331266D01*
X3920236Y-334314D01*
X3916172Y-338328D01*
X3913124Y-343204D01*
X3911244Y-348589D01*
X3910533Y-354888D01*
X3910533Y-508711D01*
X3911244Y-515010D01*
X3913124Y-520395D01*
X3916172Y-525272D01*
X3920236Y-529285D01*
X3925062Y-532333D01*
X3930497Y-534263D01*
X3936746Y-534974D01*
X4035602Y-534974D01*
X4041901Y-534263D01*
X4046270Y-532688D01*
X4050741Y-532180D01*
X4055008Y-533654D01*
X4058208Y-536803D01*
X4059732Y-541020D01*
X4059275Y-545490D01*
X4057650Y-555091D01*
X4057650Y-564845D01*
X4059123Y-573379D01*
X4058970Y-577596D01*
X4057091Y-581355D01*
X4053890Y-584047D01*
X4049877Y-585216D01*
X4045762Y-584708D01*
X4041901Y-583336D01*
X4035602Y-582625D01*
X3936746Y-582625D01*
X3930497Y-583336D01*
X3925062Y-585266D01*
X3920236Y-588314D01*
X3916172Y-592328D01*
X3913124Y-597204D01*
X3911244Y-602589D01*
X3910533Y-608888D01*
X3910533Y-762711D01*
X3911244Y-769010D01*
X3913124Y-774395D01*
X3916172Y-779272D01*
X3920236Y-783285D01*
X3925062Y-786333D01*
X3930497Y-788263D01*
X3936746Y-788974D01*
X4018534Y-788974D01*
X4022445Y-789736D01*
X4025747Y-791972D01*
X4027932Y-795274D01*
X4028694Y-799185D01*
X4027881Y-803097D01*
X4025646Y-806348D01*
X4022293Y-808532D01*
X4012793Y-812393D01*
X4004462Y-817473D01*
X3997198Y-823925D01*
X3991051Y-831494D01*
X3986225Y-840181D01*
X3983837Y-843026D01*
X3980535Y-844854D01*
X3976878Y-845362D01*
X3973220Y-844499D01*
X3970172Y-842416D01*
X3951884Y-824128D01*
X3945686Y-819048D01*
X3939082Y-815492D01*
X3931869Y-813308D01*
X3923893Y-812546D01*
X3706215Y-812546D01*
X3702304Y-811784D01*
X3699052Y-809548D01*
X3696817Y-806297D01*
X3696055Y-802386D01*
X3696055Y-782472D01*
X3696970Y-778256D01*
X3699611Y-774801D01*
X3703421Y-772718D01*
X3707739Y-772464D01*
X3711803Y-773988D01*
X3714800Y-777087D01*
X3716172Y-779272D01*
X3720236Y-783285D01*
X3725062Y-786333D01*
X3730498Y-788263D01*
X3736746Y-788974D01*
X3835603Y-788974D01*
X3841902Y-788263D01*
X3847287Y-786333D01*
X3852164Y-783285D01*
X3856177Y-779272D01*
X3859225Y-774395D01*
X3861155Y-769010D01*
X3861866Y-762711D01*
X3861866Y-608888D01*
X3861155Y-602589D01*
X3859225Y-597204D01*
X3856177Y-592328D01*
X3852164Y-588314D01*
X3847287Y-585266D01*
X3841902Y-583336D01*
X3835603Y-582625D01*
X3736746Y-582625D01*
X3730498Y-583336D01*
X3725062Y-585266D01*
X3720236Y-588314D01*
X3716172Y-592328D01*
X3713124Y-597204D01*
X3711244Y-602589D01*
X3710533Y-608888D01*
X3710533Y-637286D01*
X3709771Y-641197D01*
X3707536Y-644448D01*
X3704285Y-646684D01*
X3700373Y-647446D01*
X3670909Y-647446D01*
X3662934Y-648208D01*
X3655720Y-650392D01*
X3649116Y-653948D01*
X3642918Y-659028D01*
X3630929Y-671017D01*
X3625850Y-677214D01*
X3622294Y-683818D01*
X3620109Y-691032D01*
X3619347Y-699008D01*
X3619347Y-824992D01*
X3620109Y-832967D01*
X3622294Y-840181D01*
X3625850Y-846785D01*
X3630929Y-852982D01*
X3655618Y-877671D01*
X3661816Y-882751D01*
X3668420Y-886307D01*
X3675634Y-888492D01*
X3683609Y-889253D01*
X3730345Y-889253D01*
X3734308Y-890066D01*
X3737660Y-892403D01*
X3739845Y-895807D01*
X3740454Y-899820D01*
X3739489Y-903782D01*
X3737051Y-907034D01*
X3730498Y-912825D01*
X3724351Y-920394D01*
X3719626Y-928878D01*
X3716375Y-938021D01*
X3714750Y-947623D01*
X3714750Y-957376D01*
X3716375Y-966978D01*
X3719626Y-976121D01*
X3724351Y-984605D01*
X3730498Y-992174D01*
X3737762Y-998626D01*
X3746093Y-1003706D01*
X3755085Y-1007364D01*
X3764635Y-1009396D01*
X3771036Y-1009700D01*
X3774694Y-1010513D01*
X3777792Y-1012647D01*
X3816756Y-1051610D01*
X3818940Y-1054912D01*
X3819702Y-1058773D01*
X3818940Y-1062685D01*
X3816756Y-1065987D01*
X3813454Y-1068171D01*
X3809542Y-1068933D01*
X3778910Y-1068933D01*
X3778910Y-1113231D01*
X3836924Y-1113231D01*
X3836924Y-1096314D01*
X3837736Y-1092454D01*
X3839921Y-1089152D01*
X3843223Y-1086916D01*
X3847084Y-1086154D01*
X3850995Y-1086916D01*
X3854297Y-1089152D01*
X4002887Y-1237742D01*
X4005072Y-1241044D01*
X4005834Y-1244904D01*
X4005834Y-1401673D01*
X4005072Y-1405585D01*
X4002887Y-1408887D01*
X3999585Y-1411071D01*
X3994302Y-1411833D01*
X3994302Y-1466748D01*
X3997807Y-1468882D01*
X4000195Y-1472285D01*
X4001008Y-1476298D01*
X4001008Y-1505000D01*
X4000246Y-1513636D01*
X4000246Y-1538681D01*
X3999484Y-1542491D01*
X3997401Y-1545691D01*
X3994302Y-1547926D01*
X3994302Y-1586026D01*
X3993489Y-1589938D01*
X3991305Y-1593240D01*
X3987596Y-1596948D01*
X3984294Y-1599184D01*
X3980383Y-1599946D01*
X3974236Y-1599946D01*
X3970375Y-1599184D01*
X3967073Y-1596948D01*
X3964838Y-1593697D01*
X3964076Y-1589786D01*
X3964076Y-1548841D01*
X3936034Y-1548841D01*
X3936034Y-1571193D01*
X3935272Y-1575104D01*
X3933037Y-1578406D01*
X3929786Y-1580591D01*
X3925874Y-1581353D01*
X3922014Y-1580591D01*
X3918712Y-1578406D01*
X3777691Y-1437589D01*
X3775506Y-1434287D01*
X3774744Y-1430426D01*
X3775506Y-1426514D01*
X3777691Y-1423212D01*
X3780993Y-1421028D01*
X3784904Y-1420266D01*
X3810711Y-1420266D01*
X3816959Y-1419555D01*
X3822395Y-1417675D01*
X3827221Y-1414627D01*
X3831285Y-1410563D01*
X3834333Y-1405686D01*
X3836212Y-1400302D01*
X3836924Y-1394053D01*
X3836924Y-1295146D01*
X3836212Y-1288897D01*
X3834333Y-1283512D01*
X3831285Y-1278636D01*
X3827221Y-1274572D01*
X3822395Y-1271524D01*
X3816959Y-1269644D01*
X3810711Y-1268933D01*
X3656837Y-1268933D01*
X3650589Y-1269644D01*
X3645204Y-1271524D01*
X3640328Y-1274572D01*
X3636264Y-1278636D01*
X3633215Y-1283512D01*
X3631336Y-1288897D01*
X3630625Y-1295146D01*
X3630625Y-1394053D01*
X3631336Y-1400302D01*
X3633215Y-1405686D01*
X3636264Y-1410563D01*
X3640328Y-1414627D01*
X3645204Y-1417675D01*
X3650589Y-1419555D01*
X3656837Y-1420266D01*
X3685133Y-1420266D01*
X3689045Y-1421028D01*
X3692296Y-1423212D01*
X3694531Y-1426514D01*
X3695293Y-1430426D01*
X3695293Y-1447292D01*
X3696055Y-1455267D01*
X3698240Y-1462481D01*
X3701796Y-1469085D01*
X3706876Y-1475282D01*
X3862882Y-1631086D01*
X3865118Y-1634388D01*
X3865879Y-1638249D01*
X3865118Y-1642160D01*
X3862882Y-1645462D01*
X3859428Y-1648917D01*
X3854348Y-1655114D01*
X3850792Y-1661718D01*
X3848608Y-1668932D01*
X3847846Y-1676907D01*
X3847846Y-2272792D01*
X3848608Y-2280767D01*
X3850792Y-2287981D01*
X3854348Y-2294585D01*
X3859123Y-2300376D01*
X3864914Y-2305151D01*
X3871518Y-2308707D01*
X3878732Y-2310892D01*
X3886708Y-2311654D01*
X3903573Y-2311654D01*
X3907485Y-2312416D01*
X3910736Y-2314651D01*
X3912971Y-2317902D01*
X3913733Y-2321814D01*
X3913733Y-2350211D01*
X3914444Y-2356510D01*
X3916324Y-2361895D01*
X3919372Y-2366772D01*
X3923436Y-2370785D01*
X3928262Y-2373833D01*
X3933698Y-2375763D01*
G37*
G36*
X8527135Y-2312060D02*
G01*
X8541613Y-2312060D01*
X8555990Y-2310231D01*
X8569960Y-2306624D01*
X8583422Y-2301290D01*
X8596122Y-2294331D01*
X8607806Y-2285847D01*
X8618321Y-2275941D01*
X8627567Y-2264816D01*
X8635288Y-2252573D01*
X8641486Y-2239518D01*
X8645956Y-2225751D01*
X8648649Y-2211527D01*
X8649563Y-2197100D01*
X8648649Y-2182672D01*
X8645956Y-2168448D01*
X8641486Y-2154682D01*
X8635288Y-2141626D01*
X8627567Y-2129383D01*
X8618321Y-2118258D01*
X8607806Y-2108352D01*
X8596122Y-2099868D01*
X8583422Y-2092909D01*
X8569960Y-2087575D01*
X8555990Y-2083968D01*
X8541613Y-2082139D01*
X8527135Y-2082139D01*
X8512810Y-2083968D01*
X8498789Y-2087575D01*
X8485327Y-2092909D01*
X8472678Y-2099868D01*
X8460994Y-2108352D01*
X8450427Y-2118258D01*
X8441232Y-2129383D01*
X8433460Y-2141626D01*
X8427313Y-2154682D01*
X8422843Y-2168448D01*
X8420150Y-2182672D01*
X8419236Y-2197100D01*
X8420150Y-2211527D01*
X8422843Y-2225751D01*
X8427313Y-2239518D01*
X8433460Y-2252573D01*
X8441232Y-2264816D01*
X8450427Y-2275941D01*
X8460994Y-2285847D01*
X8472678Y-2294331D01*
X8485327Y-2301290D01*
X8498789Y-2306624D01*
X8512810Y-2310231D01*
G37*
G36*
X7511135Y-2312060D02*
G01*
X7525613Y-2312060D01*
X7539990Y-2310231D01*
X7553959Y-2306624D01*
X7567422Y-2301290D01*
X7580122Y-2294331D01*
X7591806Y-2285847D01*
X7602321Y-2275941D01*
X7611567Y-2264816D01*
X7619288Y-2252573D01*
X7625486Y-2239518D01*
X7629956Y-2225751D01*
X7632649Y-2211527D01*
X7633563Y-2197100D01*
X7632649Y-2182672D01*
X7629956Y-2168448D01*
X7625486Y-2154682D01*
X7619288Y-2141626D01*
X7611567Y-2129383D01*
X7602321Y-2118258D01*
X7591806Y-2108352D01*
X7580122Y-2099868D01*
X7567422Y-2092909D01*
X7553959Y-2087575D01*
X7539990Y-2083968D01*
X7525613Y-2082139D01*
X7511135Y-2082139D01*
X7496809Y-2083968D01*
X7482789Y-2087575D01*
X7469327Y-2092909D01*
X7456678Y-2099868D01*
X7444994Y-2108352D01*
X7434427Y-2118258D01*
X7425232Y-2129383D01*
X7417460Y-2141626D01*
X7411313Y-2154682D01*
X7406843Y-2168448D01*
X7404150Y-2182672D01*
X7403236Y-2197100D01*
X7404150Y-2211527D01*
X7406843Y-2225751D01*
X7411313Y-2239518D01*
X7417460Y-2252573D01*
X7425232Y-2264816D01*
X7434427Y-2275941D01*
X7444994Y-2285847D01*
X7456678Y-2294331D01*
X7469327Y-2301290D01*
X7482789Y-2306624D01*
X7496809Y-2310231D01*
G37*
G36*
X8273135Y-2312060D02*
G01*
X8287613Y-2312060D01*
X8301990Y-2310231D01*
X8315959Y-2306624D01*
X8329422Y-2301290D01*
X8342122Y-2294331D01*
X8353806Y-2285847D01*
X8364321Y-2275941D01*
X8373567Y-2264816D01*
X8381288Y-2252573D01*
X8387486Y-2239518D01*
X8391956Y-2225751D01*
X8394649Y-2211527D01*
X8395563Y-2197100D01*
X8394649Y-2182672D01*
X8391956Y-2168448D01*
X8387486Y-2154682D01*
X8381288Y-2141626D01*
X8373567Y-2129383D01*
X8364321Y-2118258D01*
X8353806Y-2108352D01*
X8342122Y-2099868D01*
X8329422Y-2092909D01*
X8315959Y-2087575D01*
X8301990Y-2083968D01*
X8287613Y-2082139D01*
X8273135Y-2082139D01*
X8258809Y-2083968D01*
X8244789Y-2087575D01*
X8231327Y-2092909D01*
X8218678Y-2099868D01*
X8206994Y-2108352D01*
X8196427Y-2118258D01*
X8187232Y-2129383D01*
X8179460Y-2141626D01*
X8173313Y-2154682D01*
X8168843Y-2168448D01*
X8166150Y-2182672D01*
X8165236Y-2197100D01*
X8166150Y-2211527D01*
X8168843Y-2225751D01*
X8173313Y-2239518D01*
X8179460Y-2252573D01*
X8187232Y-2264816D01*
X8196427Y-2275941D01*
X8206994Y-2285847D01*
X8218678Y-2294331D01*
X8231327Y-2301290D01*
X8244789Y-2306624D01*
X8258809Y-2310231D01*
G37*
G36*
X7765135Y-2312060D02*
G01*
X7779613Y-2312060D01*
X7793990Y-2310231D01*
X7807959Y-2306624D01*
X7821422Y-2301290D01*
X7834122Y-2294331D01*
X7845806Y-2285847D01*
X7856321Y-2275941D01*
X7865567Y-2264816D01*
X7873288Y-2252573D01*
X7879486Y-2239518D01*
X7883956Y-2225751D01*
X7886649Y-2211527D01*
X7887563Y-2197100D01*
X7886649Y-2182672D01*
X7883956Y-2168448D01*
X7879486Y-2154682D01*
X7873288Y-2141626D01*
X7865567Y-2129383D01*
X7856321Y-2118258D01*
X7845806Y-2108352D01*
X7834122Y-2099868D01*
X7821422Y-2092909D01*
X7807959Y-2087575D01*
X7793990Y-2083968D01*
X7779613Y-2082139D01*
X7765135Y-2082139D01*
X7750809Y-2083968D01*
X7736789Y-2087575D01*
X7723327Y-2092909D01*
X7710678Y-2099868D01*
X7698994Y-2108352D01*
X7688427Y-2118258D01*
X7679232Y-2129383D01*
X7671460Y-2141626D01*
X7665313Y-2154682D01*
X7660843Y-2168448D01*
X7658150Y-2182672D01*
X7657236Y-2197100D01*
X7658150Y-2211527D01*
X7660843Y-2225751D01*
X7665313Y-2239518D01*
X7671460Y-2252573D01*
X7679232Y-2264816D01*
X7688427Y-2275941D01*
X7698994Y-2285847D01*
X7710678Y-2294331D01*
X7723327Y-2301290D01*
X7736789Y-2306624D01*
X7750809Y-2310231D01*
G37*
G36*
X8019135Y-2312060D02*
G01*
X8033613Y-2312060D01*
X8047990Y-2310231D01*
X8061959Y-2306624D01*
X8075422Y-2301290D01*
X8088122Y-2294331D01*
X8099806Y-2285847D01*
X8110321Y-2275941D01*
X8119567Y-2264816D01*
X8127288Y-2252573D01*
X8133486Y-2239518D01*
X8137956Y-2225751D01*
X8140649Y-2211527D01*
X8141563Y-2197100D01*
X8140649Y-2182672D01*
X8137956Y-2168448D01*
X8133486Y-2154682D01*
X8127288Y-2141626D01*
X8119567Y-2129383D01*
X8110321Y-2118258D01*
X8099806Y-2108352D01*
X8088122Y-2099868D01*
X8075422Y-2092909D01*
X8061959Y-2087575D01*
X8047990Y-2083968D01*
X8033613Y-2082139D01*
X8019135Y-2082139D01*
X8004809Y-2083968D01*
X7990789Y-2087575D01*
X7977327Y-2092909D01*
X7964678Y-2099868D01*
X7952994Y-2108352D01*
X7942427Y-2118258D01*
X7933232Y-2129383D01*
X7925460Y-2141626D01*
X7919313Y-2154682D01*
X7914843Y-2168448D01*
X7912150Y-2182672D01*
X7911236Y-2197100D01*
X7912150Y-2211527D01*
X7914843Y-2225751D01*
X7919313Y-2239518D01*
X7925460Y-2252573D01*
X7933232Y-2264816D01*
X7942427Y-2275941D01*
X7952994Y-2285847D01*
X7964678Y-2294331D01*
X7977327Y-2301290D01*
X7990789Y-2306624D01*
X8004809Y-2310231D01*
G37*
G36*
X9035135Y-2312060D02*
G01*
X9049613Y-2312060D01*
X9063990Y-2310231D01*
X9077960Y-2306624D01*
X9091422Y-2301290D01*
X9104122Y-2294331D01*
X9115806Y-2285847D01*
X9126321Y-2275941D01*
X9135567Y-2264816D01*
X9143288Y-2252573D01*
X9149486Y-2239518D01*
X9153956Y-2225751D01*
X9156649Y-2211527D01*
X9157563Y-2197100D01*
X9156649Y-2182672D01*
X9153956Y-2168448D01*
X9149486Y-2154682D01*
X9143288Y-2141626D01*
X9135567Y-2129383D01*
X9126321Y-2118258D01*
X9115806Y-2108352D01*
X9104122Y-2099868D01*
X9091422Y-2092909D01*
X9077960Y-2087575D01*
X9063990Y-2083968D01*
X9049613Y-2082139D01*
X9035135Y-2082139D01*
X9020810Y-2083968D01*
X9006789Y-2087575D01*
X8993327Y-2092909D01*
X8980678Y-2099868D01*
X8968994Y-2108352D01*
X8958427Y-2118258D01*
X8949232Y-2129383D01*
X8941460Y-2141626D01*
X8935313Y-2154682D01*
X8930843Y-2168448D01*
X8928150Y-2182672D01*
X8927236Y-2197100D01*
X8928150Y-2211527D01*
X8930843Y-2225751D01*
X8935313Y-2239518D01*
X8941460Y-2252573D01*
X8949232Y-2264816D01*
X8958427Y-2275941D01*
X8968994Y-2285847D01*
X8980678Y-2294331D01*
X8993327Y-2301290D01*
X9006789Y-2306624D01*
X9020810Y-2310231D01*
G37*
G36*
X7257135Y-2312060D02*
G01*
X7271613Y-2312060D01*
X7285990Y-2310231D01*
X7299959Y-2306624D01*
X7313422Y-2301290D01*
X7326122Y-2294331D01*
X7337806Y-2285847D01*
X7348321Y-2275941D01*
X7357567Y-2264816D01*
X7365288Y-2252573D01*
X7371486Y-2239518D01*
X7375956Y-2225751D01*
X7378649Y-2211527D01*
X7379563Y-2197100D01*
X7378649Y-2182672D01*
X7375956Y-2168448D01*
X7371486Y-2154682D01*
X7365288Y-2141626D01*
X7357567Y-2129383D01*
X7348321Y-2118258D01*
X7337806Y-2108352D01*
X7326122Y-2099868D01*
X7313422Y-2092909D01*
X7299959Y-2087575D01*
X7285990Y-2083968D01*
X7271613Y-2082139D01*
X7257135Y-2082139D01*
X7242809Y-2083968D01*
X7228789Y-2087575D01*
X7215327Y-2092909D01*
X7202678Y-2099868D01*
X7190994Y-2108352D01*
X7180427Y-2118258D01*
X7171232Y-2129383D01*
X7163460Y-2141626D01*
X7157313Y-2154682D01*
X7152843Y-2168448D01*
X7150150Y-2182672D01*
X7149236Y-2197100D01*
X7150150Y-2211527D01*
X7152843Y-2225751D01*
X7157313Y-2239518D01*
X7163460Y-2252573D01*
X7171232Y-2264816D01*
X7180427Y-2275941D01*
X7190994Y-2285847D01*
X7202678Y-2294331D01*
X7215327Y-2301290D01*
X7228789Y-2306624D01*
X7242809Y-2310231D01*
G37*
G36*
X8737295Y-2300173D02*
G01*
X8737295Y-2248204D01*
X8685428Y-2248204D01*
X8687460Y-2252573D01*
X8695232Y-2264816D01*
X8704427Y-2275941D01*
X8714994Y-2285847D01*
X8726678Y-2294331D01*
G37*
G36*
X8839504Y-2300173D02*
G01*
X8850122Y-2294331D01*
X8861806Y-2285847D01*
X8872321Y-2275941D01*
X8881567Y-2264816D01*
X8889288Y-2252573D01*
X8891371Y-2248204D01*
X8839504Y-2248204D01*
G37*
G36*
X14882418Y-2295042D02*
G01*
X15038781Y-2295042D01*
X15045029Y-2294331D01*
X15050414Y-2292451D01*
X15055291Y-2289403D01*
X15059355Y-2285339D01*
X15062403Y-2280513D01*
X15064282Y-2275078D01*
X15064994Y-2268829D01*
X15064994Y-2099970D01*
X15064282Y-2093722D01*
X15062403Y-2088286D01*
X15059355Y-2083460D01*
X15055291Y-2079396D01*
X15050414Y-2076348D01*
X15045029Y-2074468D01*
X15038781Y-2073757D01*
X14882418Y-2073757D01*
X14876170Y-2074468D01*
X14870734Y-2076348D01*
X14865908Y-2079396D01*
X14861844Y-2083460D01*
X14858796Y-2088286D01*
X14856917Y-2093722D01*
X14856206Y-2099970D01*
X14856206Y-2268829D01*
X14856917Y-2275078D01*
X14858796Y-2280513D01*
X14861844Y-2285339D01*
X14865908Y-2289403D01*
X14870734Y-2292451D01*
X14876170Y-2294331D01*
G37*
G36*
X9926320Y-2286812D02*
G01*
X9946640Y-2286355D01*
X9966807Y-2283968D01*
X9986670Y-2279700D01*
X10006076Y-2273604D01*
X10024770Y-2265730D01*
X10042702Y-2256129D01*
X10059619Y-2244902D01*
X10075418Y-2232101D01*
X10089946Y-2217877D01*
X10103104Y-2202383D01*
X10114737Y-2185720D01*
X10124744Y-2168042D01*
X10133076Y-2149500D01*
X10139629Y-2130298D01*
X10144353Y-2110536D01*
X10147198Y-2090420D01*
X10148163Y-2070100D01*
X10147198Y-2049780D01*
X10144353Y-2029663D01*
X10139629Y-2009902D01*
X10133076Y-1990699D01*
X10124744Y-1972157D01*
X10114737Y-1954479D01*
X10103104Y-1937816D01*
X10089946Y-1922322D01*
X10075418Y-1908098D01*
X10059619Y-1895297D01*
X10042702Y-1884070D01*
X10024770Y-1874469D01*
X10006076Y-1866595D01*
X9986670Y-1860499D01*
X9966807Y-1856232D01*
X9946640Y-1853844D01*
X9926320Y-1853387D01*
X9906050Y-1854809D01*
X9885984Y-1858111D01*
X9866325Y-1863293D01*
X9847275Y-1870303D01*
X9828936Y-1879092D01*
X9811461Y-1889506D01*
X9795103Y-1901545D01*
X9779914Y-1915007D01*
X9766046Y-1929892D01*
X9753650Y-1945995D01*
X9742830Y-1963166D01*
X9733635Y-1981301D01*
X9726168Y-2000199D01*
X9720529Y-2019757D01*
X9716770Y-2039721D01*
X9714839Y-2059939D01*
X9714839Y-2080260D01*
X9716770Y-2100478D01*
X9720529Y-2120442D01*
X9726168Y-2140000D01*
X9733635Y-2158898D01*
X9742830Y-2177034D01*
X9753650Y-2194204D01*
X9766046Y-2210308D01*
X9779914Y-2225192D01*
X9795103Y-2238654D01*
X9811461Y-2250694D01*
X9828936Y-2261108D01*
X9847275Y-2269896D01*
X9866325Y-2276906D01*
X9885984Y-2282088D01*
X9906050Y-2285390D01*
G37*
G36*
X4113733Y-2228189D02*
G01*
X4158030Y-2228189D01*
X4158030Y-2170125D01*
X4139946Y-2170125D01*
X4133697Y-2170836D01*
X4128262Y-2172766D01*
X4123436Y-2175814D01*
X4119372Y-2179828D01*
X4116324Y-2184704D01*
X4114444Y-2190089D01*
X4113733Y-2196388D01*
G37*
G36*
X4220718Y-2228189D02*
G01*
X4265066Y-2228189D01*
X4265066Y-2196388D01*
X4264355Y-2190089D01*
X4262424Y-2184704D01*
X4259376Y-2179828D01*
X4255363Y-2175814D01*
X4250486Y-2172766D01*
X4245102Y-2170836D01*
X4238802Y-2170125D01*
X4220718Y-2170125D01*
G37*
G36*
X8685428Y-2145995D02*
G01*
X8737295Y-2145995D01*
X8737295Y-2094026D01*
X8726678Y-2099868D01*
X8714994Y-2108352D01*
X8704427Y-2118258D01*
X8695232Y-2129383D01*
X8687460Y-2141626D01*
G37*
G36*
X8839504Y-2145995D02*
G01*
X8891371Y-2145995D01*
X8889288Y-2141626D01*
X8881567Y-2129383D01*
X8872321Y-2118258D01*
X8861806Y-2108352D01*
X8850122Y-2099868D01*
X8839504Y-2094026D01*
G37*
G36*
X4546346Y-1893874D02*
G01*
X4564430Y-1893874D01*
X4564430Y-1835810D01*
X4520133Y-1835810D01*
X4520133Y-1867611D01*
X4520844Y-1873910D01*
X4522724Y-1879295D01*
X4525772Y-1884172D01*
X4529836Y-1888185D01*
X4534662Y-1891233D01*
X4540097Y-1893163D01*
G37*
G36*
X4627118Y-1893874D02*
G01*
X4645202Y-1893874D01*
X4651502Y-1893163D01*
X4656886Y-1891233D01*
X4661763Y-1888185D01*
X4665776Y-1884172D01*
X4668824Y-1879295D01*
X4670755Y-1873910D01*
X4671466Y-1867611D01*
X4671466Y-1835810D01*
X4627118Y-1835810D01*
G37*
G36*
X4520133Y-1745589D02*
G01*
X4564430Y-1745589D01*
X4564430Y-1687525D01*
X4546346Y-1687525D01*
X4540097Y-1688236D01*
X4534662Y-1690166D01*
X4529836Y-1693214D01*
X4525772Y-1697228D01*
X4522724Y-1702104D01*
X4520844Y-1707489D01*
X4520133Y-1713788D01*
G37*
G36*
X4627118Y-1745589D02*
G01*
X4671466Y-1745589D01*
X4671466Y-1713788D01*
X4670755Y-1707489D01*
X4668824Y-1702104D01*
X4665776Y-1697228D01*
X4661763Y-1693214D01*
X4656886Y-1690166D01*
X4651502Y-1688236D01*
X4645202Y-1687525D01*
X4627118Y-1687525D01*
G37*
G36*
X3936034Y-1466138D02*
G01*
X3964076Y-1466138D01*
X3964076Y-1411833D01*
X3962247Y-1411833D01*
X3955999Y-1412544D01*
X3950563Y-1414424D01*
X3945737Y-1417472D01*
X3941673Y-1421536D01*
X3938625Y-1426413D01*
X3936746Y-1431798D01*
X3936034Y-1438046D01*
G37*
G36*
X4546346Y-1373174D02*
G01*
X4645202Y-1373174D01*
X4651502Y-1372463D01*
X4656886Y-1370533D01*
X4661763Y-1367485D01*
X4665776Y-1363472D01*
X4668824Y-1358595D01*
X4670755Y-1353210D01*
X4671466Y-1346911D01*
X4671466Y-1317701D01*
X4672126Y-1314043D01*
X4674057Y-1310894D01*
X4677054Y-1308658D01*
X4688230Y-1305407D01*
X4694885Y-1301851D01*
X4700676Y-1297076D01*
X4705451Y-1291285D01*
X4708956Y-1284681D01*
X4711141Y-1277467D01*
X4711954Y-1269492D01*
X4711954Y-1016508D01*
X4711141Y-1008532D01*
X4708956Y-1001318D01*
X4705451Y-994714D01*
X4700676Y-988923D01*
X4694885Y-984148D01*
X4688230Y-980592D01*
X4677054Y-977341D01*
X4674057Y-975106D01*
X4672126Y-971905D01*
X4671466Y-968248D01*
X4671466Y-939088D01*
X4670755Y-932789D01*
X4668824Y-927404D01*
X4665776Y-922528D01*
X4661763Y-918514D01*
X4656886Y-915466D01*
X4651502Y-913536D01*
X4645202Y-912825D01*
X4546346Y-912825D01*
X4540097Y-913536D01*
X4534662Y-915466D01*
X4529836Y-918514D01*
X4525772Y-922528D01*
X4522724Y-927404D01*
X4520844Y-932789D01*
X4520133Y-939088D01*
X4520133Y-1092911D01*
X4520844Y-1099210D01*
X4522724Y-1104595D01*
X4525772Y-1109472D01*
X4529836Y-1113485D01*
X4534662Y-1116533D01*
X4540097Y-1118463D01*
X4546346Y-1119174D01*
X4625086Y-1119174D01*
X4628946Y-1119936D01*
X4632248Y-1122121D01*
X4634433Y-1125423D01*
X4635246Y-1129334D01*
X4635246Y-1156665D01*
X4634433Y-1160576D01*
X4632248Y-1163878D01*
X4628946Y-1166063D01*
X4625086Y-1166825D01*
X4546346Y-1166825D01*
X4540097Y-1167536D01*
X4534662Y-1169466D01*
X4529836Y-1172514D01*
X4525772Y-1176528D01*
X4522724Y-1181404D01*
X4520844Y-1186789D01*
X4520133Y-1193088D01*
X4520133Y-1346911D01*
X4520844Y-1353210D01*
X4522724Y-1358595D01*
X4525772Y-1363472D01*
X4529836Y-1367485D01*
X4534662Y-1370533D01*
X4540097Y-1372463D01*
G37*
G36*
X3656837Y-1220266D02*
G01*
X3688689Y-1220266D01*
X3688689Y-1175969D01*
X3630625Y-1175969D01*
X3630625Y-1194054D01*
X3631336Y-1200302D01*
X3633215Y-1205687D01*
X3636264Y-1210564D01*
X3640328Y-1214628D01*
X3645204Y-1217676D01*
X3650589Y-1219555D01*
G37*
G36*
X3778910Y-1220266D02*
G01*
X3810711Y-1220266D01*
X3816959Y-1219555D01*
X3822395Y-1217676D01*
X3827221Y-1214628D01*
X3831285Y-1210564D01*
X3834333Y-1205687D01*
X3836212Y-1200302D01*
X3836924Y-1194054D01*
X3836924Y-1175969D01*
X3778910Y-1175969D01*
G37*
G36*
X4346346Y-1119174D02*
G01*
X4364431Y-1119174D01*
X4364431Y-1061110D01*
X4320133Y-1061110D01*
X4320133Y-1092911D01*
X4320844Y-1099210D01*
X4322724Y-1104595D01*
X4325772Y-1109472D01*
X4329836Y-1113485D01*
X4334662Y-1116533D01*
X4340098Y-1118463D01*
G37*
G36*
X4427118Y-1119174D02*
G01*
X4445203Y-1119174D01*
X4451502Y-1118463D01*
X4456887Y-1116533D01*
X4461764Y-1113485D01*
X4465777Y-1109472D01*
X4468825Y-1104595D01*
X4470755Y-1099210D01*
X4471416Y-1092911D01*
X4471416Y-1061110D01*
X4427118Y-1061110D01*
G37*
G36*
X3630625Y-1113231D02*
G01*
X3688689Y-1113231D01*
X3688689Y-1068933D01*
X3656837Y-1068933D01*
X3650589Y-1069644D01*
X3645204Y-1071524D01*
X3640328Y-1074572D01*
X3636264Y-1078636D01*
X3633215Y-1083513D01*
X3631336Y-1088898D01*
X3630625Y-1095146D01*
G37*
G36*
X4189272Y-1102766D02*
G01*
X4191101Y-1102766D01*
X4197400Y-1102055D01*
X4202785Y-1100175D01*
X4207662Y-1097127D01*
X4211675Y-1093063D01*
X4214723Y-1088237D01*
X4216654Y-1082802D01*
X4217365Y-1076553D01*
X4217365Y-1048461D01*
X4189272Y-1048461D01*
G37*
G36*
X4320133Y-970889D02*
G01*
X4364431Y-970889D01*
X4364431Y-912825D01*
X4346346Y-912825D01*
X4340098Y-913536D01*
X4334662Y-915466D01*
X4329836Y-918514D01*
X4325772Y-922528D01*
X4322724Y-927404D01*
X4320844Y-932789D01*
X4320133Y-939088D01*
G37*
G36*
X4427118Y-970889D02*
G01*
X4471416Y-970889D01*
X4471416Y-939088D01*
X4470755Y-932789D01*
X4468825Y-927404D01*
X4465777Y-922528D01*
X4461764Y-918514D01*
X4456887Y-915466D01*
X4451502Y-913536D01*
X4445203Y-912825D01*
X4427118Y-912825D01*
G37*
G36*
X13454735Y-965860D02*
G01*
X13469213Y-965860D01*
X13483590Y-964031D01*
X13497560Y-960424D01*
X13511022Y-955090D01*
X13523722Y-948131D01*
X13535406Y-939647D01*
X13545921Y-929741D01*
X13555167Y-918616D01*
X13562888Y-906373D01*
X13569086Y-893318D01*
X13573556Y-879551D01*
X13576249Y-865327D01*
X13577163Y-850900D01*
X13576249Y-836472D01*
X13573556Y-822248D01*
X13569086Y-808482D01*
X13562888Y-795426D01*
X13555167Y-783183D01*
X13545921Y-772058D01*
X13535406Y-762152D01*
X13523722Y-753668D01*
X13511022Y-746709D01*
X13497560Y-741375D01*
X13483590Y-737768D01*
X13469213Y-735939D01*
X13454735Y-735939D01*
X13440410Y-737768D01*
X13426389Y-741375D01*
X13412927Y-746709D01*
X13400278Y-753668D01*
X13388594Y-762152D01*
X13378027Y-772058D01*
X13368832Y-783183D01*
X13361060Y-795426D01*
X13354913Y-808482D01*
X13350443Y-822248D01*
X13347750Y-836472D01*
X13346836Y-850900D01*
X13347750Y-865327D01*
X13350443Y-879551D01*
X13354913Y-893318D01*
X13361060Y-906373D01*
X13368832Y-918616D01*
X13378027Y-929741D01*
X13388594Y-939647D01*
X13400278Y-948131D01*
X13412927Y-955090D01*
X13426389Y-960424D01*
X13440410Y-964031D01*
G37*
G36*
X13200735Y-965860D02*
G01*
X13215213Y-965860D01*
X13229590Y-964031D01*
X13243560Y-960424D01*
X13257022Y-955090D01*
X13269722Y-948131D01*
X13281406Y-939647D01*
X13291921Y-929741D01*
X13301167Y-918616D01*
X13308888Y-906373D01*
X13315086Y-893318D01*
X13319556Y-879551D01*
X13322249Y-865327D01*
X13323163Y-850900D01*
X13322249Y-836472D01*
X13319556Y-822248D01*
X13315086Y-808482D01*
X13308888Y-795426D01*
X13301167Y-783183D01*
X13291921Y-772058D01*
X13281406Y-762152D01*
X13269722Y-753668D01*
X13257022Y-746709D01*
X13243560Y-741375D01*
X13229590Y-737768D01*
X13215213Y-735939D01*
X13200735Y-735939D01*
X13186410Y-737768D01*
X13172389Y-741375D01*
X13158927Y-746709D01*
X13146278Y-753668D01*
X13134594Y-762152D01*
X13124027Y-772058D01*
X13114832Y-783183D01*
X13107060Y-795426D01*
X13100913Y-808482D01*
X13096443Y-822248D01*
X13093750Y-836472D01*
X13092836Y-850900D01*
X13093750Y-865327D01*
X13096443Y-879551D01*
X13100913Y-893318D01*
X13107060Y-906373D01*
X13114832Y-918616D01*
X13124027Y-929741D01*
X13134594Y-939647D01*
X13146278Y-948131D01*
X13158927Y-955090D01*
X13172389Y-960424D01*
X13186410Y-964031D01*
G37*
G36*
X12946735Y-965860D02*
G01*
X12961213Y-965860D01*
X12975590Y-964031D01*
X12989560Y-960424D01*
X13003022Y-955090D01*
X13015721Y-948131D01*
X13027406Y-939647D01*
X13037921Y-929741D01*
X13047167Y-918616D01*
X13054888Y-906373D01*
X13061086Y-893318D01*
X13065556Y-879551D01*
X13068249Y-865327D01*
X13069163Y-850900D01*
X13068249Y-836472D01*
X13065556Y-822248D01*
X13061086Y-808482D01*
X13054888Y-795426D01*
X13047167Y-783183D01*
X13037921Y-772058D01*
X13027406Y-762152D01*
X13015721Y-753668D01*
X13003022Y-746709D01*
X12989560Y-741375D01*
X12975590Y-737768D01*
X12961213Y-735939D01*
X12946735Y-735939D01*
X12932410Y-737768D01*
X12918389Y-741375D01*
X12904927Y-746709D01*
X12892278Y-753668D01*
X12880594Y-762152D01*
X12870027Y-772058D01*
X12860832Y-783183D01*
X12853060Y-795426D01*
X12846913Y-808482D01*
X12842443Y-822248D01*
X12839750Y-836472D01*
X12838836Y-850900D01*
X12839750Y-865327D01*
X12842443Y-879551D01*
X12846913Y-893318D01*
X12853060Y-906373D01*
X12860832Y-918616D01*
X12870027Y-929741D01*
X12880594Y-939647D01*
X12892278Y-948131D01*
X12904927Y-955090D01*
X12918389Y-960424D01*
X12932410Y-964031D01*
G37*
G36*
X13708735Y-965860D02*
G01*
X13723213Y-965860D01*
X13737590Y-964031D01*
X13751560Y-960424D01*
X13765022Y-955090D01*
X13777722Y-948131D01*
X13789406Y-939647D01*
X13799921Y-929741D01*
X13809167Y-918616D01*
X13816888Y-906373D01*
X13823086Y-893318D01*
X13827556Y-879551D01*
X13830300Y-865174D01*
X13831265Y-862330D01*
X13833094Y-859891D01*
X14087449Y-605536D01*
X14090751Y-603300D01*
X14094663Y-602538D01*
X14203019Y-602538D01*
X14209268Y-601827D01*
X14214703Y-599948D01*
X14219529Y-596900D01*
X14223593Y-592836D01*
X14226641Y-588010D01*
X14228521Y-582574D01*
X14229232Y-576326D01*
X14229232Y-414274D01*
X14228521Y-408025D01*
X14226641Y-402590D01*
X14223593Y-397764D01*
X14219529Y-393700D01*
X14214703Y-390652D01*
X14209268Y-388772D01*
X14203019Y-388061D01*
X14040967Y-388061D01*
X14034668Y-388772D01*
X14029283Y-390652D01*
X14024406Y-393700D01*
X14020393Y-397764D01*
X14017345Y-402590D01*
X14015415Y-408025D01*
X14014754Y-414274D01*
X14014754Y-422249D01*
X14013840Y-426415D01*
X14011300Y-429818D01*
X14008354Y-432460D01*
X13706754Y-734060D01*
X13704062Y-735990D01*
X13700861Y-736955D01*
X13694410Y-737768D01*
X13680389Y-741375D01*
X13666927Y-746709D01*
X13654278Y-753668D01*
X13642594Y-762152D01*
X13632027Y-772058D01*
X13622832Y-783183D01*
X13615060Y-795426D01*
X13608913Y-808482D01*
X13604443Y-822248D01*
X13601750Y-836472D01*
X13600836Y-850900D01*
X13601750Y-865327D01*
X13604443Y-879551D01*
X13608913Y-893318D01*
X13615060Y-906373D01*
X13622832Y-918616D01*
X13632027Y-929741D01*
X13642594Y-939647D01*
X13654278Y-948131D01*
X13666927Y-955090D01*
X13680389Y-960424D01*
X13694410Y-964031D01*
G37*
G36*
X4189272Y-965758D02*
G01*
X4217365Y-965758D01*
X4217365Y-937666D01*
X4216654Y-931418D01*
X4214723Y-926033D01*
X4211675Y-921156D01*
X4207662Y-917092D01*
X4202785Y-914044D01*
X4197400Y-912164D01*
X4191101Y-911453D01*
X4189272Y-911453D01*
G37*
G36*
X3817518Y-534974D02*
G01*
X3835603Y-534974D01*
X3841902Y-534263D01*
X3847287Y-532333D01*
X3852164Y-529285D01*
X3856177Y-525272D01*
X3859225Y-520395D01*
X3861155Y-515010D01*
X3861866Y-508711D01*
X3861866Y-476910D01*
X3817518Y-476910D01*
G37*
G36*
X3736746Y-534974D02*
G01*
X3754831Y-534974D01*
X3754831Y-476910D01*
X3710533Y-476910D01*
X3710533Y-508711D01*
X3711244Y-515010D01*
X3713124Y-520395D01*
X3716172Y-525272D01*
X3720236Y-529285D01*
X3725062Y-532333D01*
X3730498Y-534263D01*
G37*
G36*
X13431519Y-393293D02*
G01*
X13578890Y-393293D01*
X13585139Y-392582D01*
X13590524Y-390702D01*
X13595400Y-387654D01*
X13599464Y-383590D01*
X13602512Y-378764D01*
X13604392Y-373329D01*
X13605103Y-367080D01*
X13605103Y-90119D01*
X13604392Y-83870D01*
X13602512Y-78435D01*
X13599464Y-73609D01*
X13595400Y-69545D01*
X13590524Y-66497D01*
X13585139Y-64617D01*
X13578890Y-63906D01*
X13431519Y-63906D01*
X13425220Y-64617D01*
X13419836Y-66497D01*
X13414959Y-69545D01*
X13410946Y-73609D01*
X13407898Y-78435D01*
X13405967Y-83870D01*
X13405307Y-90119D01*
X13405307Y-129285D01*
X13404494Y-133197D01*
X13402310Y-136448D01*
X13399007Y-138684D01*
X13395147Y-139446D01*
X13338200Y-139446D01*
X13335050Y-138938D01*
X13332206Y-137515D01*
X13321538Y-129743D01*
X13308634Y-122682D01*
X13294969Y-117246D01*
X13280745Y-113588D01*
X13266166Y-111760D01*
X13251434Y-111760D01*
X13236854Y-113588D01*
X13222630Y-117246D01*
X13208965Y-122682D01*
X13196062Y-129743D01*
X13184174Y-138379D01*
X13173456Y-148437D01*
X13164108Y-159766D01*
X13156184Y-172212D01*
X13149935Y-185521D01*
X13145414Y-199491D01*
X13142671Y-213918D01*
X13141706Y-228600D01*
X13142671Y-243281D01*
X13145414Y-257708D01*
X13149935Y-271678D01*
X13156184Y-284988D01*
X13164108Y-297434D01*
X13173456Y-308762D01*
X13184174Y-318820D01*
X13196062Y-327456D01*
X13208965Y-334518D01*
X13222630Y-339953D01*
X13236854Y-343611D01*
X13251434Y-345440D01*
X13266166Y-345440D01*
X13280745Y-343611D01*
X13294969Y-339953D01*
X13308634Y-334518D01*
X13321538Y-327456D01*
X13332206Y-319684D01*
X13335050Y-318262D01*
X13338200Y-317754D01*
X13395147Y-317754D01*
X13399007Y-318516D01*
X13402310Y-320751D01*
X13404494Y-324002D01*
X13405307Y-327914D01*
X13405307Y-367080D01*
X13405967Y-373329D01*
X13407898Y-378764D01*
X13410946Y-383590D01*
X13414959Y-387654D01*
X13419836Y-390702D01*
X13425220Y-392582D01*
G37*
G36*
X13751509Y-393293D02*
G01*
X13898880Y-393293D01*
X13905128Y-392582D01*
X13910563Y-390702D01*
X13915390Y-387654D01*
X13919454Y-383590D01*
X13922501Y-378764D01*
X13924381Y-373329D01*
X13925092Y-367080D01*
X13925092Y-327914D01*
X13925854Y-324002D01*
X13928090Y-320751D01*
X13931341Y-318516D01*
X13935252Y-317754D01*
X14043050Y-317754D01*
X14046657Y-318414D01*
X14049756Y-320294D01*
X14056715Y-326390D01*
X14068348Y-334162D01*
X14080947Y-340360D01*
X14094206Y-344881D01*
X14107972Y-347624D01*
X14121993Y-348538D01*
X14135963Y-347624D01*
X14149730Y-344881D01*
X14163040Y-340360D01*
X14175587Y-334162D01*
X14187271Y-326390D01*
X14197787Y-317144D01*
X14207032Y-306578D01*
X14214856Y-294894D01*
X14221053Y-282346D01*
X14225574Y-269036D01*
X14228318Y-255320D01*
X14229232Y-241300D01*
X14228318Y-227279D01*
X14225574Y-213563D01*
X14221053Y-200253D01*
X14214856Y-187706D01*
X14207032Y-176022D01*
X14197787Y-165455D01*
X14187271Y-156210D01*
X14175587Y-148437D01*
X14163040Y-142240D01*
X14149730Y-137718D01*
X14135963Y-134975D01*
X14121993Y-134061D01*
X14107972Y-134975D01*
X14094206Y-137718D01*
X14090751Y-138887D01*
X14087500Y-139446D01*
X13935252Y-139446D01*
X13931341Y-138684D01*
X13928090Y-136448D01*
X13925854Y-133197D01*
X13925092Y-129285D01*
X13925092Y-90119D01*
X13924381Y-83870D01*
X13922501Y-78435D01*
X13919454Y-73609D01*
X13915390Y-69545D01*
X13910563Y-66497D01*
X13905128Y-64617D01*
X13898880Y-63906D01*
X13751509Y-63906D01*
X13745260Y-64617D01*
X13739825Y-66497D01*
X13734999Y-69545D01*
X13730935Y-73609D01*
X13727887Y-78435D01*
X13726007Y-83870D01*
X13725296Y-90119D01*
X13725296Y-367080D01*
X13726007Y-373329D01*
X13727887Y-378764D01*
X13730935Y-383590D01*
X13734999Y-387654D01*
X13739825Y-390702D01*
X13745260Y-392582D01*
G37*
G36*
X3817518Y-386689D02*
G01*
X3861866Y-386689D01*
X3861866Y-354888D01*
X3861155Y-348589D01*
X3859225Y-343204D01*
X3856177Y-338328D01*
X3852164Y-334314D01*
X3847287Y-331266D01*
X3841902Y-329336D01*
X3835603Y-328625D01*
X3817518Y-328625D01*
G37*
G36*
X3710533Y-386689D02*
G01*
X3754831Y-386689D01*
X3754831Y-328625D01*
X3736746Y-328625D01*
X3730498Y-329336D01*
X3725062Y-331266D01*
X3720236Y-334314D01*
X3716172Y-338328D01*
X3713124Y-343204D01*
X3711244Y-348589D01*
X3710533Y-354888D01*
G37*
G36*
X10988649Y-285953D02*
G01*
X11001451Y-278536D01*
X11013338Y-269595D01*
X11024006Y-259232D01*
X11033353Y-247599D01*
X11041176Y-234950D01*
X11042650Y-231749D01*
X10988649Y-231749D01*
G37*
G36*
X10880699Y-285699D02*
G01*
X10880699Y-231749D01*
X10826699Y-231749D01*
X10831931Y-241401D01*
X10840516Y-253542D01*
X10850524Y-264566D01*
X10861852Y-274218D01*
X10874248Y-282448D01*
G37*
G36*
X7257135Y-280060D02*
G01*
X7271613Y-280060D01*
X7285990Y-278231D01*
X7299959Y-274624D01*
X7313422Y-269290D01*
X7326122Y-262331D01*
X7337806Y-253847D01*
X7348321Y-243941D01*
X7357567Y-232816D01*
X7365288Y-220573D01*
X7371486Y-207517D01*
X7375956Y-193751D01*
X7378649Y-179527D01*
X7379563Y-165100D01*
X7378649Y-150672D01*
X7375956Y-136448D01*
X7371486Y-122682D01*
X7365288Y-109626D01*
X7357567Y-97383D01*
X7348321Y-86258D01*
X7337806Y-76352D01*
X7326122Y-67868D01*
X7313422Y-60909D01*
X7299959Y-55575D01*
X7285990Y-51968D01*
X7271613Y-50139D01*
X7257135Y-50139D01*
X7242809Y-51968D01*
X7228789Y-55575D01*
X7215327Y-60909D01*
X7202678Y-67868D01*
X7190994Y-76352D01*
X7180427Y-86258D01*
X7171232Y-97383D01*
X7163460Y-109626D01*
X7157313Y-122682D01*
X7152843Y-136448D01*
X7150150Y-150672D01*
X7149236Y-165100D01*
X7150150Y-179527D01*
X7152843Y-193751D01*
X7157313Y-207517D01*
X7163460Y-220573D01*
X7171232Y-232816D01*
X7180427Y-243941D01*
X7190994Y-253847D01*
X7202678Y-262331D01*
X7215327Y-269290D01*
X7228789Y-274624D01*
X7242809Y-278231D01*
G37*
G36*
X8273135Y-280060D02*
G01*
X8287613Y-280060D01*
X8301990Y-278231D01*
X8315959Y-274624D01*
X8329422Y-269290D01*
X8342122Y-262331D01*
X8353806Y-253847D01*
X8364321Y-243941D01*
X8373567Y-232816D01*
X8381288Y-220573D01*
X8387486Y-207517D01*
X8391956Y-193751D01*
X8394649Y-179527D01*
X8395563Y-165100D01*
X8394649Y-150672D01*
X8391956Y-136448D01*
X8387486Y-122682D01*
X8381288Y-109626D01*
X8373567Y-97383D01*
X8364321Y-86258D01*
X8353806Y-76352D01*
X8342122Y-67868D01*
X8329422Y-60909D01*
X8315959Y-55575D01*
X8301990Y-51968D01*
X8287613Y-50139D01*
X8273135Y-50139D01*
X8258809Y-51968D01*
X8244789Y-55575D01*
X8231327Y-60909D01*
X8218678Y-67868D01*
X8206994Y-76352D01*
X8196427Y-86258D01*
X8187232Y-97383D01*
X8179460Y-109626D01*
X8173313Y-122682D01*
X8168843Y-136448D01*
X8166150Y-150672D01*
X8165236Y-165100D01*
X8166150Y-179527D01*
X8168843Y-193751D01*
X8173313Y-207517D01*
X8179460Y-220573D01*
X8187232Y-232816D01*
X8196427Y-243941D01*
X8206994Y-253847D01*
X8218678Y-262331D01*
X8231327Y-269290D01*
X8244789Y-274624D01*
X8258809Y-278231D01*
G37*
G36*
X6241135Y-280060D02*
G01*
X6255613Y-280060D01*
X6269990Y-278231D01*
X6283960Y-274624D01*
X6297422Y-269290D01*
X6310122Y-262331D01*
X6321806Y-253847D01*
X6332321Y-243941D01*
X6341567Y-232816D01*
X6349288Y-220573D01*
X6355486Y-207517D01*
X6359956Y-193751D01*
X6362649Y-179527D01*
X6363563Y-165100D01*
X6362649Y-150672D01*
X6359956Y-136448D01*
X6355486Y-122682D01*
X6349288Y-109626D01*
X6341567Y-97383D01*
X6332321Y-86258D01*
X6321806Y-76352D01*
X6310122Y-67868D01*
X6297422Y-60909D01*
X6283960Y-55575D01*
X6269990Y-51968D01*
X6255613Y-50139D01*
X6241135Y-50139D01*
X6226810Y-51968D01*
X6212789Y-55575D01*
X6199327Y-60909D01*
X6186678Y-67868D01*
X6174994Y-76352D01*
X6164427Y-86258D01*
X6155232Y-97383D01*
X6147460Y-109626D01*
X6141313Y-122682D01*
X6136843Y-136448D01*
X6134150Y-150672D01*
X6133236Y-165100D01*
X6134150Y-179527D01*
X6136843Y-193751D01*
X6141313Y-207517D01*
X6147460Y-220573D01*
X6155232Y-232816D01*
X6164427Y-243941D01*
X6174994Y-253847D01*
X6186678Y-262331D01*
X6199327Y-269290D01*
X6212789Y-274624D01*
X6226810Y-278231D01*
G37*
G36*
X7003135Y-280060D02*
G01*
X7017613Y-280060D01*
X7031990Y-278231D01*
X7045959Y-274624D01*
X7059422Y-269290D01*
X7072122Y-262331D01*
X7083806Y-253847D01*
X7094321Y-243941D01*
X7103567Y-232816D01*
X7111288Y-220573D01*
X7117486Y-207517D01*
X7121956Y-193751D01*
X7124649Y-179527D01*
X7125563Y-165100D01*
X7124649Y-150672D01*
X7121956Y-136448D01*
X7117486Y-122682D01*
X7111288Y-109626D01*
X7103567Y-97383D01*
X7094321Y-86258D01*
X7083806Y-76352D01*
X7072122Y-67868D01*
X7059422Y-60909D01*
X7045959Y-55575D01*
X7031990Y-51968D01*
X7017613Y-50139D01*
X7003135Y-50139D01*
X6988809Y-51968D01*
X6974789Y-55575D01*
X6961327Y-60909D01*
X6948678Y-67868D01*
X6936994Y-76352D01*
X6926427Y-86258D01*
X6917232Y-97383D01*
X6909460Y-109626D01*
X6903313Y-122682D01*
X6898843Y-136448D01*
X6896150Y-150672D01*
X6895236Y-165100D01*
X6896150Y-179527D01*
X6898843Y-193751D01*
X6903313Y-207517D01*
X6909460Y-220573D01*
X6917232Y-232816D01*
X6926427Y-243941D01*
X6936994Y-253847D01*
X6948678Y-262331D01*
X6961327Y-269290D01*
X6974789Y-274624D01*
X6988809Y-278231D01*
G37*
G36*
X7511135Y-280060D02*
G01*
X7525613Y-280060D01*
X7539990Y-278231D01*
X7553959Y-274624D01*
X7567422Y-269290D01*
X7580122Y-262331D01*
X7591806Y-253847D01*
X7602321Y-243941D01*
X7611567Y-232816D01*
X7619288Y-220573D01*
X7625486Y-207517D01*
X7629956Y-193751D01*
X7632649Y-179527D01*
X7633563Y-165100D01*
X7632649Y-150672D01*
X7629956Y-136448D01*
X7625486Y-122682D01*
X7619288Y-109626D01*
X7611567Y-97383D01*
X7602321Y-86258D01*
X7591806Y-76352D01*
X7580122Y-67868D01*
X7567422Y-60909D01*
X7553959Y-55575D01*
X7539990Y-51968D01*
X7525613Y-50139D01*
X7511135Y-50139D01*
X7496809Y-51968D01*
X7482789Y-55575D01*
X7469327Y-60909D01*
X7456678Y-67868D01*
X7444994Y-76352D01*
X7434427Y-86258D01*
X7425232Y-97383D01*
X7417460Y-109626D01*
X7411313Y-122682D01*
X7406843Y-136448D01*
X7404150Y-150672D01*
X7403236Y-165100D01*
X7404150Y-179527D01*
X7406843Y-193751D01*
X7411313Y-207517D01*
X7417460Y-220573D01*
X7425232Y-232816D01*
X7434427Y-243941D01*
X7444994Y-253847D01*
X7456678Y-262331D01*
X7469327Y-269290D01*
X7482789Y-274624D01*
X7496809Y-278231D01*
G37*
G36*
X6495135Y-280060D02*
G01*
X6509613Y-280060D01*
X6523990Y-278231D01*
X6537959Y-274624D01*
X6551422Y-269290D01*
X6564122Y-262331D01*
X6575806Y-253847D01*
X6586321Y-243941D01*
X6595567Y-232816D01*
X6603288Y-220573D01*
X6609486Y-207517D01*
X6613956Y-193751D01*
X6616649Y-179527D01*
X6617563Y-165100D01*
X6616649Y-150672D01*
X6613956Y-136448D01*
X6609486Y-122682D01*
X6603288Y-109626D01*
X6595567Y-97383D01*
X6586321Y-86258D01*
X6575806Y-76352D01*
X6564122Y-67868D01*
X6551422Y-60909D01*
X6537959Y-55575D01*
X6523990Y-51968D01*
X6509613Y-50139D01*
X6495135Y-50139D01*
X6480810Y-51968D01*
X6466789Y-55575D01*
X6453327Y-60909D01*
X6440678Y-67868D01*
X6428994Y-76352D01*
X6418427Y-86258D01*
X6409232Y-97383D01*
X6401460Y-109626D01*
X6395313Y-122682D01*
X6390843Y-136448D01*
X6388150Y-150672D01*
X6387236Y-165100D01*
X6388150Y-179527D01*
X6390843Y-193751D01*
X6395313Y-207517D01*
X6401460Y-220573D01*
X6409232Y-232816D01*
X6418427Y-243941D01*
X6428994Y-253847D01*
X6440678Y-262331D01*
X6453327Y-269290D01*
X6466789Y-274624D01*
X6480810Y-278231D01*
G37*
G36*
X8019135Y-280060D02*
G01*
X8033613Y-280060D01*
X8047990Y-278231D01*
X8061959Y-274624D01*
X8075422Y-269290D01*
X8088122Y-262331D01*
X8099806Y-253847D01*
X8110321Y-243941D01*
X8119567Y-232816D01*
X8127288Y-220573D01*
X8133486Y-207517D01*
X8137956Y-193751D01*
X8140649Y-179527D01*
X8141563Y-165100D01*
X8140649Y-150672D01*
X8137956Y-136448D01*
X8133486Y-122682D01*
X8127288Y-109626D01*
X8119567Y-97383D01*
X8110321Y-86258D01*
X8099806Y-76352D01*
X8088122Y-67868D01*
X8075422Y-60909D01*
X8061959Y-55575D01*
X8047990Y-51968D01*
X8033613Y-50139D01*
X8019135Y-50139D01*
X8004809Y-51968D01*
X7990789Y-55575D01*
X7977327Y-60909D01*
X7964678Y-67868D01*
X7952994Y-76352D01*
X7942427Y-86258D01*
X7933232Y-97383D01*
X7925460Y-109626D01*
X7919313Y-122682D01*
X7914843Y-136448D01*
X7912150Y-150672D01*
X7911236Y-165100D01*
X7912150Y-179527D01*
X7914843Y-193751D01*
X7919313Y-207517D01*
X7925460Y-220573D01*
X7933232Y-232816D01*
X7942427Y-243941D01*
X7952994Y-253847D01*
X7964678Y-262331D01*
X7977327Y-269290D01*
X7990789Y-274624D01*
X8004809Y-278231D01*
G37*
G36*
X8527135Y-280060D02*
G01*
X8541613Y-280060D01*
X8555990Y-278231D01*
X8569960Y-274624D01*
X8583422Y-269290D01*
X8596122Y-262331D01*
X8607806Y-253847D01*
X8618321Y-243941D01*
X8627567Y-232816D01*
X8635288Y-220573D01*
X8641486Y-207517D01*
X8645956Y-193751D01*
X8648649Y-179527D01*
X8649563Y-165100D01*
X8648649Y-150672D01*
X8645956Y-136448D01*
X8641486Y-122682D01*
X8635288Y-109626D01*
X8627567Y-97383D01*
X8618321Y-86258D01*
X8607806Y-76352D01*
X8596122Y-67868D01*
X8583422Y-60909D01*
X8569960Y-55575D01*
X8555990Y-51968D01*
X8541613Y-50139D01*
X8527135Y-50139D01*
X8512810Y-51968D01*
X8498789Y-55575D01*
X8485327Y-60909D01*
X8472678Y-67868D01*
X8460994Y-76352D01*
X8450427Y-86258D01*
X8441232Y-97383D01*
X8433460Y-109626D01*
X8427313Y-122682D01*
X8422843Y-136448D01*
X8420150Y-150672D01*
X8419236Y-165100D01*
X8420150Y-179527D01*
X8422843Y-193751D01*
X8427313Y-207517D01*
X8433460Y-220573D01*
X8441232Y-232816D01*
X8450427Y-243941D01*
X8460994Y-253847D01*
X8472678Y-262331D01*
X8485327Y-269290D01*
X8498789Y-274624D01*
X8512810Y-278231D01*
G37*
G36*
X7765135Y-280060D02*
G01*
X7779613Y-280060D01*
X7793990Y-278231D01*
X7807959Y-274624D01*
X7821422Y-269290D01*
X7834122Y-262331D01*
X7845806Y-253847D01*
X7856321Y-243941D01*
X7865567Y-232816D01*
X7873288Y-220573D01*
X7879486Y-207517D01*
X7883956Y-193751D01*
X7886649Y-179527D01*
X7887563Y-165100D01*
X7886649Y-150672D01*
X7883956Y-136448D01*
X7879486Y-122682D01*
X7873288Y-109626D01*
X7865567Y-97383D01*
X7856321Y-86258D01*
X7845806Y-76352D01*
X7834122Y-67868D01*
X7821422Y-60909D01*
X7807959Y-55575D01*
X7793990Y-51968D01*
X7779613Y-50139D01*
X7765135Y-50139D01*
X7750809Y-51968D01*
X7736789Y-55575D01*
X7723327Y-60909D01*
X7710678Y-67868D01*
X7698994Y-76352D01*
X7688427Y-86258D01*
X7679232Y-97383D01*
X7671460Y-109626D01*
X7665313Y-122682D01*
X7660843Y-136448D01*
X7658150Y-150672D01*
X7657236Y-165100D01*
X7658150Y-179527D01*
X7660843Y-193751D01*
X7665313Y-207517D01*
X7671460Y-220573D01*
X7679232Y-232816D01*
X7688427Y-243941D01*
X7698994Y-253847D01*
X7710678Y-262331D01*
X7723327Y-269290D01*
X7736789Y-274624D01*
X7750809Y-278231D01*
G37*
G36*
X10826699Y-123799D02*
G01*
X10880699Y-123799D01*
X10880699Y-69850D01*
X10874248Y-73101D01*
X10861852Y-81330D01*
X10850524Y-90982D01*
X10840516Y-102006D01*
X10831931Y-114147D01*
G37*
G36*
X10988649Y-123799D02*
G01*
X11042650Y-123799D01*
X11041176Y-120599D01*
X11033353Y-107950D01*
X11024006Y-96316D01*
X11013338Y-85953D01*
X11001451Y-77012D01*
X10988649Y-69596D01*
G37*

%LPD*%
G36*
X4065676Y-812292D02*
G01*
X4061714Y-811225D01*
X4059986Y-810361D01*
X4050690Y-807516D01*
X4046575Y-807008D01*
X4042359Y-805434D01*
X4039209Y-802233D01*
X4037787Y-797966D01*
X4038295Y-793496D01*
X4040682Y-789736D01*
X4044492Y-787349D01*
X4047286Y-786333D01*
X4052163Y-783285D01*
X4056176Y-779272D01*
X4057650Y-776884D01*
X4060698Y-773785D01*
X4064762Y-772261D01*
X4069079Y-772566D01*
X4072890Y-774598D01*
X4075531Y-778052D01*
X4076446Y-782320D01*
X4076446Y-802182D01*
X4075582Y-806196D01*
X4073245Y-809548D01*
X4069740Y-811733D01*
G37*

%LPD*%
G36*
X3925874Y-1048054D02*
G01*
X3921963Y-1047242D01*
X3918712Y-1045057D01*
X3832199Y-958545D01*
X3830167Y-955649D01*
X3829253Y-952246D01*
X3828440Y-942797D01*
X3826001Y-933399D01*
X3821988Y-924509D01*
X3816553Y-916482D01*
X3809796Y-909421D01*
X3807307Y-907592D01*
X3804513Y-904443D01*
X3803243Y-900430D01*
X3803700Y-896213D01*
X3805783Y-892606D01*
X3809237Y-890117D01*
X3813352Y-889253D01*
X3904284Y-889253D01*
X3908196Y-890016D01*
X3911498Y-892251D01*
X3933850Y-914603D01*
X3936085Y-917905D01*
X3936847Y-921816D01*
X3936796Y-931011D01*
X3936034Y-937666D01*
X3936034Y-1037894D01*
X3935272Y-1041755D01*
X3933037Y-1045057D01*
X3929735Y-1047242D01*
G37*

%LPD*%
D10*
X7632705Y-635000D02*
G01*
X7632705Y-673100D01*
X7962905Y-1003300D01*
X8343912Y-1003300D01*
X6718312Y-635000D02*
G01*
X6718312Y-673107D01*
X7061205Y-1016000D01*
X7327917Y-1016000D01*
X12700012Y-850900D02*
G01*
X12700012Y-2120900D01*
X13462012Y-2882900D01*
X12446012Y-850900D02*
G01*
X10947412Y-2349500D01*
X9448800Y-2349500D01*
X9296400Y-2197100D01*
X10426814Y-177800D02*
G01*
X10553814Y-304800D01*
X10553814Y-596900D01*
X10566514Y-609600D01*
X11188814Y-609600D01*
X11430114Y-850900D01*
X12192114Y-850900D02*
G01*
X12039714Y-1003300D01*
X11392014Y-1003300D01*
X11303114Y-914400D01*
X11303114Y-800100D01*
X11163414Y-660400D01*
X9931400Y-660400D01*
X9639300Y-368300D01*
X6959600Y-368300D01*
X6756400Y-165100D01*
X11176012Y-850900D02*
G01*
X11036312Y-711200D01*
X9880600Y-711200D01*
X9639300Y-469900D01*
X6299200Y-469900D01*
X5994400Y-165100D01*
X10922012Y-850900D02*
G01*
X10833112Y-762000D01*
X9817100Y-762000D01*
X9626600Y-571500D01*
X6146800Y-571500D01*
X5740400Y-165100D01*
X12192012Y-2882900D02*
G01*
X11747512Y-2438400D01*
X7251700Y-2438400D01*
X7010400Y-2197100D01*
X11938012Y-2882900D02*
G01*
X11544312Y-2489200D01*
X7048500Y-2489200D01*
X6756400Y-2197100D01*
X11684012Y-2882900D02*
G01*
X11341112Y-2540000D01*
X6845300Y-2540000D01*
X6502400Y-2197100D01*
D11*
X13505192Y-228600D02*
G01*
X13258800Y-228600D01*
D10*
X11442712Y-177774D02*
G01*
X11811000Y-546061D01*
X11811000Y-939800D01*
D11*
X13825207Y-228600D02*
G01*
X14109306Y-228600D01*
X14122006Y-241300D01*
X13716012Y-850900D02*
G01*
X14071612Y-495300D01*
X14122006Y-495300D01*
D10*
X6388105Y-1016000D02*
G01*
X6184912Y-1016000D01*
X5803912Y-635000D01*
X4189417Y-1790700D02*
G01*
X4292605Y-1790700D01*
X4292605Y-2032000D01*
X4189417Y-2032000D01*
X3989387Y-1790700D02*
G01*
X3886200Y-1790700D01*
X3886200Y-2032000D01*
X3989387Y-2032000D01*
X3886200Y-2032000D02*
G01*
X3886200Y-2273300D01*
X3989387Y-2273300D01*
X4044210Y-1507505D02*
G01*
X4038600Y-1513116D01*
X4038600Y-1600200D01*
X4000500Y-1638300D01*
X3924300Y-1638300D01*
X3886200Y-1676400D01*
X3886200Y-1790700D01*
X4174213Y-1507505D02*
G01*
X4178300Y-1511592D01*
X4178300Y-1587500D01*
X4292605Y-1701805D01*
X4292605Y-1790700D01*
X4395810Y-1790725D02*
G01*
X4292630Y-1790725D01*
X3733660Y-1344676D02*
G01*
X3733660Y-1447800D01*
X3924414Y-1638300D01*
X4000614Y-1638300D01*
X4595807Y-1015997D02*
G01*
X4673594Y-1015997D01*
X4673594Y-1269997D01*
X4595807Y-1269997D01*
X4109072Y-1507489D02*
G01*
X4114914Y-1501902D01*
X4114914Y-1320800D01*
X4165714Y-1270000D01*
X4395838Y-1270000D01*
X4109186Y-1007120D02*
G01*
X4114800Y-1001506D01*
X4114800Y-723900D01*
X4076687Y-685787D01*
X3986199Y-685787D01*
X4114800Y-559963D02*
G01*
X4114800Y-508000D01*
X4038600Y-431800D01*
X3986212Y-431800D01*
X4114800Y-723900D02*
G01*
X4114800Y-559963D01*
X4044188Y-1007122D02*
G01*
X4038600Y-1001534D01*
X4038600Y-863600D01*
X4044213Y-1507502D02*
G01*
X4044213Y-1224813D01*
X3771900Y-952500D01*
X5016517Y-1384300D02*
G01*
X5016517Y-1828794D01*
X5016512Y-1828800D01*
D12*
X6629400Y-1155700D02*
G01*
X5321300Y-1155700D01*
X5016512Y-850912D01*
X5016512Y-127000D01*
D10*
X5866498Y-2413000D02*
G01*
X5866498Y-1968500D01*
X6121514Y-2413000D02*
G01*
X6121514Y-1968500D01*
D12*
X8547112Y-1574800D02*
G01*
X8153412Y-1968500D01*
X5664200Y-1968500D01*
D10*
X5613514Y-2425700D02*
G01*
X5613514Y-2035302D01*
X5680316Y-1968500D01*
D12*
X5613514Y-2425700D02*
G01*
X6108700Y-2425700D01*
D10*
X3786238Y-685800D02*
G01*
X3670414Y-685800D01*
X3657714Y-698500D01*
X3657714Y-825500D01*
X3683114Y-850900D01*
X3924414Y-850900D01*
X3975214Y-901700D01*
X3975214Y-1003045D01*
X3979278Y-1007110D01*
X5600814Y-762000D02*
G01*
X5600814Y-101600D01*
X5664314Y-38100D01*
X5816714Y-38100D01*
X5943714Y-165100D01*
X5994514Y-165100D01*
X5740400Y-762000D02*
G01*
X5740412Y-165100D01*
D12*
X5613514Y-2425700D02*
G01*
X5169212Y-2870001D01*
X5109999Y-2870001D01*
D10*
X5740400Y-1473200D02*
G01*
X5740400Y-1651000D01*
X5575300Y-1816100D01*
X5257800Y-1816100D01*
X4807841Y-2266058D01*
X4807841Y-2867893D01*
X5600814Y-1473200D02*
G01*
X5600814Y-1651000D01*
X5511914Y-1739900D01*
X5232514Y-1739900D01*
X4210941Y-2761472D01*
X4210941Y-2867893D01*
G36*
X13750950Y-89550D02*
G01*
X13750950Y-367649D01*
X13899448Y-367649D01*
X13899448Y-89550D01*
G37*
G36*
X13579449Y-89550D02*
G01*
X13579449Y-367649D01*
X13430951Y-367649D01*
X13430951Y-89550D01*
G37*
G36*
X3811300Y-1394599D02*
G01*
X3811300Y-1294599D01*
X3656299Y-1294599D01*
X3656299Y-1394599D01*
G37*
G36*
X3811300Y-1194600D02*
G01*
X3811300Y-1094600D01*
X3656299Y-1094600D01*
X3656299Y-1194600D01*
G37*
G36*
X4239399Y-2195799D02*
G01*
X4139399Y-2195799D01*
X4139399Y-2350800D01*
X4239399Y-2350800D01*
G37*
G36*
X4039400Y-2195799D02*
G01*
X3939400Y-2195799D01*
X3939400Y-2350800D01*
X4039400Y-2350800D01*
G37*
G36*
X3939400Y-1868200D02*
G01*
X4039400Y-1868200D01*
X4039400Y-1713199D01*
X3939400Y-1713199D01*
G37*
G36*
X4139399Y-1868200D02*
G01*
X4239399Y-1868200D01*
X4239399Y-1713199D01*
X4139399Y-1713199D01*
G37*
G36*
X3736200Y-509300D02*
G01*
X3836200Y-509300D01*
X3836200Y-354299D01*
X3736200Y-354299D01*
G37*
G36*
X3936199Y-509300D02*
G01*
X4036199Y-509300D01*
X4036199Y-354299D01*
X3936199Y-354299D01*
G37*
G36*
X3836200Y-608299D02*
G01*
X3736200Y-608299D01*
X3736200Y-763300D01*
X3836200Y-763300D01*
G37*
G36*
X4036199Y-608299D02*
G01*
X3936199Y-608299D01*
X3936199Y-763300D01*
X4036199Y-763300D01*
G37*
G36*
X4545799Y-1347500D02*
G01*
X4645799Y-1347500D01*
X4645799Y-1192499D01*
X4545799Y-1192499D01*
G37*
G36*
X4345800Y-1347500D02*
G01*
X4445800Y-1347500D01*
X4445800Y-1192499D01*
X4345800Y-1192499D01*
G37*
G36*
X4445800Y-938499D02*
G01*
X4345800Y-938499D01*
X4345800Y-1093500D01*
X4445800Y-1093500D01*
G37*
G36*
X4645799Y-938499D02*
G01*
X4545799Y-938499D01*
X4545799Y-1093500D01*
X4645799Y-1093500D01*
G37*
G36*
X4445800Y-1713199D02*
G01*
X4345800Y-1713199D01*
X4345800Y-1868200D01*
X4445800Y-1868200D01*
G37*
G36*
X4645799Y-1713199D02*
G01*
X4545799Y-1713199D01*
X4545799Y-1868200D01*
X4645799Y-1868200D01*
G37*
G36*
X4039400Y-1954499D02*
G01*
X3939400Y-1954499D01*
X3939400Y-2109500D01*
X4039400Y-2109500D01*
G37*
G36*
X4239399Y-1954499D02*
G01*
X4139399Y-1954499D01*
X4139399Y-2109500D01*
X4239399Y-2109500D01*
G37*
G36*
X3961698Y-937120D02*
G01*
X3961698Y-1077120D01*
X3996700Y-1077120D01*
X3996700Y-937120D01*
G37*
G36*
X4026700Y-937120D02*
G01*
X4026700Y-1077120D01*
X4061698Y-1077120D01*
X4061698Y-937120D01*
G37*
G36*
X4091698Y-937120D02*
G01*
X4091698Y-1077120D01*
X4126699Y-1077120D01*
X4126699Y-937120D01*
G37*
G36*
X4156699Y-937120D02*
G01*
X4156699Y-1077120D01*
X4191701Y-1077120D01*
X4191701Y-937120D01*
G37*
G36*
X4156699Y-1437500D02*
G01*
X4156699Y-1577500D01*
X4191701Y-1577500D01*
X4191701Y-1437500D01*
G37*
G36*
X4091698Y-1437500D02*
G01*
X4091698Y-1577500D01*
X4126699Y-1577500D01*
X4126699Y-1437500D01*
G37*
G36*
X4026700Y-1437500D02*
G01*
X4026700Y-1577500D01*
X4061701Y-1577500D01*
X4061701Y-1437500D01*
G37*
G36*
X3961698Y-1437500D02*
G01*
X3961698Y-1577500D01*
X3996700Y-1577500D01*
X3996700Y-1437500D01*
G37*
D25*
G01*
X254012Y-2844800D03*
G01*
X1422412Y-127000D03*
G01*
X1409712Y-2857500D03*
G01*
X2857512Y-2857500D03*
G01*
X2870212Y-127000D03*
G01*
X3910012Y-2869996D03*
G01*
X4510011Y-2869996D03*
G01*
X5110010Y-2869996D03*
G01*
X4416513Y-127000D03*
G01*
X5016512Y-127000D03*
G01*
X3722128Y-135712D03*
G01*
X4014228Y-135712D03*
G01*
X4210951Y-2867888D03*
G01*
X4807851Y-2867888D03*
G01*
X254012Y-139700D03*
G36*
X14203591Y-576897D02*
G01*
X14203591Y-413702D01*
X14040396Y-413702D01*
X14040396Y-576897D01*
G37*
D27*
G01*
X14122006Y-241300D03*
D28*
G01*
X5359412Y-2070100D03*
G01*
X5359412Y-292100D03*
G01*
X9931412Y-292100D03*
G01*
X9931412Y-2070100D03*
D29*
G01*
X8534412Y-165100D03*
G01*
X8280412Y-165100D03*
G01*
X8026412Y-165100D03*
G01*
X7772412Y-165100D03*
G01*
X7518412Y-165100D03*
G01*
X7264412Y-165100D03*
G01*
X7010412Y-165100D03*
G01*
X6756412Y-165100D03*
G01*
X6502412Y-165100D03*
G01*
X6248412Y-165100D03*
G01*
X5994412Y-165100D03*
G01*
X5740412Y-165100D03*
G01*
X8534412Y-2197100D03*
G01*
X8280412Y-2197100D03*
G01*
X8026412Y-2197100D03*
G01*
X7772412Y-2197100D03*
G01*
X7518412Y-2197100D03*
G01*
X7264412Y-2197100D03*
G01*
X7010412Y-2197100D03*
G01*
X6756412Y-2197100D03*
G01*
X6502412Y-2197100D03*
G01*
X6248412Y-2197100D03*
G01*
X5994412Y-2197100D03*
G01*
X5740412Y-2197100D03*
G01*
X8788412Y-2197100D03*
G01*
X9042412Y-2197100D03*
G01*
X9296412Y-2197100D03*
G01*
X9550412Y-2197100D03*
D30*
G01*
X14960587Y-2184400D03*
D31*
G01*
X14960612Y-2438400D03*
D32*
G01*
X10426712Y-431774D03*
G01*
X10426712Y-177774D03*
G01*
X10680712Y-431774D03*
G01*
X10680712Y-177774D03*
G01*
X10934712Y-431774D03*
G01*
X10934712Y-177774D03*
G01*
X11188712Y-431774D03*
G01*
X11188712Y-177774D03*
G01*
X11442712Y-431774D03*
G01*
X11442712Y-177774D03*
D33*
G01*
X15113012Y-2755900D03*
G01*
X15113012Y-977900D03*
G01*
X10528312Y-2755900D03*
G01*
X10528312Y-977900D03*
D29*
G01*
X12446012Y-2882900D03*
G01*
X12700012Y-2882900D03*
G01*
X14732012Y-2882900D03*
G01*
X14478012Y-2882900D03*
G01*
X14224012Y-2882900D03*
G01*
X13970012Y-2882900D03*
G01*
X10922012Y-2882900D03*
G01*
X11176012Y-2882900D03*
G01*
X11430012Y-2882900D03*
G01*
X11684012Y-2882900D03*
G01*
X11938012Y-2882900D03*
G01*
X12192012Y-2882900D03*
G01*
X12954012Y-2882900D03*
G01*
X13208012Y-2882900D03*
G01*
X13462012Y-2882900D03*
G01*
X13716012Y-2882900D03*
G01*
X10922012Y-850900D03*
G01*
X11176012Y-850900D03*
G01*
X11430012Y-850900D03*
G01*
X11684012Y-850900D03*
G01*
X11938012Y-850900D03*
G01*
X12192012Y-850900D03*
G01*
X12446012Y-850900D03*
G01*
X12700012Y-850900D03*
G01*
X12954012Y-850900D03*
G01*
X13208012Y-850900D03*
G01*
X13462012Y-850900D03*
G01*
X13716012Y-850900D03*
D14*
G01*
X8547112Y-1574800D03*
G01*
X6629412Y-1155700D03*
G01*
X4114812Y-559968D03*
G01*
X3771912Y-952500D03*
G01*
X5016512Y-1828800D03*
G01*
X5016512Y-1384300D03*
G01*
X4038612Y-863600D03*
D15*
G01*
X13258812Y-228600D03*
D14*
G01*
X11811012Y-939800D03*
G01*
X6388112Y-1016000D03*
G01*
X5803912Y-635000D03*
G01*
X7327912Y-1016000D03*
G01*
X6718312Y-635000D03*
G01*
X7632712Y-635000D03*
G01*
X8343912Y-1003300D03*
G01*
X5600814Y-1473200D03*
G01*
X5600814Y-762000D03*
G01*
X5740412Y-1473200D03*
G01*
X5740412Y-762000D03*
G01*
X3638562Y-489204D03*
G01*
X4520679Y-504088D03*
G01*
X4520679Y-694588D03*
G01*
X4711179Y-694588D03*
G01*
X4711179Y-885088D03*
G01*
X4901679Y-1075588D03*
G01*
X4901679Y-1266088D03*
G01*
X5092179Y-1266088D03*
G01*
X5282679Y-885088D03*
G01*
X5473179Y-885088D03*
G01*
X5473179Y-1456588D03*
G01*
X5854179Y-885088D03*
G01*
X6410109Y-693115D03*
G01*
X6410109Y-883615D03*
G01*
X6600609Y-1455115D03*
G01*
X6791109Y-883615D03*
G01*
X6791109Y-1074115D03*
G01*
X6791109Y-1264615D03*
G01*
X7275741Y-679704D03*
G01*
X7275741Y-870204D03*
G01*
X7466241Y-679704D03*
G01*
X7466241Y-870204D03*
G01*
X7466241Y-1060704D03*
G01*
X7466241Y-1251204D03*
G01*
X7466241Y-1441704D03*
G01*
X7656741Y-870204D03*
G01*
X7656741Y-1060704D03*
G01*
X7656741Y-1251204D03*
G01*
X8418741Y-679704D03*
G01*
X8418741Y-870204D03*
G01*
X8418741Y-1251204D03*
G01*
X8609241Y-679704D03*
G01*
X8609241Y-870204D03*
G01*
X8609241Y-1060704D03*
G01*
X8609241Y-1251204D03*
G01*
X8609241Y-1441704D03*
G01*
X8799741Y-108204D03*
G01*
X8799741Y-679704D03*
G01*
X8799741Y-870204D03*
G01*
X8799741Y-1060704D03*
G01*
X8799741Y-1251204D03*
G01*
X8799741Y-1441704D03*
G01*
X8799741Y-1632204D03*
G01*
X8990241Y-108204D03*
G01*
X8990241Y-679704D03*
G01*
X8990241Y-870204D03*
G01*
X8990241Y-1060704D03*
G01*
X8990241Y-1251204D03*
G01*
X8990241Y-1441704D03*
G01*
X8990241Y-1632204D03*
G01*
X9180741Y-108204D03*
G01*
X9180741Y-679704D03*
G01*
X9180741Y-870204D03*
G01*
X9180741Y-1060704D03*
G01*
X9180741Y-1251204D03*
G01*
X9180741Y-1441704D03*
G01*
X9180741Y-1632204D03*
G01*
X9371241Y-108204D03*
G01*
X9371241Y-679704D03*
G01*
X9371241Y-870204D03*
G01*
X9371241Y-1060704D03*
G01*
X9371241Y-1251204D03*
G01*
X9371241Y-1441704D03*
G01*
X9561741Y-679704D03*
G01*
X9561741Y-870204D03*
G01*
X9561741Y-1060704D03*
G01*
X9561741Y-1251204D03*
G01*
X9752241Y-870204D03*
G01*
X9752241Y-1060704D03*
G01*
X9942741Y-870204D03*
G01*
X10133241Y-489204D03*
G01*
X11657241Y-108204D03*
G01*
X11847741Y-108204D03*
G01*
X11847741Y-298704D03*
G01*
X12038241Y-108204D03*
G01*
X12038241Y-298704D03*
G01*
X12038241Y-489204D03*
G01*
X12038241Y-1441704D03*
G01*
X12038241Y-1632204D03*
G01*
X12038241Y-1822704D03*
G01*
X12038241Y-2013204D03*
G01*
X12038241Y-2203704D03*
G01*
X12038241Y-2394204D03*
G01*
X12038241Y-2584704D03*
G01*
X12228741Y-108204D03*
G01*
X12228741Y-298704D03*
G01*
X12228741Y-489204D03*
G01*
X12228741Y-1251204D03*
G01*
X12228741Y-1441704D03*
G01*
X12228741Y-1632204D03*
G01*
X12228741Y-1822704D03*
G01*
X12228741Y-2013204D03*
G01*
X12228741Y-2203704D03*
G01*
X12228741Y-2394204D03*
G01*
X12228741Y-2584704D03*
G01*
X12419241Y-108204D03*
G01*
X12419241Y-298704D03*
G01*
X12419241Y-489204D03*
G01*
X12419241Y-1060704D03*
G01*
X12419241Y-1251204D03*
G01*
X12419241Y-1441704D03*
G01*
X12419241Y-1632204D03*
G01*
X12419241Y-1822704D03*
G01*
X12419241Y-2013204D03*
G01*
X12419241Y-2203704D03*
G01*
X12419241Y-2394204D03*
G01*
X12419241Y-2584704D03*
G01*
X12609741Y-108204D03*
G01*
X12609741Y-298704D03*
G01*
X12609741Y-489204D03*
G01*
X12609741Y-2203704D03*
G01*
X12609741Y-2394204D03*
G01*
X12609741Y-2584704D03*
G01*
X12800241Y-108204D03*
G01*
X12800241Y-298704D03*
G01*
X12800241Y-1060704D03*
G01*
X12800241Y-1251204D03*
G01*
X12800241Y-1441704D03*
G01*
X12800241Y-1632204D03*
G01*
X12800241Y-1822704D03*
G01*
X12800241Y-2013204D03*
G01*
X12800241Y-2394204D03*
G01*
X12800241Y-2584704D03*
G01*
X12990741Y-108204D03*
G01*
X12990741Y-1060704D03*
G01*
X12990741Y-1251204D03*
G01*
X12990741Y-1441704D03*
G01*
X12990741Y-1632204D03*
G01*
X12990741Y-1822704D03*
G01*
X12990741Y-2013204D03*
G01*
X12990741Y-2203704D03*
G01*
X12990741Y-2584704D03*
G01*
X13181241Y-679704D03*
G01*
X13181241Y-1060704D03*
G01*
X13181241Y-1251204D03*
G01*
X13181241Y-1441704D03*
G01*
X13181241Y-1632204D03*
G01*
X13181241Y-1822704D03*
G01*
X13181241Y-2013204D03*
G01*
X13181241Y-2203704D03*
G01*
X13181241Y-2394204D03*
G01*
X13371741Y-489204D03*
G01*
X13371741Y-679704D03*
G01*
X13371741Y-1060704D03*
G01*
X13371741Y-1251204D03*
G01*
X13371741Y-1441704D03*
G01*
X13371741Y-1632204D03*
G01*
X13371741Y-1822704D03*
G01*
X13371741Y-2013204D03*
G01*
X13371741Y-2203704D03*
G01*
X13371741Y-2394204D03*
G01*
X13371741Y-2584704D03*
G01*
X13562241Y-489204D03*
G01*
X13562241Y-679704D03*
G01*
X13562241Y-1060704D03*
G01*
X13562241Y-1251204D03*
G01*
X13562241Y-1441704D03*
G01*
X13562241Y-1632204D03*
G01*
X13562241Y-1822704D03*
G01*
X13562241Y-2013204D03*
G01*
X13562241Y-2203704D03*
G01*
X13562241Y-2394204D03*
G01*
X13562241Y-2584704D03*
G01*
X13752741Y-489204D03*
G01*
X13752741Y-2394204D03*
G01*
X13752741Y-2584704D03*
G01*
X13943241Y-2203704D03*
G01*
X13943241Y-2584704D03*
G01*
X14133741Y-2394204D03*
G01*
X14324241Y-108204D03*
G01*
X14324241Y-1251204D03*
G01*
X14324241Y-1441704D03*
G01*
X14324241Y-1632204D03*
G01*
X14324241Y-1822704D03*
G01*
X14324241Y-2013204D03*
G01*
X14324241Y-2584704D03*
G01*
X14514741Y-108204D03*
G01*
X14514741Y-489204D03*
G01*
X14514741Y-1251204D03*
G01*
X14514741Y-1441704D03*
G01*
X14514741Y-1632204D03*
G01*
X14514741Y-1822704D03*
G01*
X14514741Y-2013204D03*
G01*
X14514741Y-2584704D03*
G01*
X14705241Y-108204D03*
G01*
X14705241Y-298704D03*
G01*
X14705241Y-489204D03*
G01*
X14705241Y-679704D03*
G01*
X14705241Y-1251204D03*
G01*
X14705241Y-1441704D03*
G01*
X14705241Y-1632204D03*
G01*
X14705241Y-1822704D03*
G01*
X14705241Y-2013204D03*
G01*
X14705241Y-2584704D03*
G01*
X14895741Y-108204D03*
G01*
X14895741Y-298704D03*
G01*
X14895741Y-489204D03*
G01*
X14895741Y-679704D03*
G01*
X14895741Y-1251204D03*
G01*
X14895741Y-1441704D03*
G01*
X14895741Y-1632204D03*
G01*
X14895741Y-1822704D03*
G01*
X14895741Y-2013204D03*
G01*
X15086241Y-108204D03*
G01*
X15086241Y-298704D03*
G01*
X15086241Y-1632204D03*
G01*
X15086241Y-1822704D03*
G01*
X15086241Y-2013204D03*
G01*
X4687252Y-1987804D03*
G01*
X4877752Y-1797304D03*
G01*
X5449252Y-2368804D03*
G01*
X5639752Y-2749804D03*
G01*
X5830252Y-2559304D03*
G01*
X6020752Y-2559304D03*
G01*
X6211252Y-2559304D03*
G01*
X6211252Y-2749804D03*
G01*
X6401752Y-2368804D03*
G01*
X6401752Y-2559304D03*
G01*
X6592252Y-2559304D03*
G01*
X6592252Y-2749804D03*
G01*
X7163752Y-2749804D03*
G01*
X7354252Y-2749804D03*
G01*
X7544752Y-2749804D03*
G01*
X7735252Y-2749804D03*
G01*
X7925752Y-2749804D03*
G01*
X8116252Y-2749804D03*
G01*
X8306752Y-2749804D03*
G01*
X9449752Y-1987804D03*
G01*
X9640252Y-1797304D03*
G01*
X9640252Y-1987804D03*
G01*
X9640252Y-2749804D03*
G01*
X9830752Y-1606804D03*
G01*
X9830752Y-1797304D03*
G01*
X9830752Y-2749804D03*
G01*
X10021252Y-1416304D03*
G01*
X10021252Y-1606804D03*
G01*
X10021252Y-1797304D03*
G01*
X10211752Y-1225804D03*
G01*
X10211752Y-1416304D03*
G01*
X10211752Y-1606804D03*
G01*
X10211752Y-1797304D03*
G01*
X10211752Y-1987804D03*
G01*
X10211752Y-2178304D03*
G01*
X10402252Y-1225804D03*
G01*
X10402252Y-1416304D03*
G01*
X10402252Y-1606804D03*
G01*
X10402252Y-1797304D03*
G01*
X10402252Y-1987804D03*
G01*
X10402252Y-2178304D03*
G01*
X10592752Y-1225804D03*
G01*
X10592752Y-1416304D03*
G01*
X10592752Y-1606804D03*
G01*
X10592752Y-1797304D03*
G01*
X10592752Y-1987804D03*
G01*
X10592752Y-2178304D03*
G01*
X10783252Y-1035304D03*
G01*
X10783252Y-1225804D03*
G01*
X10783252Y-1416304D03*
G01*
X10783252Y-1606804D03*
G01*
X10783252Y-1797304D03*
G01*
X10783252Y-1987804D03*
G01*
X10783252Y-2178304D03*
G01*
X10783252Y-2749804D03*
G01*
X10973752Y-1035304D03*
G01*
X10973752Y-1225804D03*
G01*
X10973752Y-1416304D03*
G01*
X10973752Y-1606804D03*
G01*
X10973752Y-1797304D03*
G01*
X10973752Y-1987804D03*
G01*
X10973752Y-2178304D03*
G01*
X11164252Y-1035304D03*
G01*
X11164252Y-1225804D03*
G01*
X11164252Y-1416304D03*
G01*
X11164252Y-1606804D03*
G01*
X11164252Y-1797304D03*
G01*
X11164252Y-1987804D03*
G01*
X11354752Y-1225804D03*
G01*
X11354752Y-1416304D03*
G01*
X11354752Y-1606804D03*
G01*
X11354752Y-1797304D03*
G01*
X11354752Y-2178304D03*
G01*
X11545252Y-1225804D03*
G01*
X11545252Y-1416304D03*
G01*
X11545252Y-1606804D03*
G01*
X11545252Y-1987804D03*
G01*
X11545252Y-2178304D03*
G01*
X3638562Y-1870202D03*
G01*
X3638562Y-2060702D03*
G01*
X3638562Y-2251202D03*
G01*
X3638562Y-2441702D03*
G01*
X3638562Y-2632202D03*
M02*
