G04 Layer: TopLayer*
G04 EasyEDA v6.4.19.5, 2021-06-29T13:46:12+12:00*
G04 3cc3b40c68de4bce97ec9925422c83c7,12af84a47dbc45c89479b689871b34a7,10*
G04 Gerber Generator version 0.2*
G04 Scale: 100 percent, Rotated: No, Reflected: No *
G04 Dimensions in millimeters *
G04 leading zeros omitted , absolute positions ,4 integer and 5 decimal *
%FSLAX45Y45*%
%MOMM*%

%ADD10C,0.2540*%
%ADD11C,1.2700*%
%ADD12C,0.7620*%
%ADD13C,0.2032*%
%ADD14C,0.6350*%
%ADD15C,1.8288*%
%ADD16R,5.0000X6.4000*%
%ADD17R,5.0000X5.0000*%
%ADD18C,1.5240*%
%ADD19R,1.0000X1.1000*%
%ADD20R,0.5105X0.8001*%
%ADD21R,1.4500X0.3500*%
%ADD22R,1.1000X1.0000*%
%ADD23R,4.5999X1.0008*%
%ADD25R,2.5000X2.5000*%
%ADD27C,1.6320*%
%ADD28C,3.8227*%
%ADD29C,1.7907*%
%ADD30R,1.5748X1.7000*%
%ADD31C,1.7000*%
%ADD32C,1.9050*%
%ADD33C,3.2000*%

%LPD*%
G36*
X4904333Y-520446D02*
G01*
X4900422Y-519684D01*
X4897120Y-517448D01*
X4570120Y-190449D01*
X4567936Y-187147D01*
X4567123Y-183286D01*
X4567123Y-35814D01*
X4567936Y-31902D01*
X4570120Y-28651D01*
X4573422Y-26416D01*
X4577283Y-25654D01*
X4855667Y-25654D01*
X4859578Y-26416D01*
X4862830Y-28651D01*
X4865065Y-31902D01*
X4865827Y-35814D01*
X4865827Y-251460D01*
X4866538Y-257708D01*
X4868418Y-263093D01*
X4871466Y-267970D01*
X4875530Y-272034D01*
X4880406Y-275082D01*
X4885791Y-276961D01*
X4892040Y-277672D01*
X5132679Y-277672D01*
X5136591Y-278434D01*
X5139893Y-280619D01*
X5142077Y-283921D01*
X5142839Y-287832D01*
X5142839Y-302260D01*
X5144770Y-322478D01*
X5148529Y-342442D01*
X5154168Y-362000D01*
X5161635Y-380898D01*
X5170830Y-399034D01*
X5181650Y-416204D01*
X5194046Y-432308D01*
X5207914Y-447192D01*
X5223103Y-460654D01*
X5239461Y-472693D01*
X5256936Y-483108D01*
X5275275Y-491896D01*
X5294325Y-498906D01*
X5300319Y-500481D01*
X5304028Y-502310D01*
X5306669Y-505510D01*
X5307838Y-509524D01*
X5307330Y-513638D01*
X5305145Y-517194D01*
X5301792Y-519582D01*
X5297728Y-520446D01*
G37*

%LPC*%
G36*
X4722418Y-215290D02*
G01*
X4726330Y-215290D01*
X4735322Y-214528D01*
X4744161Y-212648D01*
X4749342Y-211074D01*
X4752949Y-209702D01*
X4761179Y-205740D01*
X4768799Y-200863D01*
X4773066Y-197561D01*
X4775962Y-195021D01*
X4782159Y-188468D01*
X4787646Y-181152D01*
X4792218Y-173126D01*
X4795672Y-164795D01*
X4798212Y-156006D01*
X4799634Y-146913D01*
X4799939Y-137871D01*
X4799177Y-128727D01*
X4797298Y-119786D01*
X4794402Y-111252D01*
X4790440Y-102870D01*
X4785512Y-95199D01*
X4779721Y-88188D01*
X4773117Y-81940D01*
X4765802Y-76454D01*
X4757775Y-71882D01*
X4749495Y-68376D01*
X4740656Y-65887D01*
X4731613Y-64465D01*
X4722571Y-64109D01*
X4713427Y-64871D01*
X4704435Y-66751D01*
X4695901Y-69646D01*
X4687570Y-73660D01*
X4679950Y-78536D01*
X4672838Y-84378D01*
X4666538Y-91033D01*
X4661154Y-98247D01*
X4656582Y-106172D01*
X4654346Y-111099D01*
X4653026Y-114706D01*
X4650536Y-123393D01*
X4649114Y-132384D01*
X4648758Y-137769D01*
X4648758Y-141630D01*
X4649571Y-150672D01*
X4651400Y-159512D01*
X4654346Y-168300D01*
X4658309Y-176479D01*
X4663186Y-184099D01*
X4668977Y-191160D01*
X4675733Y-197612D01*
X4682947Y-202946D01*
X4690872Y-207467D01*
X4695799Y-209702D01*
X4699406Y-211074D01*
X4708093Y-213512D01*
X4717034Y-214934D01*
G37*

%LPD*%
G36*
X12561417Y-812546D02*
G01*
X12557658Y-811834D01*
X12554458Y-809802D01*
X12552222Y-806704D01*
X12546888Y-795426D01*
X12539167Y-783183D01*
X12535611Y-778865D01*
X12533731Y-775563D01*
X12533274Y-771753D01*
X12534239Y-768096D01*
X12536474Y-764997D01*
X12539675Y-762965D01*
X12543434Y-762254D01*
X12602565Y-762254D01*
X12606274Y-762965D01*
X12609525Y-764997D01*
X12611760Y-768096D01*
X12612674Y-771753D01*
X12612217Y-775563D01*
X12610388Y-778865D01*
X12606832Y-783183D01*
X12599060Y-795426D01*
X12593726Y-806704D01*
X12591491Y-809802D01*
X12588290Y-811834D01*
X12584531Y-812546D01*
G37*

%LPD*%
G36*
X11807444Y-882751D02*
G01*
X11803024Y-881837D01*
X11799468Y-879144D01*
X11797385Y-875182D01*
X11797233Y-870661D01*
X11798249Y-865327D01*
X11799163Y-850900D01*
X11798249Y-836472D01*
X11795556Y-822248D01*
X11791086Y-808482D01*
X11784888Y-795426D01*
X11777167Y-783183D01*
X11773611Y-778865D01*
X11771731Y-775563D01*
X11771274Y-771753D01*
X11772239Y-768096D01*
X11774474Y-764997D01*
X11777675Y-762965D01*
X11781434Y-762254D01*
X11840565Y-762254D01*
X11844274Y-762965D01*
X11847525Y-764997D01*
X11849760Y-768096D01*
X11850674Y-771753D01*
X11850217Y-775563D01*
X11848388Y-778865D01*
X11844832Y-783183D01*
X11837060Y-795426D01*
X11830913Y-808482D01*
X11826443Y-822248D01*
X11823750Y-836472D01*
X11822836Y-850900D01*
X11823750Y-865327D01*
X11824716Y-870508D01*
X11824563Y-874877D01*
X11822633Y-878789D01*
X11819229Y-881532D01*
X11814962Y-882548D01*
G37*

%LPD*%
G36*
X7088530Y-1318107D02*
G01*
X7084974Y-1316736D01*
X7081316Y-1314399D01*
X7078218Y-1311402D01*
X7076643Y-1307338D01*
X7076948Y-1303020D01*
X7079030Y-1299210D01*
X7082485Y-1296568D01*
X7086701Y-1295654D01*
X7094067Y-1295654D01*
X7098334Y-1296568D01*
X7101789Y-1299210D01*
X7103821Y-1303020D01*
X7104125Y-1307338D01*
X7102602Y-1311402D01*
X7099503Y-1314399D01*
X7095794Y-1316736D01*
X7092289Y-1318107D01*
G37*

%LPD*%
G36*
X4121251Y-1418844D02*
G01*
X4117390Y-1418082D01*
X4114088Y-1415846D01*
X4111904Y-1412595D01*
X4111091Y-1408684D01*
X4111091Y-1258570D01*
X4110380Y-1252321D01*
X4108500Y-1246886D01*
X4105452Y-1242060D01*
X4101388Y-1237996D01*
X4096562Y-1234948D01*
X4091127Y-1233068D01*
X4084878Y-1232357D01*
X3586022Y-1232357D01*
X3579774Y-1233068D01*
X3574338Y-1234948D01*
X3571544Y-1236726D01*
X3567531Y-1238148D01*
X3563213Y-1237843D01*
X3559454Y-1235760D01*
X3556914Y-1232306D01*
X3556000Y-1228090D01*
X3556000Y-278333D01*
X3556914Y-274116D01*
X3559505Y-270611D01*
X3563315Y-268579D01*
X3567684Y-268274D01*
X3571697Y-269849D01*
X3574745Y-272948D01*
X3577082Y-276656D01*
X3581146Y-280720D01*
X3586022Y-283768D01*
X3591407Y-285648D01*
X3597706Y-286359D01*
X3653282Y-286359D01*
X3653282Y-204571D01*
X3566160Y-204571D01*
X3562248Y-203809D01*
X3558946Y-201574D01*
X3556762Y-198323D01*
X3556000Y-194411D01*
X3556000Y-77012D01*
X3556762Y-73152D01*
X3558946Y-69850D01*
X3562248Y-67665D01*
X3566160Y-66852D01*
X3653282Y-66852D01*
X3653282Y-35814D01*
X3654044Y-31902D01*
X3656228Y-28651D01*
X3659530Y-26416D01*
X3663442Y-25654D01*
X3780790Y-25654D01*
X3784701Y-26416D01*
X3788003Y-28651D01*
X3790187Y-31902D01*
X3790950Y-35814D01*
X3790950Y-66852D01*
X3853383Y-66852D01*
X3857294Y-67665D01*
X3860596Y-69850D01*
X3862781Y-73152D01*
X3863543Y-77012D01*
X3863543Y-194411D01*
X3862781Y-198323D01*
X3860596Y-201574D01*
X3857294Y-203809D01*
X3853383Y-204571D01*
X3790950Y-204571D01*
X3790950Y-286359D01*
X3846525Y-286359D01*
X3852824Y-285648D01*
X3858209Y-283768D01*
X3862781Y-280924D01*
X3866286Y-279552D01*
X3870045Y-279552D01*
X3873550Y-280924D01*
X3878122Y-283768D01*
X3883507Y-285648D01*
X3889806Y-286359D01*
X3940301Y-286359D01*
X3944213Y-287172D01*
X3947464Y-289356D01*
X3949700Y-292658D01*
X3950462Y-296519D01*
X3950462Y-679551D01*
X3949700Y-683463D01*
X3947464Y-686714D01*
X3727094Y-907135D01*
X3720033Y-915466D01*
X3714648Y-924509D01*
X3710838Y-934313D01*
X3708654Y-944626D01*
X3708247Y-955141D01*
X3709517Y-965555D01*
X3712514Y-975664D01*
X3717137Y-985113D01*
X3723284Y-993698D01*
X3730701Y-1001115D01*
X3739286Y-1007262D01*
X3748735Y-1011885D01*
X3758793Y-1014882D01*
X3769258Y-1016152D01*
X3779774Y-1015746D01*
X3790086Y-1013561D01*
X3799890Y-1009751D01*
X3808933Y-1004366D01*
X3817264Y-997305D01*
X3964127Y-850392D01*
X3967429Y-848207D01*
X3971340Y-847445D01*
X3975252Y-848207D01*
X3978554Y-850442D01*
X3980738Y-853744D01*
X3981500Y-857656D01*
X3981450Y-868476D01*
X3983075Y-878078D01*
X3986326Y-887221D01*
X3991051Y-895705D01*
X3997198Y-903274D01*
X4004462Y-909726D01*
X4012793Y-914806D01*
X4021785Y-918464D01*
X4031335Y-920496D01*
X4037736Y-920800D01*
X4041394Y-921613D01*
X4044492Y-923747D01*
X4522266Y-1401521D01*
X4524451Y-1404772D01*
X4525213Y-1408684D01*
X4524451Y-1412595D01*
X4522266Y-1415846D01*
X4518964Y-1418082D01*
X4515053Y-1418844D01*
G37*

%LPD*%
G36*
X8176920Y-1500327D02*
G01*
X8173364Y-1498955D01*
X8169909Y-1496720D01*
X8164474Y-1494840D01*
X8158225Y-1494129D01*
X8121903Y-1494129D01*
X8117840Y-1493316D01*
X8114487Y-1490929D01*
X8112353Y-1487424D01*
X8111744Y-1483309D01*
X8112861Y-1479346D01*
X8115452Y-1476146D01*
X8117382Y-1474571D01*
X8142071Y-1449882D01*
X8147151Y-1443685D01*
X8150656Y-1437081D01*
X8152892Y-1429766D01*
X8154568Y-1426514D01*
X8157362Y-1424025D01*
X8160867Y-1422704D01*
X8164575Y-1422755D01*
X8168030Y-1424127D01*
X8172500Y-1427327D01*
X8174024Y-1429512D01*
X8177530Y-1436065D01*
X8182609Y-1442262D01*
X8202218Y-1461871D01*
X8208416Y-1466951D01*
X8215020Y-1470507D01*
X8222234Y-1472692D01*
X8230209Y-1473454D01*
X8298078Y-1473454D01*
X8302040Y-1474266D01*
X8305749Y-1476908D01*
X8307882Y-1480210D01*
X8308594Y-1484071D01*
X8307781Y-1487932D01*
X8305596Y-1491183D01*
X8302294Y-1493367D01*
X8298434Y-1494129D01*
X8199374Y-1494129D01*
X8193074Y-1494840D01*
X8187690Y-1496720D01*
X8184184Y-1498955D01*
X8180679Y-1500327D01*
G37*

%LPD*%
G36*
X7186320Y-1513027D02*
G01*
X7182764Y-1511655D01*
X7179309Y-1509420D01*
X7173874Y-1507540D01*
X7167625Y-1506829D01*
X7144003Y-1506829D01*
X7139940Y-1506016D01*
X7136587Y-1503629D01*
X7134402Y-1500124D01*
X7133844Y-1496009D01*
X7134961Y-1492046D01*
X7137552Y-1488846D01*
X7139431Y-1487271D01*
X7164120Y-1462582D01*
X7169200Y-1456385D01*
X7172756Y-1449781D01*
X7173975Y-1445768D01*
X7175855Y-1442262D01*
X7178903Y-1439722D01*
X7182713Y-1438605D01*
X7186625Y-1438960D01*
X7190130Y-1440840D01*
X7192670Y-1443888D01*
X7195972Y-1454861D01*
X7199528Y-1461465D01*
X7204608Y-1467662D01*
X7211517Y-1474571D01*
X7217714Y-1479651D01*
X7224318Y-1483207D01*
X7231532Y-1485392D01*
X7239508Y-1486154D01*
X7307783Y-1486154D01*
X7311694Y-1486916D01*
X7315352Y-1489506D01*
X7317536Y-1492808D01*
X7318349Y-1496669D01*
X7317536Y-1500581D01*
X7315352Y-1503883D01*
X7312050Y-1506067D01*
X7308189Y-1506829D01*
X7208774Y-1506829D01*
X7202474Y-1507540D01*
X7197090Y-1509420D01*
X7193584Y-1511655D01*
X7190079Y-1513027D01*
G37*

%LPD*%
G36*
X6259220Y-1513027D02*
G01*
X6255664Y-1511655D01*
X6252210Y-1509420D01*
X6246774Y-1507540D01*
X6240526Y-1506829D01*
X6217005Y-1506829D01*
X6212992Y-1506016D01*
X6209588Y-1503629D01*
X6207455Y-1500124D01*
X6206896Y-1496009D01*
X6207963Y-1492046D01*
X6210554Y-1488846D01*
X6212484Y-1487271D01*
X6237173Y-1462582D01*
X6242253Y-1456385D01*
X6245809Y-1449781D01*
X6246977Y-1445818D01*
X6248857Y-1442313D01*
X6251905Y-1439824D01*
X6255664Y-1438656D01*
X6259576Y-1439011D01*
X6263081Y-1440840D01*
X6265621Y-1443888D01*
X6268974Y-1454861D01*
X6272530Y-1461465D01*
X6277610Y-1467662D01*
X6297218Y-1487271D01*
X6299149Y-1488846D01*
X6301740Y-1492046D01*
X6302806Y-1496009D01*
X6302248Y-1500124D01*
X6300114Y-1503629D01*
X6296710Y-1506016D01*
X6292697Y-1506829D01*
X6281674Y-1506829D01*
X6275374Y-1507540D01*
X6269990Y-1509420D01*
X6266484Y-1511655D01*
X6262979Y-1513027D01*
G37*

%LPD*%
G36*
X6415582Y-1534363D02*
G01*
X6411620Y-1533398D01*
X6408369Y-1531010D01*
X6406286Y-1527556D01*
X6404152Y-1521409D01*
X6398564Y-1512925D01*
X6397752Y-1509014D01*
X6398564Y-1505102D01*
X6400749Y-1501851D01*
X6404051Y-1499616D01*
X6407912Y-1498854D01*
X6415887Y-1498854D01*
X6419799Y-1499616D01*
X6423050Y-1501851D01*
X6425285Y-1505102D01*
X6426047Y-1509014D01*
X6426047Y-1524203D01*
X6425234Y-1528165D01*
X6422948Y-1531467D01*
X6419545Y-1533652D01*
G37*

%LPD*%
G36*
X5451703Y-1625600D02*
G01*
X5447792Y-1624838D01*
X5444540Y-1622653D01*
X5266944Y-1445107D01*
X5262168Y-1440637D01*
X5257241Y-1436624D01*
X5252008Y-1433017D01*
X5246522Y-1429766D01*
X5240832Y-1426921D01*
X5234940Y-1424482D01*
X5228894Y-1422450D01*
X5222748Y-1420876D01*
X5216499Y-1419758D01*
X5210149Y-1419098D01*
X5203596Y-1418844D01*
X5079339Y-1418844D01*
X5075428Y-1418031D01*
X5072075Y-1415796D01*
X5069890Y-1412392D01*
X5069179Y-1408430D01*
X5073040Y-1394002D01*
X5073853Y-1384300D01*
X5073040Y-1374597D01*
X5070602Y-1365199D01*
X5066588Y-1356309D01*
X5061153Y-1348282D01*
X5054396Y-1341221D01*
X5046573Y-1335430D01*
X5037886Y-1331061D01*
X5028590Y-1328216D01*
X5018938Y-1326997D01*
X5009235Y-1327404D01*
X4999685Y-1329436D01*
X4990693Y-1333093D01*
X4982362Y-1338173D01*
X4976418Y-1343406D01*
X4973320Y-1345285D01*
X4969713Y-1345946D01*
X4579366Y-1345946D01*
X4575505Y-1345184D01*
X4572203Y-1342948D01*
X4098899Y-869645D01*
X4096867Y-866749D01*
X4095953Y-863346D01*
X4095140Y-853897D01*
X4092701Y-844499D01*
X4088688Y-835609D01*
X4083253Y-827582D01*
X4076496Y-820521D01*
X4068673Y-814730D01*
X4059986Y-810361D01*
X4050690Y-807516D01*
X4041038Y-806297D01*
X4032859Y-806653D01*
X4028897Y-805992D01*
X4025442Y-803859D01*
X4023156Y-800557D01*
X4022293Y-796645D01*
X4023004Y-792683D01*
X4025239Y-789279D01*
X4059072Y-755497D01*
X4064660Y-749147D01*
X4065981Y-747369D01*
X4070400Y-740308D01*
X4071416Y-738378D01*
X4075277Y-728573D01*
X4077462Y-718261D01*
X4077970Y-709879D01*
X4077970Y-621792D01*
X4078732Y-617931D01*
X4080916Y-614629D01*
X4084167Y-612444D01*
X4088028Y-611632D01*
X4091940Y-612394D01*
X4097985Y-614832D01*
X4107535Y-616864D01*
X4117238Y-617270D01*
X4126890Y-616051D01*
X4136186Y-613206D01*
X4144873Y-608838D01*
X4152696Y-603046D01*
X4154373Y-601268D01*
X4157726Y-598982D01*
X4161637Y-598170D01*
X4230065Y-597763D01*
X4233926Y-598474D01*
X4237228Y-600659D01*
X4246727Y-616407D01*
X4255160Y-627126D01*
X4264964Y-636574D01*
X4275886Y-644652D01*
X4287824Y-651154D01*
X4300524Y-656082D01*
X4313732Y-659231D01*
X4327296Y-660552D01*
X4340860Y-660095D01*
X4354271Y-657860D01*
X4367276Y-653846D01*
X4379620Y-648106D01*
X4391101Y-640791D01*
X4401464Y-632002D01*
X4410608Y-621893D01*
X4418279Y-610717D01*
X4424426Y-598576D01*
X4428896Y-585724D01*
X4431588Y-572363D01*
X4432503Y-558800D01*
X4431588Y-545236D01*
X4428896Y-531876D01*
X4424426Y-519023D01*
X4418279Y-506882D01*
X4410608Y-495706D01*
X4401464Y-485597D01*
X4391101Y-476808D01*
X4379620Y-469493D01*
X4367276Y-463753D01*
X4354271Y-459740D01*
X4340860Y-457504D01*
X4327296Y-457047D01*
X4313732Y-458368D01*
X4300524Y-461518D01*
X4287824Y-466445D01*
X4275886Y-472948D01*
X4264964Y-481025D01*
X4255160Y-490474D01*
X4246727Y-501192D01*
X4239818Y-512876D01*
X4238955Y-514858D01*
X4236770Y-518109D01*
X4233519Y-520242D01*
X4229658Y-521055D01*
X4161434Y-521462D01*
X4157421Y-520649D01*
X4154068Y-518312D01*
X4152696Y-516890D01*
X4144873Y-511098D01*
X4136186Y-506730D01*
X4126890Y-503885D01*
X4117238Y-502666D01*
X4107535Y-503072D01*
X4097985Y-505104D01*
X4091940Y-507542D01*
X4088028Y-508304D01*
X4084167Y-507492D01*
X4080916Y-505307D01*
X4078732Y-502005D01*
X4077970Y-498144D01*
X4077970Y-296519D01*
X4078732Y-292658D01*
X4080967Y-289356D01*
X4084218Y-287172D01*
X4088129Y-286359D01*
X4138625Y-286359D01*
X4144924Y-285648D01*
X4150309Y-283768D01*
X4155186Y-280720D01*
X4159199Y-276656D01*
X4162247Y-271830D01*
X4164177Y-266395D01*
X4164888Y-260146D01*
X4164888Y-35814D01*
X4165650Y-31902D01*
X4167835Y-28651D01*
X4171137Y-26416D01*
X4175048Y-25654D01*
X4255668Y-25654D01*
X4259580Y-26416D01*
X4262831Y-28651D01*
X4265066Y-31902D01*
X4265828Y-35814D01*
X4265828Y-251460D01*
X4266539Y-257708D01*
X4268419Y-263093D01*
X4271467Y-267970D01*
X4275531Y-272034D01*
X4280357Y-275082D01*
X4285792Y-276961D01*
X4292041Y-277672D01*
X4472787Y-277672D01*
X4476699Y-278434D01*
X4480001Y-280619D01*
X4828387Y-629056D01*
X4836464Y-635965D01*
X4843526Y-640384D01*
X4845507Y-641400D01*
X4855311Y-645261D01*
X4865624Y-647446D01*
X4874006Y-647954D01*
X5638495Y-647954D01*
X5646877Y-647446D01*
X5657189Y-645261D01*
X5666994Y-641400D01*
X5668924Y-640384D01*
X5675985Y-635965D01*
X5677763Y-634644D01*
X5684113Y-629056D01*
X5763818Y-549351D01*
X5767120Y-547116D01*
X5770981Y-546354D01*
X5776671Y-546354D01*
X5780582Y-547116D01*
X5783834Y-549351D01*
X5787948Y-553415D01*
X5792774Y-556463D01*
X5798464Y-558444D01*
X5802172Y-560730D01*
X5804560Y-564337D01*
X5805220Y-568655D01*
X5804052Y-572871D01*
X5801207Y-576173D01*
X5797245Y-577951D01*
X5787085Y-580136D01*
X5778093Y-583793D01*
X5769762Y-588873D01*
X5762498Y-595325D01*
X5756351Y-602894D01*
X5751626Y-611378D01*
X5748375Y-620522D01*
X5746750Y-630123D01*
X5746750Y-639876D01*
X5748375Y-649478D01*
X5751626Y-658622D01*
X5756351Y-667105D01*
X5762498Y-674674D01*
X5769762Y-681126D01*
X5778093Y-686206D01*
X5787085Y-689864D01*
X5796635Y-691896D01*
X5806338Y-692302D01*
X5815990Y-691083D01*
X5825286Y-688238D01*
X5833973Y-683869D01*
X5841796Y-678078D01*
X5848553Y-671017D01*
X5853988Y-662990D01*
X5858002Y-654100D01*
X5860440Y-644702D01*
X5861253Y-635304D01*
X5862167Y-631850D01*
X5864199Y-628954D01*
X5866892Y-626262D01*
X5870194Y-624027D01*
X5874105Y-623265D01*
X5984087Y-623265D01*
X5987999Y-624027D01*
X5991250Y-626262D01*
X5993485Y-629513D01*
X5994247Y-633425D01*
X5994247Y-1180693D01*
X5995009Y-1188669D01*
X5997194Y-1195882D01*
X6000750Y-1202486D01*
X6005830Y-1208684D01*
X6043117Y-1245971D01*
X6049314Y-1251051D01*
X6055918Y-1254607D01*
X6063132Y-1256792D01*
X6071108Y-1257554D01*
X6228384Y-1257554D01*
X6232296Y-1258316D01*
X6235598Y-1260551D01*
X6261354Y-1286306D01*
X6263640Y-1289812D01*
X6264300Y-1293977D01*
X6263233Y-1298041D01*
X6260642Y-1301343D01*
X6256883Y-1303274D01*
X6252718Y-1303528D01*
X6248755Y-1302054D01*
X6246926Y-1300937D01*
X6241491Y-1299006D01*
X6235242Y-1298346D01*
X6185306Y-1298346D01*
X6179058Y-1299006D01*
X6173673Y-1300937D01*
X6168694Y-1304036D01*
X6165189Y-1305407D01*
X6161430Y-1305407D01*
X6157874Y-1304036D01*
X6152946Y-1300937D01*
X6147511Y-1299006D01*
X6141262Y-1298346D01*
X6091326Y-1298346D01*
X6085078Y-1299006D01*
X6079693Y-1300937D01*
X6074816Y-1303985D01*
X6070752Y-1307998D01*
X6067704Y-1312875D01*
X6065824Y-1318260D01*
X6065113Y-1324559D01*
X6065113Y-1403400D01*
X6065824Y-1409700D01*
X6067704Y-1415084D01*
X6070752Y-1419910D01*
X6075730Y-1424889D01*
X6077966Y-1428140D01*
X6078778Y-1432052D01*
X6078016Y-1435963D01*
X6075781Y-1439265D01*
X6043930Y-1471117D01*
X6038850Y-1477314D01*
X6035294Y-1483918D01*
X6033109Y-1491132D01*
X6032347Y-1499108D01*
X6031331Y-1502613D01*
X6029147Y-1505559D01*
X6026048Y-1507490D01*
X6022492Y-1508252D01*
X6018479Y-1507540D01*
X6012230Y-1506829D01*
X5913374Y-1506829D01*
X5907074Y-1507540D01*
X5901690Y-1509420D01*
X5898184Y-1511655D01*
X5894679Y-1513027D01*
X5890920Y-1513027D01*
X5887364Y-1511655D01*
X5883910Y-1509420D01*
X5878474Y-1507540D01*
X5872226Y-1506829D01*
X5803646Y-1506829D01*
X5799734Y-1506067D01*
X5796381Y-1503781D01*
X5794197Y-1500378D01*
X5793486Y-1496415D01*
X5796940Y-1482902D01*
X5797753Y-1473200D01*
X5796940Y-1463497D01*
X5794502Y-1454099D01*
X5790488Y-1445209D01*
X5785053Y-1437182D01*
X5781548Y-1433525D01*
X5779465Y-1430324D01*
X5778754Y-1426514D01*
X5778754Y-808685D01*
X5779465Y-804875D01*
X5781548Y-801674D01*
X5785053Y-798017D01*
X5790488Y-789990D01*
X5794502Y-781100D01*
X5796940Y-771702D01*
X5797753Y-762000D01*
X5796940Y-752297D01*
X5794502Y-742899D01*
X5790488Y-734009D01*
X5785053Y-725982D01*
X5778296Y-718921D01*
X5770473Y-713130D01*
X5761786Y-708761D01*
X5752490Y-705916D01*
X5742838Y-704697D01*
X5733135Y-705104D01*
X5723585Y-707136D01*
X5714593Y-710793D01*
X5706262Y-715873D01*
X5698998Y-722325D01*
X5692851Y-729894D01*
X5688126Y-738378D01*
X5684875Y-747522D01*
X5683250Y-757123D01*
X5683250Y-766876D01*
X5684875Y-776478D01*
X5688126Y-785622D01*
X5692851Y-794105D01*
X5699760Y-802538D01*
X5701436Y-805586D01*
X5702046Y-808990D01*
X5702046Y-1426210D01*
X5701436Y-1429613D01*
X5699760Y-1432661D01*
X5692851Y-1441094D01*
X5688126Y-1449578D01*
X5684875Y-1458722D01*
X5683250Y-1468323D01*
X5683250Y-1478076D01*
X5684875Y-1487678D01*
X5688126Y-1496822D01*
X5692851Y-1505305D01*
X5694375Y-1507185D01*
X5696153Y-1510538D01*
X5696610Y-1514297D01*
X5695645Y-1517954D01*
X5693410Y-1521002D01*
X5690209Y-1523034D01*
X5686501Y-1523746D01*
X5654751Y-1523746D01*
X5650484Y-1522831D01*
X5647029Y-1520190D01*
X5644997Y-1516329D01*
X5644743Y-1511960D01*
X5646318Y-1507896D01*
X5650890Y-1501190D01*
X5654903Y-1492300D01*
X5657342Y-1482902D01*
X5658154Y-1473200D01*
X5657342Y-1463497D01*
X5654903Y-1454099D01*
X5650890Y-1445209D01*
X5645454Y-1437182D01*
X5642000Y-1433576D01*
X5639866Y-1430324D01*
X5639155Y-1426514D01*
X5639155Y-808685D01*
X5639866Y-804875D01*
X5642000Y-801624D01*
X5645454Y-798017D01*
X5650890Y-789990D01*
X5654903Y-781100D01*
X5657342Y-771702D01*
X5658154Y-762000D01*
X5657342Y-752297D01*
X5654903Y-742899D01*
X5650890Y-734009D01*
X5645454Y-725982D01*
X5638698Y-718921D01*
X5630875Y-713130D01*
X5622188Y-708761D01*
X5612892Y-705916D01*
X5603240Y-704697D01*
X5593537Y-705104D01*
X5583986Y-707136D01*
X5574995Y-710793D01*
X5566664Y-715873D01*
X5559399Y-722325D01*
X5553252Y-729894D01*
X5548528Y-738378D01*
X5545277Y-747522D01*
X5543651Y-757123D01*
X5543651Y-766876D01*
X5545277Y-776478D01*
X5548528Y-785622D01*
X5553252Y-794105D01*
X5560161Y-802538D01*
X5561838Y-805586D01*
X5562447Y-808990D01*
X5562447Y-1426210D01*
X5561838Y-1429613D01*
X5560161Y-1432661D01*
X5553252Y-1441094D01*
X5548528Y-1449578D01*
X5545277Y-1458722D01*
X5543651Y-1468323D01*
X5543651Y-1478076D01*
X5545277Y-1487678D01*
X5548528Y-1496822D01*
X5553252Y-1505305D01*
X5559907Y-1513586D01*
X5561482Y-1516278D01*
X5562142Y-1519377D01*
X5561533Y-1523695D01*
X5559653Y-1527454D01*
X5556351Y-1530146D01*
X5554014Y-1531315D01*
X5546953Y-1535734D01*
X5545175Y-1537055D01*
X5538876Y-1542643D01*
X5458866Y-1622653D01*
X5455615Y-1624838D01*
G37*

%LPD*%
G36*
X5692749Y-1866646D02*
G01*
X5688838Y-1865884D01*
X5685536Y-1863648D01*
X5549036Y-1727149D01*
X5546852Y-1723847D01*
X5546090Y-1719986D01*
X5546852Y-1716074D01*
X5549036Y-1712772D01*
X5607608Y-1654251D01*
X5610910Y-1652016D01*
X5614822Y-1651254D01*
X5742635Y-1651254D01*
X5745988Y-1651812D01*
X5748985Y-1653489D01*
X5751220Y-1656029D01*
X5752795Y-1658467D01*
X5756808Y-1662531D01*
X5761685Y-1665579D01*
X5767070Y-1667459D01*
X5773369Y-1668170D01*
X5872226Y-1668170D01*
X5878474Y-1667459D01*
X5883910Y-1665579D01*
X5887364Y-1663344D01*
X5890920Y-1661972D01*
X5894679Y-1661972D01*
X5898184Y-1663344D01*
X5901690Y-1665579D01*
X5907074Y-1667459D01*
X5913374Y-1668170D01*
X6012230Y-1668170D01*
X6018479Y-1667459D01*
X6023914Y-1665579D01*
X6028740Y-1662531D01*
X6032804Y-1658467D01*
X6035852Y-1653590D01*
X6037732Y-1648206D01*
X6038443Y-1641906D01*
X6038443Y-1636014D01*
X6039205Y-1632102D01*
X6041440Y-1628851D01*
X6044692Y-1626616D01*
X6048603Y-1625854D01*
X6105296Y-1625854D01*
X6109157Y-1626616D01*
X6112459Y-1628851D01*
X6114643Y-1632102D01*
X6115456Y-1636014D01*
X6115456Y-1641906D01*
X6116116Y-1648206D01*
X6118047Y-1653590D01*
X6121095Y-1658467D01*
X6125108Y-1662531D01*
X6129985Y-1665579D01*
X6135370Y-1667459D01*
X6141669Y-1668170D01*
X6240526Y-1668170D01*
X6246774Y-1667459D01*
X6252210Y-1665579D01*
X6255664Y-1663344D01*
X6259220Y-1661972D01*
X6262979Y-1661972D01*
X6266484Y-1663344D01*
X6269990Y-1665579D01*
X6275374Y-1667459D01*
X6281674Y-1668170D01*
X6380530Y-1668170D01*
X6386779Y-1667459D01*
X6392214Y-1665579D01*
X6397040Y-1662531D01*
X6401104Y-1658467D01*
X6404152Y-1653590D01*
X6406032Y-1648206D01*
X6406743Y-1641906D01*
X6406743Y-1636014D01*
X6407505Y-1632102D01*
X6409740Y-1628851D01*
X6412992Y-1626616D01*
X6416903Y-1625854D01*
X6438493Y-1625854D01*
X6446469Y-1625092D01*
X6453682Y-1622907D01*
X6460286Y-1619351D01*
X6466484Y-1614271D01*
X6491173Y-1589582D01*
X6496253Y-1583385D01*
X6499809Y-1576781D01*
X6501993Y-1569567D01*
X6502755Y-1561592D01*
X6502755Y-1486408D01*
X6501993Y-1478432D01*
X6499809Y-1471218D01*
X6496253Y-1464614D01*
X6491173Y-1458417D01*
X6466484Y-1433728D01*
X6460286Y-1428648D01*
X6453682Y-1425092D01*
X6446469Y-1422908D01*
X6438493Y-1422146D01*
X6364681Y-1422146D01*
X6360566Y-1421282D01*
X6357112Y-1418742D01*
X6355029Y-1415084D01*
X6354622Y-1410817D01*
X6355435Y-1403400D01*
X6355435Y-1324559D01*
X6354724Y-1318260D01*
X6352844Y-1312875D01*
X6349796Y-1307998D01*
X6345732Y-1303934D01*
X6343497Y-1300632D01*
X6342735Y-1296771D01*
X6342735Y-1275588D01*
X6341973Y-1267612D01*
X6339789Y-1260398D01*
X6336233Y-1253794D01*
X6331153Y-1247597D01*
X6275984Y-1192428D01*
X6269786Y-1187348D01*
X6263182Y-1183792D01*
X6255969Y-1181608D01*
X6247993Y-1180846D01*
X6090666Y-1180846D01*
X6086805Y-1180084D01*
X6083503Y-1177848D01*
X6073952Y-1168298D01*
X6071717Y-1164996D01*
X6070955Y-1161135D01*
X6070955Y-1148740D01*
X6071666Y-1144981D01*
X6073749Y-1141730D01*
X6076899Y-1139494D01*
X6080658Y-1138580D01*
X6085078Y-1139393D01*
X6091326Y-1140104D01*
X6141262Y-1140104D01*
X6147511Y-1139393D01*
X6152946Y-1137462D01*
X6157874Y-1134364D01*
X6161430Y-1132992D01*
X6165189Y-1132992D01*
X6168694Y-1134364D01*
X6173673Y-1137462D01*
X6179058Y-1139393D01*
X6185306Y-1140104D01*
X6235242Y-1140104D01*
X6241491Y-1139393D01*
X6246926Y-1137462D01*
X6251854Y-1134364D01*
X6255410Y-1132992D01*
X6259169Y-1132992D01*
X6262674Y-1134364D01*
X6267653Y-1137462D01*
X6273038Y-1139393D01*
X6279286Y-1140104D01*
X6329222Y-1140104D01*
X6335471Y-1139393D01*
X6340906Y-1137462D01*
X6345732Y-1134414D01*
X6349796Y-1130401D01*
X6352844Y-1125524D01*
X6354724Y-1120140D01*
X6355435Y-1113840D01*
X6355435Y-1079500D01*
X6356197Y-1075639D01*
X6358382Y-1072337D01*
X6361684Y-1070152D01*
X6365544Y-1069340D01*
X6369405Y-1070102D01*
X6371285Y-1070864D01*
X6380835Y-1072896D01*
X6390538Y-1073302D01*
X6400190Y-1072083D01*
X6409486Y-1069238D01*
X6418173Y-1064869D01*
X6425996Y-1059078D01*
X6432753Y-1052017D01*
X6438188Y-1043990D01*
X6442202Y-1035100D01*
X6444640Y-1025702D01*
X6445453Y-1016000D01*
X6444640Y-1006297D01*
X6442202Y-996899D01*
X6438188Y-988009D01*
X6432753Y-979982D01*
X6425996Y-972921D01*
X6418173Y-967130D01*
X6409486Y-962761D01*
X6400190Y-959916D01*
X6390538Y-958697D01*
X6380835Y-959103D01*
X6371285Y-961136D01*
X6362293Y-964793D01*
X6353962Y-969873D01*
X6348018Y-975106D01*
X6344920Y-976985D01*
X6341313Y-977646D01*
X6304788Y-977646D01*
X6302095Y-977900D01*
X6297930Y-977442D01*
X6294272Y-975309D01*
X6291834Y-971905D01*
X6290919Y-967790D01*
X6290919Y-871474D01*
X6290259Y-865225D01*
X6288328Y-859790D01*
X6286144Y-856284D01*
X6284772Y-852779D01*
X6284772Y-849020D01*
X6286144Y-845515D01*
X6288328Y-842010D01*
X6290259Y-836574D01*
X6290919Y-830326D01*
X6290919Y-812241D01*
X6244132Y-812241D01*
X6244132Y-835101D01*
X6243370Y-838962D01*
X6241186Y-842264D01*
X6237884Y-844499D01*
X6233972Y-845261D01*
X6186576Y-845261D01*
X6182715Y-844499D01*
X6179413Y-842264D01*
X6177229Y-838962D01*
X6176416Y-835101D01*
X6176416Y-812241D01*
X6164834Y-812241D01*
X6160922Y-811479D01*
X6157620Y-809294D01*
X6155436Y-805992D01*
X6154674Y-802081D01*
X6154674Y-759714D01*
X6155436Y-755802D01*
X6157620Y-752500D01*
X6160922Y-750316D01*
X6164834Y-749554D01*
X6176416Y-749554D01*
X6176416Y-705256D01*
X6164834Y-705256D01*
X6160922Y-704494D01*
X6157620Y-702259D01*
X6155436Y-698957D01*
X6154674Y-695096D01*
X6154674Y-693216D01*
X6155436Y-689305D01*
X6157620Y-686003D01*
X6222238Y-621436D01*
X6225540Y-619201D01*
X6229400Y-618439D01*
X6402730Y-618439D01*
X6405524Y-618845D01*
X6409182Y-620674D01*
X6414566Y-622554D01*
X6420866Y-623265D01*
X6555587Y-623265D01*
X6559499Y-624027D01*
X6562750Y-626262D01*
X6564985Y-629513D01*
X6565747Y-633425D01*
X6565747Y-1155293D01*
X6566662Y-1166164D01*
X6569252Y-1176375D01*
X6573469Y-1186027D01*
X6579209Y-1194816D01*
X6586321Y-1202588D01*
X6594652Y-1209040D01*
X6603898Y-1214069D01*
X6613855Y-1217472D01*
X6624218Y-1219200D01*
X6634784Y-1219200D01*
X6645148Y-1217472D01*
X6655104Y-1214069D01*
X6664350Y-1209040D01*
X6672681Y-1202588D01*
X6679793Y-1194816D01*
X6685534Y-1186027D01*
X6689750Y-1176375D01*
X6692341Y-1166164D01*
X6693255Y-1155293D01*
X6693255Y-700633D01*
X6694271Y-696264D01*
X6697014Y-692759D01*
X6701078Y-690778D01*
X6705549Y-690727D01*
X6711035Y-691896D01*
X6720738Y-692302D01*
X6730390Y-691083D01*
X6739686Y-688238D01*
X6748373Y-683869D01*
X6756196Y-678078D01*
X6762953Y-671017D01*
X6768388Y-662990D01*
X6772402Y-654100D01*
X6774840Y-644702D01*
X6775653Y-635304D01*
X6776567Y-631850D01*
X6778599Y-628954D01*
X6793992Y-613562D01*
X6797294Y-611327D01*
X6801205Y-610565D01*
X6923786Y-610565D01*
X6927646Y-611327D01*
X6930948Y-613562D01*
X6933184Y-616813D01*
X6933946Y-620725D01*
X6933946Y-1218692D01*
X6934708Y-1226667D01*
X6936892Y-1233881D01*
X6940448Y-1240485D01*
X6945528Y-1246682D01*
X6982917Y-1284071D01*
X6989114Y-1289151D01*
X6995668Y-1292656D01*
X7004354Y-1295196D01*
X7007758Y-1296974D01*
X7010298Y-1299870D01*
X7011568Y-1303528D01*
X7011365Y-1307388D01*
X7009739Y-1310894D01*
X7006894Y-1313535D01*
X7001916Y-1316685D01*
X6997852Y-1320698D01*
X6994804Y-1325575D01*
X6992924Y-1330960D01*
X6992213Y-1337259D01*
X6992213Y-1416100D01*
X6992924Y-1422400D01*
X6994804Y-1427784D01*
X6997852Y-1432610D01*
X7002780Y-1437538D01*
X7005015Y-1440840D01*
X7005777Y-1444701D01*
X7005015Y-1448612D01*
X7002830Y-1451914D01*
X6996328Y-1458417D01*
X6991248Y-1464614D01*
X6987692Y-1471218D01*
X6985508Y-1478432D01*
X6984746Y-1486408D01*
X6984746Y-1498041D01*
X6983984Y-1501851D01*
X6981901Y-1505051D01*
X6978751Y-1507286D01*
X6975043Y-1508201D01*
X6964730Y-1506829D01*
X6865874Y-1506829D01*
X6859574Y-1507540D01*
X6854190Y-1509420D01*
X6850684Y-1511655D01*
X6847179Y-1513027D01*
X6843420Y-1513027D01*
X6839864Y-1511655D01*
X6836409Y-1509420D01*
X6830974Y-1507540D01*
X6824725Y-1506829D01*
X6725869Y-1506829D01*
X6719570Y-1507540D01*
X6714185Y-1509420D01*
X6709308Y-1512468D01*
X6705295Y-1516532D01*
X6703720Y-1518970D01*
X6701485Y-1521510D01*
X6698488Y-1523187D01*
X6695135Y-1523746D01*
X6616903Y-1523746D01*
X6611416Y-1523949D01*
X6606184Y-1524609D01*
X6601053Y-1525727D01*
X6595973Y-1527200D01*
X6591096Y-1529130D01*
X6586372Y-1531416D01*
X6581851Y-1534160D01*
X6577533Y-1537208D01*
X6573520Y-1540611D01*
X6569811Y-1544320D01*
X6566408Y-1548333D01*
X6563309Y-1552651D01*
X6560616Y-1557172D01*
X6558330Y-1561896D01*
X6556400Y-1566824D01*
X6554876Y-1571853D01*
X6553809Y-1576984D01*
X6553149Y-1582216D01*
X6552946Y-1587703D01*
X6552946Y-1856486D01*
X6552184Y-1860397D01*
X6549948Y-1863648D01*
X6546646Y-1865884D01*
X6542785Y-1866646D01*
G37*

%LPC*%
G36*
X6244132Y-749554D02*
G01*
X6290919Y-749554D01*
X6290919Y-731469D01*
X6290259Y-725220D01*
X6288328Y-719785D01*
X6285280Y-714959D01*
X6281267Y-710895D01*
X6276390Y-707847D01*
X6271006Y-705967D01*
X6264706Y-705256D01*
X6244132Y-705256D01*
G37*

%LPD*%
G36*
X13559434Y-2971546D02*
G01*
X13555675Y-2970834D01*
X13552474Y-2968802D01*
X13550239Y-2965704D01*
X13549274Y-2962046D01*
X13549731Y-2958236D01*
X13551611Y-2954934D01*
X13555167Y-2950616D01*
X13562888Y-2938373D01*
X13568222Y-2927096D01*
X13570457Y-2923997D01*
X13573658Y-2921965D01*
X13577417Y-2921254D01*
X13600531Y-2921254D01*
X13604290Y-2921965D01*
X13607491Y-2923997D01*
X13609726Y-2927096D01*
X13615060Y-2938373D01*
X13622832Y-2950616D01*
X13626388Y-2954934D01*
X13628217Y-2958236D01*
X13628674Y-2962046D01*
X13627760Y-2965704D01*
X13625525Y-2968802D01*
X13622274Y-2970834D01*
X13618565Y-2971546D01*
G37*

%LPD*%
G36*
X11527434Y-2971546D02*
G01*
X11523675Y-2970834D01*
X11520474Y-2968802D01*
X11518239Y-2965704D01*
X11517274Y-2962046D01*
X11517731Y-2958236D01*
X11519611Y-2954934D01*
X11523167Y-2950616D01*
X11530888Y-2938373D01*
X11537086Y-2925318D01*
X11541556Y-2911551D01*
X11544249Y-2897327D01*
X11545163Y-2882900D01*
X11544249Y-2868472D01*
X11541556Y-2854248D01*
X11536781Y-2839872D01*
X11535816Y-2835859D01*
X11536527Y-2831795D01*
X11538762Y-2828340D01*
X11837771Y-2529382D01*
X11842851Y-2523185D01*
X11846356Y-2516581D01*
X11848541Y-2509367D01*
X11849354Y-2501392D01*
X11849354Y-986485D01*
X11850065Y-982675D01*
X11852148Y-979474D01*
X11855653Y-975817D01*
X11861088Y-967790D01*
X11865102Y-958900D01*
X11865660Y-956716D01*
X11867184Y-953414D01*
X11869826Y-950874D01*
X11873230Y-949401D01*
X11876887Y-949248D01*
X11880392Y-950417D01*
X11888927Y-955090D01*
X11902389Y-960424D01*
X11916410Y-964031D01*
X11930735Y-965860D01*
X11945213Y-965860D01*
X11959590Y-964031D01*
X11973560Y-960424D01*
X11987022Y-955090D01*
X11999722Y-948131D01*
X12011406Y-939647D01*
X12021921Y-929741D01*
X12031167Y-918616D01*
X12038888Y-906373D01*
X12045086Y-893318D01*
X12049556Y-879551D01*
X12052249Y-865327D01*
X12053163Y-850900D01*
X12052249Y-836472D01*
X12049556Y-822248D01*
X12045086Y-808482D01*
X12038888Y-795426D01*
X12031167Y-783183D01*
X12027611Y-778865D01*
X12025731Y-775563D01*
X12025274Y-771753D01*
X12026239Y-768096D01*
X12028474Y-764997D01*
X12031675Y-762965D01*
X12035434Y-762254D01*
X12094565Y-762254D01*
X12098274Y-762965D01*
X12101525Y-764997D01*
X12103760Y-768096D01*
X12104674Y-771753D01*
X12104217Y-775563D01*
X12102388Y-778865D01*
X12098832Y-783183D01*
X12091060Y-795426D01*
X12084913Y-808482D01*
X12080443Y-822248D01*
X12077750Y-836472D01*
X12076836Y-850900D01*
X12077750Y-865327D01*
X12080443Y-879551D01*
X12084913Y-893318D01*
X12091060Y-906373D01*
X12098832Y-918616D01*
X12108027Y-929741D01*
X12118594Y-939647D01*
X12130278Y-948131D01*
X12142927Y-955090D01*
X12156389Y-960424D01*
X12170410Y-964031D01*
X12184735Y-965860D01*
X12199213Y-965860D01*
X12213590Y-964031D01*
X12227560Y-960424D01*
X12241022Y-955090D01*
X12253722Y-948131D01*
X12265406Y-939647D01*
X12275921Y-929741D01*
X12285167Y-918616D01*
X12292888Y-906373D01*
X12299086Y-893318D01*
X12303556Y-879551D01*
X12306249Y-865327D01*
X12307163Y-850900D01*
X12306249Y-836472D01*
X12303556Y-822248D01*
X12299086Y-808482D01*
X12292888Y-795426D01*
X12285167Y-783183D01*
X12281611Y-778865D01*
X12279731Y-775563D01*
X12279274Y-771753D01*
X12280239Y-768096D01*
X12282474Y-764997D01*
X12285675Y-762965D01*
X12289434Y-762254D01*
X12348565Y-762254D01*
X12352274Y-762965D01*
X12355525Y-764997D01*
X12357760Y-768096D01*
X12358674Y-771753D01*
X12358217Y-775563D01*
X12356388Y-778865D01*
X12352832Y-783183D01*
X12345060Y-795426D01*
X12338913Y-808482D01*
X12334443Y-822248D01*
X12331750Y-836472D01*
X12330836Y-850900D01*
X12331750Y-865327D01*
X12334443Y-879551D01*
X12338913Y-893318D01*
X12345060Y-906373D01*
X12352832Y-918616D01*
X12362027Y-929741D01*
X12372594Y-939647D01*
X12384278Y-948131D01*
X12396927Y-955090D01*
X12410389Y-960424D01*
X12424410Y-964031D01*
X12438735Y-965860D01*
X12453213Y-965860D01*
X12467590Y-964031D01*
X12481560Y-960424D01*
X12495022Y-955090D01*
X12507722Y-948131D01*
X12519406Y-939647D01*
X12529921Y-929741D01*
X12539167Y-918616D01*
X12546888Y-906373D01*
X12552222Y-895096D01*
X12554458Y-891997D01*
X12557658Y-889965D01*
X12561417Y-889253D01*
X12584531Y-889253D01*
X12588290Y-889965D01*
X12591491Y-891997D01*
X12593726Y-895096D01*
X12599060Y-906373D01*
X12606832Y-918616D01*
X12616027Y-929741D01*
X12626594Y-939647D01*
X12638278Y-948131D01*
X12650927Y-955090D01*
X12664389Y-960424D01*
X12678410Y-964031D01*
X12692735Y-965860D01*
X12707213Y-965860D01*
X12721590Y-964031D01*
X12735560Y-960424D01*
X12749022Y-955090D01*
X12761722Y-948131D01*
X12773406Y-939647D01*
X12783921Y-929741D01*
X12793167Y-918616D01*
X12800888Y-906373D01*
X12807086Y-893318D01*
X12811556Y-879551D01*
X12814249Y-865327D01*
X12815163Y-850900D01*
X12814249Y-836472D01*
X12811556Y-822248D01*
X12807086Y-808482D01*
X12800888Y-795426D01*
X12793167Y-783183D01*
X12789611Y-778865D01*
X12787731Y-775563D01*
X12787274Y-771753D01*
X12788239Y-768096D01*
X12790474Y-764997D01*
X12793675Y-762965D01*
X12797434Y-762254D01*
X12814198Y-762254D01*
X12820751Y-762000D01*
X12827101Y-761339D01*
X12833350Y-760222D01*
X12839496Y-758647D01*
X12845542Y-756615D01*
X12851434Y-754176D01*
X12857124Y-751332D01*
X12862610Y-748080D01*
X12867843Y-744474D01*
X12872770Y-740460D01*
X12877546Y-735990D01*
X13265962Y-347624D01*
X13268706Y-345694D01*
X13271855Y-344728D01*
X13280745Y-343611D01*
X13294969Y-339953D01*
X13308634Y-334518D01*
X13321538Y-327456D01*
X13333425Y-318820D01*
X13344144Y-308762D01*
X13353491Y-297434D01*
X13361416Y-284988D01*
X13367664Y-271678D01*
X13372185Y-257708D01*
X13374928Y-243281D01*
X13375894Y-228600D01*
X13374928Y-213918D01*
X13372185Y-199491D01*
X13367664Y-185521D01*
X13361416Y-172212D01*
X13353491Y-159766D01*
X13344144Y-148437D01*
X13333425Y-138379D01*
X13321538Y-129743D01*
X13308634Y-122682D01*
X13294969Y-117246D01*
X13280745Y-113588D01*
X13266166Y-111760D01*
X13251434Y-111760D01*
X13236854Y-113588D01*
X13222630Y-117246D01*
X13208965Y-122682D01*
X13196062Y-129743D01*
X13184174Y-138379D01*
X13173456Y-148437D01*
X13164108Y-159766D01*
X13156184Y-172212D01*
X13149935Y-185521D01*
X13145414Y-199491D01*
X13141706Y-218795D01*
X13139623Y-221792D01*
X12780467Y-580948D01*
X12777165Y-583184D01*
X12773253Y-583946D01*
X10477804Y-583946D01*
X10471251Y-584200D01*
X10464901Y-584860D01*
X10458653Y-585978D01*
X10452506Y-587552D01*
X10446461Y-589584D01*
X10440568Y-592023D01*
X10434878Y-594868D01*
X10429392Y-598119D01*
X10424160Y-601726D01*
X10419232Y-605739D01*
X10414457Y-610209D01*
X9160967Y-1863648D01*
X9157665Y-1865884D01*
X9153753Y-1866646D01*
X7630414Y-1866646D01*
X7626502Y-1865884D01*
X7623200Y-1863648D01*
X7621016Y-1860397D01*
X7620253Y-1856486D01*
X7620253Y-1636014D01*
X7621016Y-1632102D01*
X7623200Y-1628851D01*
X7626502Y-1626616D01*
X7630414Y-1625854D01*
X7660335Y-1625854D01*
X7663688Y-1626412D01*
X7666685Y-1628089D01*
X7668920Y-1630629D01*
X7670495Y-1633067D01*
X7674508Y-1637131D01*
X7679385Y-1640179D01*
X7684770Y-1642059D01*
X7691069Y-1642770D01*
X7789925Y-1642770D01*
X7796174Y-1642059D01*
X7801609Y-1640179D01*
X7805064Y-1637944D01*
X7808620Y-1636572D01*
X7812379Y-1636572D01*
X7815884Y-1637944D01*
X7819390Y-1640179D01*
X7824774Y-1642059D01*
X7831074Y-1642770D01*
X7929930Y-1642770D01*
X7936179Y-1642059D01*
X7941665Y-1640128D01*
X7944256Y-1638960D01*
X7947050Y-1638554D01*
X8028635Y-1638554D01*
X8031988Y-1639112D01*
X8034985Y-1640789D01*
X8037220Y-1643329D01*
X8038795Y-1645767D01*
X8042808Y-1649831D01*
X8047685Y-1652879D01*
X8053070Y-1654759D01*
X8059369Y-1655470D01*
X8158225Y-1655470D01*
X8164474Y-1654759D01*
X8169909Y-1652879D01*
X8173364Y-1650644D01*
X8176920Y-1649272D01*
X8180679Y-1649272D01*
X8184184Y-1650644D01*
X8187690Y-1652879D01*
X8193074Y-1654759D01*
X8199374Y-1655470D01*
X8298230Y-1655470D01*
X8304479Y-1654759D01*
X8309914Y-1652879D01*
X8314740Y-1649831D01*
X8318804Y-1645767D01*
X8320328Y-1643329D01*
X8322614Y-1640789D01*
X8325561Y-1639112D01*
X8328914Y-1638554D01*
X8546693Y-1638554D01*
X8557564Y-1637639D01*
X8567775Y-1635048D01*
X8577427Y-1630832D01*
X8586216Y-1625092D01*
X8593988Y-1617980D01*
X8600440Y-1609648D01*
X8605469Y-1600403D01*
X8608872Y-1590446D01*
X8610600Y-1580083D01*
X8610600Y-1569516D01*
X8608872Y-1559153D01*
X8605469Y-1549196D01*
X8600440Y-1539951D01*
X8593988Y-1531620D01*
X8586216Y-1524508D01*
X8577427Y-1518767D01*
X8567775Y-1514551D01*
X8557564Y-1511960D01*
X8546693Y-1511046D01*
X8417153Y-1511046D01*
X8413242Y-1510284D01*
X8409990Y-1508048D01*
X8407755Y-1504797D01*
X8406993Y-1500886D01*
X8406993Y-1487119D01*
X8406333Y-1479804D01*
X8404250Y-1472539D01*
X8400796Y-1465884D01*
X8395817Y-1459585D01*
X8346490Y-1408734D01*
X8340344Y-1403553D01*
X8333790Y-1399946D01*
X8326678Y-1397660D01*
X8318042Y-1396746D01*
X8270595Y-1396746D01*
X8266734Y-1395984D01*
X8263432Y-1393748D01*
X8261197Y-1390497D01*
X8260435Y-1386586D01*
X8260435Y-1324559D01*
X8259724Y-1318260D01*
X8257844Y-1312875D01*
X8254796Y-1307998D01*
X8250732Y-1303985D01*
X8246364Y-1300835D01*
X8244840Y-1298702D01*
X8241233Y-1291894D01*
X8236153Y-1285697D01*
X8180984Y-1230528D01*
X8174786Y-1225448D01*
X8168182Y-1221892D01*
X8160969Y-1219708D01*
X8152993Y-1218946D01*
X7960715Y-1218946D01*
X7956803Y-1218184D01*
X7953552Y-1215948D01*
X7951317Y-1212697D01*
X7950555Y-1208786D01*
X7950555Y-1121054D01*
X7951470Y-1116838D01*
X7954111Y-1113332D01*
X7957972Y-1111300D01*
X7962341Y-1111046D01*
X7966405Y-1112672D01*
X7969402Y-1115822D01*
X7972704Y-1125524D01*
X7975752Y-1130401D01*
X7979816Y-1134414D01*
X7984693Y-1137462D01*
X7990078Y-1139393D01*
X7996326Y-1140104D01*
X8046262Y-1140104D01*
X8052511Y-1139393D01*
X8057946Y-1137462D01*
X8062874Y-1134364D01*
X8066430Y-1132992D01*
X8070189Y-1132992D01*
X8073694Y-1134364D01*
X8078673Y-1137462D01*
X8084058Y-1139393D01*
X8090306Y-1140104D01*
X8140242Y-1140104D01*
X8146491Y-1139393D01*
X8151926Y-1137462D01*
X8156854Y-1134364D01*
X8160410Y-1132992D01*
X8164169Y-1132992D01*
X8167674Y-1134364D01*
X8172653Y-1137462D01*
X8178038Y-1139393D01*
X8184286Y-1140104D01*
X8234222Y-1140104D01*
X8240471Y-1139393D01*
X8245906Y-1137462D01*
X8250732Y-1134414D01*
X8254796Y-1130401D01*
X8257844Y-1125524D01*
X8259927Y-1119581D01*
X8262061Y-1116025D01*
X8265464Y-1113637D01*
X8269528Y-1112774D01*
X8272272Y-1112774D01*
X8280247Y-1112012D01*
X8287461Y-1109827D01*
X8294065Y-1106271D01*
X8300262Y-1101191D01*
X8337905Y-1063548D01*
X8341410Y-1061262D01*
X8355990Y-1059383D01*
X8365286Y-1056538D01*
X8373973Y-1052169D01*
X8381796Y-1046378D01*
X8388553Y-1039317D01*
X8393988Y-1031290D01*
X8398002Y-1022400D01*
X8400440Y-1013002D01*
X8401253Y-1003300D01*
X8400440Y-993597D01*
X8398002Y-984199D01*
X8393988Y-975309D01*
X8388553Y-967282D01*
X8381796Y-960221D01*
X8373973Y-954430D01*
X8365286Y-950061D01*
X8355990Y-947216D01*
X8346338Y-945997D01*
X8336635Y-946403D01*
X8327085Y-948436D01*
X8318093Y-952093D01*
X8309762Y-957173D01*
X8302498Y-963625D01*
X8296351Y-971194D01*
X8291626Y-979678D01*
X8288375Y-988821D01*
X8286750Y-998423D01*
X8286750Y-1002030D01*
X8285988Y-1005890D01*
X8283752Y-1009192D01*
X8271408Y-1021537D01*
X8268411Y-1023619D01*
X8264906Y-1024483D01*
X8261299Y-1024077D01*
X8258048Y-1022451D01*
X8254796Y-1018438D01*
X8250732Y-1014425D01*
X8245906Y-1011377D01*
X8240471Y-1009446D01*
X8234222Y-1008786D01*
X8201304Y-1008786D01*
X8197392Y-1007973D01*
X8194090Y-1005789D01*
X8191906Y-1002487D01*
X8191144Y-998626D01*
X8191906Y-994714D01*
X8194090Y-991412D01*
X8205520Y-979982D01*
X8210600Y-973785D01*
X8214156Y-967181D01*
X8214614Y-965657D01*
X8216696Y-961898D01*
X8220151Y-959358D01*
X8224367Y-958443D01*
X8233206Y-958443D01*
X8239506Y-957732D01*
X8244890Y-955852D01*
X8249767Y-952804D01*
X8253780Y-948740D01*
X8256828Y-943914D01*
X8258759Y-938479D01*
X8259419Y-932230D01*
X8259419Y-833374D01*
X8258759Y-827125D01*
X8256828Y-821690D01*
X8254644Y-818184D01*
X8253272Y-814679D01*
X8253272Y-810920D01*
X8254644Y-807415D01*
X8256828Y-803910D01*
X8258759Y-798474D01*
X8259419Y-792226D01*
X8259419Y-774141D01*
X8212632Y-774141D01*
X8212632Y-797001D01*
X8211870Y-800862D01*
X8209686Y-804164D01*
X8206384Y-806399D01*
X8202472Y-807161D01*
X8155076Y-807161D01*
X8151215Y-806399D01*
X8147913Y-804164D01*
X8145729Y-800862D01*
X8144916Y-797001D01*
X8144916Y-774141D01*
X8098129Y-774141D01*
X8098129Y-792226D01*
X8098840Y-798474D01*
X8100720Y-803910D01*
X8102904Y-807415D01*
X8104327Y-810920D01*
X8104327Y-814679D01*
X8102904Y-818184D01*
X8100720Y-821690D01*
X8098840Y-827125D01*
X8098129Y-833374D01*
X8098129Y-932230D01*
X8098840Y-938479D01*
X8100720Y-943914D01*
X8103768Y-948740D01*
X8108848Y-953719D01*
X8111083Y-957021D01*
X8111896Y-960932D01*
X8111083Y-964844D01*
X8108899Y-968146D01*
X8088528Y-988517D01*
X8083448Y-994714D01*
X8079892Y-1001318D01*
X8077606Y-1006094D01*
X8074355Y-1008634D01*
X8070392Y-1009650D01*
X8066328Y-1009040D01*
X8062874Y-1006906D01*
X8060486Y-1003553D01*
X8059674Y-999540D01*
X8059674Y-634746D01*
X8060436Y-630885D01*
X8062671Y-627583D01*
X8081467Y-608736D01*
X8084769Y-606552D01*
X8088680Y-605790D01*
X8269630Y-605790D01*
X8272475Y-606145D01*
X8276081Y-607974D01*
X8281466Y-609854D01*
X8287766Y-610565D01*
X8431631Y-610565D01*
X8437880Y-609854D01*
X8443264Y-607974D01*
X8448141Y-604926D01*
X8452205Y-600862D01*
X8455253Y-596036D01*
X8457133Y-590600D01*
X8457844Y-584352D01*
X8457844Y-550468D01*
X8457133Y-544220D01*
X8455050Y-538276D01*
X8454491Y-534924D01*
X8455050Y-531520D01*
X8457133Y-525576D01*
X8457844Y-519328D01*
X8457844Y-517499D01*
X8401710Y-517499D01*
X8399576Y-521004D01*
X8396173Y-523392D01*
X8392109Y-524256D01*
X8327237Y-524256D01*
X8323173Y-523392D01*
X8319820Y-521004D01*
X8317687Y-517499D01*
X8261553Y-517499D01*
X8260740Y-522782D01*
X8258556Y-526084D01*
X8255253Y-528269D01*
X8251393Y-529082D01*
X8069072Y-529082D01*
X8061096Y-529844D01*
X8053933Y-532028D01*
X8047278Y-535584D01*
X8041081Y-540664D01*
X7994548Y-587197D01*
X7989468Y-593394D01*
X7985912Y-599998D01*
X7983728Y-607212D01*
X7982966Y-615188D01*
X7982966Y-1007059D01*
X7982203Y-1010970D01*
X7979968Y-1014221D01*
X7975752Y-1018438D01*
X7972704Y-1023315D01*
X7969402Y-1033018D01*
X7966405Y-1036167D01*
X7962341Y-1037793D01*
X7957972Y-1037539D01*
X7954111Y-1035507D01*
X7951470Y-1032002D01*
X7950555Y-1027785D01*
X7950555Y-546608D01*
X7949793Y-538632D01*
X7947609Y-531418D01*
X7944053Y-524814D01*
X7938973Y-518617D01*
X7908950Y-488594D01*
X7906766Y-485343D01*
X7906003Y-481431D01*
X7906003Y-420928D01*
X7906766Y-417017D01*
X7908950Y-413715D01*
X7912252Y-411530D01*
X7916164Y-410768D01*
X8251393Y-410768D01*
X8255253Y-411530D01*
X8258556Y-413715D01*
X8260740Y-417017D01*
X8261553Y-422300D01*
X8317687Y-422300D01*
X8319820Y-418795D01*
X8323173Y-416407D01*
X8327237Y-415543D01*
X8392109Y-415543D01*
X8396173Y-416407D01*
X8399576Y-418795D01*
X8401710Y-422300D01*
X8457844Y-422300D01*
X8457844Y-420471D01*
X8457133Y-414223D01*
X8455050Y-408279D01*
X8454491Y-404926D01*
X8455050Y-401523D01*
X8457133Y-395579D01*
X8457844Y-389331D01*
X8457844Y-355447D01*
X8457133Y-349199D01*
X8455253Y-343763D01*
X8452205Y-338937D01*
X8448141Y-334873D01*
X8443264Y-331825D01*
X8437880Y-329946D01*
X8431631Y-329234D01*
X8287766Y-329234D01*
X8281466Y-329946D01*
X8276081Y-331825D01*
X8272475Y-333654D01*
X8269630Y-334060D01*
X7884718Y-334060D01*
X7881924Y-333654D01*
X7878267Y-331825D01*
X7872882Y-329946D01*
X7866634Y-329234D01*
X7722768Y-329234D01*
X7716469Y-329946D01*
X7711084Y-331825D01*
X7706258Y-334873D01*
X7702194Y-338937D01*
X7699146Y-343763D01*
X7697216Y-349199D01*
X7696555Y-355447D01*
X7696555Y-383692D01*
X7695844Y-387299D01*
X7693964Y-390448D01*
X7691018Y-392684D01*
X7687513Y-393750D01*
X7684160Y-394157D01*
X7678724Y-396036D01*
X7673898Y-399084D01*
X7669834Y-403148D01*
X7666786Y-407974D01*
X7664907Y-413410D01*
X7664196Y-419658D01*
X7664196Y-520141D01*
X7664907Y-526389D01*
X7666786Y-531825D01*
X7668209Y-534060D01*
X7669530Y-537210D01*
X7669682Y-540613D01*
X7668768Y-543864D01*
X7666786Y-546658D01*
X7638592Y-574852D01*
X7635494Y-576986D01*
X7631836Y-577850D01*
X7625435Y-578104D01*
X7615885Y-580136D01*
X7606893Y-583793D01*
X7598562Y-588873D01*
X7591298Y-595325D01*
X7585151Y-602894D01*
X7580426Y-611378D01*
X7577175Y-620522D01*
X7575550Y-630123D01*
X7575550Y-639876D01*
X7577175Y-649478D01*
X7580426Y-658622D01*
X7585151Y-667105D01*
X7591298Y-674674D01*
X7598562Y-681126D01*
X7606893Y-686206D01*
X7615885Y-689864D01*
X7625435Y-691896D01*
X7635138Y-692302D01*
X7644790Y-691083D01*
X7654086Y-688238D01*
X7662773Y-683869D01*
X7670596Y-678078D01*
X7677353Y-671017D01*
X7682788Y-662990D01*
X7686802Y-654100D01*
X7689240Y-644702D01*
X7690053Y-635254D01*
X7690967Y-631850D01*
X7692999Y-628954D01*
X7709052Y-612851D01*
X7711490Y-611073D01*
X7714335Y-610057D01*
X7717383Y-609955D01*
X7722768Y-610565D01*
X7863687Y-610565D01*
X7867599Y-611327D01*
X7870850Y-613562D01*
X7873085Y-616813D01*
X7873847Y-620725D01*
X7873847Y-1231392D01*
X7874609Y-1239367D01*
X7876794Y-1246581D01*
X7880350Y-1253185D01*
X7885430Y-1259382D01*
X7910118Y-1284071D01*
X7916316Y-1289151D01*
X7922920Y-1292707D01*
X7930134Y-1294892D01*
X7938109Y-1295654D01*
X7965135Y-1295654D01*
X7969351Y-1296568D01*
X7972806Y-1299108D01*
X7974888Y-1302867D01*
X7975244Y-1307185D01*
X7973771Y-1311198D01*
X7972704Y-1312875D01*
X7970824Y-1318260D01*
X7970113Y-1324559D01*
X7970113Y-1403400D01*
X7970824Y-1409700D01*
X7972704Y-1415084D01*
X7975752Y-1419961D01*
X7979816Y-1423974D01*
X7988401Y-1429207D01*
X7990789Y-1432509D01*
X7991703Y-1436471D01*
X7990992Y-1440484D01*
X7988757Y-1443888D01*
X7967725Y-1464919D01*
X7962646Y-1471117D01*
X7959090Y-1477721D01*
X7956854Y-1482852D01*
X7954060Y-1485290D01*
X7950606Y-1486611D01*
X7946898Y-1486560D01*
X7943443Y-1485188D01*
X7941614Y-1484020D01*
X7936179Y-1482140D01*
X7929930Y-1481429D01*
X7831074Y-1481429D01*
X7824774Y-1482140D01*
X7819390Y-1484020D01*
X7815884Y-1486255D01*
X7812379Y-1487627D01*
X7808620Y-1487627D01*
X7805064Y-1486255D01*
X7801609Y-1484020D01*
X7796174Y-1482140D01*
X7789925Y-1481429D01*
X7691069Y-1481429D01*
X7684770Y-1482140D01*
X7679385Y-1484020D01*
X7674508Y-1487068D01*
X7670495Y-1491132D01*
X7668920Y-1493570D01*
X7666685Y-1496110D01*
X7663688Y-1497787D01*
X7660335Y-1498346D01*
X7582204Y-1498346D01*
X7573822Y-1498854D01*
X7563510Y-1501038D01*
X7553706Y-1504899D01*
X7551724Y-1505915D01*
X7544663Y-1510334D01*
X7542885Y-1511655D01*
X7536586Y-1517243D01*
X7511643Y-1542186D01*
X7504734Y-1550263D01*
X7500315Y-1557324D01*
X7499299Y-1559306D01*
X7495438Y-1569110D01*
X7493558Y-1577238D01*
X7493253Y-1579422D01*
X7492746Y-1587804D01*
X7492746Y-1856486D01*
X7491984Y-1860397D01*
X7489748Y-1863648D01*
X7486446Y-1865884D01*
X7482586Y-1866646D01*
X6690614Y-1866646D01*
X6686702Y-1865884D01*
X6683400Y-1863648D01*
X6681216Y-1860397D01*
X6680453Y-1856486D01*
X6680453Y-1661414D01*
X6681216Y-1657502D01*
X6683400Y-1654251D01*
X6686702Y-1652016D01*
X6690614Y-1651254D01*
X6695135Y-1651254D01*
X6698488Y-1651812D01*
X6701485Y-1653489D01*
X6703720Y-1656029D01*
X6705295Y-1658467D01*
X6709308Y-1662531D01*
X6714185Y-1665579D01*
X6719570Y-1667459D01*
X6725869Y-1668170D01*
X6824725Y-1668170D01*
X6830974Y-1667459D01*
X6836409Y-1665579D01*
X6839864Y-1663344D01*
X6843420Y-1661972D01*
X6847179Y-1661972D01*
X6850684Y-1663344D01*
X6854190Y-1665579D01*
X6859574Y-1667459D01*
X6865874Y-1668170D01*
X6964730Y-1668170D01*
X6970979Y-1667459D01*
X6976414Y-1665579D01*
X6981240Y-1662531D01*
X6985304Y-1658467D01*
X6986828Y-1656029D01*
X6989114Y-1653489D01*
X6992061Y-1651812D01*
X6995414Y-1651254D01*
X7038035Y-1651254D01*
X7041388Y-1651812D01*
X7044385Y-1653489D01*
X7046620Y-1656029D01*
X7048195Y-1658467D01*
X7052208Y-1662531D01*
X7057085Y-1665579D01*
X7062470Y-1667459D01*
X7068769Y-1668170D01*
X7167625Y-1668170D01*
X7173874Y-1667459D01*
X7179309Y-1665579D01*
X7182764Y-1663344D01*
X7186320Y-1661972D01*
X7190079Y-1661972D01*
X7193584Y-1663344D01*
X7197090Y-1665579D01*
X7202474Y-1667459D01*
X7208774Y-1668170D01*
X7307630Y-1668170D01*
X7313879Y-1667459D01*
X7319314Y-1665579D01*
X7324140Y-1662531D01*
X7328204Y-1658467D01*
X7331252Y-1653590D01*
X7333132Y-1648206D01*
X7333843Y-1641906D01*
X7333843Y-1636014D01*
X7334605Y-1632102D01*
X7336840Y-1628851D01*
X7340092Y-1626616D01*
X7344003Y-1625854D01*
X7352792Y-1625854D01*
X7360767Y-1625092D01*
X7367930Y-1622907D01*
X7374585Y-1619351D01*
X7380782Y-1614271D01*
X7405471Y-1589582D01*
X7410551Y-1583385D01*
X7414056Y-1576781D01*
X7416241Y-1569567D01*
X7417053Y-1561592D01*
X7417053Y-1499108D01*
X7416241Y-1491132D01*
X7414056Y-1483918D01*
X7410551Y-1477314D01*
X7405471Y-1471117D01*
X7355382Y-1421028D01*
X7349185Y-1415948D01*
X7342530Y-1412392D01*
X7335367Y-1410208D01*
X7327392Y-1409446D01*
X7292695Y-1409446D01*
X7288834Y-1408684D01*
X7285532Y-1406448D01*
X7283297Y-1403197D01*
X7282535Y-1399286D01*
X7282535Y-1337259D01*
X7281824Y-1330960D01*
X7279944Y-1325575D01*
X7276896Y-1320698D01*
X7272731Y-1316532D01*
X7270496Y-1313230D01*
X7269734Y-1309370D01*
X7269734Y-1288288D01*
X7268972Y-1280312D01*
X7266787Y-1273149D01*
X7263231Y-1266494D01*
X7258151Y-1260297D01*
X7228382Y-1230528D01*
X7222185Y-1225448D01*
X7215530Y-1221892D01*
X7208367Y-1219708D01*
X7200392Y-1218946D01*
X7030466Y-1218946D01*
X7026605Y-1218184D01*
X7023303Y-1215948D01*
X7013600Y-1206296D01*
X7011416Y-1202994D01*
X7010653Y-1199083D01*
X7010653Y-1162964D01*
X7011416Y-1159052D01*
X7013600Y-1155750D01*
X7016902Y-1153566D01*
X7020814Y-1152804D01*
X7068362Y-1152804D01*
X7074611Y-1152093D01*
X7080046Y-1150162D01*
X7084974Y-1147064D01*
X7088530Y-1145692D01*
X7092289Y-1145692D01*
X7095794Y-1147064D01*
X7100773Y-1150162D01*
X7106158Y-1152093D01*
X7112406Y-1152804D01*
X7162342Y-1152804D01*
X7168591Y-1152093D01*
X7174026Y-1150162D01*
X7178954Y-1147064D01*
X7182510Y-1145692D01*
X7186269Y-1145692D01*
X7189774Y-1147064D01*
X7194753Y-1150162D01*
X7200138Y-1152093D01*
X7206386Y-1152804D01*
X7256322Y-1152804D01*
X7262571Y-1152093D01*
X7268006Y-1150162D01*
X7272832Y-1147114D01*
X7276896Y-1143101D01*
X7279944Y-1138224D01*
X7281824Y-1132840D01*
X7282535Y-1126540D01*
X7282535Y-1073404D01*
X7283450Y-1069187D01*
X7285990Y-1065784D01*
X7289749Y-1063650D01*
X7294016Y-1063294D01*
X7298029Y-1064717D01*
X7302093Y-1067206D01*
X7311085Y-1070864D01*
X7320635Y-1072896D01*
X7330338Y-1073302D01*
X7339990Y-1072083D01*
X7349286Y-1069238D01*
X7357973Y-1064869D01*
X7365796Y-1059078D01*
X7372553Y-1052017D01*
X7377988Y-1043990D01*
X7382002Y-1035100D01*
X7384440Y-1025702D01*
X7385253Y-1016000D01*
X7384440Y-1006297D01*
X7382002Y-996899D01*
X7377988Y-988009D01*
X7372553Y-979982D01*
X7365796Y-972921D01*
X7357973Y-967130D01*
X7349286Y-962761D01*
X7339990Y-959916D01*
X7330338Y-958697D01*
X7320635Y-959103D01*
X7311085Y-961136D01*
X7302093Y-964793D01*
X7293762Y-969873D01*
X7287818Y-975106D01*
X7284720Y-976985D01*
X7281113Y-977646D01*
X7231888Y-977646D01*
X7223912Y-978408D01*
X7216698Y-980592D01*
X7210094Y-984148D01*
X7204303Y-988923D01*
X7199528Y-994714D01*
X7195972Y-1001318D01*
X7193635Y-1006195D01*
X7190435Y-1008735D01*
X7186472Y-1009802D01*
X7182408Y-1009192D01*
X7178903Y-1007008D01*
X7176566Y-1003655D01*
X7175753Y-999642D01*
X7175753Y-968603D01*
X7176516Y-964742D01*
X7178700Y-961440D01*
X7182002Y-959205D01*
X7185914Y-958443D01*
X7191806Y-958443D01*
X7198106Y-957732D01*
X7203490Y-955852D01*
X7208367Y-952804D01*
X7212380Y-948740D01*
X7215428Y-943914D01*
X7217359Y-938479D01*
X7218019Y-932230D01*
X7218019Y-833374D01*
X7217359Y-827125D01*
X7215428Y-821690D01*
X7213244Y-818184D01*
X7211872Y-814679D01*
X7211872Y-810920D01*
X7213244Y-807415D01*
X7215428Y-803910D01*
X7217359Y-798474D01*
X7218019Y-792226D01*
X7218019Y-774141D01*
X7171232Y-774141D01*
X7171232Y-797001D01*
X7170470Y-800862D01*
X7168286Y-804164D01*
X7164984Y-806399D01*
X7161072Y-807161D01*
X7113676Y-807161D01*
X7109815Y-806399D01*
X7106513Y-804164D01*
X7104329Y-800862D01*
X7103516Y-797001D01*
X7103516Y-774141D01*
X7091934Y-774141D01*
X7088022Y-773379D01*
X7084771Y-771194D01*
X7082536Y-767892D01*
X7081774Y-763981D01*
X7081774Y-721614D01*
X7082536Y-717702D01*
X7084771Y-714400D01*
X7088022Y-712216D01*
X7091934Y-711454D01*
X7103516Y-711454D01*
X7103516Y-667156D01*
X7091934Y-667156D01*
X7088022Y-666394D01*
X7084771Y-664159D01*
X7082536Y-660857D01*
X7081774Y-656996D01*
X7081774Y-647446D01*
X7082536Y-643585D01*
X7084771Y-640283D01*
X7116267Y-608736D01*
X7119569Y-606552D01*
X7123480Y-605790D01*
X7329830Y-605790D01*
X7332675Y-606145D01*
X7336281Y-607974D01*
X7341666Y-609854D01*
X7347966Y-610565D01*
X7491831Y-610565D01*
X7498080Y-609854D01*
X7503464Y-607974D01*
X7508341Y-604926D01*
X7512405Y-600862D01*
X7515453Y-596036D01*
X7517333Y-590600D01*
X7518044Y-584352D01*
X7518044Y-550468D01*
X7517333Y-544220D01*
X7515250Y-538276D01*
X7514691Y-534924D01*
X7515250Y-531520D01*
X7517333Y-525576D01*
X7518044Y-519328D01*
X7518044Y-517499D01*
X7461910Y-517499D01*
X7459776Y-521004D01*
X7456373Y-523392D01*
X7452309Y-524256D01*
X7387437Y-524256D01*
X7383373Y-523392D01*
X7380020Y-521004D01*
X7377887Y-517499D01*
X7321753Y-517499D01*
X7320940Y-522782D01*
X7318756Y-526084D01*
X7315453Y-528269D01*
X7311593Y-529082D01*
X7103872Y-529082D01*
X7095896Y-529844D01*
X7088733Y-532028D01*
X7082078Y-535584D01*
X7075881Y-540664D01*
X7027976Y-588568D01*
X7024674Y-590753D01*
X7020814Y-591515D01*
X7016902Y-590753D01*
X7013600Y-588568D01*
X7011416Y-585266D01*
X7010653Y-581355D01*
X7010653Y-533908D01*
X7009841Y-525932D01*
X7007656Y-518718D01*
X7004151Y-512114D01*
X6999071Y-505917D01*
X6968744Y-475640D01*
X6963562Y-471373D01*
X6960819Y-467868D01*
X6959853Y-463499D01*
X6959853Y-420928D01*
X6960616Y-417017D01*
X6962800Y-413715D01*
X6966102Y-411530D01*
X6970014Y-410768D01*
X7311593Y-410768D01*
X7315453Y-411530D01*
X7318756Y-413715D01*
X7320940Y-417017D01*
X7321753Y-422300D01*
X7377887Y-422300D01*
X7380020Y-418795D01*
X7383373Y-416407D01*
X7387437Y-415543D01*
X7452309Y-415543D01*
X7456373Y-416407D01*
X7459776Y-418795D01*
X7461910Y-422300D01*
X7518044Y-422300D01*
X7518044Y-420471D01*
X7517333Y-414223D01*
X7515250Y-408279D01*
X7514691Y-404926D01*
X7515250Y-401523D01*
X7517333Y-395579D01*
X7518044Y-389331D01*
X7518044Y-355447D01*
X7517333Y-349199D01*
X7515453Y-343763D01*
X7512405Y-338937D01*
X7508341Y-334873D01*
X7503464Y-331825D01*
X7498080Y-329946D01*
X7491831Y-329234D01*
X7347966Y-329234D01*
X7341666Y-329946D01*
X7336281Y-331825D01*
X7332675Y-333654D01*
X7329830Y-334060D01*
X6944918Y-334060D01*
X6942124Y-333654D01*
X6938467Y-331825D01*
X6933082Y-329946D01*
X6926834Y-329234D01*
X6782968Y-329234D01*
X6776669Y-329946D01*
X6771284Y-331825D01*
X6766458Y-334873D01*
X6762394Y-338937D01*
X6759346Y-343763D01*
X6757416Y-349199D01*
X6756755Y-355447D01*
X6756755Y-383286D01*
X6755942Y-387197D01*
X6753758Y-390448D01*
X6750456Y-392684D01*
X6746595Y-393446D01*
X6744258Y-393446D01*
X6738010Y-394157D01*
X6732574Y-396036D01*
X6727748Y-399084D01*
X6723532Y-403301D01*
X6720535Y-405384D01*
X6716979Y-406247D01*
X6708140Y-407009D01*
X6700012Y-408838D01*
X6690207Y-412699D01*
X6688226Y-413715D01*
X6681165Y-418134D01*
X6673088Y-425043D01*
X6605828Y-492302D01*
X6602425Y-494588D01*
X6598412Y-495300D01*
X6594449Y-494385D01*
X6591147Y-491998D01*
X6589064Y-488492D01*
X6588150Y-485952D01*
X6587591Y-482600D01*
X6588150Y-479247D01*
X6590233Y-473303D01*
X6590944Y-467055D01*
X6590944Y-465226D01*
X6535369Y-465226D01*
X6535369Y-499973D01*
X6574028Y-499973D01*
X6577787Y-500684D01*
X6580987Y-502716D01*
X6583222Y-505815D01*
X6584188Y-509473D01*
X6583730Y-513283D01*
X6581902Y-516585D01*
X6577634Y-521817D01*
X6575348Y-525424D01*
X6573113Y-527964D01*
X6570116Y-529590D01*
X6566763Y-530199D01*
X6534810Y-530199D01*
X6532676Y-533704D01*
X6529273Y-536092D01*
X6525209Y-536956D01*
X6460337Y-536956D01*
X6456273Y-536092D01*
X6452920Y-533704D01*
X6450787Y-530199D01*
X6394653Y-530199D01*
X6393840Y-535482D01*
X6391656Y-538784D01*
X6388354Y-540969D01*
X6384493Y-541731D01*
X6209792Y-541731D01*
X6201816Y-542544D01*
X6194653Y-544728D01*
X6188049Y-548233D01*
X6181852Y-553313D01*
X6089548Y-645617D01*
X6085738Y-648919D01*
X6081776Y-650036D01*
X6077712Y-649427D01*
X6074156Y-647293D01*
X6071819Y-643940D01*
X6070955Y-639876D01*
X6070955Y-521208D01*
X6070193Y-513232D01*
X6068009Y-506018D01*
X6064453Y-499414D01*
X6059373Y-493217D01*
X6054496Y-488340D01*
X6048298Y-483260D01*
X6041694Y-479755D01*
X6033211Y-477215D01*
X6029452Y-475183D01*
X6026861Y-471728D01*
X6025946Y-467512D01*
X6025946Y-433628D01*
X6026708Y-429717D01*
X6028944Y-426415D01*
X6032195Y-424230D01*
X6036106Y-423468D01*
X6384493Y-423468D01*
X6388354Y-424230D01*
X6391656Y-426415D01*
X6393840Y-429717D01*
X6394653Y-435000D01*
X6450787Y-435000D01*
X6452920Y-431495D01*
X6456273Y-429107D01*
X6460337Y-428243D01*
X6525209Y-428243D01*
X6529273Y-429107D01*
X6532676Y-431495D01*
X6534810Y-435000D01*
X6590944Y-435000D01*
X6590944Y-433171D01*
X6590233Y-426923D01*
X6588150Y-420979D01*
X6587591Y-417626D01*
X6588150Y-414223D01*
X6590233Y-408279D01*
X6590944Y-402031D01*
X6590944Y-368147D01*
X6590233Y-361899D01*
X6588353Y-356463D01*
X6585305Y-351637D01*
X6581241Y-347573D01*
X6576364Y-344525D01*
X6570980Y-342646D01*
X6564731Y-341934D01*
X6420866Y-341934D01*
X6414566Y-342646D01*
X6409182Y-344525D01*
X6405524Y-346354D01*
X6402730Y-346760D01*
X6017818Y-346760D01*
X6015024Y-346354D01*
X6011367Y-344525D01*
X6005982Y-342646D01*
X5999734Y-341934D01*
X5855868Y-341934D01*
X5849569Y-342646D01*
X5844184Y-344525D01*
X5839358Y-347573D01*
X5835294Y-351637D01*
X5832246Y-356463D01*
X5830316Y-361899D01*
X5829655Y-368147D01*
X5829655Y-395986D01*
X5828842Y-399897D01*
X5826658Y-403148D01*
X5823356Y-405384D01*
X5819495Y-406146D01*
X5804458Y-406146D01*
X5798210Y-406857D01*
X5792774Y-408736D01*
X5787948Y-411784D01*
X5783834Y-415848D01*
X5780582Y-418084D01*
X5776671Y-418846D01*
X5740704Y-418846D01*
X5732272Y-419354D01*
X5722010Y-421538D01*
X5712206Y-425399D01*
X5710224Y-426415D01*
X5703163Y-430834D01*
X5701385Y-432155D01*
X5695086Y-437743D01*
X5615330Y-517448D01*
X5612079Y-519684D01*
X5608167Y-520446D01*
X5421274Y-520446D01*
X5417261Y-519633D01*
X5413908Y-517296D01*
X5411724Y-513842D01*
X5411114Y-509778D01*
X5412130Y-505815D01*
X5414619Y-502564D01*
X5418226Y-500583D01*
X5434076Y-495604D01*
X5452770Y-487730D01*
X5470702Y-478129D01*
X5487619Y-466902D01*
X5503418Y-454101D01*
X5517946Y-439877D01*
X5531104Y-424383D01*
X5542737Y-407720D01*
X5552744Y-390042D01*
X5561076Y-371500D01*
X5567629Y-352298D01*
X5572353Y-332536D01*
X5575198Y-312420D01*
X5576163Y-292100D01*
X5575198Y-271780D01*
X5572353Y-251663D01*
X5567629Y-231902D01*
X5561076Y-212699D01*
X5552744Y-194157D01*
X5542737Y-176479D01*
X5531104Y-159816D01*
X5517946Y-144322D01*
X5503418Y-130098D01*
X5487619Y-117297D01*
X5470702Y-106070D01*
X5452770Y-96469D01*
X5434076Y-88595D01*
X5414670Y-82499D01*
X5394807Y-78232D01*
X5374640Y-75844D01*
X5354320Y-75387D01*
X5334050Y-76809D01*
X5313984Y-80111D01*
X5294325Y-85293D01*
X5275275Y-92303D01*
X5256936Y-101092D01*
X5239461Y-111506D01*
X5223103Y-123545D01*
X5207914Y-137007D01*
X5194046Y-151892D01*
X5185359Y-163220D01*
X5182158Y-165912D01*
X5178145Y-167132D01*
X5174030Y-166624D01*
X5170424Y-164490D01*
X5167985Y-161086D01*
X5167122Y-156972D01*
X5167122Y-35814D01*
X5167934Y-31902D01*
X5170119Y-28651D01*
X5173421Y-26416D01*
X5177282Y-25654D01*
X15098725Y-25654D01*
X15118537Y-26568D01*
X15137079Y-29006D01*
X15155265Y-33121D01*
X15173096Y-38760D01*
X15190317Y-45923D01*
X15206827Y-54610D01*
X15222575Y-64668D01*
X15237358Y-76047D01*
X15251074Y-88696D01*
X15263672Y-102463D01*
X15273477Y-115265D01*
X15275306Y-118973D01*
X15275458Y-123037D01*
X15274036Y-126847D01*
X15271191Y-129794D01*
X15267432Y-131419D01*
X15263368Y-131419D01*
X15259608Y-129794D01*
X15256001Y-127254D01*
X15247975Y-122682D01*
X15239695Y-119176D01*
X15230856Y-116687D01*
X15221813Y-115265D01*
X15212771Y-114909D01*
X15203627Y-115671D01*
X15194635Y-117551D01*
X15186101Y-120446D01*
X15177769Y-124460D01*
X15170150Y-129336D01*
X15163038Y-135178D01*
X15156738Y-141833D01*
X15151354Y-149047D01*
X15146782Y-156972D01*
X15144546Y-161899D01*
X15143226Y-165506D01*
X15140736Y-174193D01*
X15139314Y-183184D01*
X15138958Y-188569D01*
X15138958Y-192430D01*
X15139771Y-201472D01*
X15141600Y-210312D01*
X15144546Y-219100D01*
X15148509Y-227279D01*
X15153386Y-234899D01*
X15159177Y-241960D01*
X15165933Y-248412D01*
X15173147Y-253746D01*
X15181072Y-258267D01*
X15185999Y-260502D01*
X15189606Y-261874D01*
X15198293Y-264312D01*
X15207234Y-265734D01*
X15212618Y-266090D01*
X15216530Y-266090D01*
X15225522Y-265328D01*
X15234361Y-263448D01*
X15239542Y-261874D01*
X15243149Y-260502D01*
X15251379Y-256540D01*
X15258999Y-251663D01*
X15263266Y-248361D01*
X15266162Y-245821D01*
X15272359Y-239267D01*
X15277846Y-231952D01*
X15282418Y-223926D01*
X15285872Y-215595D01*
X15288361Y-206857D01*
X15289580Y-199847D01*
X15291003Y-196138D01*
X15293746Y-193243D01*
X15297404Y-191617D01*
X15301366Y-191516D01*
X15305074Y-192989D01*
X15307919Y-195732D01*
X15309545Y-199339D01*
X15310307Y-202996D01*
X15312694Y-221488D01*
X15313507Y-240436D01*
X15313507Y-496316D01*
X15312745Y-500227D01*
X15310510Y-503478D01*
X15307259Y-505714D01*
X15303347Y-506476D01*
X15013330Y-506476D01*
X15007082Y-507187D01*
X15001697Y-509066D01*
X14996820Y-512114D01*
X14992756Y-516178D01*
X14989708Y-521004D01*
X14987828Y-526440D01*
X14987117Y-532688D01*
X14987117Y-691591D01*
X14987828Y-697839D01*
X14989708Y-703275D01*
X14992756Y-708101D01*
X14996820Y-712165D01*
X15001697Y-715213D01*
X15007082Y-717092D01*
X15013330Y-717804D01*
X15303347Y-717804D01*
X15307259Y-718566D01*
X15310510Y-720801D01*
X15312745Y-724052D01*
X15313507Y-727964D01*
X15313507Y-932891D01*
X15312644Y-936955D01*
X15310256Y-940358D01*
X15306649Y-942492D01*
X15302534Y-943051D01*
X15298521Y-941832D01*
X15295372Y-939190D01*
X15293492Y-935431D01*
X15290139Y-922324D01*
X15283586Y-904697D01*
X15275306Y-887831D01*
X15265349Y-871829D01*
X15253868Y-856996D01*
X15240863Y-843330D01*
X15226639Y-831087D01*
X15211196Y-820369D01*
X15194737Y-811225D01*
X15177465Y-803808D01*
X15159532Y-798169D01*
X15141092Y-794410D01*
X15122398Y-792480D01*
X15103601Y-792480D01*
X15084856Y-794410D01*
X15066467Y-798169D01*
X15048534Y-803808D01*
X15031212Y-811225D01*
X15014803Y-820369D01*
X14999360Y-831087D01*
X14985085Y-843330D01*
X14972131Y-856996D01*
X14960600Y-871829D01*
X14950694Y-887831D01*
X14942413Y-904697D01*
X14935860Y-922324D01*
X14931136Y-940511D01*
X14928291Y-959103D01*
X14927376Y-976833D01*
X14926462Y-980592D01*
X14924176Y-983742D01*
X14920925Y-985774D01*
X14917064Y-986485D01*
X14913305Y-985672D01*
X14910054Y-983487D01*
X14908072Y-981506D01*
X14903246Y-978458D01*
X14897811Y-976579D01*
X14891562Y-975868D01*
X14432686Y-975868D01*
X14426438Y-976579D01*
X14421053Y-978458D01*
X14416176Y-981506D01*
X14412112Y-985570D01*
X14409064Y-990396D01*
X14407184Y-995832D01*
X14406473Y-1003046D01*
X14405711Y-1006957D01*
X14403527Y-1010208D01*
X14400225Y-1012444D01*
X14396313Y-1013206D01*
X14214348Y-1013206D01*
X14206372Y-1013968D01*
X14199158Y-1016152D01*
X14192554Y-1019708D01*
X14186357Y-1024788D01*
X14133728Y-1077417D01*
X14128648Y-1083614D01*
X14125092Y-1090218D01*
X14122907Y-1097432D01*
X14122146Y-1105408D01*
X14122146Y-1993392D01*
X14122907Y-2001367D01*
X14125092Y-2008581D01*
X14128648Y-2015185D01*
X14133728Y-2021382D01*
X14323517Y-2211171D01*
X14329714Y-2216251D01*
X14336318Y-2219807D01*
X14343532Y-2221992D01*
X14351507Y-2222754D01*
X14846046Y-2222754D01*
X14849906Y-2223516D01*
X14853208Y-2225751D01*
X14855444Y-2229002D01*
X14856206Y-2232914D01*
X14856206Y-2268829D01*
X14856917Y-2275078D01*
X14858796Y-2280513D01*
X14861844Y-2285339D01*
X14865908Y-2289403D01*
X14870734Y-2292451D01*
X14876170Y-2294331D01*
X14882418Y-2295042D01*
X15038781Y-2295042D01*
X15045029Y-2294331D01*
X15050414Y-2292451D01*
X15055291Y-2289403D01*
X15059355Y-2285339D01*
X15062403Y-2280513D01*
X15064282Y-2275078D01*
X15064994Y-2268829D01*
X15064994Y-2099970D01*
X15064282Y-2093722D01*
X15062403Y-2088286D01*
X15059355Y-2083460D01*
X15055291Y-2079396D01*
X15050414Y-2076348D01*
X15045029Y-2074468D01*
X15038781Y-2073757D01*
X14882418Y-2073757D01*
X14876170Y-2074468D01*
X14870734Y-2076348D01*
X14865908Y-2079396D01*
X14861844Y-2083460D01*
X14858796Y-2088286D01*
X14856917Y-2093722D01*
X14856206Y-2099970D01*
X14856206Y-2135886D01*
X14855444Y-2139797D01*
X14853208Y-2143048D01*
X14849906Y-2145284D01*
X14846046Y-2146046D01*
X14371066Y-2146046D01*
X14367205Y-2145284D01*
X14363903Y-2143048D01*
X14201800Y-1980996D01*
X14199616Y-1977694D01*
X14198854Y-1973783D01*
X14198854Y-1125016D01*
X14199616Y-1121105D01*
X14201800Y-1117803D01*
X14226743Y-1092911D01*
X14230045Y-1090676D01*
X14233906Y-1089914D01*
X14396313Y-1089914D01*
X14400225Y-1090676D01*
X14403527Y-1092911D01*
X14405711Y-1096162D01*
X14407184Y-1107287D01*
X14409064Y-1112723D01*
X14412112Y-1117549D01*
X14416176Y-1121613D01*
X14421053Y-1124661D01*
X14426438Y-1126540D01*
X14432686Y-1127252D01*
X14891562Y-1127252D01*
X14897811Y-1126540D01*
X14903246Y-1124661D01*
X14908072Y-1121613D01*
X14912136Y-1117549D01*
X14915184Y-1112723D01*
X14917064Y-1107287D01*
X14917775Y-1101039D01*
X14917775Y-1041349D01*
X14918588Y-1037437D01*
X14920823Y-1034084D01*
X14924227Y-1031900D01*
X14928189Y-1031189D01*
X14932101Y-1032103D01*
X14935352Y-1034440D01*
X14937486Y-1037844D01*
X14942413Y-1051102D01*
X14950694Y-1067968D01*
X14960600Y-1083970D01*
X14972131Y-1098804D01*
X14985085Y-1112469D01*
X14999360Y-1124712D01*
X15014803Y-1135430D01*
X15031212Y-1144574D01*
X15048534Y-1151991D01*
X15066467Y-1157630D01*
X15084856Y-1161389D01*
X15103601Y-1163320D01*
X15122398Y-1163320D01*
X15141092Y-1161389D01*
X15159532Y-1157630D01*
X15177465Y-1151991D01*
X15194737Y-1144574D01*
X15211196Y-1135430D01*
X15226639Y-1124712D01*
X15240863Y-1112469D01*
X15253868Y-1098804D01*
X15265349Y-1083970D01*
X15275306Y-1067968D01*
X15283586Y-1051102D01*
X15290139Y-1033475D01*
X15293492Y-1020368D01*
X15295372Y-1016609D01*
X15298521Y-1013968D01*
X15302534Y-1012748D01*
X15306649Y-1013307D01*
X15310256Y-1015441D01*
X15312644Y-1018844D01*
X15313507Y-1022908D01*
X15313507Y-1177036D01*
X15312745Y-1180947D01*
X15310510Y-1184198D01*
X15307259Y-1186434D01*
X15303347Y-1187196D01*
X15013330Y-1187196D01*
X15007082Y-1187907D01*
X15001697Y-1189786D01*
X14996820Y-1192834D01*
X14992756Y-1196898D01*
X14989708Y-1201724D01*
X14987828Y-1207160D01*
X14987117Y-1213408D01*
X14987117Y-1372311D01*
X14987828Y-1378559D01*
X14989708Y-1383995D01*
X14992756Y-1388821D01*
X14996820Y-1392885D01*
X15001697Y-1395933D01*
X15007082Y-1397812D01*
X15013330Y-1398524D01*
X15303347Y-1398524D01*
X15307259Y-1399286D01*
X15310510Y-1401521D01*
X15312745Y-1404772D01*
X15313507Y-1408684D01*
X15313507Y-2710891D01*
X15312644Y-2714955D01*
X15310256Y-2718358D01*
X15306649Y-2720492D01*
X15302534Y-2721051D01*
X15298521Y-2719832D01*
X15295372Y-2717190D01*
X15293492Y-2713431D01*
X15290139Y-2700324D01*
X15283586Y-2682697D01*
X15275306Y-2665831D01*
X15265349Y-2649829D01*
X15253868Y-2634996D01*
X15240863Y-2621330D01*
X15226639Y-2609088D01*
X15211196Y-2598369D01*
X15194737Y-2589225D01*
X15177465Y-2581808D01*
X15159532Y-2576169D01*
X15141092Y-2572410D01*
X15122398Y-2570480D01*
X15103601Y-2570480D01*
X15084856Y-2572410D01*
X15066467Y-2576169D01*
X15048534Y-2581808D01*
X15031212Y-2589225D01*
X15014803Y-2598369D01*
X14999360Y-2609088D01*
X14985085Y-2621330D01*
X14972131Y-2634996D01*
X14960600Y-2649829D01*
X14950694Y-2665831D01*
X14942413Y-2682697D01*
X14935860Y-2700324D01*
X14931136Y-2718511D01*
X14928291Y-2737104D01*
X14927326Y-2755900D01*
X14928291Y-2774696D01*
X14931136Y-2793288D01*
X14935860Y-2811475D01*
X14942413Y-2829102D01*
X14950694Y-2845968D01*
X14960600Y-2861970D01*
X14972131Y-2876804D01*
X14985085Y-2890469D01*
X14999360Y-2902712D01*
X15014803Y-2913430D01*
X15031212Y-2922574D01*
X15048534Y-2929991D01*
X15066467Y-2935630D01*
X15084856Y-2939389D01*
X15103601Y-2941320D01*
X15122398Y-2941320D01*
X15141092Y-2939389D01*
X15159532Y-2935630D01*
X15177465Y-2929991D01*
X15194737Y-2922574D01*
X15211196Y-2913430D01*
X15226639Y-2902712D01*
X15237612Y-2893263D01*
X15241422Y-2891231D01*
X15245791Y-2890926D01*
X15249804Y-2892501D01*
X15252852Y-2895650D01*
X15254274Y-2899765D01*
X15253868Y-2904083D01*
X15250464Y-2909112D01*
X15236698Y-2921711D01*
X15221864Y-2933039D01*
X15206065Y-2943047D01*
X15189504Y-2951632D01*
X15172232Y-2958744D01*
X15154401Y-2964332D01*
X15136164Y-2968345D01*
X15117673Y-2970733D01*
X15098725Y-2971546D01*
X14829434Y-2971546D01*
X14825675Y-2970834D01*
X14822474Y-2968802D01*
X14820239Y-2965704D01*
X14819274Y-2962046D01*
X14819731Y-2958236D01*
X14821611Y-2954934D01*
X14825167Y-2950616D01*
X14832888Y-2938373D01*
X14839086Y-2925318D01*
X14843556Y-2911551D01*
X14846249Y-2897327D01*
X14847163Y-2882900D01*
X14846249Y-2868472D01*
X14843556Y-2854248D01*
X14839086Y-2840482D01*
X14832888Y-2827426D01*
X14825167Y-2815183D01*
X14815921Y-2804058D01*
X14805406Y-2794152D01*
X14793722Y-2785668D01*
X14781022Y-2778709D01*
X14767560Y-2773375D01*
X14753590Y-2769768D01*
X14739213Y-2767939D01*
X14724735Y-2767939D01*
X14710410Y-2769768D01*
X14696389Y-2773375D01*
X14682927Y-2778709D01*
X14670278Y-2785668D01*
X14658594Y-2794152D01*
X14648027Y-2804058D01*
X14638832Y-2815183D01*
X14631060Y-2827426D01*
X14624913Y-2840482D01*
X14620443Y-2854248D01*
X14617750Y-2868472D01*
X14616836Y-2882900D01*
X14617750Y-2897327D01*
X14620443Y-2911551D01*
X14624913Y-2925318D01*
X14631060Y-2938373D01*
X14638832Y-2950616D01*
X14642388Y-2954934D01*
X14644217Y-2958236D01*
X14644674Y-2962046D01*
X14643760Y-2965704D01*
X14641525Y-2968802D01*
X14638274Y-2970834D01*
X14634565Y-2971546D01*
X14575434Y-2971546D01*
X14571675Y-2970834D01*
X14568474Y-2968802D01*
X14566239Y-2965704D01*
X14565274Y-2962046D01*
X14565731Y-2958236D01*
X14567611Y-2954934D01*
X14571167Y-2950616D01*
X14578888Y-2938373D01*
X14585086Y-2925318D01*
X14589556Y-2911551D01*
X14592249Y-2897327D01*
X14593163Y-2882900D01*
X14592249Y-2868472D01*
X14589556Y-2854248D01*
X14585086Y-2840482D01*
X14578888Y-2827426D01*
X14571167Y-2815183D01*
X14561921Y-2804058D01*
X14551406Y-2794152D01*
X14539722Y-2785668D01*
X14527022Y-2778709D01*
X14513560Y-2773375D01*
X14499590Y-2769768D01*
X14485213Y-2767939D01*
X14470735Y-2767939D01*
X14456410Y-2769768D01*
X14442389Y-2773375D01*
X14434515Y-2776474D01*
X14430654Y-2777185D01*
X14426844Y-2776423D01*
X14423593Y-2774238D01*
X13770000Y-2120696D01*
X13767816Y-2117394D01*
X13767054Y-2113483D01*
X13767054Y-1125016D01*
X13767816Y-1121105D01*
X13770000Y-1117803D01*
X14198803Y-689051D01*
X14202105Y-686816D01*
X14205966Y-686054D01*
X14275562Y-686054D01*
X14279422Y-686816D01*
X14282724Y-689000D01*
X14292427Y-705307D01*
X14300860Y-716026D01*
X14310664Y-725474D01*
X14321586Y-733552D01*
X14333524Y-740054D01*
X14346224Y-744982D01*
X14359432Y-748131D01*
X14372996Y-749452D01*
X14386560Y-748995D01*
X14399971Y-746760D01*
X14412976Y-742746D01*
X14425320Y-737006D01*
X14436801Y-729691D01*
X14447164Y-720902D01*
X14456308Y-710793D01*
X14463979Y-699617D01*
X14470126Y-687476D01*
X14474596Y-674624D01*
X14477288Y-661263D01*
X14478203Y-647700D01*
X14477288Y-634136D01*
X14474596Y-620776D01*
X14470126Y-607923D01*
X14463979Y-595782D01*
X14456308Y-584606D01*
X14447164Y-574497D01*
X14436801Y-565708D01*
X14425320Y-558393D01*
X14412976Y-552653D01*
X14399971Y-548640D01*
X14386560Y-546404D01*
X14372996Y-545947D01*
X14359432Y-547268D01*
X14346224Y-550418D01*
X14333524Y-555345D01*
X14321586Y-561848D01*
X14310664Y-569925D01*
X14300860Y-579374D01*
X14292427Y-590092D01*
X14282724Y-606399D01*
X14279422Y-608584D01*
X14275562Y-609346D01*
X14231619Y-609346D01*
X14227403Y-608431D01*
X14223949Y-605891D01*
X14221866Y-602132D01*
X14221561Y-597814D01*
X14222984Y-593801D01*
X14226641Y-588010D01*
X14228521Y-582574D01*
X14229232Y-576326D01*
X14229232Y-523087D01*
X14229994Y-519226D01*
X14232229Y-515924D01*
X14332254Y-415848D01*
X14335506Y-413664D01*
X14339265Y-412902D01*
X14343126Y-413562D01*
X14346224Y-414782D01*
X14359432Y-417931D01*
X14372996Y-419252D01*
X14386560Y-418795D01*
X14399971Y-416559D01*
X14412976Y-412546D01*
X14425320Y-406806D01*
X14436801Y-399491D01*
X14447164Y-390702D01*
X14456308Y-380593D01*
X14463979Y-369417D01*
X14470126Y-357276D01*
X14474596Y-344424D01*
X14477288Y-331063D01*
X14478203Y-317500D01*
X14477288Y-303936D01*
X14474596Y-290576D01*
X14470126Y-277723D01*
X14463979Y-265582D01*
X14456308Y-254406D01*
X14447164Y-244297D01*
X14436801Y-235508D01*
X14425320Y-228193D01*
X14412976Y-222453D01*
X14399971Y-218440D01*
X14386560Y-216204D01*
X14372996Y-215747D01*
X14359432Y-217068D01*
X14346224Y-220217D01*
X14333524Y-225145D01*
X14321586Y-231648D01*
X14310664Y-239725D01*
X14300860Y-249174D01*
X14292427Y-259892D01*
X14285518Y-271576D01*
X14280184Y-284073D01*
X14276578Y-297230D01*
X14274800Y-310692D01*
X14274800Y-324307D01*
X14276578Y-337769D01*
X14280489Y-351840D01*
X14280845Y-355396D01*
X14279930Y-358851D01*
X14277898Y-361746D01*
X14239646Y-399999D01*
X14236700Y-402031D01*
X14233144Y-402945D01*
X14229537Y-402539D01*
X14226336Y-400862D01*
X14223593Y-397764D01*
X14219529Y-393700D01*
X14214703Y-390652D01*
X14209268Y-388772D01*
X14203019Y-388061D01*
X14040967Y-388061D01*
X14034668Y-388772D01*
X14029283Y-390652D01*
X14024406Y-393700D01*
X14020393Y-397764D01*
X14017345Y-402590D01*
X14015415Y-408025D01*
X14014754Y-414274D01*
X14014754Y-576326D01*
X14015415Y-582574D01*
X14017345Y-588010D01*
X14020393Y-592836D01*
X14024406Y-596900D01*
X14029283Y-599948D01*
X14034668Y-601827D01*
X14040967Y-602538D01*
X14152422Y-602538D01*
X14156436Y-603402D01*
X14159839Y-605790D01*
X14161973Y-609295D01*
X14162532Y-613359D01*
X14161465Y-617372D01*
X14158417Y-620928D01*
X13701928Y-1077417D01*
X13696848Y-1083614D01*
X13693292Y-1090218D01*
X13691107Y-1097432D01*
X13690346Y-1105408D01*
X13690346Y-2133092D01*
X13691107Y-2141067D01*
X13693292Y-2148230D01*
X13696848Y-2154885D01*
X13701928Y-2161082D01*
X14369186Y-2828340D01*
X14371472Y-2831795D01*
X14372183Y-2835859D01*
X14370913Y-2840482D01*
X14366443Y-2854248D01*
X14363750Y-2868472D01*
X14362836Y-2882900D01*
X14363750Y-2897327D01*
X14366443Y-2911551D01*
X14370913Y-2925318D01*
X14377060Y-2938373D01*
X14384832Y-2950616D01*
X14388388Y-2954934D01*
X14390217Y-2958236D01*
X14390674Y-2962046D01*
X14389760Y-2965704D01*
X14387525Y-2968802D01*
X14384274Y-2970834D01*
X14380565Y-2971546D01*
X14321434Y-2971546D01*
X14317675Y-2970834D01*
X14314474Y-2968802D01*
X14312239Y-2965704D01*
X14311274Y-2962046D01*
X14311731Y-2958236D01*
X14313611Y-2954934D01*
X14317167Y-2950616D01*
X14324888Y-2938373D01*
X14331086Y-2925318D01*
X14335556Y-2911551D01*
X14338249Y-2897327D01*
X14339163Y-2882900D01*
X14338249Y-2868472D01*
X14335556Y-2854248D01*
X14331086Y-2840482D01*
X14324888Y-2827426D01*
X14317167Y-2815183D01*
X14307921Y-2804058D01*
X14297406Y-2794152D01*
X14285722Y-2785668D01*
X14273022Y-2778709D01*
X14259560Y-2773375D01*
X14245590Y-2769768D01*
X14231213Y-2767939D01*
X14216735Y-2767939D01*
X14202410Y-2769768D01*
X14188389Y-2773375D01*
X14174927Y-2778709D01*
X14162278Y-2785668D01*
X14150594Y-2794152D01*
X14140027Y-2804058D01*
X14130832Y-2815183D01*
X14123060Y-2827426D01*
X14116913Y-2840482D01*
X14112443Y-2854248D01*
X14109750Y-2868472D01*
X14108836Y-2882900D01*
X14109750Y-2897327D01*
X14112443Y-2911551D01*
X14116913Y-2925318D01*
X14123060Y-2938373D01*
X14130832Y-2950616D01*
X14134388Y-2954934D01*
X14136217Y-2958236D01*
X14136674Y-2962046D01*
X14135760Y-2965704D01*
X14133525Y-2968802D01*
X14130274Y-2970834D01*
X14126565Y-2971546D01*
X14067434Y-2971546D01*
X14063675Y-2970834D01*
X14060474Y-2968802D01*
X14058239Y-2965704D01*
X14057274Y-2962046D01*
X14057731Y-2958236D01*
X14059611Y-2954934D01*
X14063167Y-2950616D01*
X14070888Y-2938373D01*
X14072971Y-2934004D01*
X14021104Y-2934004D01*
X14021104Y-2961386D01*
X14020342Y-2965297D01*
X14018107Y-2968548D01*
X14014856Y-2970784D01*
X14010944Y-2971546D01*
X13929055Y-2971546D01*
X13925143Y-2970784D01*
X13921841Y-2968548D01*
X13919657Y-2965297D01*
X13918895Y-2961386D01*
X13918895Y-2934004D01*
X13867028Y-2934004D01*
X13869060Y-2938373D01*
X13876832Y-2950616D01*
X13880388Y-2954934D01*
X13882217Y-2958236D01*
X13882674Y-2962046D01*
X13881760Y-2965704D01*
X13879525Y-2968802D01*
X13876274Y-2970834D01*
X13872565Y-2971546D01*
X13813434Y-2971546D01*
X13809675Y-2970834D01*
X13806474Y-2968802D01*
X13804239Y-2965704D01*
X13803274Y-2962046D01*
X13803731Y-2958236D01*
X13805611Y-2954934D01*
X13809167Y-2950616D01*
X13816888Y-2938373D01*
X13823086Y-2925318D01*
X13827556Y-2911551D01*
X13830249Y-2897327D01*
X13831163Y-2882900D01*
X13830249Y-2868472D01*
X13827556Y-2854248D01*
X13823086Y-2840482D01*
X13816888Y-2827426D01*
X13809167Y-2815183D01*
X13799921Y-2804058D01*
X13789406Y-2794152D01*
X13777722Y-2785668D01*
X13765022Y-2778709D01*
X13751560Y-2773375D01*
X13737590Y-2769768D01*
X13723213Y-2767939D01*
X13708735Y-2767939D01*
X13694410Y-2769768D01*
X13680389Y-2773375D01*
X13666927Y-2778709D01*
X13654278Y-2785668D01*
X13642594Y-2794152D01*
X13632027Y-2804058D01*
X13622832Y-2815183D01*
X13615060Y-2827426D01*
X13609726Y-2838704D01*
X13607491Y-2841802D01*
X13604290Y-2843834D01*
X13600531Y-2844546D01*
X13577417Y-2844546D01*
X13573658Y-2843834D01*
X13570457Y-2841802D01*
X13568222Y-2838704D01*
X13562888Y-2827426D01*
X13555167Y-2815183D01*
X13545921Y-2804058D01*
X13535406Y-2794152D01*
X13523722Y-2785668D01*
X13511022Y-2778709D01*
X13497560Y-2773375D01*
X13483590Y-2769768D01*
X13469213Y-2767939D01*
X13454735Y-2767939D01*
X13440410Y-2769768D01*
X13426389Y-2773375D01*
X13412927Y-2778709D01*
X13400278Y-2785668D01*
X13388594Y-2794152D01*
X13378027Y-2804058D01*
X13368832Y-2815183D01*
X13361060Y-2827426D01*
X13354913Y-2840482D01*
X13350443Y-2854248D01*
X13347750Y-2868472D01*
X13346836Y-2882900D01*
X13347750Y-2897327D01*
X13350443Y-2911551D01*
X13354913Y-2925318D01*
X13361060Y-2938373D01*
X13368832Y-2950616D01*
X13372388Y-2954934D01*
X13374217Y-2958236D01*
X13374674Y-2962046D01*
X13373760Y-2965704D01*
X13371525Y-2968802D01*
X13368274Y-2970834D01*
X13364565Y-2971546D01*
X13305434Y-2971546D01*
X13301675Y-2970834D01*
X13298474Y-2968802D01*
X13296239Y-2965704D01*
X13295274Y-2962046D01*
X13295731Y-2958236D01*
X13297611Y-2954934D01*
X13301167Y-2950616D01*
X13308888Y-2938373D01*
X13315086Y-2925318D01*
X13319556Y-2911551D01*
X13322249Y-2897327D01*
X13323163Y-2882900D01*
X13322249Y-2868472D01*
X13319556Y-2854248D01*
X13315086Y-2840482D01*
X13308888Y-2827426D01*
X13301167Y-2815183D01*
X13291921Y-2804058D01*
X13281406Y-2794152D01*
X13269722Y-2785668D01*
X13257022Y-2778709D01*
X13243560Y-2773375D01*
X13229590Y-2769768D01*
X13215213Y-2767939D01*
X13200735Y-2767939D01*
X13186410Y-2769768D01*
X13172389Y-2773375D01*
X13158927Y-2778709D01*
X13146278Y-2785668D01*
X13134594Y-2794152D01*
X13124027Y-2804058D01*
X13114832Y-2815183D01*
X13107060Y-2827426D01*
X13100913Y-2840482D01*
X13096443Y-2854248D01*
X13093750Y-2868472D01*
X13092836Y-2882900D01*
X13093750Y-2897327D01*
X13096443Y-2911551D01*
X13100913Y-2925318D01*
X13107060Y-2938373D01*
X13114832Y-2950616D01*
X13118388Y-2954934D01*
X13120217Y-2958236D01*
X13120674Y-2962046D01*
X13119760Y-2965704D01*
X13117525Y-2968802D01*
X13114274Y-2970834D01*
X13110565Y-2971546D01*
X13051434Y-2971546D01*
X13047675Y-2970834D01*
X13044474Y-2968802D01*
X13042239Y-2965704D01*
X13041274Y-2962046D01*
X13041731Y-2958236D01*
X13043611Y-2954934D01*
X13047167Y-2950616D01*
X13054888Y-2938373D01*
X13061086Y-2925318D01*
X13065556Y-2911551D01*
X13068249Y-2897327D01*
X13069163Y-2882900D01*
X13068249Y-2868472D01*
X13065556Y-2854248D01*
X13061086Y-2840482D01*
X13054888Y-2827426D01*
X13047167Y-2815183D01*
X13037921Y-2804058D01*
X13027406Y-2794152D01*
X13015721Y-2785668D01*
X13003022Y-2778709D01*
X12989560Y-2773375D01*
X12975590Y-2769768D01*
X12961213Y-2767939D01*
X12946735Y-2767939D01*
X12932410Y-2769768D01*
X12918389Y-2773375D01*
X12904927Y-2778709D01*
X12892278Y-2785668D01*
X12880594Y-2794152D01*
X12870027Y-2804058D01*
X12860832Y-2815183D01*
X12853060Y-2827426D01*
X12846913Y-2840482D01*
X12842443Y-2854248D01*
X12839750Y-2868472D01*
X12838836Y-2882900D01*
X12839750Y-2897327D01*
X12842443Y-2911551D01*
X12846913Y-2925318D01*
X12853060Y-2938373D01*
X12860832Y-2950616D01*
X12864388Y-2954934D01*
X12866217Y-2958236D01*
X12866674Y-2962046D01*
X12865760Y-2965704D01*
X12863525Y-2968802D01*
X12860274Y-2970834D01*
X12856565Y-2971546D01*
X12797434Y-2971546D01*
X12793675Y-2970834D01*
X12790474Y-2968802D01*
X12788239Y-2965704D01*
X12787274Y-2962046D01*
X12787731Y-2958236D01*
X12789611Y-2954934D01*
X12793167Y-2950616D01*
X12800888Y-2938373D01*
X12807086Y-2925318D01*
X12811556Y-2911551D01*
X12814249Y-2897327D01*
X12815163Y-2882900D01*
X12814249Y-2868472D01*
X12811556Y-2854248D01*
X12807086Y-2840482D01*
X12800888Y-2827426D01*
X12793167Y-2815183D01*
X12783921Y-2804058D01*
X12773406Y-2794152D01*
X12761722Y-2785668D01*
X12749022Y-2778709D01*
X12735560Y-2773375D01*
X12721590Y-2769768D01*
X12707213Y-2767939D01*
X12692735Y-2767939D01*
X12678410Y-2769768D01*
X12664389Y-2773375D01*
X12650927Y-2778709D01*
X12638278Y-2785668D01*
X12626594Y-2794152D01*
X12616027Y-2804058D01*
X12606832Y-2815183D01*
X12599060Y-2827426D01*
X12592913Y-2840482D01*
X12588443Y-2854248D01*
X12585750Y-2868472D01*
X12584836Y-2882900D01*
X12585750Y-2897327D01*
X12588443Y-2911551D01*
X12592913Y-2925318D01*
X12599060Y-2938373D01*
X12606832Y-2950616D01*
X12610388Y-2954934D01*
X12612217Y-2958236D01*
X12612674Y-2962046D01*
X12611760Y-2965704D01*
X12609525Y-2968802D01*
X12606274Y-2970834D01*
X12602565Y-2971546D01*
X12543434Y-2971546D01*
X12539675Y-2970834D01*
X12536474Y-2968802D01*
X12534239Y-2965704D01*
X12533274Y-2962046D01*
X12533731Y-2958236D01*
X12535611Y-2954934D01*
X12539167Y-2950616D01*
X12546888Y-2938373D01*
X12553086Y-2925318D01*
X12557556Y-2911551D01*
X12560249Y-2897327D01*
X12561163Y-2882900D01*
X12560249Y-2868472D01*
X12557556Y-2854248D01*
X12553086Y-2840482D01*
X12546888Y-2827426D01*
X12539167Y-2815183D01*
X12529921Y-2804058D01*
X12519406Y-2794152D01*
X12507722Y-2785668D01*
X12495022Y-2778709D01*
X12481560Y-2773375D01*
X12467590Y-2769768D01*
X12453213Y-2767939D01*
X12438735Y-2767939D01*
X12424410Y-2769768D01*
X12410389Y-2773375D01*
X12396927Y-2778709D01*
X12384278Y-2785668D01*
X12372594Y-2794152D01*
X12362027Y-2804058D01*
X12352832Y-2815183D01*
X12345060Y-2827426D01*
X12338913Y-2840482D01*
X12334443Y-2854248D01*
X12331750Y-2868472D01*
X12330836Y-2882900D01*
X12331750Y-2897327D01*
X12334443Y-2911551D01*
X12338913Y-2925318D01*
X12345060Y-2938373D01*
X12352832Y-2950616D01*
X12356388Y-2954934D01*
X12358217Y-2958236D01*
X12358674Y-2962046D01*
X12357760Y-2965704D01*
X12355525Y-2968802D01*
X12352274Y-2970834D01*
X12348565Y-2971546D01*
X12289434Y-2971546D01*
X12285675Y-2970834D01*
X12282474Y-2968802D01*
X12280239Y-2965704D01*
X12279274Y-2962046D01*
X12279731Y-2958236D01*
X12281611Y-2954934D01*
X12285167Y-2950616D01*
X12292888Y-2938373D01*
X12299086Y-2925318D01*
X12303556Y-2911551D01*
X12306249Y-2897327D01*
X12307163Y-2882900D01*
X12306249Y-2868472D01*
X12303556Y-2854248D01*
X12299086Y-2840482D01*
X12292888Y-2827426D01*
X12285167Y-2815183D01*
X12275921Y-2804058D01*
X12265406Y-2794152D01*
X12253722Y-2785668D01*
X12241022Y-2778709D01*
X12227560Y-2773375D01*
X12213590Y-2769768D01*
X12199213Y-2767939D01*
X12184735Y-2767939D01*
X12170410Y-2769768D01*
X12156389Y-2773375D01*
X12142927Y-2778709D01*
X12130278Y-2785668D01*
X12118594Y-2794152D01*
X12108027Y-2804058D01*
X12098832Y-2815183D01*
X12091060Y-2827426D01*
X12084913Y-2840482D01*
X12080443Y-2854248D01*
X12077750Y-2868472D01*
X12076836Y-2882900D01*
X12077750Y-2897327D01*
X12080443Y-2911551D01*
X12084913Y-2925318D01*
X12091060Y-2938373D01*
X12098832Y-2950616D01*
X12102388Y-2954934D01*
X12104217Y-2958236D01*
X12104674Y-2962046D01*
X12103760Y-2965704D01*
X12101525Y-2968802D01*
X12098274Y-2970834D01*
X12094565Y-2971546D01*
X12035434Y-2971546D01*
X12031675Y-2970834D01*
X12028474Y-2968802D01*
X12026239Y-2965704D01*
X12025274Y-2962046D01*
X12025731Y-2958236D01*
X12027611Y-2954934D01*
X12031167Y-2950616D01*
X12038888Y-2938373D01*
X12045086Y-2925318D01*
X12049556Y-2911551D01*
X12052249Y-2897327D01*
X12053163Y-2882900D01*
X12052249Y-2868472D01*
X12049556Y-2854248D01*
X12045086Y-2840482D01*
X12038888Y-2827426D01*
X12031167Y-2815183D01*
X12021921Y-2804058D01*
X12011406Y-2794152D01*
X11999722Y-2785668D01*
X11987022Y-2778709D01*
X11973560Y-2773375D01*
X11959590Y-2769768D01*
X11945213Y-2767939D01*
X11930735Y-2767939D01*
X11916410Y-2769768D01*
X11902389Y-2773375D01*
X11888927Y-2778709D01*
X11876278Y-2785668D01*
X11864594Y-2794152D01*
X11854027Y-2804058D01*
X11844832Y-2815183D01*
X11837060Y-2827426D01*
X11830913Y-2840482D01*
X11826443Y-2854248D01*
X11823750Y-2868472D01*
X11822836Y-2882900D01*
X11823750Y-2897327D01*
X11826443Y-2911551D01*
X11830913Y-2925318D01*
X11837060Y-2938373D01*
X11844832Y-2950616D01*
X11848388Y-2954934D01*
X11850217Y-2958236D01*
X11850674Y-2962046D01*
X11849760Y-2965704D01*
X11847525Y-2968802D01*
X11844274Y-2970834D01*
X11840565Y-2971546D01*
X11781434Y-2971546D01*
X11777675Y-2970834D01*
X11774474Y-2968802D01*
X11772239Y-2965704D01*
X11771274Y-2962046D01*
X11771731Y-2958236D01*
X11773611Y-2954934D01*
X11777167Y-2950616D01*
X11784888Y-2938373D01*
X11791086Y-2925318D01*
X11795556Y-2911551D01*
X11798249Y-2897327D01*
X11799163Y-2882900D01*
X11798249Y-2868472D01*
X11795556Y-2854248D01*
X11791086Y-2840482D01*
X11784888Y-2827426D01*
X11777167Y-2815183D01*
X11767921Y-2804058D01*
X11757406Y-2794152D01*
X11745722Y-2785668D01*
X11733022Y-2778709D01*
X11719560Y-2773375D01*
X11705590Y-2769768D01*
X11691213Y-2767939D01*
X11676735Y-2767939D01*
X11662410Y-2769768D01*
X11648389Y-2773375D01*
X11634927Y-2778709D01*
X11622278Y-2785668D01*
X11610594Y-2794152D01*
X11600027Y-2804058D01*
X11590832Y-2815183D01*
X11583060Y-2827426D01*
X11576913Y-2840482D01*
X11572443Y-2854248D01*
X11569750Y-2868472D01*
X11568836Y-2882900D01*
X11569750Y-2897327D01*
X11572443Y-2911551D01*
X11576913Y-2925318D01*
X11583060Y-2938373D01*
X11590832Y-2950616D01*
X11594388Y-2954934D01*
X11596217Y-2958236D01*
X11596674Y-2962046D01*
X11595760Y-2965704D01*
X11593525Y-2968802D01*
X11590274Y-2970834D01*
X11586565Y-2971546D01*
G37*

%LPC*%
G36*
X14021104Y-2831795D02*
G01*
X14072971Y-2831795D01*
X14070888Y-2827426D01*
X14063167Y-2815183D01*
X14053921Y-2804058D01*
X14043406Y-2794152D01*
X14031722Y-2785668D01*
X14021104Y-2779826D01*
G37*
G36*
X13867028Y-2831795D02*
G01*
X13918895Y-2831795D01*
X13918895Y-2779826D01*
X13908278Y-2785668D01*
X13896594Y-2794152D01*
X13886027Y-2804058D01*
X13876832Y-2815183D01*
X13869060Y-2827426D01*
G37*
G36*
X14960600Y-2549042D02*
G01*
X14974722Y-2548128D01*
X14988641Y-2545435D01*
X15002103Y-2540965D01*
X15014854Y-2534818D01*
X15026741Y-2527046D01*
X15037562Y-2517851D01*
X15047061Y-2507386D01*
X15055189Y-2495753D01*
X15061742Y-2483205D01*
X15066670Y-2469896D01*
X15069819Y-2456078D01*
X15071140Y-2441956D01*
X15070734Y-2427782D01*
X15068448Y-2413762D01*
X15064435Y-2400198D01*
X15058694Y-2387244D01*
X15051328Y-2375103D01*
X15042489Y-2364028D01*
X15032278Y-2354173D01*
X15020950Y-2345690D01*
X15008606Y-2338730D01*
X14995448Y-2333396D01*
X14981732Y-2329789D01*
X14967661Y-2328011D01*
X14953488Y-2328011D01*
X14939416Y-2329789D01*
X14925751Y-2333396D01*
X14912594Y-2338730D01*
X14900249Y-2345690D01*
X14888870Y-2354173D01*
X14878710Y-2364028D01*
X14869871Y-2375103D01*
X14862505Y-2387244D01*
X14859507Y-2394000D01*
X14857272Y-2397201D01*
X14854021Y-2399284D01*
X14850211Y-2400046D01*
X14358366Y-2400046D01*
X14354505Y-2399284D01*
X14351203Y-2397048D01*
X13935100Y-1980996D01*
X13932916Y-1977694D01*
X13932154Y-1973783D01*
X13932154Y-1125016D01*
X13932916Y-1121105D01*
X13935100Y-1117803D01*
X14158163Y-894791D01*
X14161465Y-892556D01*
X14165326Y-891794D01*
X14396313Y-891794D01*
X14400225Y-892556D01*
X14403527Y-894791D01*
X14405711Y-898042D01*
X14407184Y-909167D01*
X14409064Y-914603D01*
X14412112Y-919429D01*
X14416176Y-923493D01*
X14421053Y-926541D01*
X14426438Y-928420D01*
X14432686Y-929132D01*
X14891562Y-929132D01*
X14897811Y-928420D01*
X14903246Y-926541D01*
X14908072Y-923493D01*
X14912136Y-919429D01*
X14915184Y-914603D01*
X14917064Y-909167D01*
X14917775Y-902919D01*
X14917775Y-803960D01*
X14917064Y-797712D01*
X14915184Y-792276D01*
X14912136Y-787450D01*
X14908072Y-783386D01*
X14903246Y-780338D01*
X14897811Y-778459D01*
X14891562Y-777748D01*
X14432686Y-777748D01*
X14426438Y-778459D01*
X14421053Y-780338D01*
X14416176Y-783386D01*
X14412112Y-787450D01*
X14409064Y-792276D01*
X14407184Y-797712D01*
X14406473Y-804926D01*
X14405711Y-808837D01*
X14403527Y-812088D01*
X14400225Y-814324D01*
X14396313Y-815086D01*
X14145768Y-815086D01*
X14137792Y-815848D01*
X14130578Y-818032D01*
X14123974Y-821588D01*
X14117777Y-826668D01*
X13867028Y-1077417D01*
X13861948Y-1083614D01*
X13858392Y-1090218D01*
X13856207Y-1097432D01*
X13855446Y-1105408D01*
X13855446Y-1993392D01*
X13856207Y-2001367D01*
X13858392Y-2008581D01*
X13861948Y-2015185D01*
X13867028Y-2021382D01*
X14310817Y-2465171D01*
X14317014Y-2470251D01*
X14323618Y-2473807D01*
X14330832Y-2475992D01*
X14338807Y-2476754D01*
X14849957Y-2476754D01*
X14853615Y-2477414D01*
X14856713Y-2479344D01*
X14859000Y-2482240D01*
X14866010Y-2495753D01*
X14874087Y-2507386D01*
X14883638Y-2517851D01*
X14894407Y-2527046D01*
X14906294Y-2534818D01*
X14919045Y-2540965D01*
X14932507Y-2545435D01*
X14946426Y-2548128D01*
G37*
G36*
X13200735Y-965860D02*
G01*
X13215213Y-965860D01*
X13229590Y-964031D01*
X13243560Y-960424D01*
X13257022Y-955090D01*
X13269722Y-948131D01*
X13281406Y-939647D01*
X13291921Y-929741D01*
X13301167Y-918616D01*
X13308888Y-906373D01*
X13315086Y-893318D01*
X13319556Y-879551D01*
X13322249Y-865327D01*
X13323163Y-850900D01*
X13322249Y-836472D01*
X13319556Y-822248D01*
X13315086Y-808482D01*
X13308888Y-795426D01*
X13301167Y-783183D01*
X13291921Y-772058D01*
X13281406Y-762152D01*
X13269722Y-753668D01*
X13257022Y-746709D01*
X13243560Y-741375D01*
X13229590Y-737768D01*
X13215213Y-735939D01*
X13200735Y-735939D01*
X13186410Y-737768D01*
X13172389Y-741375D01*
X13158927Y-746709D01*
X13146278Y-753668D01*
X13134594Y-762152D01*
X13124027Y-772058D01*
X13114832Y-783183D01*
X13107060Y-795426D01*
X13100913Y-808482D01*
X13096443Y-822248D01*
X13093750Y-836472D01*
X13092836Y-850900D01*
X13093750Y-865327D01*
X13096443Y-879551D01*
X13100913Y-893318D01*
X13107060Y-906373D01*
X13114832Y-918616D01*
X13124027Y-929741D01*
X13134594Y-939647D01*
X13146278Y-948131D01*
X13158927Y-955090D01*
X13172389Y-960424D01*
X13186410Y-964031D01*
G37*
G36*
X13454735Y-965860D02*
G01*
X13469213Y-965860D01*
X13483590Y-964031D01*
X13497560Y-960424D01*
X13511022Y-955090D01*
X13523722Y-948131D01*
X13535406Y-939647D01*
X13545921Y-929741D01*
X13555167Y-918616D01*
X13562888Y-906373D01*
X13569086Y-893318D01*
X13573556Y-879551D01*
X13576249Y-865327D01*
X13577163Y-850900D01*
X13576249Y-836472D01*
X13573556Y-822248D01*
X13569086Y-808482D01*
X13562888Y-795426D01*
X13555167Y-783183D01*
X13545921Y-772058D01*
X13535406Y-762152D01*
X13523722Y-753668D01*
X13511022Y-746709D01*
X13497560Y-741375D01*
X13483590Y-737768D01*
X13469213Y-735939D01*
X13454735Y-735939D01*
X13440410Y-737768D01*
X13426389Y-741375D01*
X13412927Y-746709D01*
X13400278Y-753668D01*
X13388594Y-762152D01*
X13378027Y-772058D01*
X13368832Y-783183D01*
X13361060Y-795426D01*
X13354913Y-808482D01*
X13350443Y-822248D01*
X13347750Y-836472D01*
X13346836Y-850900D01*
X13347750Y-865327D01*
X13350443Y-879551D01*
X13354913Y-893318D01*
X13361060Y-906373D01*
X13368832Y-918616D01*
X13378027Y-929741D01*
X13388594Y-939647D01*
X13400278Y-948131D01*
X13412927Y-955090D01*
X13426389Y-960424D01*
X13440410Y-964031D01*
G37*
G36*
X12946735Y-965860D02*
G01*
X12961213Y-965860D01*
X12975590Y-964031D01*
X12989560Y-960424D01*
X13003022Y-955090D01*
X13015721Y-948131D01*
X13027406Y-939647D01*
X13037921Y-929741D01*
X13047167Y-918616D01*
X13054888Y-906373D01*
X13061086Y-893318D01*
X13065556Y-879551D01*
X13068249Y-865327D01*
X13069163Y-850900D01*
X13068249Y-836472D01*
X13065556Y-822248D01*
X13061086Y-808482D01*
X13054888Y-795426D01*
X13047167Y-783183D01*
X13037921Y-772058D01*
X13027406Y-762152D01*
X13015721Y-753668D01*
X13003022Y-746709D01*
X12989560Y-741375D01*
X12975590Y-737768D01*
X12961213Y-735939D01*
X12946735Y-735939D01*
X12932410Y-737768D01*
X12918389Y-741375D01*
X12904927Y-746709D01*
X12892278Y-753668D01*
X12880594Y-762152D01*
X12870027Y-772058D01*
X12860832Y-783183D01*
X12853060Y-795426D01*
X12846913Y-808482D01*
X12842443Y-822248D01*
X12839750Y-836472D01*
X12838836Y-850900D01*
X12839750Y-865327D01*
X12842443Y-879551D01*
X12846913Y-893318D01*
X12853060Y-906373D01*
X12860832Y-918616D01*
X12870027Y-929741D01*
X12880594Y-939647D01*
X12892278Y-948131D01*
X12904927Y-955090D01*
X12918389Y-960424D01*
X12932410Y-964031D01*
G37*
G36*
X13708735Y-965860D02*
G01*
X13723213Y-965860D01*
X13737590Y-964031D01*
X13751560Y-960424D01*
X13765022Y-955090D01*
X13777722Y-948131D01*
X13789406Y-939647D01*
X13799921Y-929741D01*
X13809167Y-918616D01*
X13816888Y-906373D01*
X13823086Y-893318D01*
X13827556Y-879551D01*
X13830249Y-865327D01*
X13831163Y-850900D01*
X13830249Y-836472D01*
X13827556Y-822248D01*
X13823086Y-808482D01*
X13816888Y-795426D01*
X13809167Y-783183D01*
X13799921Y-772058D01*
X13789406Y-762152D01*
X13777722Y-753668D01*
X13765022Y-746709D01*
X13751560Y-741375D01*
X13737590Y-737768D01*
X13723213Y-735939D01*
X13708735Y-735939D01*
X13694410Y-737768D01*
X13680389Y-741375D01*
X13666927Y-746709D01*
X13654278Y-753668D01*
X13642594Y-762152D01*
X13632027Y-772058D01*
X13622832Y-783183D01*
X13615060Y-795426D01*
X13608913Y-808482D01*
X13604443Y-822248D01*
X13601750Y-836472D01*
X13600836Y-850900D01*
X13601750Y-865327D01*
X13604443Y-879551D01*
X13608913Y-893318D01*
X13615060Y-906373D01*
X13622832Y-918616D01*
X13632027Y-929741D01*
X13642594Y-939647D01*
X13654278Y-948131D01*
X13666927Y-955090D01*
X13680389Y-960424D01*
X13694410Y-964031D01*
G37*
G36*
X8212632Y-711454D02*
G01*
X8259419Y-711454D01*
X8259419Y-693369D01*
X8258759Y-687120D01*
X8256828Y-681685D01*
X8253780Y-676859D01*
X8249767Y-672795D01*
X8244890Y-669747D01*
X8239506Y-667867D01*
X8233206Y-667156D01*
X8212632Y-667156D01*
G37*
G36*
X7171232Y-711454D02*
G01*
X7218019Y-711454D01*
X7218019Y-693369D01*
X7217359Y-687120D01*
X7215428Y-681685D01*
X7212380Y-676859D01*
X7208367Y-672795D01*
X7203490Y-669747D01*
X7198106Y-667867D01*
X7191806Y-667156D01*
X7171232Y-667156D01*
G37*
G36*
X8098129Y-711454D02*
G01*
X8144916Y-711454D01*
X8144916Y-667156D01*
X8124342Y-667156D01*
X8118094Y-667867D01*
X8112709Y-669747D01*
X8107832Y-672795D01*
X8103768Y-676859D01*
X8100720Y-681685D01*
X8098840Y-687120D01*
X8098129Y-693369D01*
G37*
G36*
X10422940Y-552602D02*
G01*
X10437825Y-552145D01*
X10452557Y-549859D01*
X10466882Y-545795D01*
X10480548Y-540004D01*
X10493451Y-532536D01*
X10505338Y-523595D01*
X10516006Y-513232D01*
X10525353Y-501599D01*
X10533176Y-488950D01*
X10539425Y-475437D01*
X10544149Y-460552D01*
X10546283Y-456793D01*
X10549839Y-454304D01*
X10554106Y-453491D01*
X10558322Y-454558D01*
X10561726Y-457250D01*
X10563656Y-461162D01*
X10565485Y-468426D01*
X10570870Y-482295D01*
X10577931Y-495401D01*
X10586516Y-507542D01*
X10596524Y-518566D01*
X10607852Y-528218D01*
X10620248Y-536448D01*
X10633557Y-543102D01*
X10647629Y-548030D01*
X10662158Y-551230D01*
X10676940Y-552602D01*
X10691825Y-552145D01*
X10706557Y-549859D01*
X10720882Y-545795D01*
X10734548Y-540004D01*
X10747451Y-532536D01*
X10759338Y-523595D01*
X10770006Y-513232D01*
X10779353Y-501599D01*
X10787176Y-488950D01*
X10793425Y-475437D01*
X10798149Y-460552D01*
X10800283Y-456793D01*
X10803839Y-454304D01*
X10808106Y-453491D01*
X10812322Y-454558D01*
X10815726Y-457250D01*
X10817656Y-461162D01*
X10819485Y-468426D01*
X10824870Y-482295D01*
X10831931Y-495401D01*
X10840516Y-507542D01*
X10850524Y-518566D01*
X10861852Y-528218D01*
X10874248Y-536448D01*
X10887557Y-543102D01*
X10901629Y-548030D01*
X10916158Y-551230D01*
X10930940Y-552602D01*
X10945825Y-552145D01*
X10960557Y-549859D01*
X10974882Y-545795D01*
X10988548Y-540004D01*
X11001451Y-532536D01*
X11013338Y-523595D01*
X11024006Y-513232D01*
X11033353Y-501599D01*
X11041176Y-488950D01*
X11047425Y-475437D01*
X11052149Y-460552D01*
X11054283Y-456793D01*
X11057839Y-454304D01*
X11062106Y-453491D01*
X11066322Y-454558D01*
X11069726Y-457250D01*
X11071656Y-461162D01*
X11073485Y-468426D01*
X11078870Y-482295D01*
X11085931Y-495401D01*
X11094516Y-507542D01*
X11104524Y-518566D01*
X11115852Y-528218D01*
X11128248Y-536448D01*
X11141557Y-543102D01*
X11155629Y-548030D01*
X11170158Y-551230D01*
X11184940Y-552602D01*
X11199825Y-552145D01*
X11214557Y-549859D01*
X11228882Y-545795D01*
X11242548Y-540004D01*
X11255451Y-532536D01*
X11267338Y-523595D01*
X11278006Y-513232D01*
X11287353Y-501599D01*
X11295176Y-488950D01*
X11301425Y-475437D01*
X11306149Y-460552D01*
X11308283Y-456793D01*
X11311839Y-454304D01*
X11316106Y-453491D01*
X11320322Y-454558D01*
X11323726Y-457250D01*
X11325656Y-461162D01*
X11327485Y-468426D01*
X11332870Y-482295D01*
X11339931Y-495401D01*
X11348516Y-507542D01*
X11358524Y-518566D01*
X11369852Y-528218D01*
X11382248Y-536448D01*
X11395557Y-543102D01*
X11409629Y-548030D01*
X11424158Y-551230D01*
X11438940Y-552602D01*
X11453825Y-552145D01*
X11468557Y-549859D01*
X11482882Y-545795D01*
X11496548Y-540004D01*
X11509451Y-532536D01*
X11521338Y-523595D01*
X11532006Y-513232D01*
X11541353Y-501599D01*
X11549176Y-488950D01*
X11555425Y-475437D01*
X11559946Y-461264D01*
X11562638Y-446633D01*
X11563553Y-431800D01*
X11562638Y-416915D01*
X11559946Y-402285D01*
X11555425Y-388112D01*
X11549176Y-374599D01*
X11541353Y-361950D01*
X11532006Y-350316D01*
X11521338Y-339953D01*
X11509451Y-331012D01*
X11496548Y-323545D01*
X11482882Y-317754D01*
X11471554Y-314553D01*
X11467744Y-312470D01*
X11465102Y-309016D01*
X11464188Y-304800D01*
X11465102Y-300532D01*
X11467744Y-297078D01*
X11471554Y-294995D01*
X11482882Y-291795D01*
X11496548Y-286004D01*
X11509451Y-278536D01*
X11521338Y-269595D01*
X11532006Y-259232D01*
X11541353Y-247599D01*
X11549176Y-234950D01*
X11555425Y-221437D01*
X11559946Y-207264D01*
X11562638Y-192633D01*
X11563553Y-177800D01*
X11562638Y-162915D01*
X11559946Y-148285D01*
X11555425Y-134112D01*
X11549176Y-120599D01*
X11541353Y-107950D01*
X11532006Y-96316D01*
X11521338Y-85953D01*
X11509451Y-77012D01*
X11496548Y-69545D01*
X11482882Y-63754D01*
X11468557Y-59690D01*
X11453825Y-57404D01*
X11438940Y-56946D01*
X11424158Y-58318D01*
X11409629Y-61518D01*
X11395557Y-66446D01*
X11382248Y-73101D01*
X11369852Y-81330D01*
X11358524Y-90982D01*
X11348516Y-102006D01*
X11339931Y-114147D01*
X11332870Y-127254D01*
X11327485Y-141173D01*
X11325656Y-148336D01*
X11323675Y-152196D01*
X11320272Y-154940D01*
X11316055Y-155956D01*
X11311839Y-155143D01*
X11308283Y-152654D01*
X11306098Y-148894D01*
X11301425Y-134112D01*
X11295176Y-120599D01*
X11287353Y-107950D01*
X11278006Y-96316D01*
X11267338Y-85953D01*
X11255451Y-77012D01*
X11242548Y-69545D01*
X11228882Y-63754D01*
X11214557Y-59690D01*
X11199825Y-57404D01*
X11184940Y-56946D01*
X11170158Y-58318D01*
X11155629Y-61518D01*
X11141557Y-66446D01*
X11128248Y-73101D01*
X11115852Y-81330D01*
X11104524Y-90982D01*
X11094516Y-102006D01*
X11085931Y-114147D01*
X11078870Y-127254D01*
X11073485Y-141122D01*
X11069878Y-155549D01*
X11068050Y-170332D01*
X11068050Y-185216D01*
X11069878Y-199999D01*
X11073485Y-214426D01*
X11078870Y-228295D01*
X11085931Y-241401D01*
X11094516Y-253542D01*
X11104524Y-264566D01*
X11115852Y-274218D01*
X11128248Y-282448D01*
X11141557Y-289102D01*
X11155629Y-294030D01*
X11159286Y-294843D01*
X11162893Y-296418D01*
X11165586Y-299212D01*
X11167059Y-302818D01*
X11167059Y-306730D01*
X11165586Y-310337D01*
X11162893Y-313131D01*
X11159286Y-314706D01*
X11155629Y-315518D01*
X11141557Y-320446D01*
X11128248Y-327101D01*
X11115852Y-335330D01*
X11104524Y-344982D01*
X11094516Y-356006D01*
X11085931Y-368147D01*
X11078870Y-381254D01*
X11073485Y-395173D01*
X11071656Y-402336D01*
X11069675Y-406196D01*
X11066272Y-408940D01*
X11062055Y-409956D01*
X11057839Y-409143D01*
X11054283Y-406654D01*
X11052098Y-402894D01*
X11047425Y-388112D01*
X11041176Y-374599D01*
X11033353Y-361950D01*
X11024006Y-350316D01*
X11013338Y-339953D01*
X11001451Y-331012D01*
X10988548Y-323545D01*
X10974882Y-317754D01*
X10960557Y-313690D01*
X10945825Y-311404D01*
X10930940Y-310946D01*
X10916158Y-312318D01*
X10901629Y-315518D01*
X10887557Y-320446D01*
X10874248Y-327101D01*
X10861852Y-335330D01*
X10850524Y-344982D01*
X10840516Y-356006D01*
X10831931Y-368147D01*
X10824870Y-381254D01*
X10819485Y-395173D01*
X10817656Y-402336D01*
X10815675Y-406196D01*
X10812272Y-408940D01*
X10808055Y-409956D01*
X10803839Y-409143D01*
X10800283Y-406654D01*
X10798098Y-402894D01*
X10793425Y-388112D01*
X10787176Y-374599D01*
X10779353Y-361950D01*
X10770006Y-350316D01*
X10759338Y-339953D01*
X10747451Y-331012D01*
X10734548Y-323545D01*
X10720882Y-317754D01*
X10709554Y-314553D01*
X10705744Y-312470D01*
X10703102Y-309016D01*
X10702188Y-304800D01*
X10703102Y-300532D01*
X10705744Y-297078D01*
X10709554Y-294995D01*
X10720882Y-291795D01*
X10734548Y-286004D01*
X10747451Y-278536D01*
X10759338Y-269595D01*
X10770006Y-259232D01*
X10779353Y-247599D01*
X10787176Y-234950D01*
X10793425Y-221437D01*
X10797946Y-207162D01*
X10800638Y-192633D01*
X10801553Y-177800D01*
X10800638Y-162915D01*
X10797946Y-148285D01*
X10793425Y-134112D01*
X10787176Y-120599D01*
X10779353Y-107950D01*
X10770006Y-96316D01*
X10759338Y-85953D01*
X10747451Y-77012D01*
X10734548Y-69545D01*
X10720882Y-63754D01*
X10706557Y-59690D01*
X10691825Y-57404D01*
X10676940Y-56946D01*
X10662158Y-58318D01*
X10647629Y-61518D01*
X10633557Y-66446D01*
X10620248Y-73101D01*
X10607852Y-81330D01*
X10596524Y-90982D01*
X10586516Y-102006D01*
X10577931Y-114147D01*
X10570870Y-127254D01*
X10565485Y-141173D01*
X10563656Y-148336D01*
X10561675Y-152196D01*
X10558272Y-154940D01*
X10554055Y-155956D01*
X10549839Y-155143D01*
X10546283Y-152654D01*
X10544098Y-148894D01*
X10539425Y-134112D01*
X10533176Y-120599D01*
X10525353Y-107950D01*
X10516006Y-96316D01*
X10505338Y-85953D01*
X10493451Y-77012D01*
X10480548Y-69545D01*
X10466882Y-63754D01*
X10452557Y-59690D01*
X10437825Y-57404D01*
X10422940Y-56946D01*
X10408158Y-58318D01*
X10393629Y-61518D01*
X10379557Y-66446D01*
X10366248Y-73101D01*
X10353852Y-81330D01*
X10342524Y-90982D01*
X10332516Y-102006D01*
X10323931Y-114147D01*
X10316870Y-127254D01*
X10311485Y-141122D01*
X10307878Y-155549D01*
X10306050Y-170332D01*
X10306050Y-185216D01*
X10307878Y-199999D01*
X10311485Y-214426D01*
X10316870Y-228295D01*
X10323931Y-241401D01*
X10332516Y-253542D01*
X10342524Y-264566D01*
X10353852Y-274218D01*
X10366248Y-282448D01*
X10379557Y-289102D01*
X10393629Y-294030D01*
X10397286Y-294843D01*
X10400893Y-296418D01*
X10403586Y-299212D01*
X10405059Y-302818D01*
X10405059Y-306730D01*
X10403586Y-310337D01*
X10400893Y-313131D01*
X10397286Y-314706D01*
X10393629Y-315518D01*
X10379557Y-320446D01*
X10366248Y-327101D01*
X10353852Y-335330D01*
X10342524Y-344982D01*
X10332516Y-356006D01*
X10323931Y-368147D01*
X10316870Y-381254D01*
X10311485Y-395122D01*
X10307878Y-409549D01*
X10306050Y-424332D01*
X10306050Y-439216D01*
X10307878Y-453999D01*
X10311485Y-468426D01*
X10316870Y-482295D01*
X10323931Y-495401D01*
X10332516Y-507542D01*
X10342524Y-518566D01*
X10353852Y-528218D01*
X10366248Y-536448D01*
X10379557Y-543102D01*
X10393629Y-548030D01*
X10408158Y-551230D01*
G37*
G36*
X9926320Y-508812D02*
G01*
X9946640Y-508355D01*
X9966807Y-505968D01*
X9986670Y-501700D01*
X10006076Y-495604D01*
X10024770Y-487730D01*
X10042702Y-478129D01*
X10059619Y-466902D01*
X10075418Y-454101D01*
X10089946Y-439877D01*
X10103104Y-424383D01*
X10114737Y-407720D01*
X10124744Y-390042D01*
X10133076Y-371500D01*
X10139629Y-352298D01*
X10144353Y-332536D01*
X10147198Y-312420D01*
X10148163Y-292100D01*
X10147198Y-271780D01*
X10144353Y-251663D01*
X10139629Y-231902D01*
X10133076Y-212699D01*
X10124744Y-194157D01*
X10114737Y-176479D01*
X10103104Y-159816D01*
X10089946Y-144322D01*
X10075418Y-130098D01*
X10059619Y-117297D01*
X10042702Y-106070D01*
X10024770Y-96469D01*
X10006076Y-88595D01*
X9986670Y-82499D01*
X9966807Y-78232D01*
X9946640Y-75844D01*
X9926320Y-75387D01*
X9906050Y-76809D01*
X9885984Y-80111D01*
X9866325Y-85293D01*
X9847275Y-92303D01*
X9828936Y-101092D01*
X9811461Y-111506D01*
X9795103Y-123545D01*
X9779914Y-137007D01*
X9766046Y-151892D01*
X9753650Y-167995D01*
X9742830Y-185166D01*
X9733635Y-203301D01*
X9726168Y-222199D01*
X9720529Y-241757D01*
X9716770Y-261721D01*
X9714839Y-281940D01*
X9714839Y-302260D01*
X9716770Y-322478D01*
X9720529Y-342442D01*
X9726168Y-362000D01*
X9733635Y-380898D01*
X9742830Y-399034D01*
X9753650Y-416204D01*
X9766046Y-432308D01*
X9779914Y-447192D01*
X9795103Y-460654D01*
X9811461Y-472693D01*
X9828936Y-483108D01*
X9847275Y-491896D01*
X9866325Y-498906D01*
X9885984Y-504088D01*
X9906050Y-507390D01*
G37*
G36*
X6394653Y-499973D02*
G01*
X6450177Y-499973D01*
X6450177Y-465226D01*
X6394653Y-465226D01*
X6394653Y-467055D01*
X6395313Y-473303D01*
X6397396Y-479247D01*
X6398006Y-482600D01*
X6397396Y-485952D01*
X6395313Y-491896D01*
X6394653Y-498144D01*
G37*
G36*
X8402269Y-487273D02*
G01*
X8457844Y-487273D01*
X8457844Y-485444D01*
X8457133Y-479196D01*
X8455050Y-473252D01*
X8454491Y-469900D01*
X8455050Y-466547D01*
X8457133Y-460603D01*
X8457844Y-454355D01*
X8457844Y-452526D01*
X8402269Y-452526D01*
G37*
G36*
X8261553Y-487273D02*
G01*
X8317077Y-487273D01*
X8317077Y-452526D01*
X8261553Y-452526D01*
X8261553Y-454355D01*
X8262213Y-460603D01*
X8264296Y-466547D01*
X8264906Y-469900D01*
X8264296Y-473252D01*
X8262213Y-479196D01*
X8261553Y-485444D01*
G37*
G36*
X7321753Y-487273D02*
G01*
X7377277Y-487273D01*
X7377277Y-452526D01*
X7321753Y-452526D01*
X7321753Y-454355D01*
X7322413Y-460603D01*
X7324496Y-466547D01*
X7325106Y-469900D01*
X7324496Y-473252D01*
X7322413Y-479196D01*
X7321753Y-485444D01*
G37*
G36*
X7462469Y-487273D02*
G01*
X7518044Y-487273D01*
X7518044Y-485444D01*
X7517333Y-479196D01*
X7515250Y-473252D01*
X7514691Y-469900D01*
X7515250Y-466547D01*
X7517333Y-460603D01*
X7518044Y-454355D01*
X7518044Y-452526D01*
X7462469Y-452526D01*
G37*
G36*
X14121993Y-348538D02*
G01*
X14135963Y-347624D01*
X14149730Y-344881D01*
X14163040Y-340360D01*
X14175587Y-334162D01*
X14187271Y-326390D01*
X14197787Y-317144D01*
X14207032Y-306578D01*
X14214856Y-294894D01*
X14221053Y-282346D01*
X14225574Y-269036D01*
X14228318Y-255320D01*
X14229232Y-241300D01*
X14228318Y-227279D01*
X14225574Y-213563D01*
X14221053Y-200253D01*
X14214856Y-187706D01*
X14207032Y-176022D01*
X14197787Y-165455D01*
X14187271Y-156210D01*
X14175587Y-148437D01*
X14163040Y-142240D01*
X14149730Y-137718D01*
X14135963Y-134975D01*
X14121993Y-134061D01*
X14107972Y-134975D01*
X14094206Y-137718D01*
X14080947Y-142240D01*
X14068348Y-148437D01*
X14056715Y-156210D01*
X14046149Y-165455D01*
X14036903Y-176022D01*
X14029131Y-187706D01*
X14022933Y-200253D01*
X14018412Y-213563D01*
X14015669Y-227279D01*
X14014754Y-241300D01*
X14015669Y-255320D01*
X14018412Y-269036D01*
X14022933Y-282346D01*
X14029131Y-294894D01*
X14036903Y-306578D01*
X14046149Y-317144D01*
X14056715Y-326390D01*
X14068348Y-334162D01*
X14080947Y-340360D01*
X14094206Y-344881D01*
X14107972Y-347624D01*
G37*
G36*
X10988649Y-285953D02*
G01*
X11001451Y-278536D01*
X11013338Y-269595D01*
X11024006Y-259232D01*
X11033353Y-247599D01*
X11041176Y-234950D01*
X11042650Y-231749D01*
X10988649Y-231749D01*
G37*
G36*
X10880699Y-285699D02*
G01*
X10880699Y-231749D01*
X10826699Y-231749D01*
X10831931Y-241401D01*
X10840516Y-253542D01*
X10850524Y-264566D01*
X10861852Y-274218D01*
X10874248Y-282448D01*
G37*
G36*
X8527135Y-280060D02*
G01*
X8541613Y-280060D01*
X8555990Y-278231D01*
X8569960Y-274624D01*
X8583422Y-269290D01*
X8596122Y-262331D01*
X8607806Y-253847D01*
X8618321Y-243941D01*
X8627567Y-232816D01*
X8635288Y-220573D01*
X8641486Y-207517D01*
X8645956Y-193751D01*
X8648649Y-179527D01*
X8649563Y-165100D01*
X8648649Y-150672D01*
X8645956Y-136448D01*
X8641486Y-122682D01*
X8635288Y-109626D01*
X8627567Y-97383D01*
X8618321Y-86258D01*
X8607806Y-76352D01*
X8596122Y-67868D01*
X8583422Y-60909D01*
X8569960Y-55575D01*
X8555990Y-51968D01*
X8541613Y-50139D01*
X8527135Y-50139D01*
X8512810Y-51968D01*
X8498789Y-55575D01*
X8485327Y-60909D01*
X8472678Y-67868D01*
X8460994Y-76352D01*
X8450427Y-86258D01*
X8441232Y-97383D01*
X8433460Y-109626D01*
X8427313Y-122682D01*
X8422843Y-136448D01*
X8420150Y-150672D01*
X8419236Y-165100D01*
X8420150Y-179527D01*
X8422843Y-193751D01*
X8427313Y-207517D01*
X8433460Y-220573D01*
X8441232Y-232816D01*
X8450427Y-243941D01*
X8460994Y-253847D01*
X8472678Y-262331D01*
X8485327Y-269290D01*
X8498789Y-274624D01*
X8512810Y-278231D01*
G37*
G36*
X5733135Y-280060D02*
G01*
X5747613Y-280060D01*
X5761990Y-278231D01*
X5775960Y-274624D01*
X5789422Y-269290D01*
X5802122Y-262331D01*
X5813806Y-253847D01*
X5824321Y-243941D01*
X5833567Y-232816D01*
X5841288Y-220573D01*
X5847486Y-207517D01*
X5851956Y-193751D01*
X5854649Y-179527D01*
X5855563Y-165100D01*
X5854649Y-150672D01*
X5851956Y-136448D01*
X5847486Y-122682D01*
X5841288Y-109626D01*
X5833567Y-97383D01*
X5824321Y-86258D01*
X5813806Y-76352D01*
X5802122Y-67868D01*
X5789422Y-60909D01*
X5775960Y-55575D01*
X5761990Y-51968D01*
X5747613Y-50139D01*
X5733135Y-50139D01*
X5718810Y-51968D01*
X5704789Y-55575D01*
X5691327Y-60909D01*
X5678678Y-67868D01*
X5666994Y-76352D01*
X5656427Y-86258D01*
X5647232Y-97383D01*
X5639460Y-109626D01*
X5633313Y-122682D01*
X5628843Y-136448D01*
X5626150Y-150672D01*
X5625236Y-165100D01*
X5626150Y-179527D01*
X5628843Y-193751D01*
X5633313Y-207517D01*
X5639460Y-220573D01*
X5647232Y-232816D01*
X5656427Y-243941D01*
X5666994Y-253847D01*
X5678678Y-262331D01*
X5691327Y-269290D01*
X5704789Y-274624D01*
X5718810Y-278231D01*
G37*
G36*
X8273135Y-280060D02*
G01*
X8287613Y-280060D01*
X8301990Y-278231D01*
X8315959Y-274624D01*
X8329422Y-269290D01*
X8342122Y-262331D01*
X8353806Y-253847D01*
X8364321Y-243941D01*
X8373567Y-232816D01*
X8381288Y-220573D01*
X8387486Y-207517D01*
X8391956Y-193751D01*
X8394649Y-179527D01*
X8395563Y-165100D01*
X8394649Y-150672D01*
X8391956Y-136448D01*
X8387486Y-122682D01*
X8381288Y-109626D01*
X8373567Y-97383D01*
X8364321Y-86258D01*
X8353806Y-76352D01*
X8342122Y-67868D01*
X8329422Y-60909D01*
X8315959Y-55575D01*
X8301990Y-51968D01*
X8287613Y-50139D01*
X8273135Y-50139D01*
X8258809Y-51968D01*
X8244789Y-55575D01*
X8231327Y-60909D01*
X8218678Y-67868D01*
X8206994Y-76352D01*
X8196427Y-86258D01*
X8187232Y-97383D01*
X8179460Y-109626D01*
X8173313Y-122682D01*
X8168843Y-136448D01*
X8166150Y-150672D01*
X8165236Y-165100D01*
X8166150Y-179527D01*
X8168843Y-193751D01*
X8173313Y-207517D01*
X8179460Y-220573D01*
X8187232Y-232816D01*
X8196427Y-243941D01*
X8206994Y-253847D01*
X8218678Y-262331D01*
X8231327Y-269290D01*
X8244789Y-274624D01*
X8258809Y-278231D01*
G37*
G36*
X6241135Y-280060D02*
G01*
X6255613Y-280060D01*
X6269990Y-278231D01*
X6283960Y-274624D01*
X6297422Y-269290D01*
X6310122Y-262331D01*
X6321806Y-253847D01*
X6332321Y-243941D01*
X6341567Y-232816D01*
X6349288Y-220573D01*
X6355486Y-207517D01*
X6359956Y-193751D01*
X6362649Y-179527D01*
X6363563Y-165100D01*
X6362649Y-150672D01*
X6359956Y-136448D01*
X6355486Y-122682D01*
X6349288Y-109626D01*
X6341567Y-97383D01*
X6332321Y-86258D01*
X6321806Y-76352D01*
X6310122Y-67868D01*
X6297422Y-60909D01*
X6283960Y-55575D01*
X6269990Y-51968D01*
X6255613Y-50139D01*
X6241135Y-50139D01*
X6226810Y-51968D01*
X6212789Y-55575D01*
X6199327Y-60909D01*
X6186678Y-67868D01*
X6174994Y-76352D01*
X6164427Y-86258D01*
X6155232Y-97383D01*
X6147460Y-109626D01*
X6141313Y-122682D01*
X6136843Y-136448D01*
X6134150Y-150672D01*
X6133236Y-165100D01*
X6134150Y-179527D01*
X6136843Y-193751D01*
X6141313Y-207517D01*
X6147460Y-220573D01*
X6155232Y-232816D01*
X6164427Y-243941D01*
X6174994Y-253847D01*
X6186678Y-262331D01*
X6199327Y-269290D01*
X6212789Y-274624D01*
X6226810Y-278231D01*
G37*
G36*
X8019135Y-280060D02*
G01*
X8033613Y-280060D01*
X8047990Y-278231D01*
X8061959Y-274624D01*
X8075422Y-269290D01*
X8088122Y-262331D01*
X8099806Y-253847D01*
X8110321Y-243941D01*
X8119567Y-232816D01*
X8127288Y-220573D01*
X8133486Y-207517D01*
X8137956Y-193751D01*
X8140649Y-179527D01*
X8141563Y-165100D01*
X8140649Y-150672D01*
X8137956Y-136448D01*
X8133486Y-122682D01*
X8127288Y-109626D01*
X8119567Y-97383D01*
X8110321Y-86258D01*
X8099806Y-76352D01*
X8088122Y-67868D01*
X8075422Y-60909D01*
X8061959Y-55575D01*
X8047990Y-51968D01*
X8033613Y-50139D01*
X8019135Y-50139D01*
X8004809Y-51968D01*
X7990789Y-55575D01*
X7977327Y-60909D01*
X7964678Y-67868D01*
X7952994Y-76352D01*
X7942427Y-86258D01*
X7933232Y-97383D01*
X7925460Y-109626D01*
X7919313Y-122682D01*
X7914843Y-136448D01*
X7912150Y-150672D01*
X7911236Y-165100D01*
X7912150Y-179527D01*
X7914843Y-193751D01*
X7919313Y-207517D01*
X7925460Y-220573D01*
X7933232Y-232816D01*
X7942427Y-243941D01*
X7952994Y-253847D01*
X7964678Y-262331D01*
X7977327Y-269290D01*
X7990789Y-274624D01*
X8004809Y-278231D01*
G37*
G36*
X6495135Y-280060D02*
G01*
X6509613Y-280060D01*
X6523990Y-278231D01*
X6537959Y-274624D01*
X6551422Y-269290D01*
X6564122Y-262331D01*
X6575806Y-253847D01*
X6586321Y-243941D01*
X6595567Y-232816D01*
X6603288Y-220573D01*
X6609486Y-207517D01*
X6613956Y-193751D01*
X6616649Y-179527D01*
X6617563Y-165100D01*
X6616649Y-150672D01*
X6613956Y-136448D01*
X6609486Y-122682D01*
X6603288Y-109626D01*
X6595567Y-97383D01*
X6586321Y-86258D01*
X6575806Y-76352D01*
X6564122Y-67868D01*
X6551422Y-60909D01*
X6537959Y-55575D01*
X6523990Y-51968D01*
X6509613Y-50139D01*
X6495135Y-50139D01*
X6480810Y-51968D01*
X6466789Y-55575D01*
X6453327Y-60909D01*
X6440678Y-67868D01*
X6428994Y-76352D01*
X6418427Y-86258D01*
X6409232Y-97383D01*
X6401460Y-109626D01*
X6395313Y-122682D01*
X6390843Y-136448D01*
X6388150Y-150672D01*
X6387236Y-165100D01*
X6388150Y-179527D01*
X6390843Y-193751D01*
X6395313Y-207517D01*
X6401460Y-220573D01*
X6409232Y-232816D01*
X6418427Y-243941D01*
X6428994Y-253847D01*
X6440678Y-262331D01*
X6453327Y-269290D01*
X6466789Y-274624D01*
X6480810Y-278231D01*
G37*
G36*
X7765135Y-280060D02*
G01*
X7779613Y-280060D01*
X7793990Y-278231D01*
X7807959Y-274624D01*
X7821422Y-269290D01*
X7834122Y-262331D01*
X7845806Y-253847D01*
X7856321Y-243941D01*
X7865567Y-232816D01*
X7873288Y-220573D01*
X7879486Y-207517D01*
X7883956Y-193751D01*
X7886649Y-179527D01*
X7887563Y-165100D01*
X7886649Y-150672D01*
X7883956Y-136448D01*
X7879486Y-122682D01*
X7873288Y-109626D01*
X7865567Y-97383D01*
X7856321Y-86258D01*
X7845806Y-76352D01*
X7834122Y-67868D01*
X7821422Y-60909D01*
X7807959Y-55575D01*
X7793990Y-51968D01*
X7779613Y-50139D01*
X7765135Y-50139D01*
X7750809Y-51968D01*
X7736789Y-55575D01*
X7723327Y-60909D01*
X7710678Y-67868D01*
X7698994Y-76352D01*
X7688427Y-86258D01*
X7679232Y-97383D01*
X7671460Y-109626D01*
X7665313Y-122682D01*
X7660843Y-136448D01*
X7658150Y-150672D01*
X7657236Y-165100D01*
X7658150Y-179527D01*
X7660843Y-193751D01*
X7665313Y-207517D01*
X7671460Y-220573D01*
X7679232Y-232816D01*
X7688427Y-243941D01*
X7698994Y-253847D01*
X7710678Y-262331D01*
X7723327Y-269290D01*
X7736789Y-274624D01*
X7750809Y-278231D01*
G37*
G36*
X5987135Y-280060D02*
G01*
X6001613Y-280060D01*
X6015990Y-278231D01*
X6029960Y-274624D01*
X6043422Y-269290D01*
X6056122Y-262331D01*
X6067806Y-253847D01*
X6078321Y-243941D01*
X6087567Y-232816D01*
X6095288Y-220573D01*
X6101486Y-207517D01*
X6105956Y-193751D01*
X6108649Y-179527D01*
X6109563Y-165100D01*
X6108649Y-150672D01*
X6105956Y-136448D01*
X6101486Y-122682D01*
X6095288Y-109626D01*
X6087567Y-97383D01*
X6078321Y-86258D01*
X6067806Y-76352D01*
X6056122Y-67868D01*
X6043422Y-60909D01*
X6029960Y-55575D01*
X6015990Y-51968D01*
X6001613Y-50139D01*
X5987135Y-50139D01*
X5972810Y-51968D01*
X5958789Y-55575D01*
X5945327Y-60909D01*
X5932678Y-67868D01*
X5920994Y-76352D01*
X5910427Y-86258D01*
X5901232Y-97383D01*
X5893460Y-109626D01*
X5887313Y-122682D01*
X5882843Y-136448D01*
X5880150Y-150672D01*
X5879236Y-165100D01*
X5880150Y-179527D01*
X5882843Y-193751D01*
X5887313Y-207517D01*
X5893460Y-220573D01*
X5901232Y-232816D01*
X5910427Y-243941D01*
X5920994Y-253847D01*
X5932678Y-262331D01*
X5945327Y-269290D01*
X5958789Y-274624D01*
X5972810Y-278231D01*
G37*
G36*
X7257135Y-280060D02*
G01*
X7271613Y-280060D01*
X7285990Y-278231D01*
X7299959Y-274624D01*
X7313422Y-269290D01*
X7326122Y-262331D01*
X7337806Y-253847D01*
X7348321Y-243941D01*
X7357567Y-232816D01*
X7365288Y-220573D01*
X7371486Y-207517D01*
X7375956Y-193751D01*
X7378649Y-179527D01*
X7379563Y-165100D01*
X7378649Y-150672D01*
X7375956Y-136448D01*
X7371486Y-122682D01*
X7365288Y-109626D01*
X7357567Y-97383D01*
X7348321Y-86258D01*
X7337806Y-76352D01*
X7326122Y-67868D01*
X7313422Y-60909D01*
X7299959Y-55575D01*
X7285990Y-51968D01*
X7271613Y-50139D01*
X7257135Y-50139D01*
X7242809Y-51968D01*
X7228789Y-55575D01*
X7215327Y-60909D01*
X7202678Y-67868D01*
X7190994Y-76352D01*
X7180427Y-86258D01*
X7171232Y-97383D01*
X7163460Y-109626D01*
X7157313Y-122682D01*
X7152843Y-136448D01*
X7150150Y-150672D01*
X7149236Y-165100D01*
X7150150Y-179527D01*
X7152843Y-193751D01*
X7157313Y-207517D01*
X7163460Y-220573D01*
X7171232Y-232816D01*
X7180427Y-243941D01*
X7190994Y-253847D01*
X7202678Y-262331D01*
X7215327Y-269290D01*
X7228789Y-274624D01*
X7242809Y-278231D01*
G37*
G36*
X6749135Y-280060D02*
G01*
X6763613Y-280060D01*
X6777990Y-278231D01*
X6791959Y-274624D01*
X6805422Y-269290D01*
X6818122Y-262331D01*
X6829806Y-253847D01*
X6840321Y-243941D01*
X6849567Y-232816D01*
X6857288Y-220573D01*
X6863486Y-207517D01*
X6867956Y-193751D01*
X6870649Y-179527D01*
X6871563Y-165100D01*
X6870649Y-150672D01*
X6867956Y-136448D01*
X6863486Y-122682D01*
X6857288Y-109626D01*
X6849567Y-97383D01*
X6840321Y-86258D01*
X6829806Y-76352D01*
X6818122Y-67868D01*
X6805422Y-60909D01*
X6791959Y-55575D01*
X6777990Y-51968D01*
X6763613Y-50139D01*
X6749135Y-50139D01*
X6734809Y-51968D01*
X6720789Y-55575D01*
X6707327Y-60909D01*
X6694678Y-67868D01*
X6682994Y-76352D01*
X6672427Y-86258D01*
X6663232Y-97383D01*
X6655460Y-109626D01*
X6649313Y-122682D01*
X6644843Y-136448D01*
X6642150Y-150672D01*
X6641236Y-165100D01*
X6642150Y-179527D01*
X6644843Y-193751D01*
X6649313Y-207517D01*
X6655460Y-220573D01*
X6663232Y-232816D01*
X6672427Y-243941D01*
X6682994Y-253847D01*
X6694678Y-262331D01*
X6707327Y-269290D01*
X6720789Y-274624D01*
X6734809Y-278231D01*
G37*
G36*
X7511135Y-280060D02*
G01*
X7525613Y-280060D01*
X7539990Y-278231D01*
X7553959Y-274624D01*
X7567422Y-269290D01*
X7580122Y-262331D01*
X7591806Y-253847D01*
X7602321Y-243941D01*
X7611567Y-232816D01*
X7619288Y-220573D01*
X7625486Y-207517D01*
X7629956Y-193751D01*
X7632649Y-179527D01*
X7633563Y-165100D01*
X7632649Y-150672D01*
X7629956Y-136448D01*
X7625486Y-122682D01*
X7619288Y-109626D01*
X7611567Y-97383D01*
X7602321Y-86258D01*
X7591806Y-76352D01*
X7580122Y-67868D01*
X7567422Y-60909D01*
X7553959Y-55575D01*
X7539990Y-51968D01*
X7525613Y-50139D01*
X7511135Y-50139D01*
X7496809Y-51968D01*
X7482789Y-55575D01*
X7469327Y-60909D01*
X7456678Y-67868D01*
X7444994Y-76352D01*
X7434427Y-86258D01*
X7425232Y-97383D01*
X7417460Y-109626D01*
X7411313Y-122682D01*
X7406843Y-136448D01*
X7404150Y-150672D01*
X7403236Y-165100D01*
X7404150Y-179527D01*
X7406843Y-193751D01*
X7411313Y-207517D01*
X7417460Y-220573D01*
X7425232Y-232816D01*
X7434427Y-243941D01*
X7444994Y-253847D01*
X7456678Y-262331D01*
X7469327Y-269290D01*
X7482789Y-274624D01*
X7496809Y-278231D01*
G37*
G36*
X7003135Y-280060D02*
G01*
X7017613Y-280060D01*
X7031990Y-278231D01*
X7045959Y-274624D01*
X7059422Y-269290D01*
X7072122Y-262331D01*
X7083806Y-253847D01*
X7094321Y-243941D01*
X7103567Y-232816D01*
X7111288Y-220573D01*
X7117486Y-207517D01*
X7121956Y-193751D01*
X7124649Y-179527D01*
X7125563Y-165100D01*
X7124649Y-150672D01*
X7121956Y-136448D01*
X7117486Y-122682D01*
X7111288Y-109626D01*
X7103567Y-97383D01*
X7094321Y-86258D01*
X7083806Y-76352D01*
X7072122Y-67868D01*
X7059422Y-60909D01*
X7045959Y-55575D01*
X7031990Y-51968D01*
X7017613Y-50139D01*
X7003135Y-50139D01*
X6988809Y-51968D01*
X6974789Y-55575D01*
X6961327Y-60909D01*
X6948678Y-67868D01*
X6936994Y-76352D01*
X6926427Y-86258D01*
X6917232Y-97383D01*
X6909460Y-109626D01*
X6903313Y-122682D01*
X6898843Y-136448D01*
X6896150Y-150672D01*
X6895236Y-165100D01*
X6896150Y-179527D01*
X6898843Y-193751D01*
X6903313Y-207517D01*
X6909460Y-220573D01*
X6917232Y-232816D01*
X6926427Y-243941D01*
X6936994Y-253847D01*
X6948678Y-262331D01*
X6961327Y-269290D01*
X6974789Y-274624D01*
X6988809Y-278231D01*
G37*
G36*
X9611918Y-215290D02*
G01*
X9615779Y-215290D01*
X9624822Y-214528D01*
X9633661Y-212648D01*
X9638842Y-211074D01*
X9642449Y-209702D01*
X9650628Y-205740D01*
X9658248Y-200863D01*
X9662515Y-197561D01*
X9665411Y-195021D01*
X9671608Y-188468D01*
X9677095Y-181152D01*
X9681667Y-173126D01*
X9685172Y-164795D01*
X9687661Y-156006D01*
X9689084Y-146913D01*
X9689439Y-137871D01*
X9688677Y-128727D01*
X9686798Y-119786D01*
X9683902Y-111252D01*
X9679889Y-102870D01*
X9674961Y-95199D01*
X9669170Y-88188D01*
X9662617Y-81940D01*
X9655302Y-76454D01*
X9647275Y-71882D01*
X9638944Y-68376D01*
X9630156Y-65887D01*
X9621062Y-64465D01*
X9612020Y-64109D01*
X9602876Y-64871D01*
X9593935Y-66751D01*
X9585401Y-69646D01*
X9577019Y-73660D01*
X9569399Y-78536D01*
X9562338Y-84378D01*
X9555988Y-91033D01*
X9550603Y-98247D01*
X9546082Y-106172D01*
X9543846Y-111099D01*
X9542475Y-114706D01*
X9540036Y-123393D01*
X9538614Y-132384D01*
X9538258Y-137769D01*
X9538258Y-141630D01*
X9539020Y-150672D01*
X9540900Y-159512D01*
X9542475Y-164693D01*
X9543846Y-168300D01*
X9547809Y-176479D01*
X9552686Y-184099D01*
X9558426Y-191160D01*
X9565182Y-197612D01*
X9572396Y-202946D01*
X9580321Y-207467D01*
X9585248Y-209702D01*
X9588855Y-211074D01*
X9597542Y-213512D01*
X9606534Y-214934D01*
G37*
G36*
X10826699Y-123799D02*
G01*
X10880699Y-123799D01*
X10880699Y-69850D01*
X10874248Y-73101D01*
X10861852Y-81330D01*
X10850524Y-90982D01*
X10840516Y-102006D01*
X10831931Y-114147D01*
G37*
G36*
X10988649Y-123799D02*
G01*
X11042650Y-123799D01*
X11041176Y-120599D01*
X11033353Y-107950D01*
X11024006Y-96316D01*
X11013338Y-85953D01*
X11001451Y-77012D01*
X10988649Y-69596D01*
G37*

%LPD*%
G36*
X11316055Y-409956D02*
G01*
X11311839Y-409143D01*
X11308283Y-406654D01*
X11306098Y-402894D01*
X11301425Y-388112D01*
X11295176Y-374599D01*
X11287353Y-361950D01*
X11278006Y-350316D01*
X11267338Y-339953D01*
X11255451Y-331012D01*
X11242548Y-323545D01*
X11228882Y-317754D01*
X11217554Y-314553D01*
X11213744Y-312470D01*
X11211102Y-309016D01*
X11210188Y-304800D01*
X11211102Y-300532D01*
X11213744Y-297078D01*
X11217554Y-294995D01*
X11228882Y-291795D01*
X11242548Y-286004D01*
X11255451Y-278536D01*
X11267338Y-269595D01*
X11278006Y-259232D01*
X11287353Y-247599D01*
X11295176Y-234950D01*
X11301425Y-221437D01*
X11306149Y-206552D01*
X11308283Y-202793D01*
X11311839Y-200304D01*
X11316106Y-199491D01*
X11320322Y-200558D01*
X11323726Y-203250D01*
X11325656Y-207162D01*
X11327485Y-214426D01*
X11332870Y-228295D01*
X11339931Y-241401D01*
X11348516Y-253542D01*
X11358524Y-264566D01*
X11369852Y-274218D01*
X11382248Y-282448D01*
X11395557Y-289102D01*
X11409629Y-294030D01*
X11413286Y-294843D01*
X11416893Y-296418D01*
X11419586Y-299212D01*
X11421059Y-302818D01*
X11421059Y-306730D01*
X11419586Y-310337D01*
X11416893Y-313131D01*
X11413286Y-314706D01*
X11409629Y-315518D01*
X11395557Y-320446D01*
X11382248Y-327101D01*
X11369852Y-335330D01*
X11358524Y-344982D01*
X11348516Y-356006D01*
X11339931Y-368147D01*
X11332870Y-381254D01*
X11327485Y-395173D01*
X11325656Y-402336D01*
X11323675Y-406196D01*
X11320272Y-408940D01*
G37*

%LPD*%
G36*
X10554055Y-409956D02*
G01*
X10549839Y-409143D01*
X10546283Y-406654D01*
X10544098Y-402894D01*
X10539425Y-388112D01*
X10533176Y-374599D01*
X10525353Y-361950D01*
X10516006Y-350316D01*
X10505338Y-339953D01*
X10493451Y-331012D01*
X10480548Y-323545D01*
X10466882Y-317754D01*
X10455554Y-314553D01*
X10451744Y-312470D01*
X10449102Y-309016D01*
X10448188Y-304800D01*
X10449102Y-300532D01*
X10451744Y-297078D01*
X10455554Y-294995D01*
X10466882Y-291795D01*
X10480548Y-286004D01*
X10493451Y-278536D01*
X10505338Y-269595D01*
X10516006Y-259232D01*
X10525353Y-247599D01*
X10533176Y-234950D01*
X10539425Y-221437D01*
X10544149Y-206552D01*
X10546283Y-202793D01*
X10549839Y-200304D01*
X10554106Y-199491D01*
X10558322Y-200558D01*
X10561726Y-203250D01*
X10563656Y-207162D01*
X10565485Y-214426D01*
X10570870Y-228295D01*
X10577931Y-241401D01*
X10586516Y-253542D01*
X10596524Y-264566D01*
X10607852Y-274218D01*
X10620248Y-282448D01*
X10633557Y-289102D01*
X10647629Y-294030D01*
X10651286Y-294843D01*
X10654893Y-296418D01*
X10657586Y-299212D01*
X10659059Y-302818D01*
X10659059Y-306730D01*
X10657586Y-310337D01*
X10654893Y-313131D01*
X10651286Y-314706D01*
X10647629Y-315518D01*
X10633557Y-320446D01*
X10620248Y-327101D01*
X10607852Y-335330D01*
X10596524Y-344982D01*
X10586516Y-356006D01*
X10577931Y-368147D01*
X10570870Y-381254D01*
X10565485Y-395173D01*
X10563656Y-402336D01*
X10561675Y-406196D01*
X10558272Y-408940D01*
G37*

%LPD*%
G36*
X5270804Y-2971546D02*
G01*
X5266893Y-2970784D01*
X5263591Y-2968548D01*
X5261406Y-2965297D01*
X5260644Y-2961386D01*
X5260644Y-2875483D01*
X5261406Y-2871622D01*
X5263591Y-2868320D01*
X5266893Y-2866136D01*
X5270804Y-2865323D01*
X5274665Y-2866136D01*
X5277967Y-2868320D01*
X5363870Y-2954223D01*
X5366054Y-2957474D01*
X5366816Y-2961386D01*
X5366054Y-2965297D01*
X5363870Y-2968548D01*
X5360568Y-2970784D01*
X5356656Y-2971546D01*
G37*

%LPD*%
G36*
X11019434Y-2971546D02*
G01*
X11015675Y-2970834D01*
X11012474Y-2968802D01*
X11010239Y-2965704D01*
X11009274Y-2962046D01*
X11009731Y-2958236D01*
X11011611Y-2954934D01*
X11015167Y-2950616D01*
X11022888Y-2938373D01*
X11029086Y-2925318D01*
X11033556Y-2911551D01*
X11036249Y-2897327D01*
X11037163Y-2882900D01*
X11036249Y-2868472D01*
X11033556Y-2854248D01*
X11029086Y-2840482D01*
X11022888Y-2827426D01*
X11015167Y-2815183D01*
X11005921Y-2804058D01*
X10995406Y-2794152D01*
X10983722Y-2785668D01*
X10971022Y-2778709D01*
X10957560Y-2773375D01*
X10943590Y-2769768D01*
X10929213Y-2767939D01*
X10914735Y-2767939D01*
X10900410Y-2769768D01*
X10886389Y-2773375D01*
X10872927Y-2778709D01*
X10860278Y-2785668D01*
X10848594Y-2794152D01*
X10838027Y-2804058D01*
X10828832Y-2815183D01*
X10821060Y-2827426D01*
X10814913Y-2840482D01*
X10810443Y-2854248D01*
X10807750Y-2868472D01*
X10806836Y-2882900D01*
X10807750Y-2897327D01*
X10809884Y-2908706D01*
X10809732Y-2913126D01*
X10807750Y-2917037D01*
X10804245Y-2919780D01*
X10799927Y-2920746D01*
X10648340Y-2920746D01*
X10644327Y-2919933D01*
X10640974Y-2917596D01*
X10638790Y-2914091D01*
X10638180Y-2910078D01*
X10639196Y-2906115D01*
X10641736Y-2902864D01*
X10656163Y-2890469D01*
X10669168Y-2876804D01*
X10680649Y-2861970D01*
X10690606Y-2845968D01*
X10698886Y-2829102D01*
X10705439Y-2811475D01*
X10710113Y-2793288D01*
X10712958Y-2774696D01*
X10713923Y-2755900D01*
X10712958Y-2737104D01*
X10710113Y-2718511D01*
X10705439Y-2700324D01*
X10698886Y-2682697D01*
X10690606Y-2665831D01*
X10680649Y-2649829D01*
X10669168Y-2634996D01*
X10656163Y-2621330D01*
X10641939Y-2609088D01*
X10626496Y-2598369D01*
X10610037Y-2589225D01*
X10592765Y-2581808D01*
X10574832Y-2576169D01*
X10556392Y-2572410D01*
X10537698Y-2570480D01*
X10518902Y-2570480D01*
X10500156Y-2572410D01*
X10481767Y-2576169D01*
X10463834Y-2581808D01*
X10446512Y-2589225D01*
X10430103Y-2598369D01*
X10414660Y-2609088D01*
X10400385Y-2621330D01*
X10387431Y-2634996D01*
X10375900Y-2649829D01*
X10365994Y-2665831D01*
X10357713Y-2682697D01*
X10351160Y-2700324D01*
X10346436Y-2718511D01*
X10343591Y-2737104D01*
X10342626Y-2755900D01*
X10343591Y-2774696D01*
X10346436Y-2793288D01*
X10351160Y-2811475D01*
X10357713Y-2829102D01*
X10365994Y-2845968D01*
X10375900Y-2861970D01*
X10387431Y-2876804D01*
X10400385Y-2890469D01*
X10414863Y-2902864D01*
X10417352Y-2906115D01*
X10418368Y-2910078D01*
X10417759Y-2914091D01*
X10415625Y-2917596D01*
X10412272Y-2919933D01*
X10408259Y-2920746D01*
X5928614Y-2920746D01*
X5924702Y-2919984D01*
X5921400Y-2917748D01*
X5919216Y-2914497D01*
X5918454Y-2910586D01*
X5918454Y-2894685D01*
X5919165Y-2890926D01*
X5921197Y-2887726D01*
X5924346Y-2885490D01*
X5929020Y-2883306D01*
X5940501Y-2875991D01*
X5950864Y-2867202D01*
X5960008Y-2857093D01*
X5967679Y-2845917D01*
X5973826Y-2833776D01*
X5978296Y-2820924D01*
X5980988Y-2807563D01*
X5981903Y-2794000D01*
X5980988Y-2780436D01*
X5978296Y-2767076D01*
X5973826Y-2754223D01*
X5967679Y-2742082D01*
X5960008Y-2730906D01*
X5950864Y-2720797D01*
X5940501Y-2712008D01*
X5929020Y-2704693D01*
X5916676Y-2698953D01*
X5903671Y-2694940D01*
X5890260Y-2692704D01*
X5876696Y-2692247D01*
X5863132Y-2693568D01*
X5849924Y-2696718D01*
X5837224Y-2701645D01*
X5825286Y-2708148D01*
X5814364Y-2716225D01*
X5804560Y-2725674D01*
X5796127Y-2736392D01*
X5789218Y-2748076D01*
X5783884Y-2760573D01*
X5780278Y-2773730D01*
X5778500Y-2787192D01*
X5778500Y-2800807D01*
X5780278Y-2814269D01*
X5783884Y-2827426D01*
X5789218Y-2839923D01*
X5796127Y-2851607D01*
X5804560Y-2862326D01*
X5814364Y-2871774D01*
X5825286Y-2879852D01*
X5836462Y-2885948D01*
X5839256Y-2888234D01*
X5841085Y-2891332D01*
X5841746Y-2894838D01*
X5841746Y-2910586D01*
X5840984Y-2914497D01*
X5838748Y-2917748D01*
X5835446Y-2919984D01*
X5831586Y-2920746D01*
X5443118Y-2920746D01*
X5439206Y-2919984D01*
X5435904Y-2917748D01*
X5324652Y-2806496D01*
X5322417Y-2803194D01*
X5321655Y-2799283D01*
X5321655Y-2489708D01*
X5320893Y-2481732D01*
X5318709Y-2474518D01*
X5315153Y-2467914D01*
X5310073Y-2461717D01*
X5272684Y-2424328D01*
X5266486Y-2419248D01*
X5259882Y-2415692D01*
X5252669Y-2413508D01*
X5244693Y-2412746D01*
X5176418Y-2412746D01*
X5172506Y-2411984D01*
X5169204Y-2409748D01*
X5057851Y-2298395D01*
X5055616Y-2295093D01*
X5054854Y-2291181D01*
X5054854Y-1875485D01*
X5055565Y-1871675D01*
X5057698Y-1868424D01*
X5061153Y-1864817D01*
X5066588Y-1856790D01*
X5070602Y-1847900D01*
X5073040Y-1838502D01*
X5073853Y-1828800D01*
X5073040Y-1819097D01*
X5070602Y-1809699D01*
X5066588Y-1800809D01*
X5061153Y-1792782D01*
X5054396Y-1785721D01*
X5046573Y-1779930D01*
X5037886Y-1775561D01*
X5028590Y-1772716D01*
X5018938Y-1771497D01*
X5009235Y-1771904D01*
X4999685Y-1773936D01*
X4990693Y-1777593D01*
X4982362Y-1782673D01*
X4975098Y-1789125D01*
X4968951Y-1796694D01*
X4964226Y-1805178D01*
X4960975Y-1814322D01*
X4959350Y-1823923D01*
X4959350Y-1833676D01*
X4960975Y-1843278D01*
X4964226Y-1852422D01*
X4968951Y-1860905D01*
X4975860Y-1869338D01*
X4977536Y-1872386D01*
X4978146Y-1875789D01*
X4978146Y-2310790D01*
X4978908Y-2318766D01*
X4981092Y-2325979D01*
X4984648Y-2332583D01*
X4989728Y-2338781D01*
X5128818Y-2477871D01*
X5135016Y-2482951D01*
X5141620Y-2486507D01*
X5148834Y-2488692D01*
X5156809Y-2489454D01*
X5225084Y-2489454D01*
X5228996Y-2490216D01*
X5232298Y-2492451D01*
X5241950Y-2502103D01*
X5244185Y-2505405D01*
X5244947Y-2509316D01*
X5244947Y-2709164D01*
X5244185Y-2713075D01*
X5241950Y-2716377D01*
X5238699Y-2718562D01*
X5234787Y-2719324D01*
X4985562Y-2719324D01*
X4979314Y-2720035D01*
X4973878Y-2721914D01*
X4969052Y-2724962D01*
X4967122Y-2726893D01*
X4963820Y-2729077D01*
X4959959Y-2729890D01*
X4956048Y-2729077D01*
X4952746Y-2726893D01*
X4948783Y-2722880D01*
X4943906Y-2719832D01*
X4938522Y-2717952D01*
X4932222Y-2717241D01*
X4683404Y-2717241D01*
X4677105Y-2717952D01*
X4671720Y-2719832D01*
X4666843Y-2722880D01*
X4665014Y-2724708D01*
X4661814Y-2726893D01*
X4658055Y-2727706D01*
X4654245Y-2727045D01*
X4646066Y-2721914D01*
X4640681Y-2720035D01*
X4634433Y-2719324D01*
X4618786Y-2719324D01*
X4614926Y-2718562D01*
X4611624Y-2716377D01*
X4609439Y-2713075D01*
X4608626Y-2709214D01*
X4605172Y-1607362D01*
X4605934Y-1603451D01*
X4608169Y-1600149D01*
X4611420Y-1597914D01*
X4615332Y-1597152D01*
X5162651Y-1597152D01*
X5166563Y-1597914D01*
X5169865Y-1600149D01*
X5410098Y-1840382D01*
X5412435Y-1844039D01*
X5413095Y-1848307D01*
X5411876Y-1852422D01*
X5409031Y-1855724D01*
X5405120Y-1857502D01*
X5400802Y-1857502D01*
X5394807Y-1856232D01*
X5374640Y-1853844D01*
X5354320Y-1853387D01*
X5334050Y-1854809D01*
X5313984Y-1858111D01*
X5294325Y-1863293D01*
X5275275Y-1870303D01*
X5256936Y-1879092D01*
X5239461Y-1889506D01*
X5223103Y-1901545D01*
X5207914Y-1915007D01*
X5194046Y-1929892D01*
X5181650Y-1945995D01*
X5170830Y-1963166D01*
X5161635Y-1981301D01*
X5154168Y-2000199D01*
X5148529Y-2019757D01*
X5144770Y-2039721D01*
X5142839Y-2059939D01*
X5142839Y-2080260D01*
X5144770Y-2100478D01*
X5148529Y-2120442D01*
X5154168Y-2140000D01*
X5161635Y-2158898D01*
X5170830Y-2177034D01*
X5181650Y-2194204D01*
X5194046Y-2210308D01*
X5207914Y-2225192D01*
X5223103Y-2238654D01*
X5239461Y-2250694D01*
X5256936Y-2261108D01*
X5275275Y-2269896D01*
X5294325Y-2276906D01*
X5313984Y-2282088D01*
X5334050Y-2285390D01*
X5354320Y-2286812D01*
X5374640Y-2286355D01*
X5394807Y-2283968D01*
X5414670Y-2279700D01*
X5434076Y-2273604D01*
X5452770Y-2265730D01*
X5470702Y-2256129D01*
X5487619Y-2244902D01*
X5503418Y-2232101D01*
X5517946Y-2217877D01*
X5531104Y-2202383D01*
X5542737Y-2185720D01*
X5552744Y-2168042D01*
X5561076Y-2149500D01*
X5567629Y-2130298D01*
X5572353Y-2110536D01*
X5575198Y-2090420D01*
X5576163Y-2070100D01*
X5575198Y-2049780D01*
X5572201Y-2029053D01*
X5572099Y-2024786D01*
X5573826Y-2020824D01*
X5576976Y-2017928D01*
X5581040Y-2016607D01*
X5585307Y-2017064D01*
X5589016Y-2019249D01*
X5593232Y-2023160D01*
X5598160Y-2027174D01*
X5603392Y-2030780D01*
X5608878Y-2034032D01*
X5614568Y-2036876D01*
X5620461Y-2039315D01*
X5626506Y-2041347D01*
X5632653Y-2042922D01*
X5638901Y-2044039D01*
X5645251Y-2044700D01*
X5651804Y-2044954D01*
X6836156Y-2044954D01*
X6840016Y-2045716D01*
X6843318Y-2047951D01*
X6845553Y-2051202D01*
X6846316Y-2055114D01*
X6846316Y-2100427D01*
X6845350Y-2104745D01*
X6842607Y-2108250D01*
X6838645Y-2110232D01*
X6834225Y-2110384D01*
X6830161Y-2108606D01*
X6818122Y-2099868D01*
X6805422Y-2092909D01*
X6791959Y-2087575D01*
X6777990Y-2083968D01*
X6763613Y-2082139D01*
X6749135Y-2082139D01*
X6734809Y-2083968D01*
X6720789Y-2087575D01*
X6707327Y-2092909D01*
X6694678Y-2099868D01*
X6682994Y-2108352D01*
X6672427Y-2118258D01*
X6663232Y-2129383D01*
X6655460Y-2141626D01*
X6649313Y-2154682D01*
X6644843Y-2168448D01*
X6642150Y-2182672D01*
X6641236Y-2197100D01*
X6642150Y-2211527D01*
X6644843Y-2225751D01*
X6649313Y-2239518D01*
X6655460Y-2252573D01*
X6663232Y-2264816D01*
X6672427Y-2275941D01*
X6682994Y-2285847D01*
X6694678Y-2294331D01*
X6707327Y-2301290D01*
X6720789Y-2306624D01*
X6734809Y-2310231D01*
X6749135Y-2312060D01*
X6763613Y-2312060D01*
X6777990Y-2310231D01*
X6791959Y-2306624D01*
X6805422Y-2301290D01*
X6818122Y-2294331D01*
X6830161Y-2285593D01*
X6834225Y-2283815D01*
X6838645Y-2283968D01*
X6842607Y-2285949D01*
X6845350Y-2289454D01*
X6846316Y-2293772D01*
X6846316Y-2692450D01*
X6845655Y-2696006D01*
X6843826Y-2699105D01*
X6841032Y-2701340D01*
X6828586Y-2708148D01*
X6817664Y-2716225D01*
X6807860Y-2725674D01*
X6799427Y-2736392D01*
X6792518Y-2748076D01*
X6787184Y-2760573D01*
X6783578Y-2773730D01*
X6781800Y-2787192D01*
X6781800Y-2800807D01*
X6783578Y-2814269D01*
X6787184Y-2827426D01*
X6792518Y-2839923D01*
X6799427Y-2851607D01*
X6807860Y-2862326D01*
X6817664Y-2871774D01*
X6828586Y-2879852D01*
X6840524Y-2886354D01*
X6853224Y-2891282D01*
X6866432Y-2894431D01*
X6879996Y-2895752D01*
X6893559Y-2895295D01*
X6906971Y-2893060D01*
X6919975Y-2889046D01*
X6932320Y-2883306D01*
X6943801Y-2875991D01*
X6954164Y-2867202D01*
X6963308Y-2857093D01*
X6970979Y-2845917D01*
X6977125Y-2833776D01*
X6981596Y-2820924D01*
X6984288Y-2807563D01*
X6985203Y-2794000D01*
X6984288Y-2780436D01*
X6981596Y-2767076D01*
X6977125Y-2754223D01*
X6970979Y-2742082D01*
X6963308Y-2730906D01*
X6954164Y-2720797D01*
X6943801Y-2712008D01*
X6932320Y-2704693D01*
X6928916Y-2703118D01*
X6925767Y-2700883D01*
X6923735Y-2697632D01*
X6923024Y-2693873D01*
X6923024Y-2295652D01*
X6923989Y-2291283D01*
X6926681Y-2287828D01*
X6930644Y-2285796D01*
X6935063Y-2285644D01*
X6939127Y-2287422D01*
X6948678Y-2294331D01*
X6961327Y-2301290D01*
X6974789Y-2306624D01*
X6988809Y-2310231D01*
X7003135Y-2312060D01*
X7017613Y-2312060D01*
X7031990Y-2310231D01*
X7045959Y-2306624D01*
X7059422Y-2301290D01*
X7072122Y-2294331D01*
X7083806Y-2285847D01*
X7094321Y-2275941D01*
X7103567Y-2264816D01*
X7111288Y-2252573D01*
X7117486Y-2239518D01*
X7121956Y-2225751D01*
X7124649Y-2211527D01*
X7125563Y-2197100D01*
X7124649Y-2182672D01*
X7121956Y-2168448D01*
X7117486Y-2154682D01*
X7111288Y-2141626D01*
X7103567Y-2129383D01*
X7094321Y-2118258D01*
X7083806Y-2108352D01*
X7072122Y-2099868D01*
X7059422Y-2092909D01*
X7045959Y-2087575D01*
X7031990Y-2083968D01*
X7017613Y-2082139D01*
X7003135Y-2082139D01*
X6988809Y-2083968D01*
X6974789Y-2087575D01*
X6961327Y-2092909D01*
X6948678Y-2099868D01*
X6939127Y-2106777D01*
X6935063Y-2108555D01*
X6930644Y-2108403D01*
X6926681Y-2106371D01*
X6923989Y-2102916D01*
X6923024Y-2098548D01*
X6923024Y-2055114D01*
X6923786Y-2051202D01*
X6925970Y-2047951D01*
X6929272Y-2045716D01*
X6933184Y-2044954D01*
X9194698Y-2044954D01*
X9201251Y-2044700D01*
X9207601Y-2044039D01*
X9213850Y-2042922D01*
X9219996Y-2041347D01*
X9226042Y-2039315D01*
X9231934Y-2036876D01*
X9237624Y-2034032D01*
X9243110Y-2030780D01*
X9248343Y-2027174D01*
X9253270Y-2023160D01*
X9258046Y-2018690D01*
X10326370Y-950417D01*
X10329773Y-948182D01*
X10333736Y-947419D01*
X10337698Y-948334D01*
X10341000Y-950671D01*
X10343083Y-954125D01*
X10343692Y-958138D01*
X10342626Y-977900D01*
X10343591Y-996696D01*
X10346436Y-1015288D01*
X10351160Y-1033475D01*
X10357713Y-1051102D01*
X10365994Y-1067968D01*
X10375900Y-1083970D01*
X10387431Y-1098804D01*
X10400385Y-1112469D01*
X10414660Y-1124712D01*
X10430103Y-1135430D01*
X10446512Y-1144574D01*
X10463834Y-1151991D01*
X10481767Y-1157630D01*
X10500156Y-1161389D01*
X10518902Y-1163320D01*
X10537698Y-1163320D01*
X10556392Y-1161389D01*
X10574832Y-1157630D01*
X10592765Y-1151991D01*
X10610037Y-1144574D01*
X10626496Y-1135430D01*
X10641939Y-1124712D01*
X10656163Y-1112469D01*
X10669168Y-1098804D01*
X10680649Y-1083970D01*
X10690606Y-1067968D01*
X10698886Y-1051102D01*
X10705439Y-1033475D01*
X10710113Y-1015288D01*
X10712958Y-996696D01*
X10713923Y-977900D01*
X10712958Y-959103D01*
X10710113Y-940511D01*
X10705439Y-922324D01*
X10698886Y-904697D01*
X10690606Y-887831D01*
X10680649Y-871829D01*
X10669168Y-856996D01*
X10656163Y-843330D01*
X10641939Y-831087D01*
X10626496Y-820369D01*
X10610037Y-811225D01*
X10592765Y-803808D01*
X10574832Y-798169D01*
X10556392Y-794410D01*
X10537698Y-792480D01*
X10518902Y-792480D01*
X10508742Y-793546D01*
X10504627Y-793089D01*
X10501071Y-791057D01*
X10498531Y-787755D01*
X10497566Y-783742D01*
X10498277Y-779678D01*
X10500563Y-776224D01*
X10511536Y-765251D01*
X10514838Y-763016D01*
X10518749Y-762254D01*
X10824565Y-762254D01*
X10828274Y-762965D01*
X10831525Y-764997D01*
X10833760Y-768096D01*
X10834674Y-771753D01*
X10834217Y-775563D01*
X10832388Y-778865D01*
X10828832Y-783183D01*
X10821060Y-795426D01*
X10814913Y-808482D01*
X10810443Y-822248D01*
X10807750Y-836472D01*
X10806836Y-850900D01*
X10807750Y-865327D01*
X10810443Y-879551D01*
X10814913Y-893318D01*
X10821060Y-906373D01*
X10828832Y-918616D01*
X10838027Y-929741D01*
X10848594Y-939647D01*
X10860278Y-948131D01*
X10872927Y-955090D01*
X10886389Y-960424D01*
X10900410Y-964031D01*
X10914735Y-965860D01*
X10929213Y-965860D01*
X10943590Y-964031D01*
X10957560Y-960424D01*
X10971022Y-955090D01*
X10983722Y-948131D01*
X10995406Y-939647D01*
X11005921Y-929741D01*
X11015167Y-918616D01*
X11022888Y-906373D01*
X11029086Y-893318D01*
X11033556Y-879551D01*
X11036249Y-865327D01*
X11037163Y-850900D01*
X11036249Y-836472D01*
X11033556Y-822248D01*
X11029086Y-808482D01*
X11022888Y-795426D01*
X11015167Y-783183D01*
X11011611Y-778865D01*
X11009731Y-775563D01*
X11009274Y-771753D01*
X11010239Y-768096D01*
X11012474Y-764997D01*
X11015675Y-762965D01*
X11019434Y-762254D01*
X11078565Y-762254D01*
X11082274Y-762965D01*
X11085525Y-764997D01*
X11087760Y-768096D01*
X11088674Y-771753D01*
X11088217Y-775563D01*
X11086388Y-778865D01*
X11082832Y-783183D01*
X11075060Y-795426D01*
X11068913Y-808482D01*
X11064443Y-822248D01*
X11061750Y-836472D01*
X11060836Y-850900D01*
X11061750Y-865327D01*
X11064443Y-879551D01*
X11068913Y-893318D01*
X11075060Y-906373D01*
X11082832Y-918616D01*
X11092027Y-929741D01*
X11102594Y-939647D01*
X11114278Y-948131D01*
X11126927Y-955090D01*
X11140389Y-960424D01*
X11154410Y-964031D01*
X11168735Y-965860D01*
X11183213Y-965860D01*
X11197590Y-964031D01*
X11211560Y-960424D01*
X11225022Y-955090D01*
X11237722Y-948131D01*
X11249406Y-939647D01*
X11259921Y-929741D01*
X11269167Y-918616D01*
X11276888Y-906373D01*
X11283086Y-893318D01*
X11287556Y-879551D01*
X11290249Y-865327D01*
X11291163Y-850900D01*
X11290249Y-836472D01*
X11287556Y-822248D01*
X11283086Y-808482D01*
X11276888Y-795426D01*
X11269167Y-783183D01*
X11265611Y-778865D01*
X11263731Y-775563D01*
X11263274Y-771753D01*
X11264239Y-768096D01*
X11266474Y-764997D01*
X11269675Y-762965D01*
X11273434Y-762254D01*
X11332565Y-762254D01*
X11336274Y-762965D01*
X11339525Y-764997D01*
X11341760Y-768096D01*
X11342674Y-771753D01*
X11342217Y-775563D01*
X11340388Y-778865D01*
X11336832Y-783183D01*
X11329060Y-795426D01*
X11322913Y-808482D01*
X11318443Y-822248D01*
X11315750Y-836472D01*
X11314836Y-850900D01*
X11315750Y-865327D01*
X11318443Y-879551D01*
X11322913Y-893318D01*
X11329060Y-906373D01*
X11336832Y-918616D01*
X11346027Y-929741D01*
X11356594Y-939647D01*
X11368278Y-948131D01*
X11380927Y-955090D01*
X11394389Y-960424D01*
X11408410Y-964031D01*
X11422735Y-965860D01*
X11437213Y-965860D01*
X11451590Y-964031D01*
X11465560Y-960424D01*
X11479022Y-955090D01*
X11491722Y-948131D01*
X11503406Y-939647D01*
X11513921Y-929741D01*
X11523167Y-918616D01*
X11530888Y-906373D01*
X11537086Y-893318D01*
X11541556Y-879551D01*
X11544249Y-865327D01*
X11545163Y-850900D01*
X11544249Y-836472D01*
X11541556Y-822248D01*
X11537086Y-808482D01*
X11530888Y-795426D01*
X11523167Y-783183D01*
X11519611Y-778865D01*
X11517731Y-775563D01*
X11517274Y-771753D01*
X11518239Y-768096D01*
X11520474Y-764997D01*
X11523675Y-762965D01*
X11527434Y-762254D01*
X11586565Y-762254D01*
X11590274Y-762965D01*
X11593525Y-764997D01*
X11595760Y-768096D01*
X11596674Y-771753D01*
X11596217Y-775563D01*
X11594388Y-778865D01*
X11590832Y-783183D01*
X11583060Y-795426D01*
X11576913Y-808482D01*
X11572443Y-822248D01*
X11569750Y-836472D01*
X11568836Y-850900D01*
X11569750Y-865327D01*
X11572443Y-879551D01*
X11576913Y-893318D01*
X11583060Y-906373D01*
X11590832Y-918616D01*
X11600027Y-929741D01*
X11610594Y-939647D01*
X11622278Y-948131D01*
X11634927Y-955090D01*
X11648389Y-960424D01*
X11662410Y-964031D01*
X11676735Y-965860D01*
X11691213Y-965860D01*
X11705590Y-964031D01*
X11719560Y-960424D01*
X11733022Y-955090D01*
X11741607Y-950417D01*
X11745772Y-949147D01*
X11750090Y-949807D01*
X11753748Y-952195D01*
X11756085Y-955903D01*
X11758726Y-963421D01*
X11763451Y-971905D01*
X11770360Y-980338D01*
X11772036Y-983386D01*
X11772646Y-986790D01*
X11772646Y-2481834D01*
X11771884Y-2485694D01*
X11769648Y-2488996D01*
X11484406Y-2774238D01*
X11481155Y-2776423D01*
X11477345Y-2777236D01*
X11473484Y-2776524D01*
X11465560Y-2773375D01*
X11451590Y-2769768D01*
X11437213Y-2767939D01*
X11422735Y-2767939D01*
X11408410Y-2769768D01*
X11394389Y-2773375D01*
X11380927Y-2778709D01*
X11368278Y-2785668D01*
X11356594Y-2794152D01*
X11346027Y-2804058D01*
X11336832Y-2815183D01*
X11329060Y-2827426D01*
X11322913Y-2840482D01*
X11318443Y-2854248D01*
X11315750Y-2868472D01*
X11314836Y-2882900D01*
X11315750Y-2897327D01*
X11318443Y-2911551D01*
X11322913Y-2925318D01*
X11329060Y-2938373D01*
X11336832Y-2950616D01*
X11340388Y-2954934D01*
X11342217Y-2958236D01*
X11342674Y-2962046D01*
X11341760Y-2965704D01*
X11339525Y-2968802D01*
X11336274Y-2970834D01*
X11332565Y-2971546D01*
X11273434Y-2971546D01*
X11269675Y-2970834D01*
X11266474Y-2968802D01*
X11264239Y-2965704D01*
X11263274Y-2962046D01*
X11263731Y-2958236D01*
X11265611Y-2954934D01*
X11269167Y-2950616D01*
X11276888Y-2938373D01*
X11283086Y-2925318D01*
X11287556Y-2911551D01*
X11290249Y-2897327D01*
X11291163Y-2882900D01*
X11290249Y-2868472D01*
X11287556Y-2854248D01*
X11283086Y-2840482D01*
X11276888Y-2827426D01*
X11269167Y-2815183D01*
X11259921Y-2804058D01*
X11249406Y-2794152D01*
X11237722Y-2785668D01*
X11225022Y-2778709D01*
X11211560Y-2773375D01*
X11197590Y-2769768D01*
X11183213Y-2767939D01*
X11168735Y-2767939D01*
X11154410Y-2769768D01*
X11140389Y-2773375D01*
X11126927Y-2778709D01*
X11114278Y-2785668D01*
X11102594Y-2794152D01*
X11092027Y-2804058D01*
X11082832Y-2815183D01*
X11075060Y-2827426D01*
X11068913Y-2840482D01*
X11064443Y-2854248D01*
X11061750Y-2868472D01*
X11060836Y-2882900D01*
X11061750Y-2897327D01*
X11064443Y-2911551D01*
X11068913Y-2925318D01*
X11075060Y-2938373D01*
X11082832Y-2950616D01*
X11086388Y-2954934D01*
X11088217Y-2958236D01*
X11088674Y-2962046D01*
X11087760Y-2965704D01*
X11085525Y-2968802D01*
X11082274Y-2970834D01*
X11078565Y-2971546D01*
G37*

%LPC*%
G36*
X6394450Y-2885490D02*
G01*
X6394450Y-2838450D01*
X6347358Y-2838450D01*
X6348018Y-2839923D01*
X6354927Y-2851607D01*
X6363360Y-2862326D01*
X6373164Y-2871774D01*
X6384086Y-2879852D01*
G37*
G36*
X6483350Y-2885389D02*
G01*
X6487820Y-2883306D01*
X6499301Y-2875991D01*
X6509664Y-2867202D01*
X6518808Y-2857093D01*
X6526479Y-2845917D01*
X6530289Y-2838450D01*
X6483350Y-2838450D01*
G37*
G36*
X10107218Y-2882290D02*
G01*
X10111079Y-2882290D01*
X10120122Y-2881528D01*
X10128961Y-2879648D01*
X10134142Y-2878074D01*
X10137749Y-2876702D01*
X10145979Y-2872740D01*
X10153599Y-2867863D01*
X10157866Y-2864561D01*
X10160711Y-2862021D01*
X10166908Y-2855468D01*
X10172395Y-2848152D01*
X10176967Y-2840126D01*
X10180472Y-2831795D01*
X10183012Y-2823006D01*
X10184434Y-2813913D01*
X10184739Y-2804871D01*
X10183977Y-2795727D01*
X10182098Y-2786786D01*
X10179202Y-2778252D01*
X10175189Y-2769870D01*
X10170312Y-2762199D01*
X10164521Y-2755188D01*
X10157917Y-2748940D01*
X10150602Y-2743454D01*
X10142575Y-2738882D01*
X10134244Y-2735376D01*
X10125456Y-2732887D01*
X10116362Y-2731465D01*
X10107371Y-2731109D01*
X10098176Y-2731871D01*
X10089235Y-2733751D01*
X10080701Y-2736646D01*
X10072370Y-2740660D01*
X10064750Y-2745536D01*
X10057638Y-2751378D01*
X10051288Y-2758033D01*
X10045903Y-2765247D01*
X10041382Y-2773172D01*
X10039146Y-2778099D01*
X10037775Y-2781706D01*
X10035336Y-2790393D01*
X10033914Y-2799384D01*
X10033558Y-2804769D01*
X10033558Y-2808630D01*
X10034371Y-2817672D01*
X10036200Y-2826512D01*
X10037775Y-2831693D01*
X10039146Y-2835300D01*
X10043109Y-2843479D01*
X10047986Y-2851099D01*
X10053726Y-2858160D01*
X10060533Y-2864612D01*
X10067696Y-2869946D01*
X10075621Y-2874467D01*
X10084155Y-2878074D01*
X10092842Y-2880512D01*
X10101834Y-2881934D01*
G37*
G36*
X8486800Y-2881884D02*
G01*
X9113570Y-2881884D01*
X9119819Y-2881172D01*
X9125254Y-2879293D01*
X9130080Y-2876245D01*
X9134144Y-2872181D01*
X9137192Y-2867355D01*
X9139072Y-2861919D01*
X9139783Y-2855671D01*
X9139783Y-2688894D01*
X9139072Y-2682646D01*
X9137192Y-2677210D01*
X9134144Y-2672384D01*
X9130080Y-2668320D01*
X9125254Y-2665272D01*
X9119819Y-2663393D01*
X9113570Y-2662682D01*
X8486800Y-2662682D01*
X8480552Y-2663393D01*
X8475116Y-2665272D01*
X8470290Y-2668320D01*
X8466226Y-2672384D01*
X8463178Y-2677210D01*
X8461298Y-2682646D01*
X8460587Y-2688894D01*
X8460587Y-2855671D01*
X8461298Y-2861919D01*
X8463178Y-2867355D01*
X8466226Y-2872181D01*
X8470290Y-2876245D01*
X8475116Y-2879293D01*
X8480552Y-2881172D01*
G37*
G36*
X9210548Y-2849626D02*
G01*
X9492132Y-2849626D01*
X9498380Y-2848914D01*
X9503816Y-2847035D01*
X9508642Y-2843987D01*
X9512706Y-2839923D01*
X9515754Y-2835097D01*
X9517634Y-2829661D01*
X9518345Y-2823413D01*
X9518345Y-2707182D01*
X9517634Y-2700934D01*
X9515754Y-2695498D01*
X9512706Y-2690672D01*
X9508642Y-2686608D01*
X9503816Y-2683560D01*
X9498380Y-2681681D01*
X9492132Y-2680970D01*
X9210548Y-2680970D01*
X9204299Y-2681681D01*
X9198864Y-2683560D01*
X9194038Y-2686608D01*
X9189974Y-2690672D01*
X9186926Y-2695498D01*
X9185046Y-2700934D01*
X9184335Y-2707182D01*
X9184335Y-2823413D01*
X9185046Y-2829661D01*
X9186926Y-2835097D01*
X9189974Y-2839923D01*
X9194038Y-2843987D01*
X9198864Y-2847035D01*
X9204299Y-2848914D01*
G37*
G36*
X6483350Y-2749550D02*
G01*
X6530289Y-2749550D01*
X6526479Y-2742082D01*
X6518808Y-2730906D01*
X6509664Y-2720797D01*
X6499301Y-2712008D01*
X6487820Y-2704693D01*
X6483350Y-2702610D01*
G37*
G36*
X6347358Y-2749550D02*
G01*
X6394450Y-2749550D01*
X6394450Y-2702509D01*
X6384086Y-2708148D01*
X6373164Y-2716225D01*
X6363360Y-2725674D01*
X6354927Y-2736392D01*
X6348018Y-2748076D01*
G37*
G36*
X7511135Y-2312060D02*
G01*
X7525613Y-2312060D01*
X7539990Y-2310231D01*
X7553959Y-2306624D01*
X7567422Y-2301290D01*
X7580122Y-2294331D01*
X7591806Y-2285847D01*
X7602321Y-2275941D01*
X7611567Y-2264816D01*
X7619288Y-2252573D01*
X7625486Y-2239518D01*
X7629956Y-2225751D01*
X7632649Y-2211527D01*
X7633563Y-2197100D01*
X7632649Y-2182672D01*
X7629956Y-2168448D01*
X7625486Y-2154682D01*
X7619288Y-2141626D01*
X7611567Y-2129383D01*
X7602321Y-2118258D01*
X7591806Y-2108352D01*
X7580122Y-2099868D01*
X7567422Y-2092909D01*
X7553959Y-2087575D01*
X7539990Y-2083968D01*
X7525613Y-2082139D01*
X7511135Y-2082139D01*
X7496809Y-2083968D01*
X7482789Y-2087575D01*
X7469327Y-2092909D01*
X7456678Y-2099868D01*
X7444994Y-2108352D01*
X7434427Y-2118258D01*
X7425232Y-2129383D01*
X7417460Y-2141626D01*
X7411313Y-2154682D01*
X7406843Y-2168448D01*
X7404150Y-2182672D01*
X7403236Y-2197100D01*
X7404150Y-2211527D01*
X7406843Y-2225751D01*
X7411313Y-2239518D01*
X7417460Y-2252573D01*
X7425232Y-2264816D01*
X7434427Y-2275941D01*
X7444994Y-2285847D01*
X7456678Y-2294331D01*
X7469327Y-2301290D01*
X7482789Y-2306624D01*
X7496809Y-2310231D01*
G37*
G36*
X9289135Y-2312060D02*
G01*
X9303613Y-2312060D01*
X9317990Y-2310231D01*
X9331960Y-2306624D01*
X9345422Y-2301290D01*
X9358122Y-2294331D01*
X9369806Y-2285847D01*
X9380321Y-2275941D01*
X9389567Y-2264816D01*
X9397288Y-2252573D01*
X9403486Y-2239518D01*
X9407956Y-2225751D01*
X9410649Y-2211527D01*
X9411563Y-2197100D01*
X9410649Y-2182672D01*
X9407956Y-2168448D01*
X9403486Y-2154682D01*
X9397288Y-2141626D01*
X9389567Y-2129383D01*
X9380321Y-2118258D01*
X9369806Y-2108352D01*
X9358122Y-2099868D01*
X9345422Y-2092909D01*
X9331960Y-2087575D01*
X9317990Y-2083968D01*
X9303613Y-2082139D01*
X9289135Y-2082139D01*
X9274810Y-2083968D01*
X9260789Y-2087575D01*
X9247327Y-2092909D01*
X9234678Y-2099868D01*
X9222994Y-2108352D01*
X9212427Y-2118258D01*
X9203232Y-2129383D01*
X9195460Y-2141626D01*
X9189313Y-2154682D01*
X9184843Y-2168448D01*
X9182150Y-2182672D01*
X9181236Y-2197100D01*
X9182150Y-2211527D01*
X9184843Y-2225751D01*
X9189313Y-2239518D01*
X9195460Y-2252573D01*
X9203232Y-2264816D01*
X9212427Y-2275941D01*
X9222994Y-2285847D01*
X9234678Y-2294331D01*
X9247327Y-2301290D01*
X9260789Y-2306624D01*
X9274810Y-2310231D01*
G37*
G36*
X6241135Y-2312060D02*
G01*
X6255613Y-2312060D01*
X6269990Y-2310231D01*
X6283960Y-2306624D01*
X6297422Y-2301290D01*
X6310122Y-2294331D01*
X6321806Y-2285847D01*
X6332321Y-2275941D01*
X6341567Y-2264816D01*
X6349288Y-2252573D01*
X6355486Y-2239518D01*
X6359956Y-2225751D01*
X6362649Y-2211527D01*
X6363563Y-2197100D01*
X6362649Y-2182672D01*
X6359956Y-2168448D01*
X6355486Y-2154682D01*
X6349288Y-2141626D01*
X6341567Y-2129383D01*
X6332321Y-2118258D01*
X6321806Y-2108352D01*
X6310122Y-2099868D01*
X6297422Y-2092909D01*
X6283960Y-2087575D01*
X6269990Y-2083968D01*
X6255613Y-2082139D01*
X6241135Y-2082139D01*
X6226810Y-2083968D01*
X6212789Y-2087575D01*
X6199327Y-2092909D01*
X6186678Y-2099868D01*
X6174994Y-2108352D01*
X6164427Y-2118258D01*
X6155232Y-2129383D01*
X6147460Y-2141626D01*
X6141313Y-2154682D01*
X6136843Y-2168448D01*
X6134150Y-2182672D01*
X6133236Y-2197100D01*
X6134150Y-2211527D01*
X6136843Y-2225751D01*
X6141313Y-2239518D01*
X6147460Y-2252573D01*
X6155232Y-2264816D01*
X6164427Y-2275941D01*
X6174994Y-2285847D01*
X6186678Y-2294331D01*
X6199327Y-2301290D01*
X6212789Y-2306624D01*
X6226810Y-2310231D01*
G37*
G36*
X7765135Y-2312060D02*
G01*
X7779613Y-2312060D01*
X7793990Y-2310231D01*
X7807959Y-2306624D01*
X7821422Y-2301290D01*
X7834122Y-2294331D01*
X7845806Y-2285847D01*
X7856321Y-2275941D01*
X7865567Y-2264816D01*
X7873288Y-2252573D01*
X7879486Y-2239518D01*
X7883956Y-2225751D01*
X7886649Y-2211527D01*
X7887563Y-2197100D01*
X7886649Y-2182672D01*
X7883956Y-2168448D01*
X7879486Y-2154682D01*
X7873288Y-2141626D01*
X7865567Y-2129383D01*
X7856321Y-2118258D01*
X7845806Y-2108352D01*
X7834122Y-2099868D01*
X7821422Y-2092909D01*
X7807959Y-2087575D01*
X7793990Y-2083968D01*
X7779613Y-2082139D01*
X7765135Y-2082139D01*
X7750809Y-2083968D01*
X7736789Y-2087575D01*
X7723327Y-2092909D01*
X7710678Y-2099868D01*
X7698994Y-2108352D01*
X7688427Y-2118258D01*
X7679232Y-2129383D01*
X7671460Y-2141626D01*
X7665313Y-2154682D01*
X7660843Y-2168448D01*
X7658150Y-2182672D01*
X7657236Y-2197100D01*
X7658150Y-2211527D01*
X7660843Y-2225751D01*
X7665313Y-2239518D01*
X7671460Y-2252573D01*
X7679232Y-2264816D01*
X7688427Y-2275941D01*
X7698994Y-2285847D01*
X7710678Y-2294331D01*
X7723327Y-2301290D01*
X7736789Y-2306624D01*
X7750809Y-2310231D01*
G37*
G36*
X5987135Y-2312060D02*
G01*
X6001613Y-2312060D01*
X6015990Y-2310231D01*
X6029960Y-2306624D01*
X6043422Y-2301290D01*
X6056122Y-2294331D01*
X6067806Y-2285847D01*
X6078321Y-2275941D01*
X6087567Y-2264816D01*
X6095288Y-2252573D01*
X6101486Y-2239518D01*
X6105956Y-2225751D01*
X6108649Y-2211527D01*
X6109563Y-2197100D01*
X6108649Y-2182672D01*
X6105956Y-2168448D01*
X6101486Y-2154682D01*
X6095288Y-2141626D01*
X6087567Y-2129383D01*
X6078321Y-2118258D01*
X6067806Y-2108352D01*
X6056122Y-2099868D01*
X6043422Y-2092909D01*
X6029960Y-2087575D01*
X6015990Y-2083968D01*
X6001613Y-2082139D01*
X5987135Y-2082139D01*
X5972810Y-2083968D01*
X5958789Y-2087575D01*
X5945327Y-2092909D01*
X5932678Y-2099868D01*
X5920994Y-2108352D01*
X5910427Y-2118258D01*
X5901232Y-2129383D01*
X5893460Y-2141626D01*
X5887313Y-2154682D01*
X5882843Y-2168448D01*
X5880150Y-2182672D01*
X5879236Y-2197100D01*
X5880150Y-2211527D01*
X5882843Y-2225751D01*
X5887313Y-2239518D01*
X5893460Y-2252573D01*
X5901232Y-2264816D01*
X5910427Y-2275941D01*
X5920994Y-2285847D01*
X5932678Y-2294331D01*
X5945327Y-2301290D01*
X5958789Y-2306624D01*
X5972810Y-2310231D01*
G37*
G36*
X6495135Y-2312060D02*
G01*
X6509613Y-2312060D01*
X6523990Y-2310231D01*
X6537959Y-2306624D01*
X6551422Y-2301290D01*
X6564122Y-2294331D01*
X6575806Y-2285847D01*
X6586321Y-2275941D01*
X6595567Y-2264816D01*
X6603288Y-2252573D01*
X6609486Y-2239518D01*
X6613956Y-2225751D01*
X6616649Y-2211527D01*
X6617563Y-2197100D01*
X6616649Y-2182672D01*
X6613956Y-2168448D01*
X6609486Y-2154682D01*
X6603288Y-2141626D01*
X6595567Y-2129383D01*
X6586321Y-2118258D01*
X6575806Y-2108352D01*
X6564122Y-2099868D01*
X6551422Y-2092909D01*
X6537959Y-2087575D01*
X6523990Y-2083968D01*
X6509613Y-2082139D01*
X6495135Y-2082139D01*
X6480810Y-2083968D01*
X6466789Y-2087575D01*
X6453327Y-2092909D01*
X6440678Y-2099868D01*
X6428994Y-2108352D01*
X6418427Y-2118258D01*
X6409232Y-2129383D01*
X6401460Y-2141626D01*
X6395313Y-2154682D01*
X6390843Y-2168448D01*
X6388150Y-2182672D01*
X6387236Y-2197100D01*
X6388150Y-2211527D01*
X6390843Y-2225751D01*
X6395313Y-2239518D01*
X6401460Y-2252573D01*
X6409232Y-2264816D01*
X6418427Y-2275941D01*
X6428994Y-2285847D01*
X6440678Y-2294331D01*
X6453327Y-2301290D01*
X6466789Y-2306624D01*
X6480810Y-2310231D01*
G37*
G36*
X9543135Y-2312060D02*
G01*
X9557613Y-2312060D01*
X9571990Y-2310231D01*
X9585960Y-2306624D01*
X9599422Y-2301290D01*
X9612122Y-2294331D01*
X9623806Y-2285847D01*
X9634321Y-2275941D01*
X9643567Y-2264816D01*
X9651288Y-2252573D01*
X9657486Y-2239518D01*
X9661956Y-2225751D01*
X9664649Y-2211527D01*
X9665563Y-2197100D01*
X9664649Y-2182672D01*
X9661956Y-2168448D01*
X9657486Y-2154682D01*
X9651288Y-2141626D01*
X9643567Y-2129383D01*
X9634321Y-2118258D01*
X9623806Y-2108352D01*
X9612122Y-2099868D01*
X9599422Y-2092909D01*
X9585960Y-2087575D01*
X9571990Y-2083968D01*
X9557613Y-2082139D01*
X9543135Y-2082139D01*
X9528810Y-2083968D01*
X9514789Y-2087575D01*
X9501327Y-2092909D01*
X9488678Y-2099868D01*
X9476994Y-2108352D01*
X9466427Y-2118258D01*
X9457232Y-2129383D01*
X9449460Y-2141626D01*
X9443313Y-2154682D01*
X9438843Y-2168448D01*
X9436150Y-2182672D01*
X9435236Y-2197100D01*
X9436150Y-2211527D01*
X9438843Y-2225751D01*
X9443313Y-2239518D01*
X9449460Y-2252573D01*
X9457232Y-2264816D01*
X9466427Y-2275941D01*
X9476994Y-2285847D01*
X9488678Y-2294331D01*
X9501327Y-2301290D01*
X9514789Y-2306624D01*
X9528810Y-2310231D01*
G37*
G36*
X7257135Y-2312060D02*
G01*
X7271613Y-2312060D01*
X7285990Y-2310231D01*
X7299959Y-2306624D01*
X7313422Y-2301290D01*
X7326122Y-2294331D01*
X7337806Y-2285847D01*
X7348321Y-2275941D01*
X7357567Y-2264816D01*
X7365288Y-2252573D01*
X7371486Y-2239518D01*
X7375956Y-2225751D01*
X7378649Y-2211527D01*
X7379563Y-2197100D01*
X7378649Y-2182672D01*
X7375956Y-2168448D01*
X7371486Y-2154682D01*
X7365288Y-2141626D01*
X7357567Y-2129383D01*
X7348321Y-2118258D01*
X7337806Y-2108352D01*
X7326122Y-2099868D01*
X7313422Y-2092909D01*
X7299959Y-2087575D01*
X7285990Y-2083968D01*
X7271613Y-2082139D01*
X7257135Y-2082139D01*
X7242809Y-2083968D01*
X7228789Y-2087575D01*
X7215327Y-2092909D01*
X7202678Y-2099868D01*
X7190994Y-2108352D01*
X7180427Y-2118258D01*
X7171232Y-2129383D01*
X7163460Y-2141626D01*
X7157313Y-2154682D01*
X7152843Y-2168448D01*
X7150150Y-2182672D01*
X7149236Y-2197100D01*
X7150150Y-2211527D01*
X7152843Y-2225751D01*
X7157313Y-2239518D01*
X7163460Y-2252573D01*
X7171232Y-2264816D01*
X7180427Y-2275941D01*
X7190994Y-2285847D01*
X7202678Y-2294331D01*
X7215327Y-2301290D01*
X7228789Y-2306624D01*
X7242809Y-2310231D01*
G37*
G36*
X8273135Y-2312060D02*
G01*
X8287613Y-2312060D01*
X8301990Y-2310231D01*
X8315959Y-2306624D01*
X8329422Y-2301290D01*
X8342122Y-2294331D01*
X8353806Y-2285847D01*
X8364321Y-2275941D01*
X8373567Y-2264816D01*
X8381288Y-2252573D01*
X8387486Y-2239518D01*
X8391956Y-2225751D01*
X8394649Y-2211527D01*
X8395563Y-2197100D01*
X8394649Y-2182672D01*
X8391956Y-2168448D01*
X8387486Y-2154682D01*
X8381288Y-2141626D01*
X8373567Y-2129383D01*
X8364321Y-2118258D01*
X8353806Y-2108352D01*
X8342122Y-2099868D01*
X8329422Y-2092909D01*
X8315959Y-2087575D01*
X8301990Y-2083968D01*
X8287613Y-2082139D01*
X8273135Y-2082139D01*
X8258809Y-2083968D01*
X8244789Y-2087575D01*
X8231327Y-2092909D01*
X8218678Y-2099868D01*
X8206994Y-2108352D01*
X8196427Y-2118258D01*
X8187232Y-2129383D01*
X8179460Y-2141626D01*
X8173313Y-2154682D01*
X8168843Y-2168448D01*
X8166150Y-2182672D01*
X8165236Y-2197100D01*
X8166150Y-2211527D01*
X8168843Y-2225751D01*
X8173313Y-2239518D01*
X8179460Y-2252573D01*
X8187232Y-2264816D01*
X8196427Y-2275941D01*
X8206994Y-2285847D01*
X8218678Y-2294331D01*
X8231327Y-2301290D01*
X8244789Y-2306624D01*
X8258809Y-2310231D01*
G37*
G36*
X8019135Y-2312060D02*
G01*
X8033613Y-2312060D01*
X8047990Y-2310231D01*
X8061959Y-2306624D01*
X8075422Y-2301290D01*
X8088122Y-2294331D01*
X8099806Y-2285847D01*
X8110321Y-2275941D01*
X8119567Y-2264816D01*
X8127288Y-2252573D01*
X8133486Y-2239518D01*
X8137956Y-2225751D01*
X8140649Y-2211527D01*
X8141563Y-2197100D01*
X8140649Y-2182672D01*
X8137956Y-2168448D01*
X8133486Y-2154682D01*
X8127288Y-2141626D01*
X8119567Y-2129383D01*
X8110321Y-2118258D01*
X8099806Y-2108352D01*
X8088122Y-2099868D01*
X8075422Y-2092909D01*
X8061959Y-2087575D01*
X8047990Y-2083968D01*
X8033613Y-2082139D01*
X8019135Y-2082139D01*
X8004809Y-2083968D01*
X7990789Y-2087575D01*
X7977327Y-2092909D01*
X7964678Y-2099868D01*
X7952994Y-2108352D01*
X7942427Y-2118258D01*
X7933232Y-2129383D01*
X7925460Y-2141626D01*
X7919313Y-2154682D01*
X7914843Y-2168448D01*
X7912150Y-2182672D01*
X7911236Y-2197100D01*
X7912150Y-2211527D01*
X7914843Y-2225751D01*
X7919313Y-2239518D01*
X7925460Y-2252573D01*
X7933232Y-2264816D01*
X7942427Y-2275941D01*
X7952994Y-2285847D01*
X7964678Y-2294331D01*
X7977327Y-2301290D01*
X7990789Y-2306624D01*
X8004809Y-2310231D01*
G37*
G36*
X9035135Y-2312060D02*
G01*
X9049613Y-2312060D01*
X9063990Y-2310231D01*
X9077960Y-2306624D01*
X9091422Y-2301290D01*
X9104122Y-2294331D01*
X9115806Y-2285847D01*
X9126321Y-2275941D01*
X9135567Y-2264816D01*
X9143288Y-2252573D01*
X9149486Y-2239518D01*
X9153956Y-2225751D01*
X9156649Y-2211527D01*
X9157563Y-2197100D01*
X9156649Y-2182672D01*
X9153956Y-2168448D01*
X9149486Y-2154682D01*
X9143288Y-2141626D01*
X9135567Y-2129383D01*
X9126321Y-2118258D01*
X9115806Y-2108352D01*
X9104122Y-2099868D01*
X9091422Y-2092909D01*
X9077960Y-2087575D01*
X9063990Y-2083968D01*
X9049613Y-2082139D01*
X9035135Y-2082139D01*
X9020810Y-2083968D01*
X9006789Y-2087575D01*
X8993327Y-2092909D01*
X8980678Y-2099868D01*
X8968994Y-2108352D01*
X8958427Y-2118258D01*
X8949232Y-2129383D01*
X8941460Y-2141626D01*
X8935313Y-2154682D01*
X8930843Y-2168448D01*
X8928150Y-2182672D01*
X8927236Y-2197100D01*
X8928150Y-2211527D01*
X8930843Y-2225751D01*
X8935313Y-2239518D01*
X8941460Y-2252573D01*
X8949232Y-2264816D01*
X8958427Y-2275941D01*
X8968994Y-2285847D01*
X8980678Y-2294331D01*
X8993327Y-2301290D01*
X9006789Y-2306624D01*
X9020810Y-2310231D01*
G37*
G36*
X8527135Y-2312060D02*
G01*
X8541613Y-2312060D01*
X8555990Y-2310231D01*
X8569960Y-2306624D01*
X8583422Y-2301290D01*
X8596122Y-2294331D01*
X8607806Y-2285847D01*
X8618321Y-2275941D01*
X8627567Y-2264816D01*
X8635288Y-2252573D01*
X8641486Y-2239518D01*
X8645956Y-2225751D01*
X8648649Y-2211527D01*
X8649563Y-2197100D01*
X8648649Y-2182672D01*
X8645956Y-2168448D01*
X8641486Y-2154682D01*
X8635288Y-2141626D01*
X8627567Y-2129383D01*
X8618321Y-2118258D01*
X8607806Y-2108352D01*
X8596122Y-2099868D01*
X8583422Y-2092909D01*
X8569960Y-2087575D01*
X8555990Y-2083968D01*
X8541613Y-2082139D01*
X8527135Y-2082139D01*
X8512810Y-2083968D01*
X8498789Y-2087575D01*
X8485327Y-2092909D01*
X8472678Y-2099868D01*
X8460994Y-2108352D01*
X8450427Y-2118258D01*
X8441232Y-2129383D01*
X8433460Y-2141626D01*
X8427313Y-2154682D01*
X8422843Y-2168448D01*
X8420150Y-2182672D01*
X8419236Y-2197100D01*
X8420150Y-2211527D01*
X8422843Y-2225751D01*
X8427313Y-2239518D01*
X8433460Y-2252573D01*
X8441232Y-2264816D01*
X8450427Y-2275941D01*
X8460994Y-2285847D01*
X8472678Y-2294331D01*
X8485327Y-2301290D01*
X8498789Y-2306624D01*
X8512810Y-2310231D01*
G37*
G36*
X8839504Y-2300173D02*
G01*
X8850122Y-2294331D01*
X8861806Y-2285847D01*
X8872321Y-2275941D01*
X8881567Y-2264816D01*
X8889288Y-2252573D01*
X8891371Y-2248204D01*
X8839504Y-2248204D01*
G37*
G36*
X5689244Y-2300173D02*
G01*
X5689244Y-2248204D01*
X5637428Y-2248204D01*
X5639460Y-2252573D01*
X5647232Y-2264816D01*
X5656427Y-2275941D01*
X5666994Y-2285847D01*
X5678678Y-2294331D01*
G37*
G36*
X8737295Y-2300173D02*
G01*
X8737295Y-2248204D01*
X8685428Y-2248204D01*
X8687460Y-2252573D01*
X8695232Y-2264816D01*
X8704427Y-2275941D01*
X8714994Y-2285847D01*
X8726678Y-2294331D01*
G37*
G36*
X5791504Y-2300173D02*
G01*
X5802122Y-2294331D01*
X5813806Y-2285847D01*
X5824321Y-2275941D01*
X5833567Y-2264816D01*
X5841288Y-2252573D01*
X5843371Y-2248204D01*
X5791504Y-2248204D01*
G37*
G36*
X9926320Y-2286812D02*
G01*
X9946640Y-2286355D01*
X9966807Y-2283968D01*
X9986670Y-2279700D01*
X10006076Y-2273604D01*
X10024770Y-2265730D01*
X10042702Y-2256129D01*
X10059619Y-2244902D01*
X10075418Y-2232101D01*
X10089946Y-2217877D01*
X10103104Y-2202383D01*
X10114737Y-2185720D01*
X10124744Y-2168042D01*
X10133076Y-2149500D01*
X10139629Y-2130298D01*
X10144353Y-2110536D01*
X10147198Y-2090420D01*
X10148163Y-2070100D01*
X10147198Y-2049780D01*
X10144353Y-2029663D01*
X10139629Y-2009902D01*
X10133076Y-1990699D01*
X10124744Y-1972157D01*
X10114737Y-1954479D01*
X10103104Y-1937816D01*
X10089946Y-1922322D01*
X10075418Y-1908098D01*
X10059619Y-1895297D01*
X10042702Y-1884070D01*
X10024770Y-1874469D01*
X10006076Y-1866595D01*
X9986670Y-1860499D01*
X9966807Y-1856232D01*
X9946640Y-1853844D01*
X9926320Y-1853387D01*
X9906050Y-1854809D01*
X9885984Y-1858111D01*
X9866325Y-1863293D01*
X9847275Y-1870303D01*
X9828936Y-1879092D01*
X9811461Y-1889506D01*
X9795103Y-1901545D01*
X9779914Y-1915007D01*
X9766046Y-1929892D01*
X9753650Y-1945995D01*
X9742830Y-1963166D01*
X9733635Y-1981301D01*
X9726168Y-2000199D01*
X9720529Y-2019757D01*
X9716770Y-2039721D01*
X9714839Y-2059939D01*
X9714839Y-2080260D01*
X9716770Y-2100478D01*
X9720529Y-2120442D01*
X9726168Y-2140000D01*
X9733635Y-2158898D01*
X9742830Y-2177034D01*
X9753650Y-2194204D01*
X9766046Y-2210308D01*
X9779914Y-2225192D01*
X9795103Y-2238654D01*
X9811461Y-2250694D01*
X9828936Y-2261108D01*
X9847275Y-2269896D01*
X9866325Y-2276906D01*
X9885984Y-2282088D01*
X9906050Y-2285390D01*
G37*
G36*
X8839504Y-2145995D02*
G01*
X8891371Y-2145995D01*
X8889288Y-2141626D01*
X8881567Y-2129383D01*
X8872321Y-2118258D01*
X8861806Y-2108352D01*
X8850122Y-2099868D01*
X8839504Y-2094026D01*
G37*
G36*
X8685428Y-2145995D02*
G01*
X8737295Y-2145995D01*
X8737295Y-2094026D01*
X8726678Y-2099868D01*
X8714994Y-2108352D01*
X8704427Y-2118258D01*
X8695232Y-2129383D01*
X8687460Y-2141626D01*
G37*
G36*
X5791504Y-2145995D02*
G01*
X5843371Y-2145995D01*
X5841288Y-2141626D01*
X5833567Y-2129383D01*
X5824321Y-2118258D01*
X5813806Y-2108352D01*
X5802122Y-2099868D01*
X5791504Y-2094026D01*
G37*
G36*
X5637428Y-2145995D02*
G01*
X5689244Y-2145995D01*
X5689244Y-2094026D01*
X5678678Y-2099868D01*
X5666994Y-2108352D01*
X5656427Y-2118258D01*
X5647232Y-2129383D01*
X5639460Y-2141626D01*
G37*

%LPD*%
G36*
X3566160Y-2971546D02*
G01*
X3562248Y-2970784D01*
X3558946Y-2968548D01*
X3556762Y-2965297D01*
X3556000Y-2961386D01*
X3556000Y-1787906D01*
X3556914Y-1783689D01*
X3559454Y-1780235D01*
X3563213Y-1778152D01*
X3567531Y-1777847D01*
X3571544Y-1779320D01*
X3574338Y-1781048D01*
X3579774Y-1782927D01*
X3586022Y-1783638D01*
X4084878Y-1783638D01*
X4091127Y-1782927D01*
X4096562Y-1781048D01*
X4101388Y-1778000D01*
X4105452Y-1773936D01*
X4108500Y-1769110D01*
X4110380Y-1763674D01*
X4111091Y-1757425D01*
X4111091Y-1607312D01*
X4111904Y-1603400D01*
X4114088Y-1600149D01*
X4117390Y-1597914D01*
X4121251Y-1597152D01*
X4416704Y-1597152D01*
X4420616Y-1597914D01*
X4423867Y-1600098D01*
X4426102Y-1603400D01*
X4426864Y-1607261D01*
X4429404Y-2410104D01*
X4429150Y-2412288D01*
X4427220Y-2421128D01*
X4426305Y-2434183D01*
X4426305Y-2540762D01*
X4425543Y-2544673D01*
X4423308Y-2547924D01*
X4420057Y-2550160D01*
X4416145Y-2550922D01*
X3910279Y-2550922D01*
X3897223Y-2551836D01*
X3884828Y-2554579D01*
X3872890Y-2558999D01*
X3861714Y-2565095D01*
X3851554Y-2572715D01*
X3842562Y-2581706D01*
X3834942Y-2591866D01*
X3828846Y-2603042D01*
X3824427Y-2614980D01*
X3821684Y-2627376D01*
X3820769Y-2640431D01*
X3820769Y-2709164D01*
X3820007Y-2713075D01*
X3817772Y-2716377D01*
X3814521Y-2718562D01*
X3810609Y-2719324D01*
X3785565Y-2719324D01*
X3779265Y-2720035D01*
X3773881Y-2721914D01*
X3769055Y-2724962D01*
X3764991Y-2729026D01*
X3761943Y-2733903D01*
X3760012Y-2739288D01*
X3759352Y-2745587D01*
X3759352Y-2823972D01*
X3758590Y-2827832D01*
X3756406Y-2831084D01*
X3753154Y-2833319D01*
X3749344Y-2834132D01*
X3745484Y-2833420D01*
X3742182Y-2831287D01*
X3739896Y-2828086D01*
X3736340Y-2820670D01*
X3731412Y-2812999D01*
X3725621Y-2805988D01*
X3719017Y-2799740D01*
X3711701Y-2794254D01*
X3703675Y-2789682D01*
X3695395Y-2786176D01*
X3686556Y-2783687D01*
X3677513Y-2782265D01*
X3668471Y-2781909D01*
X3659327Y-2782671D01*
X3650335Y-2784551D01*
X3641801Y-2787446D01*
X3633470Y-2791460D01*
X3625850Y-2796336D01*
X3618737Y-2802178D01*
X3612438Y-2808833D01*
X3607054Y-2816047D01*
X3602482Y-2823972D01*
X3600246Y-2828899D01*
X3598926Y-2832506D01*
X3596436Y-2841193D01*
X3595014Y-2850184D01*
X3594658Y-2855569D01*
X3594658Y-2859430D01*
X3595471Y-2868472D01*
X3597300Y-2877312D01*
X3600246Y-2886100D01*
X3604209Y-2894279D01*
X3609086Y-2901899D01*
X3614877Y-2908960D01*
X3621633Y-2915412D01*
X3628847Y-2920746D01*
X3636772Y-2925267D01*
X3641699Y-2927502D01*
X3645306Y-2928874D01*
X3653993Y-2931312D01*
X3662934Y-2932734D01*
X3668318Y-2933090D01*
X3672230Y-2933090D01*
X3681222Y-2932328D01*
X3690061Y-2930448D01*
X3695242Y-2928874D01*
X3698849Y-2927502D01*
X3707079Y-2923540D01*
X3714699Y-2918663D01*
X3718966Y-2915361D01*
X3721862Y-2912821D01*
X3728059Y-2906268D01*
X3733546Y-2898952D01*
X3738118Y-2890926D01*
X3739896Y-2886913D01*
X3742182Y-2883712D01*
X3745484Y-2881579D01*
X3749344Y-2880868D01*
X3753154Y-2881680D01*
X3756406Y-2883916D01*
X3758590Y-2887167D01*
X3759352Y-2891028D01*
X3759352Y-2961386D01*
X3758539Y-2965297D01*
X3756355Y-2968548D01*
X3753053Y-2970784D01*
X3749192Y-2971546D01*
G37*

%LPD*%
D13*
X9220161Y-2716784D02*
G01*
X9256991Y-2813812D01*
X9294075Y-2716784D02*
G01*
X9256991Y-2813812D01*
X9324555Y-2735326D02*
G01*
X9333699Y-2730754D01*
X9347669Y-2716784D01*
X9347669Y-2813812D01*
X9382721Y-2790697D02*
G01*
X9378149Y-2795270D01*
X9382721Y-2800095D01*
X9387293Y-2795270D01*
X9382721Y-2790697D01*
X9422345Y-2739897D02*
G01*
X9422345Y-2735326D01*
X9427171Y-2726181D01*
X9431743Y-2721610D01*
X9440887Y-2716784D01*
X9459429Y-2716784D01*
X9468573Y-2721610D01*
X9473145Y-2726181D01*
X9477971Y-2735326D01*
X9477971Y-2744470D01*
X9473145Y-2753868D01*
X9464001Y-2767584D01*
X9417773Y-2813812D01*
X9482543Y-2813812D01*
X8524100Y-2716784D02*
G01*
X8510130Y-2721610D01*
X8500986Y-2735326D01*
X8496414Y-2758439D01*
X8496414Y-2772410D01*
X8500986Y-2795270D01*
X8510130Y-2809239D01*
X8524100Y-2813812D01*
X8533244Y-2813812D01*
X8547214Y-2809239D01*
X8556358Y-2795270D01*
X8560930Y-2772410D01*
X8560930Y-2758439D01*
X8556358Y-2735326D01*
X8547214Y-2721610D01*
X8533244Y-2716784D01*
X8524100Y-2716784D01*
X8646782Y-2730754D02*
G01*
X8642210Y-2721610D01*
X8628494Y-2716784D01*
X8619096Y-2716784D01*
X8605380Y-2721610D01*
X8595982Y-2735326D01*
X8591410Y-2758439D01*
X8591410Y-2781554D01*
X8595982Y-2800095D01*
X8605380Y-2809239D01*
X8619096Y-2813812D01*
X8623668Y-2813812D01*
X8637638Y-2809239D01*
X8646782Y-2800095D01*
X8651354Y-2786126D01*
X8651354Y-2781554D01*
X8646782Y-2767584D01*
X8637638Y-2758439D01*
X8623668Y-2753868D01*
X8619096Y-2753868D01*
X8605380Y-2758439D01*
X8595982Y-2767584D01*
X8591410Y-2781554D01*
X8765146Y-2698495D02*
G01*
X8681834Y-2846070D01*
X8800198Y-2739897D02*
G01*
X8800198Y-2735326D01*
X8804770Y-2726181D01*
X8809342Y-2721610D01*
X8818740Y-2716784D01*
X8837028Y-2716784D01*
X8846426Y-2721610D01*
X8850998Y-2726181D01*
X8855570Y-2735326D01*
X8855570Y-2744470D01*
X8850998Y-2753868D01*
X8841854Y-2767584D01*
X8795626Y-2813812D01*
X8860142Y-2813812D01*
X8918308Y-2716784D02*
G01*
X8904592Y-2721610D01*
X8895194Y-2735326D01*
X8890622Y-2758439D01*
X8890622Y-2772410D01*
X8895194Y-2795270D01*
X8904592Y-2809239D01*
X8918308Y-2813812D01*
X8927706Y-2813812D01*
X8941422Y-2809239D01*
X8950820Y-2795270D01*
X8955392Y-2772410D01*
X8955392Y-2758439D01*
X8950820Y-2735326D01*
X8941422Y-2721610D01*
X8927706Y-2716784D01*
X8918308Y-2716784D01*
X8990444Y-2739897D02*
G01*
X8990444Y-2735326D01*
X8995016Y-2726181D01*
X8999588Y-2721610D01*
X9008986Y-2716784D01*
X9027274Y-2716784D01*
X9036672Y-2721610D01*
X9041244Y-2726181D01*
X9045816Y-2735326D01*
X9045816Y-2744470D01*
X9041244Y-2753868D01*
X9032100Y-2767584D01*
X8985872Y-2813812D01*
X9050388Y-2813812D01*
X9080868Y-2735326D02*
G01*
X9090266Y-2730754D01*
X9103982Y-2716784D01*
X9103982Y-2813812D01*
G36*
X5803900Y-431800D02*
G01*
X5803900Y-533400D01*
X5994400Y-533400D01*
X5994400Y-431800D01*
G37*
G36*
X6743700Y-419100D02*
G01*
X6743700Y-520700D01*
X6934200Y-520700D01*
X6934200Y-419100D01*
G37*
G36*
X12700Y-1244600D02*
G01*
X12700Y-2984500D01*
X520700Y-2984500D01*
X520700Y-1244600D01*
G37*
G36*
X7689850Y-419100D02*
G01*
X7689850Y-520700D01*
X7880350Y-520700D01*
X7880350Y-419100D01*
G37*
G36*
X2249982Y-1179982D02*
G01*
X2249982Y-1859991D01*
X2719984Y-2719984D01*
X2719984Y-2989986D01*
X2989986Y-2989986D01*
X2989986Y-2719984D01*
X2750007Y-1820011D01*
X2750007Y-1179982D01*
G37*
G36*
X799998Y-1179982D02*
G01*
X799998Y-1859991D01*
X1270000Y-2719984D01*
X1270000Y-2989986D01*
X1540002Y-2989986D01*
X1540002Y-2719984D01*
X1300022Y-1820011D01*
X1300022Y-1179982D01*
G37*
G36*
X1230020Y-14985D02*
G01*
X1230020Y-284988D01*
X1469999Y-1185011D01*
X1469999Y-1824989D01*
X1970024Y-1824989D01*
X1970024Y-1144981D01*
X1500022Y-284988D01*
X1500022Y-14985D01*
G37*
G36*
X2669997Y-14985D02*
G01*
X2669997Y-284988D01*
X2909976Y-1185011D01*
X2909976Y-1824989D01*
X3410000Y-1824989D01*
X3410000Y-1144981D01*
X2939999Y-284988D01*
X2939999Y-14985D01*
G37*
D11*
X13258914Y-228600D02*
G01*
X12814414Y-673100D01*
X10477614Y-673100D01*
X9194914Y-1955800D01*
X5651614Y-1955800D01*
X5203812Y-1507997D01*
X3835514Y-1507997D01*
D10*
X8343905Y-1003300D02*
G01*
X8343912Y-1003300D01*
X8272792Y-1074420D01*
X8209290Y-1074420D01*
X7794713Y-567410D02*
G01*
X7700289Y-567410D01*
X7632700Y-635000D01*
X6854916Y-567413D02*
G01*
X6785899Y-567413D01*
X6718312Y-635000D01*
X7231390Y-1087120D02*
G01*
X7231390Y-1016000D01*
X7327912Y-1016000D01*
X7231392Y-1376679D02*
G01*
X7231392Y-1287792D01*
X7200900Y-1257300D01*
X7010400Y-1257300D01*
X6972300Y-1219200D01*
X6972300Y-533400D01*
X6941286Y-502386D01*
X6854913Y-502386D01*
X7794713Y-372389D02*
G01*
X8359711Y-372389D01*
X6854913Y-372389D02*
G01*
X7419911Y-372389D01*
X7231392Y-1376679D02*
G01*
X7231392Y-1440192D01*
X7239000Y-1447800D01*
X7327900Y-1447800D01*
X7378700Y-1498600D01*
X7378700Y-1562100D01*
X7353300Y-1587500D01*
X7258215Y-1587500D01*
X7137387Y-1376679D02*
G01*
X7137387Y-1435100D01*
X7111987Y-1460500D01*
X7048500Y-1460500D01*
X7023100Y-1485900D01*
X7023100Y-1587500D01*
X8021332Y-1074420D02*
G01*
X8021332Y-614667D01*
X8068584Y-567413D01*
X8359706Y-567413D01*
X7043432Y-1087120D02*
G01*
X7043432Y-627367D01*
X7103384Y-567413D01*
X7419906Y-567413D01*
D12*
X7880515Y-1562100D02*
G01*
X7893215Y-1574800D01*
X8108805Y-1574800D01*
X6915317Y-1587500D02*
G01*
X7118210Y-1587500D01*
X7740510Y-1562100D02*
G01*
X7581905Y-1562100D01*
X7556505Y-1587500D01*
X7556505Y-1955800D01*
X6775310Y-1587500D02*
G01*
X6616705Y-1587500D01*
X6616705Y-1955800D01*
X5822810Y-1587500D02*
G01*
X5584197Y-1587500D01*
X5433755Y-1737941D01*
D10*
X7794713Y-437413D02*
G01*
X7794713Y-502386D01*
X7137387Y-1087120D02*
G01*
X7137387Y-882810D01*
X7137392Y-882804D01*
X12446012Y-850900D02*
G01*
X12700012Y-850900D01*
X13462012Y-2882900D02*
G01*
X13716012Y-2882900D01*
X14662137Y-1051560D02*
G01*
X14213839Y-1051560D01*
X14160500Y-1104900D01*
X14160500Y-1993900D01*
X14351000Y-2184400D01*
X14960587Y-2184400D01*
X14960612Y-2438400D02*
G01*
X14338300Y-2438400D01*
X13893800Y-1993900D01*
X13893800Y-1104900D01*
X14145260Y-853439D01*
X14662137Y-853439D01*
X14376400Y-647700D02*
G01*
X14185900Y-647700D01*
X13728700Y-1104900D01*
X13728700Y-2133587D01*
X14478012Y-2882900D01*
X5927801Y-385102D02*
G01*
X6492798Y-385102D01*
X6210305Y-1074414D02*
G01*
X6210287Y-1074397D01*
X6210287Y-920877D01*
X5962789Y-1587500D02*
G01*
X6191082Y-1587500D01*
X6191095Y-1587487D01*
X6210414Y-1363979D02*
G01*
X6210414Y-1435100D01*
X6185014Y-1460500D01*
X6108814Y-1460500D01*
X6070714Y-1498600D01*
X6070714Y-1587500D01*
X6191110Y-1587500D01*
X6304394Y-1363979D02*
G01*
X6304394Y-1440179D01*
X6324714Y-1460500D01*
X6439014Y-1460500D01*
X6464414Y-1485900D01*
X6464414Y-1562100D01*
X6439014Y-1587500D01*
X6331064Y-1587500D01*
X14122006Y-495300D02*
G01*
X14198600Y-495300D01*
X14376400Y-317500D01*
X11811000Y-939800D02*
G01*
X11811000Y-2501912D01*
X11430012Y-2882900D01*
X6116325Y-1074417D02*
G01*
X6116325Y-673100D01*
X6209327Y-580097D01*
X6492798Y-580097D01*
X6304285Y-1074417D02*
G01*
X6304285Y-1016000D01*
X6388100Y-1016000D01*
X5803912Y-635000D02*
G01*
X5858817Y-580095D01*
X5927803Y-580095D01*
X5880100Y-2794000D02*
G01*
X5880100Y-2959100D01*
X6883412Y-2794000D02*
G01*
X6884669Y-2792742D01*
X6884669Y-1955800D01*
X4038600Y-863600D02*
G01*
X4559300Y-1384300D01*
X5016512Y-1384300D01*
X5016512Y-1828800D02*
G01*
X5016512Y-2311295D01*
X5156316Y-2451100D01*
X5245216Y-2451100D01*
X5283316Y-2489200D01*
X5283316Y-2819400D01*
X5423016Y-2959100D01*
X10845916Y-2959100D01*
X10922116Y-2882900D01*
X4114914Y-560070D02*
G01*
X4330814Y-558800D01*
D12*
X6629514Y-1155700D02*
G01*
X6629514Y-558800D01*
X6718414Y-469900D01*
X6807314Y-469900D01*
D10*
X7794612Y-502412D02*
G01*
X7868526Y-502412D01*
X7912214Y-546100D01*
X7912214Y-1231900D01*
X7937614Y-1257300D01*
X8153514Y-1257300D01*
X8209394Y-1313179D01*
X8209394Y-1363979D01*
X8115287Y-1363979D02*
G01*
X8115300Y-1422400D01*
X8089900Y-1447800D01*
X8039100Y-1447800D01*
X7994507Y-1492392D01*
X7994507Y-1574800D01*
X8115287Y-1074420D02*
G01*
X8115300Y-1016000D01*
X8178787Y-952512D01*
X8178787Y-882802D01*
D12*
X4416513Y-127000D02*
G01*
X4873713Y-584200D01*
X5638800Y-584200D01*
X5740400Y-482600D01*
X5829300Y-482600D01*
D10*
X5968657Y-515112D02*
G01*
X6027026Y-515112D01*
X6032614Y-520700D01*
X6032614Y-1181214D01*
X6070600Y-1219200D01*
X6248514Y-1219200D01*
X6304394Y-1275079D01*
X6304394Y-1363979D01*
D12*
X8248817Y-1574800D02*
G01*
X8547112Y-1574800D01*
D10*
X8209394Y-1363979D02*
G01*
X8209394Y-1414779D01*
X8229714Y-1435100D01*
X8318614Y-1435100D01*
X8368652Y-1486662D01*
X8368652Y-1574800D01*
D12*
X3771900Y-952500D02*
G01*
X4014228Y-710171D01*
X4014228Y-135712D01*
D10*
X5600814Y-1473200D02*
G01*
X5600814Y-762000D01*
X5740400Y-1473200D02*
G01*
X5740400Y-762000D01*
D11*
X4520003Y-2870001D02*
G01*
X4515726Y-1507997D01*
X3909936Y-2839973D02*
G01*
X3909936Y-2640076D01*
X4515472Y-2640076D01*
X4515472Y-2433828D01*
D16*
G01*
X265671Y-1503984D03*
G01*
X1713471Y-1502587D03*
G01*
X1053071Y-1502587D03*
G01*
X2500871Y-1502587D03*
G01*
X3161271Y-1502587D03*
D17*
G01*
X3835463Y-1507997D03*
G36*
X10059162Y-2806700D02*
G01*
X10059543Y-2800680D01*
X10060635Y-2794736D01*
X10062413Y-2788970D01*
X10064902Y-2783459D01*
X10068026Y-2778302D01*
X10071735Y-2773553D01*
X10076002Y-2769285D01*
X10080777Y-2765552D01*
X10085933Y-2762427D01*
X10091445Y-2759963D01*
X10097211Y-2758160D01*
X10103154Y-2757068D01*
X10109174Y-2756712D01*
X10109174Y-2756712D01*
X10115194Y-2757068D01*
X10121137Y-2758160D01*
X10126903Y-2759963D01*
X10132415Y-2762427D01*
X10137571Y-2765552D01*
X10142321Y-2769285D01*
X10146588Y-2773553D01*
X10150322Y-2778302D01*
X10153446Y-2783459D01*
X10155910Y-2788970D01*
X10157714Y-2794736D01*
X10158806Y-2800680D01*
X10159161Y-2806700D01*
X10159161Y-2806700D01*
X10158806Y-2812719D01*
X10157714Y-2818663D01*
X10155910Y-2824429D01*
X10153446Y-2829940D01*
X10150322Y-2835097D01*
X10146588Y-2839846D01*
X10142321Y-2844139D01*
X10137571Y-2847847D01*
X10132415Y-2850972D01*
X10126903Y-2853461D01*
X10121137Y-2855239D01*
X10115194Y-2856331D01*
X10109174Y-2856712D01*
X10109174Y-2856712D01*
X10103154Y-2856331D01*
X10097211Y-2855239D01*
X10091445Y-2853461D01*
X10085933Y-2850972D01*
X10080777Y-2847847D01*
X10076002Y-2844139D01*
X10071735Y-2839846D01*
X10068026Y-2835097D01*
X10064902Y-2829940D01*
X10062413Y-2824429D01*
X10060635Y-2818663D01*
X10059543Y-2812719D01*
X10059162Y-2806700D01*
G37*
G36*
X4674374Y-139700D02*
G01*
X4674755Y-133680D01*
X4675847Y-127736D01*
X4677625Y-121970D01*
X4680115Y-116459D01*
X4683239Y-111302D01*
X4686947Y-106553D01*
X4691214Y-102285D01*
X4695990Y-98552D01*
X4701146Y-95427D01*
X4706658Y-92963D01*
X4712423Y-91160D01*
X4718367Y-90068D01*
X4724387Y-89712D01*
X4724387Y-89712D01*
X4730407Y-90068D01*
X4736350Y-91160D01*
X4742116Y-92963D01*
X4747628Y-95427D01*
X4752784Y-98552D01*
X4757534Y-102285D01*
X4761801Y-106553D01*
X4765535Y-111302D01*
X4768659Y-116459D01*
X4771123Y-121970D01*
X4772926Y-127736D01*
X4774018Y-133680D01*
X4774374Y-139700D01*
X4774374Y-139700D01*
X4774018Y-145719D01*
X4772926Y-151663D01*
X4771123Y-157429D01*
X4768659Y-162940D01*
X4765535Y-168097D01*
X4761801Y-172846D01*
X4757534Y-177139D01*
X4752784Y-180847D01*
X4747628Y-183972D01*
X4742116Y-186461D01*
X4736350Y-188239D01*
X4730407Y-189331D01*
X4724387Y-189712D01*
X4724387Y-189712D01*
X4718367Y-189331D01*
X4712423Y-188239D01*
X4706658Y-186461D01*
X4701146Y-183972D01*
X4695990Y-180847D01*
X4691214Y-177139D01*
X4686947Y-172846D01*
X4683239Y-168097D01*
X4680115Y-162940D01*
X4677625Y-157429D01*
X4675847Y-151663D01*
X4674755Y-145719D01*
X4674374Y-139700D01*
G37*
G36*
X15164574Y-190500D02*
G01*
X15164955Y-184480D01*
X15166047Y-178536D01*
X15167825Y-172770D01*
X15170315Y-167259D01*
X15173439Y-162102D01*
X15177147Y-157353D01*
X15181414Y-153085D01*
X15186190Y-149352D01*
X15191346Y-146227D01*
X15196858Y-143763D01*
X15202623Y-141960D01*
X15208567Y-140868D01*
X15214587Y-140512D01*
X15214587Y-140512D01*
X15220607Y-140868D01*
X15226550Y-141960D01*
X15232316Y-143763D01*
X15237828Y-146227D01*
X15242984Y-149352D01*
X15247734Y-153085D01*
X15252001Y-157353D01*
X15255735Y-162102D01*
X15258859Y-167259D01*
X15261323Y-172770D01*
X15263126Y-178536D01*
X15264218Y-184480D01*
X15264574Y-190500D01*
X15264574Y-190500D01*
X15264218Y-196519D01*
X15263126Y-202463D01*
X15261323Y-208229D01*
X15258859Y-213740D01*
X15255735Y-218897D01*
X15252001Y-223646D01*
X15247734Y-227939D01*
X15242984Y-231647D01*
X15237828Y-234772D01*
X15232316Y-237261D01*
X15226550Y-239039D01*
X15220607Y-240131D01*
X15214587Y-240512D01*
X15214587Y-240512D01*
X15208567Y-240131D01*
X15202623Y-239039D01*
X15196858Y-237261D01*
X15191346Y-234772D01*
X15186190Y-231647D01*
X15181414Y-227939D01*
X15177147Y-223646D01*
X15173439Y-218897D01*
X15170315Y-213740D01*
X15167825Y-208229D01*
X15166047Y-202463D01*
X15164955Y-196519D01*
X15164574Y-190500D01*
G37*
G36*
X3620274Y-2857500D02*
G01*
X3620655Y-2851480D01*
X3621747Y-2845536D01*
X3623525Y-2839770D01*
X3626015Y-2834259D01*
X3629139Y-2829102D01*
X3632847Y-2824353D01*
X3637114Y-2820085D01*
X3641890Y-2816352D01*
X3647046Y-2813227D01*
X3652558Y-2810763D01*
X3658323Y-2808960D01*
X3664267Y-2807868D01*
X3670287Y-2807512D01*
X3670287Y-2807512D01*
X3676307Y-2807868D01*
X3682250Y-2808960D01*
X3688016Y-2810763D01*
X3693528Y-2813227D01*
X3698684Y-2816352D01*
X3703434Y-2820085D01*
X3707701Y-2824353D01*
X3711435Y-2829102D01*
X3714559Y-2834259D01*
X3717023Y-2839770D01*
X3718826Y-2845536D01*
X3719918Y-2851480D01*
X3720274Y-2857500D01*
X3720274Y-2857500D01*
X3719918Y-2863519D01*
X3718826Y-2869463D01*
X3717023Y-2875229D01*
X3714559Y-2880740D01*
X3711435Y-2885897D01*
X3707701Y-2890646D01*
X3703434Y-2894939D01*
X3698684Y-2898647D01*
X3693528Y-2901772D01*
X3688016Y-2904261D01*
X3682250Y-2906039D01*
X3676307Y-2907131D01*
X3670287Y-2907512D01*
X3670287Y-2907512D01*
X3664267Y-2907131D01*
X3658323Y-2906039D01*
X3652558Y-2904261D01*
X3647046Y-2901772D01*
X3641890Y-2898647D01*
X3637114Y-2894939D01*
X3632847Y-2890646D01*
X3629139Y-2885897D01*
X3626015Y-2880740D01*
X3623525Y-2875229D01*
X3621747Y-2869463D01*
X3620655Y-2863519D01*
X3620274Y-2857500D01*
G37*
G36*
X9563849Y-139700D02*
G01*
X9564230Y-133680D01*
X9565322Y-127736D01*
X9567100Y-121970D01*
X9569589Y-116459D01*
X9572713Y-111302D01*
X9576422Y-106553D01*
X9580689Y-102285D01*
X9585464Y-98552D01*
X9590620Y-95427D01*
X9596132Y-92963D01*
X9601898Y-91160D01*
X9607842Y-90068D01*
X9613861Y-89712D01*
X9613861Y-89712D01*
X9619881Y-90068D01*
X9625825Y-91160D01*
X9631591Y-92963D01*
X9637102Y-95427D01*
X9642259Y-98552D01*
X9647008Y-102285D01*
X9651276Y-106553D01*
X9655009Y-111302D01*
X9658134Y-116459D01*
X9660597Y-121970D01*
X9662401Y-127736D01*
X9663493Y-133680D01*
X9663849Y-139700D01*
X9663849Y-139700D01*
X9663493Y-145719D01*
X9662401Y-151663D01*
X9660597Y-157429D01*
X9658134Y-162940D01*
X9655009Y-168097D01*
X9651276Y-172846D01*
X9647008Y-177139D01*
X9642259Y-180847D01*
X9637102Y-183972D01*
X9631591Y-186461D01*
X9625825Y-188239D01*
X9619881Y-189331D01*
X9613861Y-189712D01*
X9613861Y-189712D01*
X9607842Y-189331D01*
X9601898Y-188239D01*
X9596132Y-186461D01*
X9590620Y-183972D01*
X9585464Y-180847D01*
X9580689Y-177139D01*
X9576422Y-172846D01*
X9572713Y-168097D01*
X9569589Y-162940D01*
X9567100Y-157429D01*
X9565322Y-151663D01*
X9564230Y-145719D01*
X9563849Y-139700D01*
G37*
D18*
G01*
X6438912Y-2794000D03*
G01*
X6883412Y-2794000D03*
D19*
G01*
X7258215Y-1587500D03*
G01*
X7118210Y-1587500D03*
G01*
X8248815Y-1574800D03*
G01*
X8108810Y-1574800D03*
D20*
G01*
X7043432Y-1376679D03*
G01*
X7137387Y-1376679D03*
G01*
X7231392Y-1376679D03*
G01*
X7231392Y-1087120D03*
G01*
X7137387Y-1087120D03*
G01*
X7043432Y-1087120D03*
D21*
G01*
X6854913Y-372389D03*
G01*
X6854913Y-437413D03*
G01*
X6854913Y-502386D03*
G01*
X6854913Y-567410D03*
G01*
X7419911Y-567410D03*
G01*
X7419911Y-502386D03*
G01*
X7419911Y-437413D03*
G01*
X7419911Y-372389D03*
D20*
G01*
X8021332Y-1363979D03*
G01*
X8115287Y-1363979D03*
G01*
X8209292Y-1363979D03*
G01*
X8209292Y-1074420D03*
G01*
X8115287Y-1074420D03*
G01*
X8021332Y-1074420D03*
D21*
G01*
X7794713Y-372389D03*
G01*
X7794713Y-437413D03*
G01*
X7794713Y-502386D03*
G01*
X7794713Y-567410D03*
G01*
X8359711Y-567410D03*
G01*
X8359711Y-502386D03*
G01*
X8359711Y-437413D03*
G01*
X8359711Y-372389D03*
D19*
G01*
X6915315Y-1587500D03*
G01*
X6775310Y-1587500D03*
D22*
G01*
X7137387Y-742797D03*
G01*
X7137387Y-882802D03*
D19*
G01*
X7880515Y-1562100D03*
G01*
X7740510Y-1562100D03*
D22*
G01*
X8178787Y-742797D03*
G01*
X8178787Y-882802D03*
D18*
G01*
X14376412Y-317500D03*
G01*
X14376412Y-647700D03*
G01*
X5880112Y-2794000D03*
G01*
X4330712Y-558800D03*
D23*
G01*
X14662137Y-853439D03*
G01*
X14662137Y-1051560D03*
G36*
X15012796Y-532129D02*
G01*
X15352903Y-532129D01*
X15352903Y-692150D01*
X15012796Y-692150D01*
G37*
G36*
X15012796Y-1212850D02*
G01*
X15352903Y-1212850D01*
X15352903Y-1372870D01*
X15012796Y-1372870D01*
G37*
D20*
G01*
X6116332Y-1363979D03*
G01*
X6210287Y-1363979D03*
G01*
X6304292Y-1363979D03*
G01*
X6304292Y-1074420D03*
G01*
X6210287Y-1074420D03*
G01*
X6116332Y-1074420D03*
D19*
G01*
X6331115Y-1587500D03*
G01*
X6191110Y-1587500D03*
G01*
X5962815Y-1587500D03*
G01*
X5822810Y-1587500D03*
D22*
G01*
X6210287Y-780897D03*
G01*
X6210287Y-920902D03*
D21*
G01*
X5927813Y-385089D03*
G01*
X5927813Y-450113D03*
G01*
X5927813Y-515086D03*
G01*
X5927813Y-580110D03*
G01*
X6492811Y-580110D03*
G01*
X6492811Y-515086D03*
G01*
X6492811Y-450113D03*
G01*
X6492786Y-385089D03*
D25*
G01*
X254012Y-2844800D03*
G01*
X1422412Y-127000D03*
G01*
X1409712Y-2857500D03*
G01*
X2857512Y-2857500D03*
G01*
X2870212Y-127000D03*
G01*
X3910012Y-2869996D03*
G01*
X4510011Y-2869996D03*
G01*
X5110010Y-2869996D03*
G01*
X4416513Y-127000D03*
G01*
X5016512Y-127000D03*
G01*
X3722128Y-135712D03*
G01*
X4014228Y-135712D03*
G01*
X4210951Y-2867888D03*
G01*
X4807851Y-2867888D03*
G01*
X254012Y-139700D03*
G36*
X14203591Y-576897D02*
G01*
X14203591Y-413702D01*
X14040396Y-413702D01*
X14040396Y-576897D01*
G37*
D27*
G01*
X14122006Y-241300D03*
D28*
G01*
X5359412Y-2070100D03*
G01*
X5359412Y-292100D03*
G01*
X9931412Y-292100D03*
G01*
X9931412Y-2070100D03*
D29*
G01*
X8534412Y-165100D03*
G01*
X8280412Y-165100D03*
G01*
X8026412Y-165100D03*
G01*
X7772412Y-165100D03*
G01*
X7518412Y-165100D03*
G01*
X7264412Y-165100D03*
G01*
X7010412Y-165100D03*
G01*
X6756412Y-165100D03*
G01*
X6502412Y-165100D03*
G01*
X6248412Y-165100D03*
G01*
X5994412Y-165100D03*
G01*
X5740412Y-165100D03*
G01*
X8534412Y-2197100D03*
G01*
X8280412Y-2197100D03*
G01*
X8026412Y-2197100D03*
G01*
X7772412Y-2197100D03*
G01*
X7518412Y-2197100D03*
G01*
X7264412Y-2197100D03*
G01*
X7010412Y-2197100D03*
G01*
X6756412Y-2197100D03*
G01*
X6502412Y-2197100D03*
G01*
X6248412Y-2197100D03*
G01*
X5994412Y-2197100D03*
G01*
X5740412Y-2197100D03*
G01*
X8788412Y-2197100D03*
G01*
X9042412Y-2197100D03*
G01*
X9296412Y-2197100D03*
G01*
X9550412Y-2197100D03*
D30*
G01*
X14960587Y-2184400D03*
D31*
G01*
X14960612Y-2438400D03*
D32*
G01*
X10426712Y-431774D03*
G01*
X10426712Y-177774D03*
G01*
X10680712Y-431774D03*
G01*
X10680712Y-177774D03*
G01*
X10934712Y-431774D03*
G01*
X10934712Y-177774D03*
G01*
X11188712Y-431774D03*
G01*
X11188712Y-177774D03*
G01*
X11442712Y-431774D03*
G01*
X11442712Y-177774D03*
D33*
G01*
X15113012Y-2755900D03*
G01*
X15113012Y-977900D03*
G01*
X10528312Y-2755900D03*
G01*
X10528312Y-977900D03*
D29*
G01*
X12446012Y-2882900D03*
G01*
X12700012Y-2882900D03*
G01*
X14732012Y-2882900D03*
G01*
X14478012Y-2882900D03*
G01*
X14224012Y-2882900D03*
G01*
X13970012Y-2882900D03*
G01*
X10922012Y-2882900D03*
G01*
X11176012Y-2882900D03*
G01*
X11430012Y-2882900D03*
G01*
X11684012Y-2882900D03*
G01*
X11938012Y-2882900D03*
G01*
X12192012Y-2882900D03*
G01*
X12954012Y-2882900D03*
G01*
X13208012Y-2882900D03*
G01*
X13462012Y-2882900D03*
G01*
X13716012Y-2882900D03*
G01*
X10922012Y-850900D03*
G01*
X11176012Y-850900D03*
G01*
X11430012Y-850900D03*
G01*
X11684012Y-850900D03*
G01*
X11938012Y-850900D03*
G01*
X12192012Y-850900D03*
G01*
X12446012Y-850900D03*
G01*
X12700012Y-850900D03*
G01*
X12954012Y-850900D03*
G01*
X13208012Y-850900D03*
G01*
X13462012Y-850900D03*
G01*
X13716012Y-850900D03*
D14*
G01*
X8547112Y-1574800D03*
G01*
X6629412Y-1155700D03*
G01*
X4114812Y-559968D03*
G01*
X3771912Y-952500D03*
G01*
X5016512Y-1828800D03*
G01*
X5016512Y-1384300D03*
G01*
X4038612Y-863600D03*
D15*
G01*
X13258812Y-228600D03*
D14*
G01*
X11811012Y-939800D03*
G01*
X6388112Y-1016000D03*
G01*
X5803912Y-635000D03*
G01*
X7327912Y-1016000D03*
G01*
X6718312Y-635000D03*
G01*
X7632712Y-635000D03*
G01*
X8343912Y-1003300D03*
G01*
X5600814Y-1473200D03*
G01*
X5600814Y-762000D03*
G01*
X5740412Y-1473200D03*
G01*
X5740412Y-762000D03*
G01*
X3638562Y-489204D03*
G01*
X4520679Y-504088D03*
G01*
X4520679Y-694588D03*
G01*
X4711179Y-694588D03*
G01*
X4711179Y-885088D03*
G01*
X4901679Y-1075588D03*
G01*
X4901679Y-1266088D03*
G01*
X5092179Y-1266088D03*
G01*
X5282679Y-885088D03*
G01*
X5473179Y-885088D03*
G01*
X5473179Y-1456588D03*
G01*
X5854179Y-885088D03*
G01*
X6410109Y-693115D03*
G01*
X6410109Y-883615D03*
G01*
X6600609Y-1455115D03*
G01*
X6791109Y-883615D03*
G01*
X6791109Y-1074115D03*
G01*
X6791109Y-1264615D03*
G01*
X7275741Y-679704D03*
G01*
X7275741Y-870204D03*
G01*
X7466241Y-679704D03*
G01*
X7466241Y-870204D03*
G01*
X7466241Y-1060704D03*
G01*
X7466241Y-1251204D03*
G01*
X7466241Y-1441704D03*
G01*
X7656741Y-870204D03*
G01*
X7656741Y-1060704D03*
G01*
X7656741Y-1251204D03*
G01*
X8418741Y-679704D03*
G01*
X8418741Y-870204D03*
G01*
X8418741Y-1251204D03*
G01*
X8609241Y-679704D03*
G01*
X8609241Y-870204D03*
G01*
X8609241Y-1060704D03*
G01*
X8609241Y-1251204D03*
G01*
X8609241Y-1441704D03*
G01*
X8799741Y-108204D03*
G01*
X8799741Y-679704D03*
G01*
X8799741Y-870204D03*
G01*
X8799741Y-1060704D03*
G01*
X8799741Y-1251204D03*
G01*
X8799741Y-1441704D03*
G01*
X8799741Y-1632204D03*
G01*
X8990241Y-108204D03*
G01*
X8990241Y-679704D03*
G01*
X8990241Y-870204D03*
G01*
X8990241Y-1060704D03*
G01*
X8990241Y-1251204D03*
G01*
X8990241Y-1441704D03*
G01*
X8990241Y-1632204D03*
G01*
X9180741Y-108204D03*
G01*
X9180741Y-679704D03*
G01*
X9180741Y-870204D03*
G01*
X9180741Y-1060704D03*
G01*
X9180741Y-1251204D03*
G01*
X9180741Y-1441704D03*
G01*
X9180741Y-1632204D03*
G01*
X9371241Y-108204D03*
G01*
X9371241Y-679704D03*
G01*
X9371241Y-870204D03*
G01*
X9371241Y-1060704D03*
G01*
X9371241Y-1251204D03*
G01*
X9371241Y-1441704D03*
G01*
X9561741Y-679704D03*
G01*
X9561741Y-870204D03*
G01*
X9561741Y-1060704D03*
G01*
X9561741Y-1251204D03*
G01*
X9752241Y-870204D03*
G01*
X9752241Y-1060704D03*
G01*
X9942741Y-870204D03*
G01*
X10133241Y-489204D03*
G01*
X11657241Y-108204D03*
G01*
X11847741Y-108204D03*
G01*
X11847741Y-298704D03*
G01*
X12038241Y-108204D03*
G01*
X12038241Y-298704D03*
G01*
X12038241Y-489204D03*
G01*
X12038241Y-1441704D03*
G01*
X12038241Y-1632204D03*
G01*
X12038241Y-1822704D03*
G01*
X12038241Y-2013204D03*
G01*
X12038241Y-2203704D03*
G01*
X12038241Y-2394204D03*
G01*
X12038241Y-2584704D03*
G01*
X12228741Y-108204D03*
G01*
X12228741Y-298704D03*
G01*
X12228741Y-489204D03*
G01*
X12228741Y-1251204D03*
G01*
X12228741Y-1441704D03*
G01*
X12228741Y-1632204D03*
G01*
X12228741Y-1822704D03*
G01*
X12228741Y-2013204D03*
G01*
X12228741Y-2203704D03*
G01*
X12228741Y-2394204D03*
G01*
X12228741Y-2584704D03*
G01*
X12419241Y-108204D03*
G01*
X12419241Y-298704D03*
G01*
X12419241Y-489204D03*
G01*
X12419241Y-1060704D03*
G01*
X12419241Y-1251204D03*
G01*
X12419241Y-1441704D03*
G01*
X12419241Y-1632204D03*
G01*
X12419241Y-1822704D03*
G01*
X12419241Y-2013204D03*
G01*
X12419241Y-2203704D03*
G01*
X12419241Y-2394204D03*
G01*
X12419241Y-2584704D03*
G01*
X12609741Y-108204D03*
G01*
X12609741Y-298704D03*
G01*
X12609741Y-489204D03*
G01*
X12609741Y-2203704D03*
G01*
X12609741Y-2394204D03*
G01*
X12609741Y-2584704D03*
G01*
X12800241Y-108204D03*
G01*
X12800241Y-298704D03*
G01*
X12800241Y-1060704D03*
G01*
X12800241Y-1251204D03*
G01*
X12800241Y-1441704D03*
G01*
X12800241Y-1632204D03*
G01*
X12800241Y-1822704D03*
G01*
X12800241Y-2013204D03*
G01*
X12800241Y-2394204D03*
G01*
X12800241Y-2584704D03*
G01*
X12990741Y-108204D03*
G01*
X12990741Y-1060704D03*
G01*
X12990741Y-1251204D03*
G01*
X12990741Y-1441704D03*
G01*
X12990741Y-1632204D03*
G01*
X12990741Y-1822704D03*
G01*
X12990741Y-2013204D03*
G01*
X12990741Y-2203704D03*
G01*
X12990741Y-2584704D03*
G01*
X13181241Y-679704D03*
G01*
X13181241Y-1060704D03*
G01*
X13181241Y-1251204D03*
G01*
X13181241Y-1441704D03*
G01*
X13181241Y-1632204D03*
G01*
X13181241Y-1822704D03*
G01*
X13181241Y-2013204D03*
G01*
X13181241Y-2203704D03*
G01*
X13181241Y-2394204D03*
G01*
X13371741Y-489204D03*
G01*
X13371741Y-679704D03*
G01*
X13371741Y-1060704D03*
G01*
X13371741Y-1251204D03*
G01*
X13371741Y-1441704D03*
G01*
X13371741Y-1632204D03*
G01*
X13371741Y-1822704D03*
G01*
X13371741Y-2013204D03*
G01*
X13371741Y-2203704D03*
G01*
X13371741Y-2394204D03*
G01*
X13371741Y-2584704D03*
G01*
X13562241Y-489204D03*
G01*
X13562241Y-679704D03*
G01*
X13562241Y-1060704D03*
G01*
X13562241Y-1251204D03*
G01*
X13562241Y-1441704D03*
G01*
X13562241Y-1632204D03*
G01*
X13562241Y-1822704D03*
G01*
X13562241Y-2013204D03*
G01*
X13562241Y-2203704D03*
G01*
X13562241Y-2394204D03*
G01*
X13562241Y-2584704D03*
G01*
X13752741Y-489204D03*
G01*
X13752741Y-2394204D03*
G01*
X13752741Y-2584704D03*
G01*
X13943241Y-2203704D03*
G01*
X13943241Y-2584704D03*
G01*
X14133741Y-2394204D03*
G01*
X14324241Y-108204D03*
G01*
X14324241Y-1251204D03*
G01*
X14324241Y-1441704D03*
G01*
X14324241Y-1632204D03*
G01*
X14324241Y-1822704D03*
G01*
X14324241Y-2013204D03*
G01*
X14324241Y-2584704D03*
G01*
X14514741Y-108204D03*
G01*
X14514741Y-489204D03*
G01*
X14514741Y-1251204D03*
G01*
X14514741Y-1441704D03*
G01*
X14514741Y-1632204D03*
G01*
X14514741Y-1822704D03*
G01*
X14514741Y-2013204D03*
G01*
X14514741Y-2584704D03*
G01*
X14705241Y-108204D03*
G01*
X14705241Y-298704D03*
G01*
X14705241Y-489204D03*
G01*
X14705241Y-679704D03*
G01*
X14705241Y-1251204D03*
G01*
X14705241Y-1441704D03*
G01*
X14705241Y-1632204D03*
G01*
X14705241Y-1822704D03*
G01*
X14705241Y-2013204D03*
G01*
X14705241Y-2584704D03*
G01*
X14895741Y-108204D03*
G01*
X14895741Y-298704D03*
G01*
X14895741Y-489204D03*
G01*
X14895741Y-679704D03*
G01*
X14895741Y-1251204D03*
G01*
X14895741Y-1441704D03*
G01*
X14895741Y-1632204D03*
G01*
X14895741Y-1822704D03*
G01*
X14895741Y-2013204D03*
G01*
X15086241Y-108204D03*
G01*
X15086241Y-298704D03*
G01*
X15086241Y-1632204D03*
G01*
X15086241Y-1822704D03*
G01*
X15086241Y-2013204D03*
G01*
X4687252Y-1987804D03*
G01*
X4877752Y-1797304D03*
G01*
X5449252Y-2368804D03*
G01*
X5639752Y-2749804D03*
G01*
X5830252Y-2559304D03*
G01*
X6020752Y-2559304D03*
G01*
X6211252Y-2559304D03*
G01*
X6211252Y-2749804D03*
G01*
X6401752Y-2368804D03*
G01*
X6401752Y-2559304D03*
G01*
X6592252Y-2559304D03*
G01*
X6592252Y-2749804D03*
G01*
X7163752Y-2749804D03*
G01*
X7354252Y-2749804D03*
G01*
X7544752Y-2749804D03*
G01*
X7735252Y-2749804D03*
G01*
X7925752Y-2749804D03*
G01*
X8116252Y-2749804D03*
G01*
X8306752Y-2749804D03*
G01*
X9449752Y-1987804D03*
G01*
X9640252Y-1797304D03*
G01*
X9640252Y-1987804D03*
G01*
X9640252Y-2749804D03*
G01*
X9830752Y-1606804D03*
G01*
X9830752Y-1797304D03*
G01*
X9830752Y-2749804D03*
G01*
X10021252Y-1416304D03*
G01*
X10021252Y-1606804D03*
G01*
X10021252Y-1797304D03*
G01*
X10211752Y-1225804D03*
G01*
X10211752Y-1416304D03*
G01*
X10211752Y-1606804D03*
G01*
X10211752Y-1797304D03*
G01*
X10211752Y-1987804D03*
G01*
X10211752Y-2178304D03*
G01*
X10402252Y-1225804D03*
G01*
X10402252Y-1416304D03*
G01*
X10402252Y-1606804D03*
G01*
X10402252Y-1797304D03*
G01*
X10402252Y-1987804D03*
G01*
X10402252Y-2178304D03*
G01*
X10592752Y-1225804D03*
G01*
X10592752Y-1416304D03*
G01*
X10592752Y-1606804D03*
G01*
X10592752Y-1797304D03*
G01*
X10592752Y-1987804D03*
G01*
X10592752Y-2178304D03*
G01*
X10783252Y-1035304D03*
G01*
X10783252Y-1225804D03*
G01*
X10783252Y-1416304D03*
G01*
X10783252Y-1606804D03*
G01*
X10783252Y-1797304D03*
G01*
X10783252Y-1987804D03*
G01*
X10783252Y-2178304D03*
G01*
X10783252Y-2749804D03*
G01*
X10973752Y-1035304D03*
G01*
X10973752Y-1225804D03*
G01*
X10973752Y-1416304D03*
G01*
X10973752Y-1606804D03*
G01*
X10973752Y-1797304D03*
G01*
X10973752Y-1987804D03*
G01*
X10973752Y-2178304D03*
G01*
X11164252Y-1035304D03*
G01*
X11164252Y-1225804D03*
G01*
X11164252Y-1416304D03*
G01*
X11164252Y-1606804D03*
G01*
X11164252Y-1797304D03*
G01*
X11164252Y-1987804D03*
G01*
X11354752Y-1225804D03*
G01*
X11354752Y-1416304D03*
G01*
X11354752Y-1606804D03*
G01*
X11354752Y-1797304D03*
G01*
X11354752Y-2178304D03*
G01*
X11545252Y-1225804D03*
G01*
X11545252Y-1416304D03*
G01*
X11545252Y-1606804D03*
G01*
X11545252Y-1987804D03*
G01*
X11545252Y-2178304D03*
G01*
X3638562Y-1870202D03*
G01*
X3638562Y-2060702D03*
G01*
X3638562Y-2251202D03*
G01*
X3638562Y-2441702D03*
G01*
X3638562Y-2632202D03*
M02*
