G04 Layer: BottomSilkLayer*
G04 EasyEDA v6.4.19.5, 2021-06-29T13:46:12+12:00*
G04 3cc3b40c68de4bce97ec9925422c83c7,12af84a47dbc45c89479b689871b34a7,10*
G04 Gerber Generator version 0.2*
G04 Scale: 100 percent, Rotated: No, Reflected: No *
G04 Dimensions in millimeters *
G04 leading zeros omitted , absolute positions ,4 integer and 5 decimal *
%FSLAX45Y45*%
%MOMM*%

%ADD10C,0.2540*%
%ADD13C,0.2032*%
%ADD40C,0.1000*%
%ADD41C,0.1524*%
%ADD42C,0.1520*%

%LPD*%
G36*
X5961430Y-2505354D02*
G01*
X5942888Y-2505811D01*
X5936081Y-2506573D01*
X5930341Y-2508046D01*
X5923381Y-2510739D01*
X5918200Y-2513025D01*
X5912815Y-2515717D01*
X5907836Y-2518511D01*
X5903976Y-2520950D01*
X5900318Y-2523845D01*
X5896457Y-2527249D01*
X5892596Y-2531110D01*
X5885281Y-2539593D01*
X5882132Y-2543860D01*
X5879388Y-2548026D01*
X5875223Y-2555595D01*
X5873343Y-2558186D01*
X5871311Y-2559913D01*
X5864047Y-2563317D01*
X5859221Y-2566263D01*
X5854496Y-2569768D01*
X5849975Y-2573832D01*
X5845759Y-2578354D01*
X5841949Y-2583129D01*
X5838748Y-2588107D01*
X5836158Y-2593136D01*
X5834329Y-2597861D01*
X5833262Y-2602230D01*
X5832754Y-2607614D01*
X5832754Y-2623210D01*
X5833262Y-2628595D01*
X5834532Y-2633167D01*
X5836869Y-2638552D01*
X5839206Y-2643073D01*
X5841898Y-2647442D01*
X5844946Y-2651556D01*
X5848299Y-2655366D01*
X5851956Y-2658922D01*
X5855817Y-2662123D01*
X5859932Y-2664968D01*
X5864199Y-2667406D01*
X5868619Y-2669489D01*
X5872937Y-2671216D01*
X5877255Y-2672537D01*
X5881725Y-2673553D01*
X5886500Y-2674264D01*
X5891631Y-2674670D01*
X5897219Y-2674823D01*
X5911748Y-2674315D01*
X5916371Y-2673654D01*
X5919114Y-2672232D01*
X5921552Y-2669590D01*
X5924346Y-2665222D01*
X5925261Y-2660904D01*
X5924346Y-2656586D01*
X5921552Y-2652217D01*
X5917793Y-2647696D01*
X5896813Y-2647899D01*
X5890260Y-2647391D01*
X5884468Y-2646375D01*
X5879388Y-2644851D01*
X5874969Y-2642870D01*
X5871108Y-2640279D01*
X5867806Y-2637180D01*
X5865012Y-2633472D01*
X5862523Y-2628747D01*
X5860846Y-2623718D01*
X5859932Y-2618486D01*
X5859881Y-2613253D01*
X5860542Y-2608072D01*
X5862015Y-2603093D01*
X5864199Y-2598470D01*
X5867196Y-2594356D01*
X5871921Y-2590241D01*
X5877814Y-2586837D01*
X5884113Y-2584500D01*
X5890107Y-2583637D01*
X5893663Y-2583535D01*
X5895594Y-2582976D01*
X5896559Y-2581402D01*
X5897168Y-2578354D01*
X5899099Y-2571648D01*
X5902604Y-2564079D01*
X5907074Y-2556611D01*
X5911951Y-2550414D01*
X5916879Y-2545689D01*
X5922264Y-2541625D01*
X5927953Y-2538272D01*
X5933948Y-2535580D01*
X5940196Y-2533599D01*
X5946648Y-2532278D01*
X5953201Y-2531719D01*
X5959856Y-2531821D01*
X5966561Y-2532684D01*
X5973267Y-2534310D01*
X5979871Y-2536647D01*
X5986373Y-2539695D01*
X5992876Y-2544165D01*
X5999530Y-2550414D01*
X6005423Y-2557424D01*
X6009538Y-2564079D01*
X6012738Y-2570632D01*
X6015228Y-2570073D01*
X6026861Y-2566365D01*
X6032906Y-2565450D01*
X6038799Y-2565349D01*
X6044438Y-2566060D01*
X6049873Y-2567482D01*
X6054953Y-2569616D01*
X6059678Y-2572359D01*
X6063996Y-2575712D01*
X6067806Y-2579624D01*
X6071057Y-2584043D01*
X6073749Y-2588869D01*
X6075781Y-2594152D01*
X6077153Y-2599740D01*
X6077712Y-2605633D01*
X6077508Y-2611780D01*
X6076442Y-2618181D01*
X6073851Y-2624328D01*
X6069380Y-2630982D01*
X6063894Y-2636977D01*
X6058204Y-2641193D01*
X6053328Y-2643886D01*
X6050432Y-2638399D01*
X6046825Y-2632913D01*
X6042101Y-2627985D01*
X6036564Y-2623870D01*
X6030417Y-2620518D01*
X6023864Y-2618130D01*
X6017158Y-2616708D01*
X6010452Y-2616454D01*
X6004001Y-2617368D01*
X5997752Y-2619400D01*
X5991606Y-2622092D01*
X5986475Y-2625039D01*
X5981090Y-2629814D01*
X5980531Y-2629966D01*
X5974791Y-2627477D01*
X5930036Y-2605125D01*
X5924499Y-2602788D01*
X5923229Y-2602534D01*
X5922568Y-2602687D01*
X5921451Y-2603804D01*
X5916777Y-2611323D01*
X5909310Y-2624378D01*
X5965240Y-2652826D01*
X5967577Y-2654706D01*
X5968644Y-2657144D01*
X5968873Y-2658770D01*
X5997041Y-2658770D01*
X5997194Y-2655214D01*
X5997803Y-2652674D01*
X5999073Y-2650490D01*
X6001308Y-2648102D01*
X6003747Y-2646070D01*
X6005982Y-2644851D01*
X6008573Y-2644241D01*
X6011824Y-2644089D01*
X6016752Y-2644597D01*
X6021019Y-2646019D01*
X6024372Y-2648153D01*
X6026607Y-2650998D01*
X6027572Y-2654401D01*
X6027877Y-2658770D01*
X6027572Y-2663139D01*
X6026607Y-2666593D01*
X6024321Y-2669387D01*
X6020816Y-2671572D01*
X6016447Y-2672994D01*
X6011570Y-2673502D01*
X6008471Y-2673350D01*
X6005931Y-2672689D01*
X6003696Y-2671419D01*
X6001308Y-2669438D01*
X5999073Y-2667050D01*
X5997803Y-2664866D01*
X5997194Y-2662326D01*
X5997041Y-2658770D01*
X5968873Y-2658770D01*
X5970371Y-2667558D01*
X5972403Y-2673604D01*
X5975146Y-2679242D01*
X5978601Y-2684272D01*
X5982716Y-2688793D01*
X5987288Y-2692654D01*
X5992368Y-2695803D01*
X5997854Y-2698242D01*
X6003594Y-2699918D01*
X6009640Y-2700731D01*
X6015786Y-2700629D01*
X6022035Y-2699562D01*
X6030112Y-2696718D01*
X6037580Y-2692450D01*
X6044031Y-2687066D01*
X6048908Y-2680919D01*
X6051753Y-2676093D01*
X6052921Y-2673502D01*
X6053378Y-2672994D01*
X6056325Y-2671572D01*
X6063894Y-2668778D01*
X6069177Y-2666187D01*
X6074206Y-2663139D01*
X6079032Y-2659583D01*
X6083604Y-2655620D01*
X6087872Y-2651302D01*
X6091732Y-2646629D01*
X6095187Y-2641752D01*
X6098184Y-2636621D01*
X6100724Y-2631338D01*
X6102705Y-2625902D01*
X6104077Y-2620416D01*
X6104991Y-2614828D01*
X6105448Y-2609342D01*
X6105499Y-2604008D01*
X6105144Y-2598724D01*
X6104331Y-2593594D01*
X6103162Y-2588615D01*
X6101537Y-2583688D01*
X6099454Y-2578963D01*
X6097016Y-2574290D01*
X6094120Y-2569768D01*
X6090869Y-2565400D01*
X6087160Y-2561132D01*
X6081725Y-2555849D01*
X6076086Y-2551277D01*
X6070193Y-2547416D01*
X6063996Y-2544267D01*
X6057544Y-2541828D01*
X6050788Y-2540101D01*
X6043777Y-2539034D01*
X6036411Y-2538679D01*
X6025845Y-2538679D01*
X6020003Y-2532278D01*
X6015888Y-2528112D01*
X6011418Y-2524252D01*
X6006592Y-2520645D01*
X6001461Y-2517343D01*
X5995974Y-2514346D01*
X5990132Y-2511602D01*
X5983986Y-2509164D01*
X5977534Y-2507030D01*
X5973419Y-2506167D01*
X5968136Y-2505608D01*
G37*
G36*
X5832195Y-2725470D02*
G01*
X5829249Y-2739390D01*
X5828284Y-2745740D01*
X5831941Y-2748178D01*
X5833668Y-2748991D01*
X5835650Y-2749550D01*
X5837834Y-2749804D01*
X5842508Y-2749550D01*
X5844286Y-2749854D01*
X5845657Y-2750769D01*
X5846927Y-2752344D01*
X5848451Y-2755493D01*
X5848908Y-2757119D01*
X5849061Y-2758541D01*
X5848299Y-2761589D01*
X5846318Y-2764536D01*
X5843625Y-2766771D01*
X5840882Y-2767634D01*
X5838393Y-2766974D01*
X5835904Y-2765399D01*
X5834024Y-2763367D01*
X5833262Y-2761234D01*
X5832246Y-2759456D01*
X5829960Y-2757220D01*
X5827572Y-2755493D01*
X5826150Y-2755239D01*
X5822848Y-2769006D01*
X5818987Y-2787243D01*
X5819495Y-2788208D01*
X5820968Y-2788615D01*
X5827064Y-2788564D01*
X5828893Y-2787599D01*
X5830062Y-2784957D01*
X5831840Y-2777693D01*
X5833262Y-2776524D01*
X5836462Y-2776118D01*
X5853023Y-2776067D01*
X5857646Y-2785922D01*
X5859170Y-2787802D01*
X5861202Y-2788564D01*
X5866638Y-2788615D01*
X5869686Y-2788259D01*
X5870092Y-2787954D01*
X5865876Y-2778404D01*
X5841136Y-2725470D01*
G37*
G36*
X5934049Y-2725470D02*
G01*
X5924346Y-2725775D01*
X5918504Y-2726791D01*
X5915609Y-2728874D01*
X5914847Y-2732328D01*
X5915456Y-2735173D01*
X5917641Y-2736951D01*
X5921959Y-2737866D01*
X5936589Y-2738475D01*
X5938977Y-2738882D01*
X5939840Y-2739339D01*
X5941466Y-2749346D01*
X5931712Y-2749346D01*
X5925312Y-2749651D01*
X5921349Y-2750616D01*
X5919317Y-2752547D01*
X5918758Y-2755696D01*
X5919368Y-2758795D01*
X5921400Y-2760726D01*
X5925464Y-2761742D01*
X5932017Y-2761996D01*
X5942126Y-2761996D01*
X5944616Y-2776321D01*
X5943295Y-2777032D01*
X5939993Y-2777388D01*
X5927648Y-2777540D01*
X5924194Y-2777947D01*
X5922619Y-2778963D01*
X5921959Y-2780995D01*
X5921705Y-2785008D01*
X5923991Y-2787345D01*
X5929985Y-2788412D01*
X5946952Y-2788615D01*
X5955639Y-2788158D01*
X5956909Y-2787802D01*
X5953455Y-2757220D01*
X5949645Y-2727248D01*
X5948578Y-2726436D01*
X5945784Y-2725877D01*
X5941009Y-2725572D01*
G37*
G36*
X6096609Y-2725470D02*
G01*
X6088938Y-2725572D01*
X6083909Y-2725928D01*
X6080861Y-2726639D01*
X6078982Y-2727807D01*
X6076391Y-2731973D01*
X6077712Y-2735224D01*
X6082690Y-2737358D01*
X6091021Y-2738120D01*
X6097524Y-2738323D01*
X6101080Y-2739339D01*
X6102604Y-2741676D01*
X6102908Y-2745943D01*
X6102705Y-2747873D01*
X6101638Y-2748889D01*
X6098895Y-2749296D01*
X6093815Y-2749346D01*
X6087821Y-2749753D01*
X6083706Y-2750870D01*
X6081318Y-2752852D01*
X6080556Y-2755696D01*
X6081318Y-2758541D01*
X6083757Y-2760522D01*
X6088075Y-2761640D01*
X6098184Y-2762097D01*
X6103670Y-2762656D01*
X6104636Y-2763062D01*
X6105296Y-2765755D01*
X6106972Y-2777337D01*
X6090869Y-2778048D01*
X6087313Y-2778556D01*
X6085179Y-2779369D01*
X6083960Y-2780588D01*
X6083401Y-2781858D01*
X6083198Y-2783078D01*
X6083401Y-2784246D01*
X6083960Y-2785516D01*
X6085332Y-2786786D01*
X6088176Y-2787599D01*
X6093510Y-2788107D01*
X6119012Y-2788767D01*
X6116167Y-2761894D01*
X6111798Y-2725470D01*
G37*
G36*
X5901131Y-2725521D02*
G01*
X5895340Y-2725928D01*
X5887669Y-2726893D01*
X5881573Y-2728569D01*
X5876798Y-2730957D01*
X5873242Y-2734157D01*
X5869432Y-2739898D01*
X5866993Y-2746400D01*
X5865876Y-2753461D01*
X5865970Y-2760116D01*
X5876950Y-2760116D01*
X5877255Y-2751886D01*
X5880150Y-2744673D01*
X5885434Y-2740050D01*
X5889396Y-2738678D01*
X5892850Y-2738120D01*
X5894628Y-2738475D01*
X5895848Y-2740558D01*
X5896864Y-2745689D01*
X5899810Y-2768447D01*
X5900166Y-2774950D01*
X5898997Y-2777236D01*
X5896102Y-2777439D01*
X5891479Y-2776728D01*
X5886958Y-2774696D01*
X5882894Y-2771648D01*
X5879642Y-2767787D01*
X5876950Y-2760116D01*
X5865970Y-2760116D01*
X5867349Y-2767634D01*
X5869940Y-2774137D01*
X5873648Y-2779776D01*
X5878525Y-2784348D01*
X5881725Y-2786278D01*
X5885281Y-2787446D01*
X5890412Y-2788107D01*
X5913374Y-2788920D01*
X5906414Y-2730296D01*
X5905550Y-2726537D01*
X5904230Y-2725623D01*
G37*
G36*
X6016294Y-2740863D02*
G01*
X6011672Y-2741828D01*
X6007150Y-2744774D01*
X6002883Y-2748635D01*
X6008370Y-2758135D01*
X6011316Y-2755138D01*
X6013602Y-2753207D01*
X6015482Y-2752293D01*
X6016955Y-2752496D01*
X6018123Y-2753664D01*
X6017920Y-2754782D01*
X6016752Y-2756662D01*
X6014770Y-2759100D01*
X6007201Y-2767482D01*
X6004763Y-2772664D01*
X6004763Y-2777744D01*
X6007150Y-2783078D01*
X6011976Y-2788005D01*
X6017971Y-2789936D01*
X6024422Y-2788920D01*
X6030620Y-2784805D01*
X6034582Y-2780944D01*
X6028385Y-2772816D01*
X6024372Y-2775966D01*
X6021222Y-2777693D01*
X6018123Y-2778302D01*
X6015736Y-2777744D01*
X6014770Y-2776067D01*
X6015329Y-2774950D01*
X6019190Y-2770276D01*
X6025794Y-2763113D01*
X6027978Y-2760014D01*
X6028994Y-2757373D01*
X6029248Y-2754325D01*
X6029045Y-2751632D01*
X6028385Y-2749346D01*
X6027115Y-2747213D01*
X6025184Y-2745028D01*
X6020866Y-2741930D01*
G37*
G36*
X6058204Y-2740964D02*
G01*
X6054140Y-2741676D01*
X6049822Y-2743504D01*
X6046419Y-2745790D01*
X6044844Y-2748483D01*
X6043523Y-2749245D01*
X6039612Y-2750058D01*
X6038088Y-2752953D01*
X6037783Y-2758948D01*
X6037892Y-2760421D01*
X6048603Y-2760421D01*
X6051448Y-2754833D01*
X6056426Y-2752496D01*
X6061456Y-2753360D01*
X6065824Y-2757068D01*
X6068822Y-2763266D01*
X6069482Y-2766110D01*
X6069634Y-2768396D01*
X6069177Y-2770530D01*
X6068161Y-2772968D01*
X6066078Y-2776016D01*
X6063335Y-2777947D01*
X6060033Y-2778709D01*
X6056376Y-2778302D01*
X6051550Y-2774543D01*
X6048806Y-2767787D01*
X6048603Y-2760421D01*
X6037892Y-2760421D01*
X6040526Y-2786938D01*
X6041542Y-2788259D01*
X6043371Y-2788615D01*
X6045657Y-2787954D01*
X6049264Y-2785160D01*
X6050330Y-2784754D01*
X6051397Y-2785211D01*
X6052870Y-2786532D01*
X6056833Y-2788920D01*
X6061710Y-2789783D01*
X6066790Y-2789174D01*
X6071311Y-2787040D01*
X6074816Y-2783382D01*
X6077712Y-2778404D01*
X6079693Y-2772613D01*
X6080455Y-2766720D01*
X6079439Y-2760726D01*
X6076543Y-2754172D01*
X6072479Y-2748178D01*
X6068009Y-2744114D01*
X6065621Y-2742895D01*
X6062980Y-2741879D01*
X6060389Y-2741218D01*
G37*
G36*
X5956706Y-2742336D02*
G01*
X5973013Y-2775102D01*
X5983020Y-2794711D01*
X5986018Y-2799994D01*
X5988202Y-2803093D01*
X5989929Y-2804566D01*
X5991606Y-2805125D01*
X5995670Y-2805379D01*
X5998565Y-2805125D01*
X5999022Y-2804769D01*
X5997448Y-2800908D01*
X5988354Y-2781960D01*
X5999022Y-2743301D01*
X5998616Y-2742946D01*
X5995873Y-2742438D01*
X5988812Y-2742336D01*
X5981141Y-2768295D01*
X5972708Y-2750667D01*
X5969203Y-2744673D01*
X5966358Y-2742590D01*
X5962599Y-2742336D01*
G37*
G36*
X5839917Y-2753969D02*
G01*
X5838342Y-2755138D01*
X5837478Y-2757474D01*
X5837783Y-2760014D01*
X5839206Y-2761437D01*
X5841238Y-2761589D01*
X5843473Y-2760167D01*
X5844438Y-2758948D01*
X5844844Y-2757932D01*
X5844590Y-2756916D01*
X5843828Y-2755696D01*
X5841898Y-2754122D01*
G37*
G36*
X7469327Y-2345385D02*
G01*
X7198614Y-2346452D01*
X7189012Y-2351786D01*
X7184948Y-2354376D01*
X7180935Y-2357526D01*
X7177430Y-2360828D01*
X7174941Y-2363825D01*
X7172858Y-2367381D01*
X7170623Y-2372055D01*
X7168438Y-2377287D01*
X7166609Y-2382469D01*
X7162901Y-2394407D01*
X7163045Y-2452674D01*
X7186777Y-2452674D01*
X7186879Y-2449220D01*
X7187336Y-2445816D01*
X7188098Y-2442819D01*
X7189622Y-2439974D01*
X7191959Y-2436876D01*
X7194854Y-2433980D01*
X7197902Y-2431643D01*
X7201763Y-2429560D01*
X7206742Y-2427478D01*
X7212126Y-2425547D01*
X7222083Y-2422804D01*
X7225588Y-2421382D01*
X7227671Y-2420061D01*
X7227976Y-2418892D01*
X7227620Y-2418029D01*
X7227722Y-2417673D01*
X7228331Y-2417724D01*
X7230668Y-2418689D01*
X7232243Y-2418638D01*
X7233869Y-2418130D01*
X7235393Y-2417114D01*
X7236714Y-2415641D01*
X7237780Y-2413762D01*
X7238492Y-2411730D01*
X7238746Y-2409799D01*
X7238390Y-2407869D01*
X7237425Y-2405938D01*
X7236053Y-2404211D01*
X7234326Y-2402890D01*
X7231735Y-2401925D01*
X7228078Y-2401163D01*
X7223759Y-2400604D01*
X7219289Y-2400401D01*
X7208723Y-2400401D01*
X7200900Y-2414778D01*
X7187793Y-2414828D01*
X7189317Y-2408224D01*
X7190333Y-2405227D01*
X7191857Y-2401976D01*
X7193737Y-2398826D01*
X7195718Y-2396236D01*
X7198258Y-2393950D01*
X7201560Y-2391714D01*
X7205167Y-2389784D01*
X7208723Y-2388412D01*
X7216241Y-2386787D01*
X7222693Y-2386228D01*
X7228941Y-2387041D01*
X7235952Y-2388717D01*
X7239406Y-2390190D01*
X7242657Y-2392476D01*
X7245603Y-2395372D01*
X7247991Y-2398725D01*
X7249769Y-2402179D01*
X7251192Y-2405938D01*
X7252157Y-2409494D01*
X7252512Y-2412492D01*
X7252208Y-2415235D01*
X7251496Y-2418283D01*
X7250379Y-2421229D01*
X7249058Y-2423718D01*
X7246721Y-2426106D01*
X7242860Y-2428798D01*
X7238085Y-2431491D01*
X7232903Y-2433828D01*
X7222642Y-2437333D01*
X7218527Y-2438400D01*
X7213650Y-2439263D01*
X7210907Y-2440482D01*
X7207961Y-2442260D01*
X7205167Y-2444496D01*
X7198817Y-2450185D01*
X7202728Y-2456434D01*
X7204709Y-2458974D01*
X7207199Y-2461310D01*
X7209891Y-2463139D01*
X7212380Y-2464206D01*
X7215225Y-2464663D01*
X7218730Y-2464816D01*
X7222388Y-2464663D01*
X7225842Y-2464206D01*
X7229094Y-2463292D01*
X7232294Y-2461920D01*
X7235088Y-2460294D01*
X7237069Y-2458567D01*
X7238492Y-2456535D01*
X7240778Y-2451811D01*
X7242048Y-2447696D01*
X7243216Y-2446020D01*
X7244689Y-2444699D01*
X7246366Y-2444038D01*
X7248194Y-2443784D01*
X7250226Y-2443784D01*
X7253681Y-2444445D01*
X7256830Y-2445766D01*
X7254697Y-2453589D01*
X7253325Y-2457246D01*
X7251141Y-2461310D01*
X7248448Y-2465273D01*
X7245603Y-2468727D01*
X7238644Y-2475992D01*
X7202322Y-2475992D01*
X7195413Y-2469032D01*
X7192619Y-2465832D01*
X7190130Y-2462276D01*
X7188200Y-2458720D01*
X7187133Y-2455672D01*
X7186777Y-2452674D01*
X7163045Y-2452674D01*
X7163105Y-2477160D01*
X7268565Y-2477160D01*
X7268565Y-2388412D01*
X7282332Y-2388412D01*
X7282332Y-2423515D01*
X7320178Y-2423210D01*
X7322464Y-2387600D01*
X7335113Y-2387041D01*
X7335113Y-2443073D01*
X7348880Y-2443073D01*
X7349134Y-2438654D01*
X7349744Y-2434132D01*
X7350658Y-2430068D01*
X7351775Y-2427020D01*
X7353350Y-2424430D01*
X7355484Y-2421636D01*
X7357922Y-2418994D01*
X7360412Y-2416759D01*
X7363256Y-2414981D01*
X7366812Y-2413355D01*
X7370622Y-2412085D01*
X7374178Y-2411374D01*
X7381240Y-2411069D01*
X7384491Y-2411222D01*
X7386980Y-2411577D01*
X7389368Y-2412542D01*
X7392365Y-2414473D01*
X7395514Y-2417013D01*
X7398461Y-2419908D01*
X7405065Y-2427122D01*
X7405065Y-2462682D01*
X7392970Y-2475331D01*
X7413091Y-2475331D01*
X7414158Y-2472436D01*
X7417917Y-2465832D01*
X7418730Y-2463546D01*
X7418984Y-2461514D01*
X7418628Y-2459990D01*
X7418120Y-2458974D01*
X7418120Y-2458466D01*
X7418628Y-2458415D01*
X7420660Y-2459482D01*
X7421524Y-2459532D01*
X7422083Y-2459228D01*
X7422946Y-2456942D01*
X7424674Y-2454148D01*
X7433513Y-2442514D01*
X7435596Y-2439365D01*
X7436662Y-2437180D01*
X7436408Y-2436418D01*
X7434935Y-2435910D01*
X7432700Y-2434590D01*
X7429957Y-2432608D01*
X7420000Y-2423972D01*
X7420000Y-2400198D01*
X7431227Y-2388412D01*
X7486548Y-2388412D01*
X7486548Y-2477160D01*
X7472781Y-2477160D01*
X7472781Y-2438806D01*
X7452918Y-2438806D01*
X7448245Y-2444191D01*
X7442504Y-2452065D01*
X7435240Y-2463393D01*
X7426909Y-2477160D01*
X7417358Y-2477058D01*
X7415123Y-2476652D01*
X7413650Y-2476042D01*
X7413091Y-2475331D01*
X7392873Y-2475433D01*
X7370267Y-2477719D01*
X7362850Y-2473706D01*
X7359599Y-2471470D01*
X7356551Y-2468524D01*
X7354011Y-2465070D01*
X7352131Y-2461514D01*
X7350861Y-2457551D01*
X7349845Y-2452725D01*
X7349134Y-2447696D01*
X7348880Y-2443073D01*
X7335113Y-2443073D01*
X7335113Y-2477516D01*
X7322464Y-2475992D01*
X7321143Y-2436418D01*
X7282332Y-2436418D01*
X7282332Y-2477160D01*
X7163105Y-2477160D01*
X7163407Y-2599537D01*
X7237374Y-2599537D01*
X7242352Y-2585110D01*
X7243876Y-2579522D01*
X7245248Y-2572207D01*
X7246264Y-2564180D01*
X7246772Y-2556357D01*
X7246721Y-2548026D01*
X7246315Y-2538730D01*
X7245502Y-2529484D01*
X7244435Y-2521559D01*
X7241895Y-2507742D01*
X7239406Y-2495600D01*
X7239304Y-2493518D01*
X7239558Y-2492146D01*
X7240219Y-2491638D01*
X7241794Y-2492298D01*
X7248347Y-2496616D01*
X7252512Y-2499766D01*
X7257288Y-2503830D01*
X7262723Y-2509012D01*
X7268108Y-2514650D01*
X7272832Y-2520035D01*
X7282586Y-2532735D01*
X7292136Y-2546096D01*
X7296759Y-2553563D01*
X7302550Y-2563622D01*
X7308748Y-2575001D01*
X7314539Y-2586329D01*
X7320534Y-2598877D01*
X7327036Y-2613406D01*
X7333284Y-2628239D01*
X7342936Y-2653233D01*
X7354366Y-2684424D01*
X7359650Y-2672537D01*
X7361580Y-2667711D01*
X7363002Y-2663291D01*
X7363815Y-2659735D01*
X7363764Y-2657602D01*
X7363510Y-2656484D01*
X7363561Y-2655722D01*
X7363968Y-2655468D01*
X7364628Y-2655722D01*
X7365949Y-2654909D01*
X7368133Y-2651810D01*
X7370825Y-2646883D01*
X7381290Y-2624734D01*
X7382357Y-2622905D01*
X7384084Y-2623210D01*
X7387844Y-2625242D01*
X7393025Y-2628595D01*
X7422286Y-2650439D01*
X7435088Y-2660345D01*
X7439964Y-2664409D01*
X7443368Y-2667558D01*
X7444841Y-2669286D01*
X7444790Y-2670149D01*
X7444130Y-2670860D01*
X7442962Y-2671318D01*
X7438847Y-2672080D01*
X7435088Y-2673553D01*
X7430516Y-2675737D01*
X7425740Y-2678430D01*
X7420305Y-2682087D01*
X7414056Y-2687015D01*
X7407757Y-2692552D01*
X7402169Y-2697988D01*
X7396480Y-2704287D01*
X7389875Y-2712059D01*
X7377277Y-2728112D01*
X7372146Y-2735529D01*
X7368438Y-2741625D01*
X7366406Y-2746044D01*
X7366203Y-2748483D01*
X7366762Y-2749600D01*
X7366812Y-2750159D01*
X7366355Y-2750261D01*
X7365441Y-2749804D01*
X7364069Y-2749905D01*
X7362190Y-2751378D01*
X7360056Y-2754122D01*
X7353706Y-2764637D01*
X7352080Y-2766669D01*
X7351115Y-2767431D01*
X7350302Y-2766923D01*
X7348016Y-2763520D01*
X7341920Y-2751582D01*
X7328662Y-2727452D01*
X7311745Y-2698038D01*
X7295388Y-2671114D01*
X7289596Y-2662123D01*
X7277404Y-2644444D01*
X7272121Y-2637129D01*
X7266178Y-2629509D01*
X7259980Y-2622245D01*
X7258405Y-2620670D01*
X7257389Y-2620111D01*
X7255256Y-2619857D01*
X7253782Y-2620365D01*
X7253478Y-2620010D01*
X7253478Y-2619095D01*
X7253884Y-2617825D01*
X7253833Y-2615946D01*
X7252512Y-2613761D01*
X7249769Y-2611374D01*
X7241743Y-2606090D01*
X7239000Y-2603652D01*
X7237526Y-2601417D01*
X7237374Y-2599537D01*
X7163407Y-2599537D01*
X7163850Y-2788666D01*
X7371791Y-2788716D01*
X7381697Y-2790240D01*
X7386218Y-2807157D01*
X7389418Y-2817825D01*
X7390282Y-2818079D01*
X7391501Y-2815894D01*
X7392974Y-2811729D01*
X7394600Y-2805836D01*
X7398410Y-2790240D01*
X7403490Y-2789478D01*
X7405522Y-2789428D01*
X7407402Y-2789885D01*
X7408875Y-2790698D01*
X7409688Y-2791917D01*
X7410094Y-2794762D01*
X7410399Y-2807309D01*
X7409998Y-2825445D01*
X7414259Y-2825445D01*
X7414259Y-2800604D01*
X7420711Y-2794812D01*
X7423708Y-2792577D01*
X7427112Y-2790748D01*
X7430516Y-2789478D01*
X7433462Y-2789021D01*
X7436459Y-2789478D01*
X7439558Y-2790647D01*
X7442504Y-2792526D01*
X7445095Y-2794914D01*
X7447330Y-2798064D01*
X7449210Y-2801975D01*
X7450632Y-2806496D01*
X7451496Y-2811221D01*
X7452614Y-2821635D01*
X7452002Y-2822397D01*
X7453325Y-2822397D01*
X7460132Y-2817926D01*
X7464348Y-2823870D01*
X7466228Y-2826207D01*
X7468158Y-2828086D01*
X7469987Y-2829356D01*
X7471460Y-2829814D01*
X7472883Y-2829458D01*
X7474610Y-2828544D01*
X7476439Y-2827121D01*
X7478115Y-2825445D01*
X7479588Y-2823057D01*
X7480808Y-2819857D01*
X7481620Y-2816250D01*
X7481925Y-2812643D01*
X7481620Y-2808833D01*
X7480808Y-2805379D01*
X7479487Y-2802432D01*
X7477759Y-2800197D01*
X7474000Y-2797403D01*
X7472222Y-2796540D01*
X7470902Y-2796235D01*
X7469631Y-2796641D01*
X7468158Y-2797657D01*
X7466685Y-2799181D01*
X7463993Y-2802890D01*
X7462469Y-2804414D01*
X7460945Y-2805480D01*
X7459573Y-2805836D01*
X7458456Y-2805480D01*
X7457541Y-2804464D01*
X7456931Y-2802991D01*
X7456678Y-2801162D01*
X7457084Y-2799080D01*
X7458202Y-2796794D01*
X7459827Y-2794609D01*
X7461808Y-2792780D01*
X7464196Y-2791307D01*
X7466990Y-2790139D01*
X7469733Y-2789326D01*
X7472222Y-2789021D01*
X7474762Y-2789529D01*
X7477709Y-2790799D01*
X7480655Y-2792730D01*
X7483348Y-2795066D01*
X7489088Y-2801112D01*
X7488123Y-2822448D01*
X7487107Y-2830474D01*
X7486599Y-2831541D01*
X7485684Y-2831642D01*
X7477607Y-2835402D01*
X7474610Y-2836214D01*
X7471613Y-2836621D01*
X7468870Y-2836570D01*
X7466177Y-2835757D01*
X7463231Y-2834081D01*
X7460437Y-2831795D01*
X7458100Y-2829102D01*
X7453325Y-2822397D01*
X7452002Y-2822397D01*
X7440218Y-2837027D01*
X7433665Y-2837027D01*
X7430617Y-2836570D01*
X7427163Y-2835351D01*
X7423708Y-2833471D01*
X7420711Y-2831236D01*
X7414259Y-2825445D01*
X7409998Y-2825445D01*
X7409688Y-2835808D01*
X7402779Y-2835808D01*
X7400442Y-2811830D01*
X7397394Y-2824429D01*
X7395921Y-2829509D01*
X7394295Y-2833471D01*
X7392670Y-2836062D01*
X7391196Y-2837027D01*
X7389926Y-2836875D01*
X7388656Y-2836418D01*
X7387590Y-2835706D01*
X7386878Y-2834894D01*
X7384999Y-2829610D01*
X7379004Y-2807055D01*
X7378700Y-2837027D01*
X7371791Y-2837027D01*
X7371791Y-2788716D01*
X7220556Y-2788716D01*
X7221455Y-2789021D01*
X7300671Y-2789021D01*
X7300671Y-2837027D01*
X7305294Y-2837027D01*
X7305294Y-2828036D01*
X7312355Y-2828645D01*
X7315403Y-2828696D01*
X7317841Y-2828188D01*
X7319619Y-2827274D01*
X7320635Y-2825902D01*
X7321143Y-2823311D01*
X7321956Y-2813050D01*
X7322464Y-2800299D01*
X7323124Y-2795066D01*
X7323937Y-2791358D01*
X7324902Y-2789783D01*
X7325969Y-2789580D01*
X7327087Y-2789682D01*
X7328153Y-2790037D01*
X7328916Y-2790596D01*
X7329525Y-2792984D01*
X7330033Y-2798318D01*
X7330326Y-2804464D01*
X7335113Y-2804464D01*
X7335367Y-2801264D01*
X7336129Y-2798165D01*
X7337196Y-2795625D01*
X7338568Y-2793847D01*
X7340650Y-2792577D01*
X7343851Y-2791409D01*
X7347661Y-2790393D01*
X7351725Y-2789732D01*
X7355636Y-2789428D01*
X7359142Y-2789478D01*
X7361783Y-2789783D01*
X7363206Y-2790393D01*
X7363866Y-2792882D01*
X7364425Y-2798267D01*
X7364933Y-2814624D01*
X7364933Y-2837027D01*
X7358024Y-2837027D01*
X7358024Y-2817825D01*
X7349337Y-2817825D01*
X7345730Y-2817622D01*
X7342378Y-2816961D01*
X7339634Y-2816047D01*
X7337856Y-2814929D01*
X7336790Y-2813253D01*
X7335926Y-2810662D01*
X7335316Y-2807614D01*
X7335113Y-2804464D01*
X7330326Y-2804464D01*
X7330490Y-2837027D01*
X7293813Y-2837027D01*
X7293813Y-2789021D01*
X7221455Y-2789021D01*
X7223252Y-2789631D01*
X7224471Y-2791053D01*
X7225538Y-2794203D01*
X7226350Y-2798826D01*
X7227519Y-2818841D01*
X7238796Y-2798165D01*
X7241692Y-2793492D01*
X7243927Y-2790342D01*
X7245197Y-2789224D01*
X7249058Y-2790444D01*
X7249972Y-2792476D01*
X7250531Y-2797403D01*
X7250785Y-2804820D01*
X7249966Y-2835605D01*
X7254240Y-2835605D01*
X7254290Y-2833319D01*
X7255509Y-2828137D01*
X7257592Y-2820873D01*
X7260437Y-2812237D01*
X7263942Y-2802839D01*
X7267041Y-2795778D01*
X7269683Y-2791256D01*
X7271766Y-2789478D01*
X7273340Y-2789529D01*
X7274814Y-2790190D01*
X7276084Y-2791409D01*
X7276998Y-2793085D01*
X7289596Y-2828594D01*
X7291527Y-2835148D01*
X7291222Y-2835910D01*
X7290460Y-2836468D01*
X7289342Y-2836875D01*
X7287971Y-2837027D01*
X7286396Y-2836468D01*
X7284720Y-2834894D01*
X7283196Y-2832608D01*
X7281976Y-2829814D01*
X7279589Y-2822651D01*
X7264450Y-2822651D01*
X7260945Y-2832608D01*
X7259726Y-2834894D01*
X7258558Y-2836468D01*
X7257592Y-2837027D01*
X7255764Y-2836621D01*
X7254240Y-2835605D01*
X7249966Y-2835605D01*
X7249922Y-2837027D01*
X7243318Y-2837027D01*
X7243267Y-2807055D01*
X7234631Y-2822346D01*
X7229551Y-2830322D01*
X7227722Y-2832811D01*
X7224725Y-2835808D01*
X7223353Y-2836672D01*
X7222337Y-2837027D01*
X7221575Y-2835097D01*
X7220966Y-2829915D01*
X7220559Y-2822244D01*
X7220407Y-2788666D01*
X7163850Y-2788666D01*
X7163851Y-2789021D01*
X7215784Y-2789021D01*
X7215784Y-2798622D01*
X7204506Y-2798622D01*
X7203186Y-2835808D01*
X7196277Y-2835808D01*
X7194956Y-2798622D01*
X7183678Y-2798622D01*
X7183678Y-2789021D01*
X7163851Y-2789021D01*
X7164086Y-2892196D01*
X7206640Y-2892196D01*
X7206640Y-2885135D01*
X7214971Y-2885490D01*
X7218883Y-2885338D01*
X7222083Y-2884627D01*
X7224572Y-2883306D01*
X7226452Y-2881325D01*
X7227671Y-2879191D01*
X7228636Y-2876600D01*
X7229348Y-2873959D01*
X7229551Y-2871520D01*
X7229297Y-2869133D01*
X7228484Y-2866644D01*
X7227366Y-2864256D01*
X7225944Y-2862376D01*
X7223912Y-2860903D01*
X7221067Y-2859735D01*
X7217714Y-2858922D01*
X7210806Y-2858414D01*
X7208469Y-2857855D01*
X7207250Y-2856941D01*
X7207199Y-2855620D01*
X7208164Y-2854401D01*
X7210196Y-2853283D01*
X7212939Y-2852420D01*
X7216089Y-2851912D01*
X7220000Y-2851912D01*
X7223658Y-2852623D01*
X7227011Y-2854045D01*
X7230262Y-2856280D01*
X7236459Y-2861360D01*
X7236459Y-2882595D01*
X7227265Y-2892196D01*
X7236053Y-2892196D01*
X7237018Y-2889199D01*
X7238034Y-2888030D01*
X7240016Y-2887065D01*
X7242708Y-2886456D01*
X7245807Y-2886202D01*
X7253630Y-2886202D01*
X7253630Y-2880207D01*
X7253427Y-2877718D01*
X7252716Y-2875788D01*
X7251649Y-2874518D01*
X7250226Y-2873959D01*
X7242759Y-2873349D01*
X7241184Y-2873044D01*
X7239914Y-2872384D01*
X7239050Y-2871571D01*
X7238746Y-2870606D01*
X7239355Y-2869692D01*
X7241082Y-2868930D01*
X7243673Y-2868422D01*
X7246772Y-2868218D01*
X7254798Y-2868218D01*
X7254798Y-2858617D01*
X7238746Y-2858617D01*
X7238746Y-2851404D01*
X7268718Y-2851404D01*
X7269112Y-2852572D01*
X7337399Y-2852572D01*
X7337653Y-2852115D01*
X7339279Y-2851505D01*
X7340447Y-2851404D01*
X7342225Y-2852978D01*
X7344765Y-2857347D01*
X7347813Y-2863900D01*
X7350963Y-2871978D01*
X7353757Y-2880106D01*
X7355840Y-2886964D01*
X7357016Y-2892196D01*
X7360361Y-2892196D01*
X7360361Y-2885338D01*
X7374686Y-2887268D01*
X7370673Y-2882595D01*
X7368946Y-2880868D01*
X7367320Y-2879598D01*
X7365949Y-2878937D01*
X7364374Y-2879140D01*
X7363764Y-2878836D01*
X7363104Y-2877108D01*
X7360920Y-2864612D01*
X7360970Y-2861818D01*
X7361580Y-2859328D01*
X7362647Y-2857398D01*
X7364323Y-2856026D01*
X7366812Y-2854858D01*
X7369759Y-2854096D01*
X7372858Y-2853791D01*
X7378496Y-2854299D01*
X7380579Y-2854807D01*
X7381748Y-2855417D01*
X7382814Y-2857093D01*
X7383272Y-2858871D01*
X7382713Y-2859633D01*
X7381087Y-2860395D01*
X7375804Y-2861462D01*
X7368387Y-2862224D01*
X7369149Y-2866999D01*
X7370064Y-2869539D01*
X7371915Y-2872841D01*
X7386066Y-2872841D01*
X7386370Y-2868828D01*
X7387081Y-2865374D01*
X7388047Y-2862021D01*
X7389215Y-2859176D01*
X7390333Y-2857195D01*
X7391908Y-2855874D01*
X7394143Y-2854807D01*
X7396835Y-2854096D01*
X7399578Y-2853791D01*
X7402728Y-2854198D01*
X7405471Y-2855315D01*
X7407859Y-2857195D01*
X7409942Y-2859887D01*
X7413752Y-2865983D01*
X7416342Y-2860497D01*
X7417917Y-2858058D01*
X7420102Y-2856179D01*
X7422896Y-2854960D01*
X7426198Y-2854248D01*
X7433462Y-2853537D01*
X7441234Y-2865932D01*
X7440015Y-2875534D01*
X7439304Y-2879598D01*
X7438288Y-2883408D01*
X7437069Y-2886659D01*
X7435900Y-2888843D01*
X7434173Y-2890266D01*
X7431836Y-2891231D01*
X7429042Y-2891739D01*
X7425994Y-2891739D01*
X7422794Y-2891078D01*
X7420051Y-2889808D01*
X7417917Y-2887929D01*
X7416342Y-2885490D01*
X7413752Y-2880004D01*
X7406131Y-2892196D01*
X7442911Y-2892196D01*
X7442911Y-2884474D01*
X7456271Y-2886506D01*
X7450734Y-2878937D01*
X7448600Y-2875534D01*
X7446873Y-2871825D01*
X7445654Y-2868371D01*
X7445248Y-2865475D01*
X7445451Y-2862935D01*
X7446060Y-2860446D01*
X7446924Y-2858262D01*
X7447991Y-2856687D01*
X7449616Y-2855569D01*
X7452055Y-2854655D01*
X7454900Y-2854045D01*
X7457948Y-2853791D01*
X7463383Y-2854248D01*
X7465364Y-2854706D01*
X7466482Y-2855264D01*
X7466939Y-2856026D01*
X7467142Y-2857144D01*
X7466787Y-2859633D01*
X7465822Y-2860751D01*
X7464145Y-2861462D01*
X7461758Y-2861716D01*
X7458913Y-2861513D01*
X7452106Y-2860446D01*
X7452106Y-2865526D01*
X7452766Y-2868218D01*
X7454493Y-2871825D01*
X7457033Y-2875889D01*
X7463281Y-2883611D01*
X7467549Y-2889351D01*
X7468158Y-2890672D01*
X7467193Y-2891282D01*
X7460437Y-2892094D01*
X7392568Y-2892196D01*
X7388809Y-2884627D01*
X7387336Y-2880868D01*
X7386421Y-2876905D01*
X7386066Y-2872841D01*
X7371943Y-2872892D01*
X7374636Y-2876651D01*
X7380782Y-2883763D01*
X7384948Y-2889148D01*
X7385558Y-2890520D01*
X7384592Y-2891180D01*
X7381849Y-2891688D01*
X7372959Y-2892196D01*
X7357016Y-2892196D01*
X7357059Y-2894025D01*
X7356348Y-2894431D01*
X7355484Y-2894380D01*
X7354519Y-2893974D01*
X7353604Y-2893263D01*
X7352233Y-2890875D01*
X7347356Y-2879750D01*
X7341717Y-2865018D01*
X7337399Y-2852572D01*
X7269112Y-2852572D01*
X7269523Y-2853791D01*
X7294524Y-2853791D01*
X7298791Y-2854045D01*
X7302246Y-2854655D01*
X7304633Y-2855569D01*
X7305802Y-2856788D01*
X7306411Y-2860954D01*
X7306614Y-2866745D01*
X7306502Y-2870606D01*
X7309866Y-2870606D01*
X7310170Y-2867812D01*
X7310932Y-2864713D01*
X7312050Y-2861716D01*
X7313422Y-2859125D01*
X7315403Y-2856839D01*
X7317841Y-2855214D01*
X7320584Y-2854147D01*
X7323734Y-2853791D01*
X7330389Y-2853791D01*
X7338263Y-2866339D01*
X7331405Y-2878988D01*
X7318552Y-2878785D01*
X7325207Y-2884170D01*
X7329931Y-2887675D01*
X7336231Y-2891891D01*
X7326477Y-2891942D01*
X7323785Y-2891586D01*
X7321550Y-2891028D01*
X7320076Y-2890367D01*
X7317181Y-2887370D01*
X7313726Y-2882646D01*
X7312253Y-2879902D01*
X7310983Y-2876702D01*
X7310170Y-2873451D01*
X7309866Y-2870606D01*
X7306502Y-2870606D01*
X7306411Y-2873705D01*
X7300722Y-2874619D01*
X7296099Y-2875940D01*
X7294219Y-2876854D01*
X7292898Y-2877769D01*
X7292238Y-2878937D01*
X7292136Y-2880410D01*
X7292695Y-2882036D01*
X7293762Y-2883763D01*
X7295286Y-2885135D01*
X7297267Y-2886202D01*
X7299452Y-2886811D01*
X7303566Y-2886760D01*
X7305344Y-2887116D01*
X7306767Y-2887726D01*
X7307580Y-2888589D01*
X7307580Y-2889605D01*
X7306818Y-2890520D01*
X7305344Y-2891282D01*
X7303312Y-2891790D01*
X7300772Y-2891993D01*
X7295032Y-2891637D01*
X7292441Y-2891180D01*
X7290104Y-2890164D01*
X7288072Y-2888488D01*
X7286548Y-2886252D01*
X7285532Y-2883662D01*
X7285126Y-2880715D01*
X7285431Y-2877921D01*
X7286447Y-2875381D01*
X7288174Y-2872892D01*
X7290053Y-2871063D01*
X7292238Y-2869590D01*
X7294422Y-2868574D01*
X7298080Y-2867964D01*
X7299147Y-2867304D01*
X7299553Y-2866237D01*
X7299299Y-2864764D01*
X7298334Y-2863342D01*
X7296658Y-2862072D01*
X7294473Y-2861106D01*
X7289698Y-2860040D01*
X7287615Y-2859125D01*
X7286040Y-2858058D01*
X7285177Y-2856788D01*
X7284262Y-2853791D01*
X7269523Y-2853791D01*
X7281316Y-2885592D01*
X7284415Y-2894584D01*
X7281214Y-2894584D01*
X7279335Y-2893110D01*
X7276795Y-2888843D01*
X7273747Y-2882239D01*
X7262825Y-2852724D01*
X7261504Y-2892196D01*
X7164086Y-2892196D01*
X7164171Y-2929382D01*
X7168286Y-2937256D01*
X7170064Y-2940202D01*
X7171842Y-2942386D01*
X7173468Y-2943606D01*
X7174636Y-2943656D01*
X7175500Y-2943250D01*
X7176160Y-2943250D01*
X7176516Y-2943555D01*
X7176516Y-2948787D01*
X7177582Y-2950362D01*
X7180275Y-2952699D01*
X7184136Y-2955493D01*
X7200900Y-2965348D01*
X7390892Y-2965196D01*
X7447838Y-2964637D01*
X7467041Y-2964230D01*
X7478166Y-2963773D01*
X7480300Y-2963519D01*
X7483449Y-2962097D01*
X7487412Y-2959709D01*
X7491628Y-2956610D01*
X7495641Y-2953156D01*
X7499451Y-2948990D01*
X7503210Y-2943860D01*
X7506462Y-2938475D01*
X7508748Y-2933446D01*
X7512913Y-2922168D01*
X7512913Y-2387244D01*
X7509916Y-2378456D01*
X7508138Y-2374392D01*
X7505547Y-2369921D01*
X7502398Y-2365451D01*
X7499146Y-2361641D01*
X7495235Y-2358237D01*
X7490358Y-2354783D01*
X7485176Y-2351735D01*
X7480300Y-2349500D01*
G37*
G36*
X7438440Y-2400401D02*
G01*
X7431125Y-2412085D01*
X7433716Y-2417165D01*
X7435189Y-2419299D01*
X7437272Y-2421432D01*
X7439659Y-2423210D01*
X7442098Y-2424531D01*
X7445298Y-2425395D01*
X7449820Y-2426157D01*
X7455001Y-2426614D01*
X7460284Y-2426817D01*
X7472781Y-2426817D01*
X7472781Y-2400401D01*
G37*
G36*
X7378242Y-2422144D02*
G01*
X7375398Y-2422855D01*
X7370876Y-2424734D01*
X7368489Y-2426309D01*
X7366253Y-2428494D01*
X7364425Y-2431084D01*
X7363206Y-2433726D01*
X7361936Y-2439212D01*
X7361580Y-2443581D01*
X7362291Y-2451404D01*
X7362799Y-2453386D01*
X7363866Y-2455773D01*
X7365390Y-2458212D01*
X7367219Y-2460396D01*
X7369505Y-2462276D01*
X7372400Y-2463800D01*
X7375448Y-2464816D01*
X7378344Y-2465171D01*
X7381138Y-2464866D01*
X7384034Y-2463952D01*
X7386574Y-2462631D01*
X7388504Y-2461006D01*
X7390028Y-2458872D01*
X7391501Y-2456129D01*
X7392771Y-2453182D01*
X7393635Y-2450338D01*
X7394041Y-2447137D01*
X7393990Y-2443327D01*
X7393482Y-2439365D01*
X7392619Y-2435656D01*
X7391196Y-2432253D01*
X7389266Y-2429103D01*
X7387132Y-2426563D01*
X7384948Y-2424887D01*
X7380884Y-2423058D01*
G37*
G36*
X7432751Y-2796286D02*
G01*
X7430211Y-2796844D01*
X7427569Y-2798114D01*
X7426350Y-2799384D01*
X7424928Y-2801467D01*
X7423505Y-2804058D01*
X7419797Y-2813913D01*
X7422438Y-2820568D01*
X7423810Y-2823311D01*
X7425537Y-2825699D01*
X7427468Y-2827629D01*
X7429347Y-2828696D01*
X7431328Y-2829001D01*
X7433716Y-2828899D01*
X7436103Y-2828391D01*
X7438237Y-2827477D01*
X7440117Y-2826054D01*
X7441641Y-2824073D01*
X7442758Y-2821838D01*
X7443266Y-2819552D01*
X7443419Y-2814015D01*
X7443165Y-2808224D01*
X7442708Y-2805684D01*
X7441742Y-2803093D01*
X7440422Y-2800858D01*
X7438948Y-2799232D01*
X7435545Y-2797149D01*
X7433970Y-2796489D01*
G37*
G36*
X7358024Y-2798318D02*
G01*
X7343140Y-2799842D01*
X7343140Y-2809443D01*
X7358024Y-2810916D01*
G37*
G36*
X7271715Y-2803296D02*
G01*
X7271156Y-2803956D01*
X7268159Y-2811221D01*
X7266127Y-2815437D01*
X7277353Y-2815437D01*
X7273594Y-2805531D01*
X7272578Y-2803906D01*
G37*
G36*
X7323429Y-2858617D02*
G01*
X7322464Y-2858973D01*
X7320127Y-2861564D01*
X7319009Y-2863443D01*
X7318146Y-2865526D01*
X7317689Y-2867558D01*
X7317587Y-2869387D01*
X7317943Y-2870657D01*
X7318806Y-2871571D01*
X7320229Y-2872333D01*
X7321956Y-2872841D01*
X7323836Y-2872994D01*
X7325715Y-2872740D01*
X7327442Y-2871927D01*
X7328814Y-2870809D01*
X7329678Y-2869387D01*
X7329982Y-2867710D01*
X7329830Y-2865780D01*
X7329170Y-2863850D01*
X7328204Y-2862173D01*
X7325614Y-2859684D01*
X7324394Y-2858871D01*
G37*
G36*
X7426756Y-2858617D02*
G01*
X7425690Y-2859074D01*
X7424470Y-2860395D01*
X7423302Y-2862275D01*
X7422286Y-2864612D01*
X7421524Y-2867507D01*
X7421168Y-2870962D01*
X7421118Y-2874568D01*
X7421473Y-2877870D01*
X7423150Y-2883408D01*
X7424216Y-2885440D01*
X7425232Y-2886608D01*
X7426401Y-2886862D01*
X7427772Y-2886405D01*
X7429296Y-2885287D01*
X7430668Y-2883712D01*
X7431887Y-2881528D01*
X7432852Y-2878937D01*
X7433513Y-2876143D01*
X7433767Y-2873603D01*
X7433564Y-2871012D01*
X7433056Y-2868218D01*
X7432294Y-2865526D01*
X7431379Y-2863240D01*
X7430262Y-2861462D01*
X7429042Y-2859989D01*
X7427823Y-2858973D01*
G37*
G36*
X7398613Y-2859278D02*
G01*
X7397496Y-2860446D01*
X7396530Y-2863037D01*
X7395768Y-2866593D01*
X7395311Y-2870809D01*
X7395209Y-2875178D01*
X7395464Y-2879242D01*
X7396022Y-2882595D01*
X7396784Y-2884728D01*
X7397750Y-2885846D01*
X7398969Y-2886557D01*
X7400188Y-2886760D01*
X7401306Y-2886405D01*
X7402372Y-2885186D01*
X7403439Y-2882950D01*
X7404455Y-2880004D01*
X7405217Y-2876753D01*
X7405573Y-2873197D01*
X7405471Y-2869539D01*
X7404912Y-2866186D01*
X7403998Y-2863545D01*
X7402728Y-2861564D01*
X7401306Y-2860141D01*
X7399883Y-2859328D01*
G37*
G36*
X6441744Y-2455367D02*
G01*
X6438950Y-2458516D01*
X6426657Y-2481630D01*
X6367983Y-2596388D01*
X6328575Y-2674010D01*
X6334353Y-2674010D01*
X6372961Y-2600553D01*
X6380632Y-2600706D01*
X6384747Y-2601112D01*
X6390182Y-2602026D01*
X6396228Y-2603347D01*
X6414414Y-2608224D01*
X6459677Y-2619451D01*
X6481318Y-2625191D01*
X6502196Y-2631287D01*
X6522059Y-2668016D01*
X6499250Y-2682443D01*
X6487210Y-2673705D01*
X6481927Y-2670149D01*
X6477101Y-2667609D01*
X6472682Y-2666034D01*
X6468465Y-2665374D01*
X6464452Y-2665730D01*
X6460490Y-2666949D01*
X6456527Y-2669184D01*
X6452412Y-2672334D01*
X6443827Y-2679700D01*
X6455308Y-2685186D01*
X6459778Y-2687624D01*
X6463436Y-2690266D01*
X6465925Y-2692704D01*
X6466789Y-2694686D01*
X6466789Y-2698750D01*
X6448704Y-2698750D01*
X6439306Y-2685389D01*
X6423050Y-2692755D01*
X6426098Y-2702661D01*
X6427470Y-2709265D01*
X6428333Y-2717444D01*
X6392316Y-2736850D01*
X6334353Y-2674010D01*
X6328575Y-2674010D01*
X6258001Y-2812542D01*
X6245643Y-2837942D01*
X6251498Y-2837942D01*
X6252210Y-2835757D01*
X6256680Y-2826512D01*
X6268364Y-2805633D01*
X6414973Y-2729230D01*
X6501434Y-2684526D01*
X6528206Y-2671013D01*
X6539839Y-2665526D01*
X6543751Y-2668219D01*
X6548678Y-2675280D01*
X6552438Y-2682951D01*
X6552742Y-2687421D01*
X6409152Y-2760218D01*
X6427114Y-2760218D01*
X6427825Y-2757271D01*
X6430010Y-2754528D01*
X6433820Y-2751632D01*
X6443472Y-2745740D01*
X6450279Y-2742285D01*
X6451854Y-2741726D01*
X6456325Y-2744825D01*
X6472529Y-2744825D01*
X6473494Y-2738120D01*
X6474206Y-2735427D01*
X6475323Y-2733040D01*
X6476796Y-2731211D01*
X6478371Y-2730195D01*
X6482181Y-2728925D01*
X6482181Y-2744825D01*
X6456325Y-2744825D01*
X6456984Y-2745282D01*
X6464046Y-2753461D01*
X6470294Y-2762758D01*
X6472028Y-2767076D01*
X6481368Y-2767076D01*
X6484366Y-2751937D01*
X6486398Y-2736951D01*
X6487668Y-2729128D01*
X6489750Y-2723896D01*
X6492646Y-2721305D01*
X6496253Y-2721406D01*
X6498031Y-2721813D01*
X6499758Y-2721711D01*
X6501231Y-2721102D01*
X6503314Y-2718968D01*
X6504889Y-2718054D01*
X6506667Y-2717393D01*
X6508546Y-2717139D01*
X6512966Y-2717139D01*
X6512966Y-2757779D01*
X6506260Y-2769717D01*
X6501028Y-2777490D01*
X6496558Y-2781096D01*
X6493002Y-2780487D01*
X6490563Y-2775559D01*
X6488938Y-2769463D01*
X6494780Y-2761996D01*
X6497066Y-2758694D01*
X6498945Y-2755138D01*
X6500215Y-2751734D01*
X6500672Y-2748991D01*
X6500672Y-2743352D01*
X6494983Y-2753918D01*
X6492494Y-2758084D01*
X6489852Y-2761742D01*
X6487363Y-2764434D01*
X6485382Y-2765755D01*
X6481368Y-2767076D01*
X6472028Y-2767076D01*
X6472986Y-2769463D01*
X6472986Y-2775508D01*
X6463741Y-2775508D01*
X6460134Y-2775762D01*
X6457238Y-2776423D01*
X6455206Y-2777388D01*
X6454495Y-2778607D01*
X6455105Y-2779776D01*
X6456730Y-2780741D01*
X6459169Y-2781401D01*
X6462115Y-2781655D01*
X6469786Y-2781655D01*
X6470065Y-2782773D01*
X6506057Y-2782773D01*
X6506565Y-2778658D01*
X6508750Y-2773527D01*
X6512306Y-2768498D01*
X6517182Y-2763012D01*
X6517843Y-2709672D01*
X6527190Y-2704236D01*
X6534200Y-2700832D01*
X6538264Y-2701391D01*
X6540195Y-2706471D01*
X6540652Y-2716936D01*
X6540500Y-2725267D01*
X6539382Y-2740406D01*
X6538417Y-2747162D01*
X6537198Y-2753410D01*
X6535724Y-2759100D01*
X6533997Y-2764231D01*
X6532016Y-2768854D01*
X6529781Y-2772867D01*
X6527342Y-2776321D01*
X6524650Y-2779166D01*
X6521704Y-2781452D01*
X6518503Y-2783128D01*
X6515100Y-2784246D01*
X6511442Y-2784703D01*
X6507581Y-2784602D01*
X6506057Y-2782773D01*
X6470065Y-2782773D01*
X6473748Y-2797454D01*
X6470599Y-2800604D01*
X6468414Y-2802128D01*
X6465874Y-2802534D01*
X6462928Y-2801874D01*
X6459524Y-2800045D01*
X6455562Y-2796997D01*
X6451092Y-2792780D01*
X6445961Y-2787243D01*
X6434531Y-2773476D01*
X6430467Y-2768041D01*
X6428028Y-2763723D01*
X6427114Y-2760218D01*
X6409152Y-2760218D01*
X6321247Y-2804820D01*
X6287668Y-2821432D01*
X6263487Y-2833014D01*
X6255969Y-2836418D01*
X6252006Y-2837942D01*
X6245643Y-2837942D01*
X6243320Y-2843022D01*
X6242202Y-2846070D01*
X6242202Y-2849219D01*
X6501485Y-2849118D01*
X6569202Y-2848660D01*
X6617970Y-2847949D01*
X6633159Y-2847543D01*
X6641134Y-2847086D01*
X6642201Y-2846832D01*
X6641896Y-2845409D01*
X6639661Y-2840939D01*
X6635902Y-2834538D01*
X6618986Y-2802178D01*
X6495338Y-2560116D01*
X6457086Y-2485694D01*
G37*
G36*
X6851040Y-2500020D02*
G01*
X6839000Y-2500579D01*
X6827113Y-2501950D01*
X6821220Y-2502916D01*
X6809689Y-2505557D01*
X6804050Y-2507132D01*
X6793077Y-2510942D01*
X6782562Y-2515514D01*
X6777481Y-2518054D01*
X6767880Y-2523744D01*
X6758889Y-2530144D01*
X6742633Y-2544114D01*
X6760311Y-2566263D01*
X6776110Y-2553970D01*
X6780834Y-2550820D01*
X6791096Y-2544927D01*
X6802221Y-2539695D01*
X6813753Y-2535326D01*
X6819493Y-2533497D01*
X6830822Y-2530703D01*
X6854901Y-2527147D01*
X6879590Y-2531160D01*
X6890867Y-2534056D01*
X6896404Y-2535885D01*
X6907225Y-2540254D01*
X6917639Y-2545588D01*
X6927443Y-2551785D01*
X6936486Y-2558745D01*
X6948982Y-2569464D01*
X6960768Y-2557068D01*
X6963206Y-2553716D01*
X6964375Y-2550769D01*
X6964273Y-2547975D01*
X6962749Y-2545080D01*
X6959752Y-2541828D01*
X6955231Y-2538018D01*
X6943699Y-2529433D01*
X6933336Y-2522474D01*
X6923278Y-2516733D01*
X6918299Y-2514193D01*
X6908292Y-2509926D01*
X6897979Y-2506421D01*
X6887159Y-2503678D01*
X6881215Y-2502509D01*
X6869175Y-2500833D01*
X6857085Y-2500071D01*
G37*
G36*
X7015429Y-2540914D02*
G01*
X7012533Y-2541473D01*
X7008926Y-2544165D01*
X6997750Y-2555646D01*
X6987590Y-2565400D01*
X6976313Y-2574848D01*
X6964781Y-2583484D01*
X6953656Y-2590901D01*
X6943699Y-2596642D01*
X6939381Y-2598724D01*
X6935673Y-2600198D01*
X6932625Y-2601010D01*
X6930288Y-2601112D01*
X6928866Y-2600452D01*
X6928358Y-2598928D01*
X6928103Y-2597150D01*
X6927443Y-2595676D01*
X6926478Y-2594711D01*
X6925259Y-2594305D01*
X6924090Y-2594559D01*
X6923074Y-2595118D01*
X6922414Y-2595981D01*
X6922211Y-2597048D01*
X6921347Y-2599334D01*
X6919061Y-2603500D01*
X6915708Y-2608986D01*
X6900976Y-2630576D01*
X6923887Y-2630119D01*
X6937603Y-2629611D01*
X6944614Y-2628544D01*
X6946138Y-2626461D01*
X6943394Y-2622854D01*
X6939991Y-2619451D01*
X6947255Y-2614777D01*
X6950405Y-2612999D01*
X6959955Y-2608834D01*
X6972655Y-2604262D01*
X6987184Y-2599690D01*
X7002170Y-2595524D01*
X7016191Y-2592171D01*
X7030110Y-2589580D01*
X7040625Y-2587193D01*
X7042200Y-2586583D01*
X7038492Y-2579014D01*
X7024776Y-2553208D01*
X7021068Y-2546705D01*
X7018121Y-2542641D01*
G37*
G36*
X6691680Y-2541270D02*
G01*
X6689699Y-2541981D01*
X6687718Y-2543860D01*
X6685686Y-2546858D01*
X6664198Y-2586431D01*
X6701129Y-2594813D01*
X6715302Y-2598521D01*
X6728764Y-2602484D01*
X6741007Y-2606548D01*
X6751421Y-2610459D01*
X6759346Y-2614066D01*
X6766763Y-2618638D01*
X6762953Y-2622448D01*
X6759854Y-2626309D01*
X6761225Y-2628493D01*
X6768185Y-2629509D01*
X6782104Y-2629916D01*
X6805015Y-2630170D01*
X6801561Y-2624582D01*
X6789013Y-2606497D01*
X6786219Y-2601620D01*
X6784289Y-2597505D01*
X6783527Y-2594610D01*
X6783324Y-2589733D01*
X6779971Y-2596642D01*
X6778752Y-2598420D01*
X6777075Y-2599639D01*
X6774992Y-2600248D01*
X6772503Y-2600350D01*
X6769608Y-2599893D01*
X6766306Y-2598826D01*
X6762648Y-2597251D01*
X6758584Y-2595118D01*
X6754164Y-2592476D01*
X6744309Y-2585567D01*
X6733133Y-2576626D01*
X6720687Y-2565603D01*
X6699605Y-2545588D01*
X6696456Y-2543048D01*
X6693865Y-2541625D01*
G37*
G36*
X6706870Y-2620467D02*
G01*
X6701485Y-2621635D01*
X6698488Y-2627274D01*
X6696252Y-2638704D01*
X6693408Y-2656535D01*
X6700672Y-2700274D01*
X6725158Y-2750159D01*
X6749491Y-2772613D01*
X6760057Y-2780995D01*
X6771182Y-2788564D01*
X6782460Y-2795117D01*
X6787946Y-2797911D01*
X6793331Y-2800350D01*
X6803339Y-2803956D01*
X6807860Y-2805074D01*
X6816750Y-2806852D01*
X6822694Y-2789224D01*
X6823506Y-2784602D01*
X6822744Y-2782265D01*
X6820306Y-2781655D01*
X6816445Y-2781401D01*
X6812381Y-2780639D01*
X6808165Y-2779420D01*
X6803847Y-2777744D01*
X6799376Y-2775661D01*
X6794855Y-2773172D01*
X6790283Y-2770327D01*
X6781088Y-2763621D01*
X6771995Y-2755747D01*
X6763156Y-2746908D01*
X6754875Y-2737307D01*
X6750964Y-2732278D01*
X6743801Y-2721965D01*
X6740601Y-2716682D01*
X6735064Y-2706065D01*
X6732778Y-2700731D01*
X6730847Y-2695498D01*
X6729272Y-2690317D01*
X6724650Y-2672638D01*
X6727291Y-2625394D01*
X6716268Y-2622499D01*
G37*
G36*
X6979818Y-2621940D02*
G01*
X6981952Y-2646984D01*
X6982002Y-2659024D01*
X6981088Y-2670911D01*
X6980224Y-2676804D01*
X6977786Y-2688285D01*
X6976211Y-2693924D01*
X6974382Y-2699461D01*
X6970014Y-2710230D01*
X6964730Y-2720594D01*
X6958533Y-2730449D01*
X6951421Y-2739745D01*
X6947560Y-2744165D01*
X6928307Y-2763570D01*
X6888378Y-2782214D01*
X6892493Y-2800197D01*
X6894220Y-2806039D01*
X6912864Y-2799334D01*
X6923582Y-2794304D01*
X6928815Y-2791409D01*
X6938924Y-2784906D01*
X6948627Y-2777490D01*
X6957771Y-2769209D01*
X6966356Y-2760268D01*
X6974281Y-2750718D01*
X6981596Y-2740558D01*
X6988149Y-2729992D01*
X6993940Y-2719019D01*
X6998919Y-2707792D01*
X7003034Y-2696413D01*
X7006183Y-2684881D01*
X7008368Y-2673350D01*
X7009130Y-2667609D01*
X7009739Y-2656230D01*
X7009638Y-2650591D01*
X7009282Y-2645054D01*
X7008622Y-2639568D01*
X7007656Y-2634183D01*
X7004558Y-2621940D01*
G37*
G36*
X6851446Y-2711043D02*
G01*
X6850227Y-2711348D01*
X6849262Y-2712212D01*
X6848602Y-2713482D01*
X6847636Y-2717749D01*
X6845655Y-2722118D01*
X6842709Y-2727604D01*
X6832853Y-2743708D01*
X6830466Y-2748940D01*
X6831736Y-2750413D01*
X6836511Y-2749245D01*
X6843166Y-2747162D01*
X6840778Y-2782265D01*
X6839203Y-2795524D01*
X6836918Y-2808986D01*
X6834124Y-2822092D01*
X6830822Y-2834386D01*
X6827266Y-2845257D01*
X6823100Y-2855366D01*
X6882841Y-2855366D01*
X6878370Y-2844393D01*
X6874052Y-2831998D01*
X6870090Y-2818688D01*
X6866636Y-2805125D01*
X6863943Y-2791968D01*
X6862876Y-2785770D01*
X6861556Y-2774492D01*
X6859676Y-2749956D01*
X6872528Y-2753309D01*
X6860031Y-2728468D01*
X6857136Y-2722118D01*
X6855206Y-2717241D01*
X6854240Y-2713126D01*
X6853580Y-2712059D01*
X6852615Y-2711297D01*
G37*
D40*
X8940782Y-2822445D02*
G01*
X8940782Y-2863339D01*
X8937988Y-2871467D01*
X8932654Y-2876801D01*
X8924526Y-2879595D01*
X8918938Y-2879595D01*
X8910810Y-2876801D01*
X8905222Y-2871467D01*
X8902682Y-2863339D01*
X8902682Y-2822445D01*
X8884648Y-2841495D02*
G01*
X8884648Y-2879595D01*
X8884648Y-2852417D02*
G01*
X8876520Y-2844289D01*
X8870932Y-2841495D01*
X8862804Y-2841495D01*
X8857216Y-2844289D01*
X8854676Y-2852417D01*
X8854676Y-2879595D01*
X8836642Y-2822445D02*
G01*
X8833848Y-2824985D01*
X8831054Y-2822445D01*
X8833848Y-2819651D01*
X8836642Y-2822445D01*
X8833848Y-2841495D02*
G01*
X8833848Y-2879595D01*
X8813020Y-2841495D02*
G01*
X8796764Y-2879595D01*
X8780508Y-2841495D02*
G01*
X8796764Y-2879595D01*
X8762474Y-2857751D02*
G01*
X8729708Y-2857751D01*
X8729708Y-2852417D01*
X8732502Y-2846829D01*
X8735042Y-2844289D01*
X8740630Y-2841495D01*
X8748758Y-2841495D01*
X8754346Y-2844289D01*
X8759680Y-2849623D01*
X8762474Y-2857751D01*
X8762474Y-2863339D01*
X8759680Y-2871467D01*
X8754346Y-2876801D01*
X8748758Y-2879595D01*
X8740630Y-2879595D01*
X8735042Y-2876801D01*
X8729708Y-2871467D01*
X8711674Y-2841495D02*
G01*
X8711674Y-2879595D01*
X8711674Y-2857751D02*
G01*
X8708880Y-2849623D01*
X8703546Y-2844289D01*
X8697958Y-2841495D01*
X8689830Y-2841495D01*
X8641824Y-2849623D02*
G01*
X8644618Y-2844289D01*
X8652746Y-2841495D01*
X8660874Y-2841495D01*
X8669256Y-2844289D01*
X8671796Y-2849623D01*
X8669256Y-2854957D01*
X8663668Y-2857751D01*
X8649952Y-2860545D01*
X8644618Y-2863339D01*
X8641824Y-2868673D01*
X8641824Y-2871467D01*
X8644618Y-2876801D01*
X8652746Y-2879595D01*
X8660874Y-2879595D01*
X8669256Y-2876801D01*
X8671796Y-2871467D01*
X8623790Y-2822445D02*
G01*
X8621250Y-2824985D01*
X8618456Y-2822445D01*
X8621250Y-2819651D01*
X8623790Y-2822445D01*
X8621250Y-2841495D02*
G01*
X8621250Y-2879595D01*
X8592294Y-2822445D02*
G01*
X8592294Y-2868673D01*
X8589500Y-2876801D01*
X8584166Y-2879595D01*
X8578578Y-2879595D01*
X8600422Y-2841495D02*
G01*
X8581372Y-2841495D01*
X8557750Y-2841495D02*
G01*
X8541494Y-2879595D01*
X8525238Y-2841495D02*
G01*
X8541494Y-2879595D01*
X8547082Y-2890517D01*
X8552416Y-2896105D01*
X8557750Y-2898645D01*
X8560544Y-2898645D01*
X8451578Y-2841495D02*
G01*
X8456912Y-2844289D01*
X8462500Y-2849623D01*
X8465040Y-2857751D01*
X8465040Y-2863339D01*
X8462500Y-2871467D01*
X8456912Y-2876801D01*
X8451578Y-2879595D01*
X8443450Y-2879595D01*
X8437862Y-2876801D01*
X8432528Y-2871467D01*
X8429734Y-2863339D01*
X8429734Y-2857751D01*
X8432528Y-2849623D01*
X8437862Y-2844289D01*
X8443450Y-2841495D01*
X8451578Y-2841495D01*
X8389856Y-2822445D02*
G01*
X8395444Y-2822445D01*
X8400778Y-2824985D01*
X8403572Y-2833367D01*
X8403572Y-2879595D01*
X8411700Y-2841495D02*
G01*
X8392650Y-2841495D01*
X8308068Y-2822445D02*
G01*
X8329912Y-2879595D01*
X8308068Y-2822445D02*
G01*
X8286224Y-2879595D01*
X8321784Y-2860545D02*
G01*
X8294352Y-2860545D01*
X8268190Y-2841495D02*
G01*
X8268190Y-2868673D01*
X8265396Y-2876801D01*
X8260062Y-2879595D01*
X8251934Y-2879595D01*
X8246346Y-2876801D01*
X8238218Y-2868673D01*
X8238218Y-2841495D02*
G01*
X8238218Y-2879595D01*
X8187418Y-2849623D02*
G01*
X8193006Y-2844289D01*
X8198340Y-2841495D01*
X8206722Y-2841495D01*
X8212056Y-2844289D01*
X8217390Y-2849623D01*
X8220184Y-2857751D01*
X8220184Y-2863339D01*
X8217390Y-2871467D01*
X8212056Y-2876801D01*
X8206722Y-2879595D01*
X8198340Y-2879595D01*
X8193006Y-2876801D01*
X8187418Y-2871467D01*
X8169384Y-2822445D02*
G01*
X8169384Y-2879595D01*
X8142206Y-2841495D02*
G01*
X8169384Y-2868673D01*
X8158716Y-2857751D02*
G01*
X8139412Y-2879595D01*
X8121632Y-2822445D02*
G01*
X8121632Y-2879595D01*
X8070832Y-2841495D02*
G01*
X8070832Y-2879595D01*
X8070832Y-2849623D02*
G01*
X8076166Y-2844289D01*
X8081754Y-2841495D01*
X8089882Y-2841495D01*
X8095216Y-2844289D01*
X8100804Y-2849623D01*
X8103598Y-2857751D01*
X8103598Y-2863339D01*
X8100804Y-2871467D01*
X8095216Y-2876801D01*
X8089882Y-2879595D01*
X8081754Y-2879595D01*
X8076166Y-2876801D01*
X8070832Y-2871467D01*
X8052798Y-2841495D02*
G01*
X8052798Y-2879595D01*
X8052798Y-2852417D02*
G01*
X8044670Y-2844289D01*
X8039082Y-2841495D01*
X8030954Y-2841495D01*
X8025620Y-2844289D01*
X8022826Y-2852417D01*
X8022826Y-2879595D01*
X7972026Y-2822445D02*
G01*
X7972026Y-2879595D01*
X7972026Y-2849623D02*
G01*
X7977614Y-2844289D01*
X7982948Y-2841495D01*
X7991076Y-2841495D01*
X7996664Y-2844289D01*
X8001998Y-2849623D01*
X8004792Y-2857751D01*
X8004792Y-2863339D01*
X8001998Y-2871467D01*
X7996664Y-2876801D01*
X7991076Y-2879595D01*
X7982948Y-2879595D01*
X7977614Y-2876801D01*
X7972026Y-2871467D01*
X8127982Y-2619245D02*
G01*
X8127982Y-2676395D01*
X8127982Y-2619245D02*
G01*
X8103344Y-2619245D01*
X8095216Y-2621785D01*
X8092422Y-2624579D01*
X8089882Y-2630167D01*
X8089882Y-2638295D01*
X8092422Y-2643629D01*
X8095216Y-2646423D01*
X8103344Y-2649217D01*
X8127982Y-2649217D01*
X8071848Y-2638295D02*
G01*
X8071848Y-2676395D01*
X8071848Y-2654551D02*
G01*
X8069054Y-2646423D01*
X8063720Y-2641089D01*
X8058132Y-2638295D01*
X8050004Y-2638295D01*
X8018254Y-2638295D02*
G01*
X8023842Y-2641089D01*
X8029176Y-2646423D01*
X8031970Y-2654551D01*
X8031970Y-2660139D01*
X8029176Y-2668267D01*
X8023842Y-2673601D01*
X8018254Y-2676395D01*
X8010126Y-2676395D01*
X8004792Y-2673601D01*
X7999204Y-2668267D01*
X7996410Y-2660139D01*
X7996410Y-2654551D01*
X7999204Y-2646423D01*
X8004792Y-2641089D01*
X8010126Y-2638295D01*
X8018254Y-2638295D01*
X7967708Y-2619245D02*
G01*
X7964914Y-2621785D01*
X7962120Y-2619245D01*
X7964914Y-2616451D01*
X7967708Y-2619245D01*
X7964914Y-2638295D02*
G01*
X7964914Y-2684523D01*
X7967708Y-2692905D01*
X7973042Y-2695445D01*
X7978630Y-2695445D01*
X7944086Y-2654551D02*
G01*
X7911320Y-2654551D01*
X7911320Y-2649217D01*
X7914114Y-2643629D01*
X7916908Y-2641089D01*
X7922242Y-2638295D01*
X7930624Y-2638295D01*
X7935958Y-2641089D01*
X7941546Y-2646423D01*
X7944086Y-2654551D01*
X7944086Y-2660139D01*
X7941546Y-2668267D01*
X7935958Y-2673601D01*
X7930624Y-2676395D01*
X7922242Y-2676395D01*
X7916908Y-2673601D01*
X7911320Y-2668267D01*
X7860774Y-2646423D02*
G01*
X7866108Y-2641089D01*
X7871696Y-2638295D01*
X7879824Y-2638295D01*
X7885158Y-2641089D01*
X7890746Y-2646423D01*
X7893540Y-2654551D01*
X7893540Y-2660139D01*
X7890746Y-2668267D01*
X7885158Y-2673601D01*
X7879824Y-2676395D01*
X7871696Y-2676395D01*
X7866108Y-2673601D01*
X7860774Y-2668267D01*
X7834612Y-2619245D02*
G01*
X7834612Y-2665473D01*
X7831818Y-2673601D01*
X7826230Y-2676395D01*
X7820896Y-2676395D01*
X7842740Y-2638295D02*
G01*
X7823690Y-2638295D01*
X7760952Y-2619245D02*
G01*
X7760952Y-2676395D01*
X7760952Y-2619245D02*
G01*
X7736314Y-2619245D01*
X7728186Y-2621785D01*
X7725392Y-2624579D01*
X7722598Y-2630167D01*
X7722598Y-2635501D01*
X7725392Y-2641089D01*
X7728186Y-2643629D01*
X7736314Y-2646423D01*
X7760952Y-2646423D01*
X7741902Y-2646423D02*
G01*
X7722598Y-2676395D01*
X7666464Y-2627373D02*
G01*
X7672052Y-2621785D01*
X7680180Y-2619245D01*
X7691102Y-2619245D01*
X7699230Y-2621785D01*
X7704818Y-2627373D01*
X7704818Y-2632707D01*
X7702024Y-2638295D01*
X7699230Y-2641089D01*
X7693896Y-2643629D01*
X7677386Y-2649217D01*
X7672052Y-2651757D01*
X7669258Y-2654551D01*
X7666464Y-2660139D01*
X7666464Y-2668267D01*
X7672052Y-2673601D01*
X7680180Y-2676395D01*
X7691102Y-2676395D01*
X7699230Y-2673601D01*
X7704818Y-2668267D01*
X7648430Y-2630167D02*
G01*
X7643096Y-2627373D01*
X7634968Y-2619245D01*
X7634968Y-2676395D01*
X7616934Y-2619245D02*
G01*
X7616934Y-2676395D01*
X7616934Y-2619245D02*
G01*
X7597884Y-2619245D01*
X7589502Y-2621785D01*
X7584168Y-2627373D01*
X7581374Y-2632707D01*
X7578834Y-2641089D01*
X7578834Y-2654551D01*
X7581374Y-2662679D01*
X7584168Y-2668267D01*
X7589502Y-2673601D01*
X7597884Y-2676395D01*
X7616934Y-2676395D01*
X9944107Y-2822445D02*
G01*
X9944107Y-2879595D01*
X9944107Y-2822445D02*
G01*
X9925057Y-2822445D01*
X9916929Y-2824985D01*
X9911341Y-2830573D01*
X9908547Y-2835907D01*
X9906007Y-2844289D01*
X9906007Y-2857751D01*
X9908547Y-2865879D01*
X9911341Y-2871467D01*
X9916929Y-2876801D01*
X9925057Y-2879595D01*
X9944107Y-2879595D01*
X9887973Y-2857751D02*
G01*
X9855207Y-2857751D01*
X9855207Y-2852417D01*
X9858001Y-2846829D01*
X9860541Y-2844289D01*
X9866129Y-2841495D01*
X9874257Y-2841495D01*
X9879845Y-2844289D01*
X9885179Y-2849623D01*
X9887973Y-2857751D01*
X9887973Y-2863339D01*
X9885179Y-2871467D01*
X9879845Y-2876801D01*
X9874257Y-2879595D01*
X9866129Y-2879595D01*
X9860541Y-2876801D01*
X9855207Y-2871467D01*
X9807201Y-2849623D02*
G01*
X9809995Y-2844289D01*
X9818123Y-2841495D01*
X9826251Y-2841495D01*
X9834379Y-2844289D01*
X9837173Y-2849623D01*
X9834379Y-2854957D01*
X9829045Y-2857751D01*
X9815329Y-2860545D01*
X9809995Y-2863339D01*
X9807201Y-2868673D01*
X9807201Y-2871467D01*
X9809995Y-2876801D01*
X9818123Y-2879595D01*
X9826251Y-2879595D01*
X9834379Y-2876801D01*
X9837173Y-2871467D01*
X9789167Y-2822445D02*
G01*
X9786373Y-2824985D01*
X9783833Y-2822445D01*
X9786373Y-2819651D01*
X9789167Y-2822445D01*
X9786373Y-2841495D02*
G01*
X9786373Y-2879595D01*
X9733033Y-2841495D02*
G01*
X9733033Y-2885183D01*
X9735827Y-2893311D01*
X9738367Y-2896105D01*
X9743955Y-2898645D01*
X9752083Y-2898645D01*
X9757671Y-2896105D01*
X9733033Y-2849623D02*
G01*
X9738367Y-2844289D01*
X9743955Y-2841495D01*
X9752083Y-2841495D01*
X9757671Y-2844289D01*
X9763005Y-2849623D01*
X9765799Y-2857751D01*
X9765799Y-2863339D01*
X9763005Y-2871467D01*
X9757671Y-2876801D01*
X9752083Y-2879595D01*
X9743955Y-2879595D01*
X9738367Y-2876801D01*
X9733033Y-2871467D01*
X9714999Y-2841495D02*
G01*
X9714999Y-2879595D01*
X9714999Y-2852417D02*
G01*
X9706871Y-2844289D01*
X9701283Y-2841495D01*
X9693155Y-2841495D01*
X9687821Y-2844289D01*
X9685027Y-2852417D01*
X9685027Y-2879595D01*
X9625083Y-2822445D02*
G01*
X9625083Y-2879595D01*
X9625083Y-2849623D02*
G01*
X9619495Y-2844289D01*
X9614161Y-2841495D01*
X9606033Y-2841495D01*
X9600445Y-2844289D01*
X9595111Y-2849623D01*
X9592317Y-2857751D01*
X9592317Y-2863339D01*
X9595111Y-2871467D01*
X9600445Y-2876801D01*
X9606033Y-2879595D01*
X9614161Y-2879595D01*
X9619495Y-2876801D01*
X9625083Y-2871467D01*
X9571489Y-2841495D02*
G01*
X9555233Y-2879595D01*
X9538723Y-2841495D02*
G01*
X9555233Y-2879595D01*
X9560567Y-2890517D01*
X9566155Y-2896105D01*
X9571489Y-2898645D01*
X9574283Y-2898645D01*
X9478779Y-2822445D02*
G01*
X9478779Y-2879595D01*
X9478779Y-2822445D02*
G01*
X9440679Y-2879595D01*
X9440679Y-2822445D02*
G01*
X9440679Y-2879595D01*
X9419851Y-2865879D02*
G01*
X9422645Y-2868673D01*
X9419851Y-2871467D01*
X9417311Y-2868673D01*
X9419851Y-2865879D01*
X9357113Y-2822445D02*
G01*
X9357113Y-2879595D01*
X9357113Y-2822445D02*
G01*
X9321807Y-2822445D01*
X9357113Y-2849623D02*
G01*
X9335269Y-2849623D01*
X9357113Y-2879595D02*
G01*
X9321807Y-2879595D01*
X9273801Y-2849623D02*
G01*
X9276595Y-2844289D01*
X9284723Y-2841495D01*
X9292851Y-2841495D01*
X9300979Y-2844289D01*
X9303773Y-2849623D01*
X9300979Y-2854957D01*
X9295645Y-2857751D01*
X9281929Y-2860545D01*
X9276595Y-2863339D01*
X9273801Y-2868673D01*
X9273801Y-2871467D01*
X9276595Y-2876801D01*
X9284723Y-2879595D01*
X9292851Y-2879595D01*
X9300979Y-2876801D01*
X9303773Y-2871467D01*
X9255767Y-2841495D02*
G01*
X9255767Y-2879595D01*
X9255767Y-2852417D02*
G01*
X9247639Y-2844289D01*
X9242051Y-2841495D01*
X9233923Y-2841495D01*
X9228589Y-2844289D01*
X9225795Y-2852417D01*
X9225795Y-2879595D01*
X9174995Y-2841495D02*
G01*
X9174995Y-2879595D01*
X9174995Y-2849623D02*
G01*
X9180583Y-2844289D01*
X9185917Y-2841495D01*
X9194045Y-2841495D01*
X9199633Y-2844289D01*
X9204967Y-2849623D01*
X9207761Y-2857751D01*
X9207761Y-2863339D01*
X9204967Y-2871467D01*
X9199633Y-2876801D01*
X9194045Y-2879595D01*
X9185917Y-2879595D01*
X9180583Y-2876801D01*
X9174995Y-2871467D01*
X9156961Y-2841495D02*
G01*
X9156961Y-2868673D01*
X9154167Y-2876801D01*
X9148833Y-2879595D01*
X9140705Y-2879595D01*
X9135117Y-2876801D01*
X9126989Y-2868673D01*
X9126989Y-2841495D02*
G01*
X9126989Y-2879595D01*
X9108955Y-2822445D02*
G01*
X9108955Y-2879595D01*
X9082793Y-2822445D02*
G01*
X9082793Y-2868673D01*
X9079999Y-2876801D01*
X9074665Y-2879595D01*
X9069077Y-2879595D01*
X9090921Y-2841495D02*
G01*
X9071871Y-2841495D01*
D13*
X10019144Y-2603731D02*
G01*
X10028382Y-2594495D01*
X10042235Y-2589875D01*
X10060708Y-2589875D01*
X10074564Y-2594495D01*
X10083800Y-2603731D01*
X10083800Y-2612966D01*
X10079182Y-2622204D01*
X10074564Y-2626822D01*
X10065326Y-2631439D01*
X10037617Y-2640675D01*
X10028382Y-2645295D01*
X10023764Y-2649913D01*
X10019144Y-2659148D01*
X10019144Y-2673004D01*
X10028382Y-2682239D01*
X10042235Y-2686857D01*
X10060708Y-2686857D01*
X10074564Y-2682239D01*
X10083800Y-2673004D01*
X9988664Y-2649913D02*
G01*
X9933246Y-2649913D01*
X9933246Y-2640675D01*
X9937864Y-2631439D01*
X9942484Y-2626822D01*
X9951719Y-2622204D01*
X9965575Y-2622204D01*
X9974811Y-2626822D01*
X9984046Y-2636057D01*
X9988664Y-2649913D01*
X9988664Y-2659148D01*
X9984046Y-2673004D01*
X9974811Y-2682239D01*
X9965575Y-2686857D01*
X9951719Y-2686857D01*
X9942484Y-2682239D01*
X9933246Y-2673004D01*
X9902766Y-2589875D02*
G01*
X9898148Y-2594495D01*
X9893531Y-2589875D01*
X9898148Y-2585257D01*
X9902766Y-2589875D01*
X9898148Y-2622204D02*
G01*
X9898148Y-2686857D01*
X9812251Y-2636057D02*
G01*
X9816868Y-2626822D01*
X9830724Y-2622204D01*
X9844577Y-2622204D01*
X9858433Y-2626822D01*
X9863051Y-2636057D01*
X9858433Y-2645295D01*
X9849195Y-2649913D01*
X9826104Y-2654531D01*
X9816868Y-2659148D01*
X9812251Y-2668384D01*
X9812251Y-2673004D01*
X9816868Y-2682239D01*
X9830724Y-2686857D01*
X9844577Y-2686857D01*
X9858433Y-2682239D01*
X9863051Y-2673004D01*
X9781771Y-2622204D02*
G01*
X9781771Y-2686857D01*
X9781771Y-2640675D02*
G01*
X9767915Y-2626822D01*
X9758680Y-2622204D01*
X9744824Y-2622204D01*
X9735588Y-2626822D01*
X9730971Y-2640675D01*
X9730971Y-2686857D01*
X9730971Y-2640675D02*
G01*
X9717115Y-2626822D01*
X9707880Y-2622204D01*
X9694024Y-2622204D01*
X9684788Y-2626822D01*
X9680171Y-2640675D01*
X9680171Y-2686857D01*
X9626600Y-2622204D02*
G01*
X9635835Y-2626822D01*
X9645073Y-2636057D01*
X9649691Y-2649913D01*
X9649691Y-2659148D01*
X9645073Y-2673004D01*
X9635835Y-2682239D01*
X9626600Y-2686857D01*
X9612744Y-2686857D01*
X9603508Y-2682239D01*
X9594273Y-2673004D01*
X9589655Y-2659148D01*
X9589655Y-2649913D01*
X9594273Y-2636057D01*
X9603508Y-2626822D01*
X9612744Y-2622204D01*
X9626600Y-2622204D01*
X9559175Y-2622204D02*
G01*
X9559175Y-2686857D01*
X9559175Y-2640675D02*
G01*
X9545319Y-2626822D01*
X9536084Y-2622204D01*
X9522228Y-2622204D01*
X9512993Y-2626822D01*
X9508375Y-2640675D01*
X9508375Y-2686857D01*
X9508375Y-2640675D02*
G01*
X9494519Y-2626822D01*
X9485284Y-2622204D01*
X9471428Y-2622204D01*
X9462193Y-2626822D01*
X9457575Y-2640675D01*
X9457575Y-2686857D01*
X9427095Y-2649913D02*
G01*
X9371675Y-2649913D01*
X9371675Y-2640675D01*
X9376295Y-2631439D01*
X9380913Y-2626822D01*
X9390148Y-2622204D01*
X9404004Y-2622204D01*
X9413239Y-2626822D01*
X9422475Y-2636057D01*
X9427095Y-2649913D01*
X9427095Y-2659148D01*
X9422475Y-2673004D01*
X9413239Y-2682239D01*
X9404004Y-2686857D01*
X9390148Y-2686857D01*
X9380913Y-2682239D01*
X9371675Y-2673004D01*
X9327342Y-2589875D02*
G01*
X9327342Y-2668384D01*
X9322724Y-2682239D01*
X9313486Y-2686857D01*
X9304251Y-2686857D01*
X9341195Y-2622204D02*
G01*
X9308868Y-2622204D01*
X9273771Y-2649913D02*
G01*
X9218353Y-2649913D01*
X9218353Y-2640675D01*
X9222971Y-2631439D01*
X9227588Y-2626822D01*
X9236824Y-2622204D01*
X9250680Y-2622204D01*
X9259915Y-2626822D01*
X9269153Y-2636057D01*
X9273771Y-2649913D01*
X9273771Y-2659148D01*
X9269153Y-2673004D01*
X9259915Y-2682239D01*
X9250680Y-2686857D01*
X9236824Y-2686857D01*
X9227588Y-2682239D01*
X9218353Y-2673004D01*
X9187873Y-2622204D02*
G01*
X9187873Y-2686857D01*
X9187873Y-2649913D02*
G01*
X9183255Y-2636057D01*
X9174017Y-2626822D01*
X9164782Y-2622204D01*
X9150926Y-2622204D01*
X9049326Y-2589875D02*
G01*
X9049326Y-2686857D01*
X9049326Y-2589875D02*
G01*
X9017000Y-2589875D01*
X9003144Y-2594495D01*
X8993908Y-2603731D01*
X8989291Y-2612966D01*
X8984673Y-2626822D01*
X8984673Y-2649913D01*
X8989291Y-2663766D01*
X8993908Y-2673004D01*
X9003144Y-2682239D01*
X9017000Y-2686857D01*
X9049326Y-2686857D01*
X8898775Y-2622204D02*
G01*
X8898775Y-2686857D01*
X8898775Y-2636057D02*
G01*
X8908011Y-2626822D01*
X8917246Y-2622204D01*
X8931102Y-2622204D01*
X8940337Y-2626822D01*
X8949575Y-2636057D01*
X8954193Y-2649913D01*
X8954193Y-2659148D01*
X8949575Y-2673004D01*
X8940337Y-2682239D01*
X8931102Y-2686857D01*
X8917246Y-2686857D01*
X8908011Y-2682239D01*
X8898775Y-2673004D01*
X8854439Y-2589875D02*
G01*
X8854439Y-2668384D01*
X8849822Y-2682239D01*
X8840584Y-2686857D01*
X8831348Y-2686857D01*
X8868295Y-2622204D02*
G01*
X8835966Y-2622204D01*
X8745451Y-2622204D02*
G01*
X8745451Y-2686857D01*
X8745451Y-2636057D02*
G01*
X8754686Y-2626822D01*
X8763924Y-2622204D01*
X8777777Y-2622204D01*
X8787015Y-2626822D01*
X8796251Y-2636057D01*
X8800868Y-2649913D01*
X8800868Y-2659148D01*
X8796251Y-2673004D01*
X8787015Y-2682239D01*
X8777777Y-2686857D01*
X8763924Y-2686857D01*
X8754686Y-2682239D01*
X8745451Y-2673004D01*
X8714971Y-2589875D02*
G01*
X8714971Y-2686857D01*
X8661400Y-2622204D02*
G01*
X8670635Y-2626822D01*
X8679873Y-2636057D01*
X8684491Y-2649913D01*
X8684491Y-2659148D01*
X8679873Y-2673004D01*
X8670635Y-2682239D01*
X8661400Y-2686857D01*
X8647544Y-2686857D01*
X8638308Y-2682239D01*
X8629073Y-2673004D01*
X8624455Y-2659148D01*
X8624455Y-2649913D01*
X8629073Y-2636057D01*
X8638308Y-2626822D01*
X8647544Y-2622204D01*
X8661400Y-2622204D01*
X8538555Y-2622204D02*
G01*
X8538555Y-2696095D01*
X8543175Y-2709948D01*
X8547793Y-2714566D01*
X8557028Y-2719184D01*
X8570884Y-2719184D01*
X8580119Y-2714566D01*
X8538555Y-2636057D02*
G01*
X8547793Y-2626822D01*
X8557028Y-2622204D01*
X8570884Y-2622204D01*
X8580119Y-2626822D01*
X8589355Y-2636057D01*
X8593975Y-2649913D01*
X8593975Y-2659148D01*
X8589355Y-2673004D01*
X8580119Y-2682239D01*
X8570884Y-2686857D01*
X8557028Y-2686857D01*
X8547793Y-2682239D01*
X8538555Y-2673004D01*
X8452657Y-2622204D02*
G01*
X8452657Y-2696095D01*
X8457275Y-2709948D01*
X8461895Y-2714566D01*
X8471131Y-2719184D01*
X8484984Y-2719184D01*
X8494222Y-2714566D01*
X8452657Y-2636057D02*
G01*
X8461895Y-2626822D01*
X8471131Y-2622204D01*
X8484984Y-2622204D01*
X8494222Y-2626822D01*
X8503457Y-2636057D01*
X8508075Y-2649913D01*
X8508075Y-2659148D01*
X8503457Y-2673004D01*
X8494222Y-2682239D01*
X8484984Y-2686857D01*
X8471131Y-2686857D01*
X8461895Y-2682239D01*
X8452657Y-2673004D01*
X8422177Y-2649913D02*
G01*
X8366760Y-2649913D01*
X8366760Y-2640675D01*
X8371377Y-2631439D01*
X8375995Y-2626822D01*
X8385233Y-2622204D01*
X8399086Y-2622204D01*
X8408324Y-2626822D01*
X8417560Y-2636057D01*
X8422177Y-2649913D01*
X8422177Y-2659148D01*
X8417560Y-2673004D01*
X8408324Y-2682239D01*
X8399086Y-2686857D01*
X8385233Y-2686857D01*
X8375995Y-2682239D01*
X8366760Y-2673004D01*
X8336280Y-2622204D02*
G01*
X8336280Y-2686857D01*
X8336280Y-2649913D02*
G01*
X8331662Y-2636057D01*
X8322424Y-2626822D01*
X8313188Y-2622204D01*
X8299335Y-2622204D01*
D40*
X6778637Y-2768854D02*
G01*
X6778637Y-2816605D01*
X6794385Y-2768854D02*
G01*
X6762635Y-2768854D01*
X6747649Y-2768854D02*
G01*
X6747649Y-2816605D01*
X6747649Y-2768854D02*
G01*
X6727329Y-2768854D01*
X6720471Y-2771139D01*
X6718185Y-2773426D01*
X6715899Y-2777997D01*
X6715899Y-2784855D01*
X6718185Y-2789428D01*
X6720471Y-2791713D01*
X6727329Y-2794000D01*
X6747649Y-2794000D01*
X6678053Y-2768854D02*
G01*
X6700913Y-2800857D01*
X6666877Y-2800857D01*
X6678053Y-2768854D02*
G01*
X6678053Y-2816605D01*
D41*
X13766800Y-468884D02*
G01*
X13766800Y-577850D01*
X13766800Y-468884D02*
G01*
X13699235Y-468884D01*
X13766800Y-520700D02*
G01*
X13725144Y-520700D01*
X13659866Y-494792D02*
G01*
X13659866Y-489712D01*
X13654532Y-479297D01*
X13649451Y-473963D01*
X13639037Y-468884D01*
X13618210Y-468884D01*
X13607796Y-473963D01*
X13602716Y-479297D01*
X13597382Y-489712D01*
X13597382Y-500126D01*
X13602716Y-510539D01*
X13613130Y-526034D01*
X13664946Y-577850D01*
X13592301Y-577850D01*
X15266403Y-392429D02*
G01*
X15183345Y-392429D01*
X15167597Y-397763D01*
X15162517Y-402844D01*
X15157437Y-413257D01*
X15157437Y-423671D01*
X15162517Y-434086D01*
X15167597Y-439420D01*
X15183345Y-444500D01*
X15193759Y-444500D01*
X15240495Y-353060D02*
G01*
X15245575Y-353060D01*
X15255989Y-347979D01*
X15261323Y-342645D01*
X15266403Y-332231D01*
X15266403Y-311404D01*
X15261323Y-300989D01*
X15255989Y-295910D01*
X15245575Y-290829D01*
X15235161Y-290829D01*
X15224747Y-295910D01*
X15209253Y-306323D01*
X15157437Y-358139D01*
X15157437Y-285495D01*
D40*
X3742588Y-1461947D02*
G01*
X3744874Y-1457375D01*
X3749446Y-1452803D01*
X3754018Y-1450517D01*
X3763162Y-1450517D01*
X3767734Y-1452803D01*
X3772306Y-1457375D01*
X3774592Y-1461947D01*
X3776624Y-1468805D01*
X3776624Y-1479981D01*
X3774592Y-1486839D01*
X3772306Y-1491411D01*
X3767734Y-1495983D01*
X3763162Y-1498269D01*
X3754018Y-1498269D01*
X3749446Y-1495983D01*
X3744874Y-1491411D01*
X3742588Y-1486839D01*
X3700424Y-1450517D02*
G01*
X3723030Y-1450517D01*
X3725316Y-1471091D01*
X3723030Y-1468805D01*
X3716172Y-1466519D01*
X3709568Y-1466519D01*
X3702710Y-1468805D01*
X3698138Y-1473377D01*
X3695852Y-1479981D01*
X3695852Y-1484553D01*
X3698138Y-1491411D01*
X3702710Y-1495983D01*
X3709568Y-1498269D01*
X3716172Y-1498269D01*
X3723030Y-1495983D01*
X3725316Y-1493697D01*
X3727602Y-1489125D01*
X3813949Y-2246884D02*
G01*
X3816235Y-2242312D01*
X3820807Y-2237739D01*
X3825379Y-2235454D01*
X3834523Y-2235454D01*
X3839095Y-2237739D01*
X3843667Y-2242312D01*
X3845953Y-2246884D01*
X3847985Y-2253742D01*
X3847985Y-2265171D01*
X3845953Y-2272029D01*
X3843667Y-2276347D01*
X3839095Y-2280920D01*
X3834523Y-2283205D01*
X3825379Y-2283205D01*
X3820807Y-2280920D01*
X3816235Y-2276347D01*
X3813949Y-2272029D01*
X3769499Y-2251455D02*
G01*
X3771785Y-2258313D01*
X3776357Y-2262886D01*
X3783215Y-2265171D01*
X3785247Y-2265171D01*
X3792105Y-2262886D01*
X3796677Y-2258313D01*
X3798963Y-2251455D01*
X3798963Y-2249170D01*
X3796677Y-2242312D01*
X3792105Y-2237739D01*
X3785247Y-2235454D01*
X3783215Y-2235454D01*
X3776357Y-2237739D01*
X3771785Y-2242312D01*
X3769499Y-2251455D01*
X3769499Y-2262886D01*
X3771785Y-2274062D01*
X3776357Y-2280920D01*
X3783215Y-2283205D01*
X3787533Y-2283205D01*
X3794391Y-2280920D01*
X3796677Y-2276347D01*
X3813949Y-1789684D02*
G01*
X3816235Y-1785112D01*
X3820807Y-1780539D01*
X3825379Y-1778254D01*
X3834523Y-1778254D01*
X3839095Y-1780539D01*
X3843667Y-1785112D01*
X3845953Y-1789684D01*
X3847985Y-1796542D01*
X3847985Y-1807971D01*
X3845953Y-1814829D01*
X3843667Y-1819147D01*
X3839095Y-1823720D01*
X3834523Y-1826005D01*
X3825379Y-1826005D01*
X3820807Y-1823720D01*
X3816235Y-1819147D01*
X3813949Y-1814829D01*
X3798963Y-1787397D02*
G01*
X3794391Y-1785112D01*
X3787533Y-1778254D01*
X3787533Y-1826005D01*
X3759085Y-1778254D02*
G01*
X3765943Y-1780539D01*
X3770261Y-1787397D01*
X3772547Y-1798828D01*
X3772547Y-1805686D01*
X3770261Y-1816862D01*
X3765943Y-1823720D01*
X3759085Y-1826005D01*
X3754513Y-1826005D01*
X3747655Y-1823720D01*
X3743083Y-1816862D01*
X3740797Y-1805686D01*
X3740797Y-1798828D01*
X3743083Y-1787397D01*
X3747655Y-1780539D01*
X3754513Y-1778254D01*
X3759085Y-1778254D01*
X4154982Y-433349D02*
G01*
X4157268Y-428777D01*
X4161840Y-424205D01*
X4166412Y-421919D01*
X4175302Y-421919D01*
X4179874Y-424205D01*
X4184446Y-428777D01*
X4186732Y-433349D01*
X4189018Y-440207D01*
X4189018Y-451637D01*
X4186732Y-458495D01*
X4184446Y-462813D01*
X4179874Y-467385D01*
X4175302Y-469671D01*
X4166412Y-469671D01*
X4161840Y-467385D01*
X4157268Y-462813D01*
X4154982Y-458495D01*
X4139996Y-431063D02*
G01*
X4135424Y-428777D01*
X4128566Y-421919D01*
X4128566Y-469671D01*
X4113580Y-431063D02*
G01*
X4109008Y-428777D01*
X4102150Y-421919D01*
X4102150Y-469671D01*
X4155503Y-660412D02*
G01*
X4155503Y-708164D01*
X4155503Y-708164D02*
G01*
X4128325Y-708164D01*
X4113339Y-669556D02*
G01*
X4108767Y-667270D01*
X4101909Y-660412D01*
X4101909Y-708164D01*
X4779876Y-1239441D02*
G01*
X4779876Y-1287193D01*
X4779876Y-1239441D02*
G01*
X4759556Y-1239441D01*
X4752698Y-1241727D01*
X4750412Y-1244013D01*
X4748126Y-1248585D01*
X4748126Y-1253157D01*
X4750412Y-1257729D01*
X4752698Y-1260015D01*
X4759556Y-1262301D01*
X4779876Y-1262301D01*
X4764128Y-1262301D02*
G01*
X4748126Y-1287193D01*
X4728568Y-1239441D02*
G01*
X4703676Y-1239441D01*
X4717138Y-1257729D01*
X4710534Y-1257729D01*
X4705962Y-1260015D01*
X4703676Y-1262301D01*
X4701390Y-1269159D01*
X4701390Y-1273731D01*
X4703676Y-1280335D01*
X4708248Y-1284907D01*
X4715106Y-1287193D01*
X4721710Y-1287193D01*
X4728568Y-1284907D01*
X4730854Y-1282621D01*
X4733140Y-1278049D01*
X4779876Y-1009441D02*
G01*
X4779876Y-1057193D01*
X4779876Y-1009441D02*
G01*
X4759556Y-1009441D01*
X4752698Y-1011727D01*
X4750412Y-1014013D01*
X4748126Y-1018585D01*
X4748126Y-1023157D01*
X4750412Y-1027729D01*
X4752698Y-1030015D01*
X4759556Y-1032301D01*
X4779876Y-1032301D01*
X4764128Y-1032301D02*
G01*
X4748126Y-1057193D01*
X4710534Y-1009441D02*
G01*
X4733140Y-1041445D01*
X4699104Y-1041445D01*
X4710534Y-1009441D02*
G01*
X4710534Y-1057193D01*
X4777625Y-1765566D02*
G01*
X4777625Y-1813318D01*
X4777625Y-1765566D02*
G01*
X4757305Y-1765566D01*
X4750447Y-1767852D01*
X4748161Y-1770138D01*
X4745875Y-1774710D01*
X4745875Y-1779282D01*
X4748161Y-1783854D01*
X4750447Y-1786140D01*
X4757305Y-1788426D01*
X4777625Y-1788426D01*
X4761877Y-1788426D02*
G01*
X4745875Y-1813318D01*
X4703711Y-1765566D02*
G01*
X4726317Y-1765566D01*
X4728603Y-1786140D01*
X4726317Y-1783854D01*
X4719459Y-1781568D01*
X4712855Y-1781568D01*
X4705997Y-1783854D01*
X4701425Y-1788426D01*
X4699139Y-1795284D01*
X4699139Y-1799856D01*
X4701425Y-1806460D01*
X4705997Y-1811032D01*
X4712855Y-1813318D01*
X4719459Y-1813318D01*
X4726317Y-1811032D01*
X4728603Y-1808746D01*
X4730889Y-1804174D01*
X3835285Y-2019554D02*
G01*
X3835285Y-2067305D01*
X3835285Y-2019554D02*
G01*
X3814965Y-2019554D01*
X3808107Y-2021839D01*
X3805821Y-2024126D01*
X3803535Y-2028697D01*
X3803535Y-2033270D01*
X3805821Y-2037842D01*
X3808107Y-2040128D01*
X3814965Y-2042413D01*
X3835285Y-2042413D01*
X3819537Y-2042413D02*
G01*
X3803535Y-2067305D01*
X3761371Y-2026412D02*
G01*
X3763657Y-2021839D01*
X3770515Y-2019554D01*
X3774833Y-2019554D01*
X3781691Y-2021839D01*
X3786263Y-2028697D01*
X3788549Y-2040128D01*
X3788549Y-2051557D01*
X3786263Y-2060447D01*
X3781691Y-2065020D01*
X3774833Y-2067305D01*
X3772547Y-2067305D01*
X3765943Y-2065020D01*
X3761371Y-2060447D01*
X3759085Y-2053844D01*
X3759085Y-2051557D01*
X3761371Y-2044700D01*
X3765943Y-2040128D01*
X3772547Y-2037842D01*
X3774833Y-2037842D01*
X3781691Y-2040128D01*
X3786263Y-2044700D01*
X3788549Y-2051557D01*
X3929862Y-969467D02*
G01*
X3929862Y-1003757D01*
X3927830Y-1010361D01*
X3923258Y-1014933D01*
X3916400Y-1017219D01*
X3911828Y-1017219D01*
X3904970Y-1014933D01*
X3900398Y-1010361D01*
X3898112Y-1003757D01*
X3898112Y-969467D01*
X3860520Y-969467D02*
G01*
X3883126Y-1001471D01*
X3849090Y-1001471D01*
X3860520Y-969467D02*
G01*
X3860520Y-1017219D01*
D41*
X5041900Y-316484D02*
G01*
X5041900Y-394462D01*
X5036819Y-409955D01*
X5026405Y-420370D01*
X5010657Y-425450D01*
X5000244Y-425450D01*
X4984750Y-420370D01*
X4974335Y-409955D01*
X4969255Y-394462D01*
X4969255Y-316484D01*
X4862068Y-316484D02*
G01*
X4914137Y-425450D01*
X4934966Y-316484D02*
G01*
X4862068Y-316484D01*
X12827000Y-583184D02*
G01*
X12827000Y-661162D01*
X12821919Y-676655D01*
X12811505Y-687070D01*
X12795758Y-692150D01*
X12785344Y-692150D01*
X12769850Y-687070D01*
X12759435Y-676655D01*
X12754355Y-661162D01*
X12754355Y-583184D01*
X12714732Y-609092D02*
G01*
X12714732Y-604012D01*
X12709651Y-593597D01*
X12704318Y-588263D01*
X12693903Y-583184D01*
X12673330Y-583184D01*
X12662916Y-588263D01*
X12657582Y-593597D01*
X12652501Y-604012D01*
X12652501Y-614426D01*
X12657582Y-624839D01*
X12667996Y-640334D01*
X12720066Y-692150D01*
X12647168Y-692150D01*
G36*
X14213687Y-462330D02*
G01*
X14213687Y-528269D01*
X14299996Y-528269D01*
X14299996Y-462330D01*
G37*
G36*
X14213687Y-208330D02*
G01*
X14213687Y-274269D01*
X14299996Y-274269D01*
X14299996Y-208330D01*
G37*
G36*
X14529003Y-462330D02*
G01*
X14529003Y-528269D01*
X15072969Y-528269D01*
X15148966Y-506272D01*
X15148966Y-484327D01*
X15072969Y-462330D01*
G37*
G36*
X14529003Y-208330D02*
G01*
X14529003Y-274269D01*
X15072969Y-274269D01*
X15148966Y-252272D01*
X15148966Y-230327D01*
X15072969Y-208330D01*
G37*
D42*
X13398500Y-368300D02*
G01*
X13398500Y-88900D01*
X13931900Y-368300D02*
G01*
X13931900Y-88900D01*
D41*
X13754100Y-63500D02*
G01*
X13893800Y-63500D01*
X13893800Y-393700D02*
G01*
X13755461Y-393700D01*
X13576300Y-63500D02*
G01*
X13436600Y-63500D01*
X13436600Y-393700D02*
G01*
X13574938Y-393700D01*
X14329994Y-114300D02*
G01*
X14299996Y-144297D01*
X14529003Y-144297D01*
X14499005Y-114300D01*
X14329994Y-114300D01*
X14329994Y-368300D01*
X14499005Y-368300D01*
X14499005Y-622300D01*
X14529003Y-592302D01*
X14529003Y-398297D01*
X14499005Y-368300D01*
X14529003Y-338302D01*
X14299996Y-338302D01*
X14299996Y-144297D01*
X14329994Y-622300D02*
G01*
X14329994Y-368300D01*
X14299996Y-398297D01*
X14299996Y-592302D01*
X14329994Y-622300D01*
X14499005Y-622300D01*
X14529003Y-592302D02*
G01*
X14299996Y-592302D01*
X14529003Y-398297D02*
G01*
X14299996Y-398297D01*
X14529003Y-338302D02*
G01*
X14529003Y-144297D01*
X14299996Y-338302D02*
G01*
X14329994Y-368300D01*
X14499005Y-368300D02*
G01*
X14499005Y-114300D01*
X14529003Y-528294D02*
G01*
X15072994Y-528294D01*
X15148991Y-506298D01*
X15148991Y-484301D01*
X15072994Y-462305D01*
X14529003Y-462305D01*
X14529003Y-528294D01*
X14529003Y-274294D02*
G01*
X15072994Y-274294D01*
X15148991Y-252298D01*
X15148991Y-230301D01*
X15072994Y-208305D01*
X14529003Y-208305D01*
X14529003Y-274294D01*
D10*
X3813802Y-1069596D02*
G01*
X3653800Y-1069596D01*
X3813802Y-1419603D02*
G01*
X3653797Y-1419600D01*
X3629799Y-1194600D02*
G01*
X3629799Y-1089601D01*
X3837800Y-1194600D02*
G01*
X3837800Y-1089601D01*
X3629799Y-1294599D02*
G01*
X3629799Y-1399598D01*
X3837800Y-1294599D02*
G01*
X3837800Y-1399598D01*
X3815793Y-1419603D02*
G01*
X3813802Y-1419603D01*
X3817795Y-1419603D02*
G01*
X3813802Y-1419603D01*
X3649802Y-1419600D02*
G01*
X3653797Y-1419600D01*
X3817795Y-1069596D02*
G01*
X3813802Y-1069596D01*
X3649804Y-1069596D02*
G01*
X3653800Y-1069596D01*
X3914396Y-2193297D02*
G01*
X3914396Y-2353299D01*
X4264403Y-2193297D02*
G01*
X4264400Y-2353302D01*
X4039400Y-2377300D02*
G01*
X3934401Y-2377300D01*
X4039400Y-2169299D02*
G01*
X3934401Y-2169299D01*
X4139399Y-2377300D02*
G01*
X4244398Y-2377300D01*
X4139399Y-2169299D02*
G01*
X4244398Y-2169299D01*
X4264403Y-2191306D02*
G01*
X4264403Y-2193297D01*
X4264403Y-2189304D02*
G01*
X4264403Y-2193297D01*
X4264400Y-2357297D02*
G01*
X4264400Y-2353302D01*
X3914396Y-2189304D02*
G01*
X3914396Y-2193297D01*
X3914396Y-2357295D02*
G01*
X3914396Y-2353299D01*
X4264403Y-1870702D02*
G01*
X4264403Y-1710700D01*
X3914396Y-1870702D02*
G01*
X3914399Y-1710697D01*
X4139399Y-1686699D02*
G01*
X4244398Y-1686699D01*
X4139399Y-1894700D02*
G01*
X4244398Y-1894700D01*
X4039400Y-1686699D02*
G01*
X3934401Y-1686699D01*
X4039400Y-1894700D02*
G01*
X3934401Y-1894700D01*
X3914396Y-1872693D02*
G01*
X3914396Y-1870702D01*
X3914396Y-1874695D02*
G01*
X3914396Y-1870702D01*
X3914399Y-1706702D02*
G01*
X3914399Y-1710697D01*
X4264403Y-1874695D02*
G01*
X4264403Y-1870702D01*
X4264403Y-1706704D02*
G01*
X4264403Y-1710700D01*
X4061203Y-511802D02*
G01*
X4061203Y-351800D01*
X3711196Y-511802D02*
G01*
X3711199Y-351797D01*
X3936199Y-327799D02*
G01*
X4041198Y-327799D01*
X3936199Y-535800D02*
G01*
X4041198Y-535800D01*
X3836200Y-327799D02*
G01*
X3731201Y-327799D01*
X3836200Y-535800D02*
G01*
X3731201Y-535800D01*
X3711196Y-513793D02*
G01*
X3711196Y-511802D01*
X3711196Y-515795D02*
G01*
X3711196Y-511802D01*
X3711199Y-347802D02*
G01*
X3711199Y-351797D01*
X4061203Y-515795D02*
G01*
X4061203Y-511802D01*
X4061203Y-347804D02*
G01*
X4061203Y-351800D01*
X3936199Y-577799D02*
G01*
X4041198Y-577799D01*
X3936199Y-793800D02*
G01*
X4041198Y-793800D01*
X3836200Y-577799D02*
G01*
X3731201Y-577799D01*
X3836200Y-793800D02*
G01*
X3731201Y-793800D01*
X4064198Y-595802D02*
G01*
X4064198Y-775799D01*
X3708201Y-595802D02*
G01*
X3708201Y-775799D01*
X3731201Y-577799D02*
G01*
X3726202Y-577799D01*
X3708201Y-595800D01*
X4041198Y-577799D02*
G01*
X4046194Y-577799D01*
X4064198Y-595802D01*
X3731201Y-793800D02*
G01*
X3726202Y-793800D01*
X3708201Y-775799D01*
X4041198Y-793800D02*
G01*
X4046197Y-793800D01*
X4064198Y-775799D01*
X4445800Y-1371996D02*
G01*
X4320799Y-1371996D01*
X4445800Y-1168003D02*
G01*
X4320799Y-1168003D01*
X4545799Y-1371996D02*
G01*
X4670800Y-1371996D01*
X4545799Y-1168003D02*
G01*
X4670800Y-1168003D01*
X4320796Y-1371996D02*
G01*
X4320799Y-1168003D01*
X4670800Y-1371996D02*
G01*
X4670800Y-1168003D01*
X4545799Y-914003D02*
G01*
X4670800Y-914003D01*
X4545799Y-1117996D02*
G01*
X4670800Y-1117996D01*
X4445800Y-914003D02*
G01*
X4320799Y-914003D01*
X4445800Y-1117996D02*
G01*
X4320799Y-1117996D01*
X4670803Y-914003D02*
G01*
X4670800Y-1117996D01*
X4320799Y-914003D02*
G01*
X4320799Y-1117996D01*
X4545799Y-1688703D02*
G01*
X4670800Y-1688703D01*
X4545799Y-1892696D02*
G01*
X4670800Y-1892696D01*
X4445800Y-1688703D02*
G01*
X4320799Y-1688703D01*
X4445800Y-1892696D02*
G01*
X4320799Y-1892696D01*
X4670803Y-1688703D02*
G01*
X4670800Y-1892696D01*
X4320799Y-1688703D02*
G01*
X4320799Y-1892696D01*
X4139399Y-1930003D02*
G01*
X4264400Y-1930003D01*
X4139399Y-2133996D02*
G01*
X4264400Y-2133996D01*
X4039400Y-1930003D02*
G01*
X3914399Y-1930003D01*
X4039400Y-2133996D02*
G01*
X3914399Y-2133996D01*
X4264403Y-1930003D02*
G01*
X4264400Y-2133996D01*
X3914399Y-1930003D02*
G01*
X3914399Y-2133996D01*
X3929974Y-1106180D02*
G01*
X4229973Y-1106180D01*
X4229973Y-1106180D02*
G01*
X4229973Y-1406179D01*
X3930253Y-1408440D02*
G01*
X4230253Y-1408440D01*
X3930253Y-1106180D02*
G01*
X3930253Y-1192540D01*
X3930253Y-1322080D02*
G01*
X3930253Y-1408440D01*
X9931400Y-2324100D02*
G01*
X5359400Y-2324100D01*
X5105400Y-2070100D02*
G01*
X5105400Y-292100D01*
X5359400Y-38100D02*
G01*
X9931400Y-38100D01*
X10185400Y-292100D02*
G01*
X10185400Y-2070100D01*
X15367000Y-977900D02*
G01*
X15367000Y-2755900D01*
X10541000Y-723900D02*
G01*
X15113000Y-723900D01*
X10274300Y-2755900D02*
G01*
X10274300Y-977900D01*
X15113000Y-3009900D02*
G01*
X10541000Y-3009900D01*
D42*
G75*
G01*
X13665200Y-228600D02*
G03*
X13665200Y-266700I0J-19050D01*
G75*
G01*
X13665200Y-228600D02*
G03*
X13665200Y-190500I0J19050D01*
D10*
G75*
G01*
X3837800Y-1399598D02*
G02*
X3817795Y-1419603I-20005J0D01*
G75*
G01*
X3629800Y-1399598D02*
G03*
X3649802Y-1419601I20002J0D01*
G75*
G01*
X3837800Y-1089602D02*
G03*
X3817795Y-1069597I-20005J0D01*
G75*
G01*
X3629800Y-1089602D02*
G02*
X3649805Y-1069597I20005J0D01*
G75*
G01*
X4244398Y-2169300D02*
G02*
X4264403Y-2189305I0J-20005D01*
G75*
G01*
X4244398Y-2377300D02*
G03*
X4264401Y-2357298I0J20002D01*
G75*
G01*
X3934402Y-2169300D02*
G03*
X3914397Y-2189305I0J-20005D01*
G75*
G01*
X3934402Y-2377300D02*
G02*
X3914397Y-2357295I0J20005D01*
G75*
G01*
X3934402Y-1894700D02*
G02*
X3914397Y-1874695I0J20005D01*
G75*
G01*
X3934402Y-1686700D02*
G03*
X3914399Y-1706702I0J-20002D01*
G75*
G01*
X4244398Y-1894700D02*
G03*
X4264403Y-1874695I0J20005D01*
G75*
G01*
X4244398Y-1686700D02*
G02*
X4264403Y-1706705I0J-20005D01*
G75*
G01*
X3731202Y-535800D02*
G02*
X3711197Y-515795I0J20005D01*
G75*
G01*
X3731202Y-327800D02*
G03*
X3711199Y-347802I0J-20002D01*
G75*
G01*
X4041198Y-535800D02*
G03*
X4061203Y-515795I0J20005D01*
G75*
G01*
X4041198Y-327800D02*
G02*
X4061203Y-347805I0J-20005D01*
G75*
G01*
X3930254Y-1322080D02*
G03*
X3930254Y-1192540I0J64770D01*
G75*
G01*
X5359410Y-2324100D02*
G02*
X5105410Y-2070100I0J253999D01*
G75*
G01*
X5105410Y-292105D02*
G02*
X5359410Y-38105I254000J0D01*
G75*
G01*
X9931400Y-38105D02*
G02*
X10185400Y-292105I1J-254000D01*
G75*
G01*
X10185400Y-2070100D02*
G02*
X9931400Y-2324100I-253999J-1D01*
G75*
G01*
X15367000Y-2755900D02*
G02*
X15113000Y-3009900I-253999J-1D01*
G75*
G01*
X15113000Y-723905D02*
G02*
X15367000Y-977905I1J-254000D01*
G75*
G01*
X10274300Y-977900D02*
G02*
X10528300Y-723900I253999J1D01*
G75*
G01*
X10528300Y-3009900D02*
G02*
X10274300Y-2755900I-1J253999D01*
M02*
